<svg width="41" height="121" viewBox="0 0 41 121" fill="none" xmlns="http://www.w3.org/2000/svg">
<path d="M35.2159 40.3085C36.6159 41.3043 37.9159 39.0139 36.5159 38.0181C23.0159 28.6574 12.6159 15.5126 6.11589 0.376198C5.81589 -0.420456 4.41589 0.177034 4.71589 0.973688C10.8159 16.8072 21.5159 30.3503 35.2159 40.3085Z" fill="#DEC5BB"/>
<path d="M32.1159 52.6564C33.8159 53.6522 35.2159 51.1627 33.6159 50.0673C19.8159 40.9059 8.61591 29.1554 1.91591 13.8199C1.41591 12.5254 -0.484086 13.6208 0.115914 14.9153C6.71591 30.1512 17.6159 44.192 32.1159 52.6564Z" fill="#DEC5BB"/>
<path d="M35.1159 67.4942C36.8159 68.0917 37.9159 65.403 36.3159 64.6063C22.1159 58.1335 10.3159 48.4741 3.81591 33.8356C3.21591 32.541 1.31591 33.6364 1.91591 34.9309C8.21591 49.2707 20.1159 62.2164 35.1159 67.4942Z" fill="#DEC5BB"/>
<path d="M35.7159 81.9336C23.8159 75.162 13.5159 65.9009 5.51595 54.7478C4.61595 53.4532 2.51595 54.6482 3.41595 55.9427C11.4159 67.6934 21.8159 77.4524 34.1159 84.6223C35.9159 85.7177 37.6159 82.9294 35.7159 81.9336Z" fill="#DEC5BB"/>
<path d="M38.6159 102.347C26.7159 95.7751 16.7159 88.207 9.21591 76.6555C8.41591 75.4606 6.61591 76.556 7.31591 77.7509C14.2159 89.1032 24.7159 99.6588 37.1159 105.036C38.8159 105.833 40.4159 103.343 38.6159 102.347Z" fill="#DEC5BB"/>
<path d="M40.0159 117.783C28.0159 111.808 17.5159 104.14 8.71592 93.9828C7.81592 92.987 6.41592 94.3811 7.21592 95.4765C15.6159 105.933 26.1159 114.795 38.3159 120.671C40.3159 121.666 42.0159 118.779 40.0159 117.783Z" fill="#DEC5BB"/>
</svg>
