<svg width="217" height="338" viewBox="0 0 217 338" fill="none" xmlns="http://www.w3.org/2000/svg">
<path d="M138.913 165.683C138.87 165.57 138.87 165.57 138.913 165.683C140.236 162.076 139.719 157.367 139.59 153.671C139.402 149.482 138.833 145.31 137.771 141.197C136.882 137.535 135.95 133.76 134.387 130.356C133.196 127.584 131.201 124.733 128.108 123.723C126.951 123.392 125.914 124.048 125.896 125.346C125.843 129.241 125.367 133.039 125.539 136.847C125.71 140.656 126.193 144.603 126.857 148.352C127.927 153.494 129.438 159.114 133.117 162.998C126.301 159.671 119.875 155.678 113.837 151.019C114.511 149.082 114.59 146.598 114.746 144.989C115.196 141.459 115.534 137.971 115.716 134.415C116.116 126.384 115.6 118.317 114.254 110.439C113.961 109.002 112.181 108.393 111.205 109.542C102.32 120.309 104.096 134.35 108.309 146.682C101.174 140.507 94.7659 133.537 89.2819 125.954C89.0401 125.659 88.9106 125.322 88.6688 125.027C88.8763 124.56 88.8159 124.067 88.3754 123.59C88.3754 123.59 88.3323 123.477 88.22 123.52C87.9869 122.577 87.8663 121.59 87.6333 120.646C91.748 112.224 94.1782 102.769 94.5955 93.4405C94.8215 88.3175 94.5551 83.2542 93.6839 78.2936C92.7263 73.1079 91.4666 67.134 87.9688 63.0513C87.0446 61.9851 85.5413 62.4324 85.1435 63.7471C81.0358 78.2358 76.9276 94.4033 79.5152 109.553C74.1102 97.808 70.5715 85.218 69.1581 72.4587C75.4757 64.7419 78.5284 53.8862 79.9566 44.1699C81.679 32.5329 81.1726 20.459 80.3032 8.78263C80.3724 8.62698 80.5107 8.31567 80.5799 8.16002C81.5653 6.36171 78.6109 5.04081 77.6256 6.83912C68.7566 24.7029 64.5955 44.7648 65.4885 64.5678C63.1663 57.8391 60.1271 51.2561 57.2173 45.0109C52.7619 35.7425 47.6757 26.8451 41.9587 18.3186C41.3456 17.3914 39.5312 17.6997 39.4704 18.8852C38.0845 32.072 40.137 45.4901 45.5592 57.6163C47.6832 62.484 50.4379 66.9807 54.2987 70.6659C57.5204 73.6922 62.0208 76.3574 66.5825 76.1581C67.0481 79.7246 67.7814 83.3175 68.5148 86.9105C69.8437 92.7287 71.7773 98.4441 74.0048 103.918C65.7313 92.7557 56.2825 82.5608 41.9764 79.5227C40.7065 79.2348 39.704 80.6523 40.1356 81.7782C43.6404 91.9276 50.8608 100.007 59.0406 106.556C67.4621 113.4 77.4739 118.342 85.5325 125.584C85.7483 126.147 85.8087 126.64 86.0245 127.203C86.2835 127.879 86.9055 128.157 87.5534 128.166C91.6125 133.713 96.1899 138.931 101.243 143.709C88.0348 137.151 73.1239 134.215 58.4451 135.582C56.8122 135.691 56.7166 137.794 57.9345 138.619C69.3109 145.104 81.4048 149.765 94.2424 152.333C97.4733 153.032 100.73 153.462 103.987 153.892C106.553 154.199 110.561 155.245 112.687 153.397L112.756 153.241C117.758 156.877 123.01 160.158 128.469 162.972C121.911 163.678 115.63 165.441 109.625 168.26C106.566 169.691 103.594 171.347 100.708 173.228C97.9338 175.067 94.9354 176.991 92.6884 179.531C91.0551 181.32 90.6828 184.045 93.1707 185.158C95.3907 186.243 98.6825 185.756 101.032 185.501C106.717 184.871 112.109 182.804 116.931 179.922C122.564 176.471 127.369 171.529 130.689 165.737C130.896 165.27 130.948 164.733 130.663 164.326C137.323 167.584 144.26 170.219 151.43 172.119C152.588 172.45 152.925 170.641 151.768 170.31C147.517 168.97 143.068 167.447 138.913 165.683ZM90.9793 79.9763C91.7642 84.7117 91.9443 89.5498 91.5887 94.3351C91.1376 101.223 89.5288 107.78 87.0303 114.033C86.8326 110.493 86.8595 106.867 87.0419 103.31C87.4587 95.6603 88.2988 88.1065 88.491 80.5429C88.4826 79.513 86.6511 79.4404 86.6594 80.4703C86.1043 88.4313 84.9012 96.3825 84.2338 104.387C83.9131 108.255 83.7478 112.192 84.0059 116.226C83.9627 116.113 83.9196 116 83.7641 115.931C83.7209 115.818 83.6086 115.861 83.5654 115.749C79.2674 99.834 82.9782 83.3022 87.4146 67.6545C89.487 71.3797 90.3411 75.9594 90.9793 79.9763ZM77.6061 14.8531C77.9923 24.2612 78.3784 33.6692 77.2009 43.0312C76.5516 48.0582 75.4789 52.9892 73.7151 57.7979C72.4355 61.5169 70.7585 64.8717 68.8137 68.2001C68.4438 62.5308 68.454 56.8449 68.8443 51.1423C69.729 38.6642 72.713 26.2852 77.6061 14.8531ZM55.5004 67.7516C51.9074 64.0928 49.4205 59.6226 47.3829 54.9801C43.2041 45.089 41.2718 34.3367 41.7759 23.5542C46.5255 30.9019 50.9122 38.647 54.6942 46.4948C56.801 50.9817 58.7954 55.5116 60.6344 59.972C61.6704 62.6741 62.7064 65.3762 63.63 68.1214C56.4269 60.423 50.5544 51.827 46.6434 41.9624C46.2118 40.8366 44.4146 41.5256 44.8462 42.6515C48.7396 53.8142 55.1212 64.4103 63.793 72.5787C60.7867 71.7943 58.0138 70.2747 55.5004 67.7516ZM62.7733 104.867C55.2758 99.0889 48.418 92.2912 44.5585 83.5691C55.8407 87.1208 63.9248 95.7728 70.9461 105.349C65.9968 101.177 61.0475 97.0051 56.1674 92.6776C55.3296 91.8366 54.2147 93.2971 55.0525 94.1381C62.135 100.85 69.2867 107.406 76.7322 113.72C77.0172 114.127 77.3453 114.647 77.6303 115.054C77.0775 114.62 76.4555 114.342 75.9027 113.909C71.4715 111.088 66.997 108.154 62.7733 104.867ZM129.476 146.444C128.984 143.146 128.605 139.804 128.563 136.334C128.442 133.668 128.461 130.691 128.677 127.896C130.267 129.353 131.199 131.449 131.976 133.475C133.116 136.783 134.074 140.29 134.764 143.771C135.411 147.138 135.833 150.592 135.988 154.02C136.039 155.162 136.091 156.305 136.03 157.49C135.581 155.984 135.201 154.321 134.865 152.771C134.045 148.953 133.226 145.135 132.561 141.387C132.397 140.287 130.652 140.44 130.816 141.539C131.299 145.486 131.894 149.391 132.714 153.209C133.171 155.745 133.585 158.169 134.154 160.663C131.417 156.547 130.304 151.292 129.476 146.444ZM111.618 115.324C112.532 122.076 112.798 128.819 112.571 135.621C112.484 138.753 112.129 141.86 111.618 144.896C108.399 135.154 106.691 124.316 111.618 115.324ZM101.578 150.296C88.5068 148.463 75.7993 144.554 64.1723 138.422C77.8745 138.205 91.4635 141.389 103.669 147.686C101.665 147.163 99.704 146.753 97.6998 146.23C93.1558 145.131 88.4994 144.075 83.9985 143.089C82.8409 142.758 82.6158 144.523 83.6611 144.897C88.136 146.151 92.6109 147.406 97.0857 148.66C99.2454 149.253 101.405 149.845 103.565 150.438C102.917 150.428 102.269 150.418 101.578 150.296ZM97.9231 182.431C97.0073 182.395 94.2512 182.935 95.1414 181.561C96.2132 179.988 98.3302 178.789 99.6869 177.623C102.487 175.516 105.442 173.479 108.57 171.893C112.735 169.65 117.115 167.971 121.669 166.741C121.263 167.026 120.787 167.467 120.381 167.752C118.981 168.805 117.426 169.789 115.983 170.729C113.054 172.498 109.969 174.197 106.798 175.671C105.718 176.215 106.322 177.791 107.445 177.36C110.858 176.181 114.072 174.819 117.269 173.077C118.868 172.206 120.354 171.378 121.91 170.394C122.722 169.824 123.69 169.324 124.502 168.754C117.96 176.557 108.386 182.165 97.9231 182.431Z" fill="#C59C85"/>
<path d="M69.4846 198.288C67.1652 198.321 66.5352 199.809 66.5484 201.413C66.3758 201.154 66.2947 200.92 66.1195 200.714C65.5205 199.704 64.5083 197.679 62.5889 197.123C60.2118 196.447 60.8345 198.85 61.1693 199.578C61.3367 199.942 61.5956 200.33 61.8545 200.718C60.3377 199.52 58.6274 198.486 56.3523 197.624C56.1693 197.576 55.9836 197.581 55.9784 197.686C55.9027 199.213 57.5922 200.669 59.6634 201.904C57.0222 200.946 54.2503 200.754 51.5387 201.218C51.353 201.223 51.3452 201.381 51.523 201.534C53.5105 202.587 55.511 203.378 57.6135 203.981C57.0565 203.995 56.5911 204.034 56.0341 204.048C56.0315 204.1 56.0263 204.206 56.0237 204.258C55.9295 204.287 55.9295 204.287 55.9269 204.34C55.9243 204.392 55.9243 204.392 55.9217 204.445C55.9191 204.498 56.0054 204.627 56.0969 204.651C59.4521 206.169 64.1121 207.549 66.8472 206.611C66.9387 206.635 67.1218 206.683 67.2133 206.707C67.9849 207.976 69.0336 209.263 70.0824 210.551C70.0772 210.657 70.1635 210.786 70.2498 210.915C70.3387 210.992 70.4302 211.016 70.4302 211.016C71.3979 212.069 72.3655 213.122 73.4247 214.199C72.1668 213.39 70.4409 212.672 69.1387 212.758C68.953 212.762 68.9478 212.868 69.0341 212.997C70.2816 214.017 72.1853 214.888 73.8485 215.004C74.0289 215.104 74.3009 215.229 74.4813 215.329C74.5728 215.353 74.5728 215.353 74.5728 215.353C77.7582 218.427 81.4065 221.515 84.6912 224.455C84.6886 224.508 84.7775 224.584 84.7749 224.637C84.7723 224.69 84.8638 224.714 84.9553 224.738C85.3999 225.121 85.753 225.48 86.1087 225.786C86.5506 226.222 86.9926 226.658 87.5313 227.012C87.887 227.318 88.1512 227.601 88.5094 227.855C85.4523 225.934 81.9141 224.368 78.3707 222.908C76.4643 222.089 74.4664 221.246 72.4685 220.403C72.3089 219.881 71.506 219.244 70.881 218.761C70.2559 218.277 69.4426 217.851 68.5274 217.611C68.2528 217.539 68.1535 217.673 68.2398 217.803C68.6765 218.344 69.3905 218.904 70.107 219.412C67.288 218.3 64.5579 217.266 61.7258 216.418C61.8225 216.337 61.8277 216.231 61.6499 216.078C61.4721 215.925 61.2001 215.8 61.0223 215.647C60.7529 215.47 60.4809 215.345 60.2116 215.168C59.2254 212.617 54.9443 209.203 50.8754 208.991C50.5983 208.972 50.6794 209.207 50.9565 209.226C54.7456 209.471 57.6669 212.262 59.2204 214.589C58.8595 214.388 58.4097 214.11 57.9573 213.885C57.8684 213.808 57.688 213.708 57.5049 213.66C57.4134 213.636 57.4134 213.636 57.3219 213.612C55.4807 211.477 51.6887 209.418 48.3834 208.766C48.2003 208.718 48.1036 208.799 48.101 208.852C48.3417 209.608 49.1445 210.245 50.0415 210.853C48.7628 210.465 47.4788 210.183 46.3805 209.895C46.1974 209.847 46.1007 209.929 46.0955 210.034C46.7781 211.226 48.2086 212.294 49.932 213.065C49.0952 213.112 46.0149 213.533 47.733 214.409C47.4558 214.39 47.0871 214.347 46.8125 214.275C46.5379 214.203 46.4386 214.337 46.6164 214.49C48.6511 216.463 55.6123 218.178 57.8008 217.044C57.3982 217.685 56.7236 218.202 55.6881 218.518C55.0292 218.719 54.1009 218.743 53.183 218.556C52.0795 218.374 51.1851 217.713 50.2829 217.21C50.194 217.133 50.0057 217.191 50.0946 217.267C51.2349 218.579 53.4315 219.154 55.1051 219.059C56.9643 218.959 58.1252 217.982 58.2741 216.848C58.2767 216.795 58.2767 216.795 58.1852 216.771C58.2819 216.69 58.2871 216.585 58.3839 216.503C59.1213 216.59 59.8587 216.676 60.5936 216.815C60.9597 216.911 61.0668 216.619 60.7033 216.47C60.7059 216.418 60.7059 216.418 60.617 216.341C65.9125 217.994 71.5584 220.058 76.9115 222.419C74.9057 221.734 72.8922 221.207 70.7766 220.867C66.088 220.066 63.9596 221.856 59.964 222.037C59.7784 222.042 59.8595 222.277 60.1366 222.296C64.6527 222.838 69.2134 224.351 73.8079 225.18C78.6744 226.134 82.5863 225.771 87.5968 227.562C88.771 228.19 89.851 228.846 90.9311 229.502C93.3449 231.307 95.947 233.055 98.6484 234.668C95.0659 233.997 91.4859 233.274 88.0001 232.521C86.567 231.506 84.4775 230.64 82.7281 230.395C82.4509 230.376 82.4431 230.534 82.6236 230.634C82.9792 230.941 83.4238 231.324 84.0567 231.649C79.7445 230.734 75.435 229.766 71.128 228.746C70.0297 228.458 69.0203 228.248 67.922 227.96C66.5909 226.758 64.1432 225.638 62.2185 225.187C61.9439 225.116 61.8446 225.25 62.0224 225.403C62.7311 226.068 63.7223 226.648 64.7186 227.122C63.3457 226.762 61.8839 226.327 60.511 225.967C60.511 225.967 60.511 225.967 60.4195 225.943C52.2867 223.548 44.8964 219.267 38.2513 214.915C33.3139 211.649 29.3256 207.938 23.7162 205.137C24.6341 205.324 25.5467 205.616 26.36 206.042C27.4505 206.488 28.4469 206.962 29.5347 207.46C32.6179 208.853 35.5024 210.515 38.1986 212.234C42.783 215.141 46.1358 218.578 50.3436 221.6C50.524 221.7 50.7149 221.59 50.5345 221.489C42.8091 214.614 33.6036 207.671 21.6372 204.059C21.3626 203.988 21.2607 204.174 21.4411 204.275C25.9078 207.684 29.3417 211.356 33.9967 214.708C38.5628 217.983 44.6429 220.641 50.3908 222.519C50.4823 222.543 50.5764 222.514 50.5791 222.461C51.7558 223.036 52.9353 223.558 54.1173 224.027C46.9024 221.819 39.7005 219.347 32.4934 216.981C31.246 215.961 29.5331 214.98 27.8934 214.391C27.7104 214.343 27.611 214.477 27.6084 214.529C27.9563 214.994 28.4009 215.377 29.0285 215.808C27.2032 215.223 25.3779 214.639 23.4611 214.031C23.3721 213.954 23.3748 213.901 23.1891 213.906C23.0976 213.882 23.0034 213.911 22.9119 213.887C22.7289 213.839 22.5458 213.791 22.3628 213.743C21.8579 212.704 20.5242 211.555 18.8845 210.966C18.8871 210.913 18.7982 210.837 18.8008 210.784C21.6483 209.449 18.4942 205.744 18.9751 203.523C18.9829 203.365 18.711 203.24 18.5279 203.192C16.0437 202.809 15.4189 204.192 15.4478 205.48C13.9519 203.861 11.7839 202.707 9.53229 201.371C9.35185 201.271 9.07466 201.252 9.06684 201.41C8.82119 202.625 8.75598 203.942 10.0819 205.249C8.63055 204.602 7.07722 204.142 5.6965 203.941C5.60498 203.917 5.50823 203.998 5.59715 204.075C5.85869 204.41 5.85608 204.463 5.945 204.539C5.12648 204.219 5.048 203.931 4.40471 203.816C4.31318 203.792 4.12752 203.797 4.12491 203.85C3.4112 205.156 5.10324 206.559 7.17965 207.689C5.61588 207.44 4.0469 207.296 2.48574 206.994C2.30269 206.946 2.20334 207.08 2.29226 207.157C2.94361 208.981 5.67113 210.068 8.32277 210.815C6.10007 210.767 4.04737 211.03 2.35296 211.546C2.16469 211.604 2.24839 211.786 2.43144 211.834C5.33158 213.179 8.25519 214.051 10.9355 214.219C9.42938 214.679 8.18999 215.368 7.31409 216.205C7.21735 216.286 7.39257 216.492 7.58084 216.435C10.3657 216.364 13.4802 217.125 16.1867 216.767C17.4941 216.576 18.4537 215.92 19.3192 215.293C20.0566 215.38 20.7966 215.413 21.4503 215.318C22.1067 215.17 22.865 214.835 22.7995 214.284C27.9067 215.994 33.0087 217.809 38.1159 219.519C36.8241 219.395 35.5297 219.323 34.1516 219.069C35.1688 219.121 36.1756 219.385 37.2843 219.462C37.47 219.457 37.3837 219.328 37.2921 219.304C35.8303 218.868 34.1724 218.647 32.9565 218.862C32.7683 218.92 32.7604 219.078 33.035 219.15C35.046 219.729 37.0778 219.888 38.8429 219.816C44.1305 221.627 49.4208 223.385 54.8103 225.009C54.3423 225.099 53.9631 225.267 53.9475 225.583C53.9423 225.688 54.1227 225.789 54.2142 225.813C55.5871 226.172 56.9757 226.215 58.1812 226.211C58.3668 226.206 58.7355 226.249 58.9238 226.192C61.6617 227.068 64.316 227.763 67.0618 228.482C69.533 229.128 72.0068 229.723 74.3891 230.293C73.3719 230.24 72.4383 230.369 71.6879 230.546C71.4996 230.603 71.5807 230.838 71.8553 230.91C74.2428 231.374 76.5544 231.499 78.6045 231.289L78.6986 231.261C85.8507 232.866 92.919 234.289 100.084 235.631C100.353 235.808 100.714 236.009 100.986 236.134C94.5404 235.247 88.411 235.456 82.5536 235.79C82.4621 235.766 82.4621 235.766 82.3706 235.742C81.5546 235.368 80.4563 235.081 79.63 234.918C78.6206 234.707 77.5171 234.525 76.764 234.754C76.5757 234.812 76.6594 234.994 76.9314 235.118C77.8388 235.516 78.7541 235.755 79.672 235.942C79.2065 235.98 78.6495 235.995 78.1841 236.033C75.3024 236.185 72.3345 236.209 69.4607 236.203L69.4633 236.151C68.4015 235.126 65.7446 234.484 64.1835 234.182C64.0004 234.134 63.718 234.22 63.9874 234.397C65.1511 235.235 66.6077 235.777 68.1637 236.184C61.2184 236.02 54.1109 235.386 46.7418 234.418C46.5614 234.317 46.3836 234.164 46.1116 234.039C45.7585 233.68 45.2172 233.379 44.7648 233.153C44.6313 232.105 44.1317 230.961 43.4412 229.927C43.0071 229.333 41.2391 227.591 40.3632 228.428C40.2691 228.457 40.3554 228.586 40.5385 228.634C41.2785 228.668 41.6524 228.605 42.2749 229.142C42.8057 229.654 43.1458 230.276 43.491 230.793C43.9173 231.545 44.2495 232.325 44.3961 233.11C43.8913 232.071 42.9314 230.86 41.9559 229.965C40.4548 228.452 38.5745 227.106 36.1111 226.302C35.928 226.254 35.8313 226.335 35.8287 226.388C35.5804 227.656 36.4592 228.633 37.8008 229.624C35.9022 228.647 33.8964 227.962 31.7809 227.622C31.5979 227.574 31.59 227.732 31.6789 227.809C32.9264 228.828 34.1791 229.743 35.7115 230.624C33.6928 230.202 31.6609 230.044 29.7991 230.197C29.705 230.225 29.6082 230.307 29.6972 230.383C31.2088 231.686 33.3897 232.577 35.5916 233.046C34.0043 233.271 32.5975 233.596 31.2901 233.787C31.1044 233.792 31.0992 233.897 31.1855 234.026C33.5104 235.755 36.8158 236.407 39.3339 236.106C38.4606 236.891 37.9508 237.824 37.8202 238.59C37.815 238.695 37.9928 238.848 38.1785 238.843C42.7913 239.304 44.8359 237.332 45.5103 234.949C45.5129 234.896 45.5129 234.896 45.4214 234.872C45.424 234.819 45.5155 234.843 45.5181 234.791C45.5233 234.685 45.3455 234.532 45.2487 234.614C44.9663 234.7 44.6839 234.786 44.31 234.848C44.2185 234.824 44.2185 234.824 44.1269 234.8C44.412 234.661 44.7859 234.599 45.1598 234.537C45.1598 234.537 45.1598 234.537 45.2513 234.561C45.5259 234.633 45.6227 234.551 45.6279 234.446C45.7194 234.47 45.8109 234.494 45.9966 234.489C46.0881 234.513 46.177 234.59 46.177 234.59C46.177 234.59 46.177 234.59 46.2686 234.614C46.5405 234.738 46.8203 234.705 46.8255 234.6C50.3244 235.089 53.7343 235.501 57.1469 235.861C57.1469 235.861 57.1469 235.861 57.1443 235.913C57.1051 236.703 55.9703 237.153 54.5974 236.794C54.8824 236.655 55.17 236.463 55.6355 236.425C56.1036 236.334 56.569 236.296 56.9482 236.129C57.0449 236.047 56.8671 235.894 56.7729 235.923C56.2186 235.884 55.6564 236.004 55.2798 236.119C54.7176 236.238 54.2444 236.434 53.9515 236.731C53.8548 236.813 53.9411 236.942 54.1241 236.99C55.9442 237.679 57.7328 237.134 57.6019 236.033C57.6045 235.98 57.513 235.956 57.513 235.956C62.6801 236.455 67.8578 236.744 72.7739 236.697C71.184 236.974 69.6857 237.276 68.0958 237.553C60.0968 238.073 52.4954 239.924 52.0333 245.51C52.0281 245.615 52.3 245.739 52.3994 245.605C53.6411 242.997 54.9483 240.939 58.447 239.561C60.5257 238.772 63.0491 238.365 65.6614 238.036C59.4772 239.351 54.279 241.35 52.4987 245.471C52.4935 245.577 52.6766 245.625 52.7707 245.596C55.2284 242.772 57.8352 240.681 62.4504 239.222C64.3357 238.595 66.4903 238.146 68.645 237.697C68.645 237.697 68.7365 237.72 68.7391 237.668C66.106 238.419 64.7255 240.084 63.0809 241.467C60.563 243.635 56.4315 244.687 52.4805 245.84C52.3863 245.869 52.5616 246.075 52.6583 245.993C55.8484 245.228 58.8581 244.362 61.4258 243.061C64.4694 241.511 66.0668 239.209 69.1994 237.735C69.2935 237.706 69.2046 237.63 69.2072 237.577C69.2987 237.601 69.3013 237.548 69.3928 237.572C69.4844 237.596 69.487 237.544 69.4896 237.491C70.9879 237.19 72.5778 236.912 74.0761 236.611C80.0172 236.459 85.689 236.13 91.5281 236.165C90.4037 236.404 89.4441 237.06 89.3161 237.773C89.3083 237.931 89.5802 238.055 89.7659 238.051C91.2538 237.96 92.6736 237.371 92.7258 236.318C92.731 236.213 92.6395 236.189 92.4564 236.141C95.5133 236.195 98.7506 236.348 102.072 236.684C103.787 237.613 105.508 238.437 107.32 239.285C105.861 238.796 104.119 238.394 103.079 238.815C102.89 238.872 102.974 239.054 103.246 239.178C104.703 239.72 106.816 240.113 107.948 239.716C108.039 239.739 108.131 239.763 108.222 239.787C108.314 239.811 108.316 239.759 108.316 239.759C110.492 240.755 112.673 241.646 114.948 242.508C115.767 242.829 116.588 243.097 117.406 243.418C115.579 242.886 113.751 242.354 111.829 241.851C107.435 240.701 103.547 240.591 99.3133 239.963C99.0361 239.943 99.0231 240.207 99.295 240.331C107.75 243.717 116.478 245.308 124.71 245.703C131.753 247.652 138.829 248.918 145.743 249.714C141.002 249.966 136.682 251.076 132.642 252.152C131.724 251.965 130.715 251.754 129.794 251.62C126.986 250.298 123.921 248.536 120.958 248.454C120.681 248.435 120.673 248.593 120.943 248.77C121.847 249.22 122.567 249.675 123.377 250.154C121.824 249.694 120.176 249.263 118.712 248.88C118.529 248.832 118.341 248.889 118.427 249.018C119.277 250.574 121.631 251.724 124.104 252.318C122.329 252.6 120.907 253.241 119.845 254.083C119.748 254.164 119.835 254.294 120.109 254.366C122.031 254.869 124.068 254.922 125.742 254.826C125.648 254.855 125.645 254.908 125.553 254.884C124.696 255.353 123.161 256.391 124.403 257.516C126.176 259.154 127.886 258.321 128.964 257.163C128.953 257.374 128.943 257.584 128.932 257.795C129.129 259.446 131.409 260.203 133.634 260.199C133.911 260.218 133.83 259.983 133.65 259.883C130.959 258.059 132.201 255.45 132.645 253.966C132.65 253.861 132.47 253.76 132.373 253.842C131.199 255.081 130.507 257.833 132.821 259.773C131.895 259.744 130.883 259.586 130.172 258.973C129.461 258.36 129.591 257.594 129.712 257.039C129.952 255.928 131.003 255.297 131.604 254.387L131.607 254.335C132.182 253.952 132.577 253.468 132.695 252.966L132.786 252.99C133.063 253.009 133.074 252.798 132.985 252.722C133.079 252.693 133.082 252.64 133.084 252.588C133.267 252.636 133.361 252.607 133.544 252.655C133.822 252.674 133.835 252.411 133.469 252.315C133.377 252.291 133.377 252.291 133.286 252.267C135.445 251.712 137.692 251.287 140.029 250.885C142.835 250.393 145.989 250.365 148.881 250.002C149.158 250.021 149.341 250.069 149.618 250.088C151.001 250.237 152.296 250.309 153.682 250.405C146.598 251.164 139.431 253.609 139.403 257.922C139.395 258.08 139.756 258.281 139.944 258.223C143.607 257.262 148.523 257.215 151.653 255.794C154.216 254.598 155.798 252.612 158.357 251.468C159.105 251.344 159.856 251.167 160.604 251.043C160.698 251.014 160.611 250.885 160.426 250.89C160.24 250.894 160.146 250.923 159.96 250.928C160.334 250.866 160.711 250.751 161.085 250.689C164.047 250.771 166.921 250.776 169.884 250.858C169.787 250.94 169.596 251.05 169.497 251.184C168.566 251.26 167.627 251.494 166.877 251.671C166.032 251.877 165.091 252.164 164.783 252.777C164.683 252.911 164.95 253.14 165.227 253.16C167.727 253.227 169.908 252.251 170.713 250.969C175.247 251.142 179.868 251.444 184.742 252.24C185.566 252.456 186.387 252.724 187.208 252.992C185.182 252.728 183.048 252.757 182.36 253.537C182.261 253.671 182.436 253.877 182.802 253.972C185.467 254.457 188.963 254.998 190.587 254.036C198.529 256.542 206.452 259.415 214.444 262.787C214.716 262.911 214.821 262.672 214.549 262.548C208.759 259.646 202.851 257.246 196.745 255.115C194.802 253.166 190.937 250.714 187.72 250.139C187.537 250.091 187.255 250.178 187.433 250.331C188.748 251.848 190.838 252.715 192.823 253.821C187.621 252.14 182.224 250.674 176.91 249.39C174.857 247.786 171.853 246.68 169.214 245.669C168.942 245.545 168.66 245.631 168.835 245.837C169.185 246.248 171.071 247.489 172.878 248.442C172.512 248.346 172.146 248.25 171.685 248.183C166.665 246.602 161.738 244.993 156.908 243.302C153.071 240.271 148.667 237.465 144.452 234.602C138.353 230.446 132.432 226.443 125.568 222.779C125.296 222.655 125.016 222.688 125.1 222.87C127.326 228.466 134.293 233.81 142.431 237.966C138.791 236.587 135.245 235.179 131.607 233.747L131.699 233.771C131.79 233.795 131.798 233.637 131.706 233.613C131.071 233.34 130.247 233.124 129.515 232.933C127.425 232.066 125.336 231.199 123.247 230.332C122.384 229.039 120.694 227.584 118.979 226.655C118.707 226.53 118.427 226.564 118.51 226.746C118.751 227.502 119.541 228.402 120.433 229.116C118.979 228.522 117.527 227.875 116.073 227.281C115.373 226.458 114.666 225.74 113.777 224.974C113.958 225.074 114.047 225.151 114.227 225.251C114.316 225.328 114.504 225.271 114.415 225.194C114.24 224.988 113.973 224.758 113.704 224.581C113.876 222.973 111.69 220.321 110.278 218.884C110.1 218.731 109.729 218.74 109.723 218.846C109.765 219.87 110.171 221.043 110.762 222.211C109.085 220.492 106.941 218.864 104.692 217.476C104.512 217.375 104.234 217.356 104.227 217.514C104.062 218.964 105.2 220.329 106.892 221.732C104.533 220.688 101.968 220.069 99.8311 220.15C99.6455 220.155 99.6377 220.313 99.7266 220.39C101.055 221.644 102.946 222.779 104.941 223.675C103.835 223.545 102.815 223.545 101.882 223.674C101.225 223.822 98.6785 224.702 100.305 225.555C102.382 226.685 104.968 226.882 107.094 227.011C106.142 227.509 105.551 228.208 105.878 229.093C105.873 229.199 106.053 229.299 106.236 229.347C109.623 230.233 113.286 229.272 113.568 227.319C114.214 227.382 114.863 227.391 115.509 227.454L115.603 227.425L115.694 227.449C115.786 227.473 115.786 227.473 115.877 227.497C117.873 228.392 119.868 229.288 121.863 230.183L121.955 230.207C122.227 230.332 122.499 230.456 122.771 230.581C122.946 230.787 123.121 230.993 123.388 231.222C123.474 231.352 123.754 231.318 123.759 231.213C123.762 231.16 123.676 231.031 123.678 230.978C124.858 231.5 126.037 232.022 127.216 232.544C125.927 232.367 124.813 232.396 123.877 232.577C123.691 232.582 123.775 232.764 123.956 232.864C125.776 233.554 128.176 233.756 129.941 233.684C132.211 234.652 134.392 235.543 136.662 236.51C135.012 236.131 133.263 235.887 131.955 236.078C131.769 236.083 131.762 236.241 131.942 236.341C133.838 237.371 136.793 237.611 138.479 237.252L138.571 237.276C144.298 239.575 150.122 241.793 155.956 243.8C157.041 244.35 158.124 244.954 159.115 245.533C159.384 245.71 159.58 245.495 159.309 245.37C159.128 245.27 158.856 245.145 158.678 244.992C158.772 244.963 158.775 244.911 158.689 244.781C158.6 244.705 158.6 244.705 158.511 244.628C160.608 245.337 162.616 245.969 164.716 246.626C157.282 245.107 149.834 243.851 142.478 242.619L142.39 242.542C140.237 241.072 136.971 239.631 134.474 239.511C134.288 239.515 134.097 239.626 134.275 239.779C135.35 240.54 136.702 241.321 138.067 241.838C132.735 240.922 127.492 240.084 122.348 239.111C119.5 238.579 116.744 238.071 113.896 237.539C112.377 236.395 109.932 235.221 107.913 234.8C107.639 234.728 107.445 234.89 107.623 235.044C108.426 235.68 109.595 236.413 110.774 236.935C107.192 236.264 103.609 235.593 100.027 234.922C97.5918 233.538 95.3454 232.097 93.1042 230.55C93.1068 230.498 93.1094 230.445 93.1094 230.445C92.5812 229.88 92.4372 229.043 92.5574 228.487C93.0046 228.818 93.3603 229.124 93.7108 229.536C94.1475 230.077 94.0351 230.474 94.1006 231.025C94.0954 231.13 94.4562 231.331 94.5556 231.197C95.4289 230.412 93.8362 228.875 92.5809 228.013C92.4005 227.913 92.2148 227.918 92.1181 227.999C91.8148 228.506 91.8672 229.32 92.4792 230.067C90.8682 228.899 89.3488 227.754 87.8346 226.505C87.0344 225.815 86.1452 225.049 85.3449 224.36C84.3903 223.043 83.7207 221.588 83.0433 220.29C81.3458 217.126 80.2811 214.287 79.8754 211.247C79.8806 211.142 79.5145 211.046 79.5093 211.152C79.1724 214.21 81.0477 217.528 82.8289 220.874C83.2526 221.679 83.6737 222.535 84.189 223.364C84.189 223.364 84.189 223.364 84.1916 223.311C82.9885 221.396 81.3199 219.519 79.9285 217.662C78.2782 215.416 78.108 213.238 78.2071 211.238C78.2593 210.184 78.1409 205.087 80.5863 208.127C83.6384 212.019 84.4233 214.891 84.4342 218.414C84.4135 220.702 84.8584 222.952 86.7728 225.48C87.22 225.81 87.4057 225.806 87.4109 225.7C85.2897 221.732 85.6344 218.515 85.3489 214.92C85.1133 212.192 82.0246 209.036 79.9375 206.25C79.8538 206.068 79.3936 206.001 79.2942 206.135C78.3245 208.868 77.5429 211.544 78.218 214.761C78.7439 217.245 81.2127 219.811 83.2187 222.363C81.2677 220.572 79.4083 218.806 77.4573 217.015C75.5037 215.277 73.7332 213.587 72.0594 211.815C72.4516 211.385 72.7549 210.877 72.6921 210.274C72.6162 209.934 72.1872 209.235 71.4498 209.149C70.8065 209.034 70.6 209.46 70.4039 209.675C70.4013 209.728 70.3046 209.809 70.2993 209.915C69.4206 208.938 68.5445 207.909 67.8514 206.927C67.9455 206.899 68.0396 206.87 68.0423 206.817C68.0449 206.765 68.0475 206.712 68.0501 206.659C68.3351 206.52 68.5286 206.358 68.6331 206.118C68.6357 206.066 68.6384 206.013 68.5494 205.937C68.5494 205.937 68.552 205.884 68.5547 205.831C68.5573 205.779 68.5573 205.779 68.5599 205.726C72.4666 205.468 76.13 204.507 76.3545 201.846C76.3623 201.688 76.0904 201.563 75.9047 201.568C74.1449 201.534 72.4713 201.629 71.2397 202.16C71.3939 200.921 70.9047 199.566 69.937 198.513C69.7618 198.307 69.5788 198.259 69.4846 198.288ZM70.8419 219.55C70.7529 219.474 70.6614 219.45 70.5725 219.373C70.3031 219.196 70.1253 219.043 69.8559 218.866C69.5892 218.636 69.3224 218.406 69.0557 218.176C69.6022 218.373 70.0494 218.703 70.4966 219.033C70.6745 219.187 70.8523 219.34 71.0301 219.493C71.0301 219.493 70.8445 219.498 70.8419 219.55ZM51.1294 211.351C50.7685 211.15 50.4991 210.973 50.1383 210.772C50.1383 210.772 48.271 209.163 49.0032 209.355C50.4676 209.738 51.8301 210.308 53.0932 211.012C54.7198 211.864 55.7842 212.836 56.7518 213.889C55.2272 212.85 53.1377 211.984 51.1294 211.351ZM50.0261 213.036C49.4848 212.734 48.763 212.332 49.1239 212.533C48.9434 212.433 48.763 212.332 48.5852 212.179C47.7745 211.7 47.2462 211.135 46.9977 210.537C48.1875 210.848 49.3774 211.159 50.6561 211.547C53.3967 212.371 55.3842 213.425 57.0762 214.828C56.9847 214.804 56.8932 214.78 56.7101 214.732C54.9083 213.674 52.5208 213.209 50.5753 213.18C50.3922 213.132 50.3033 213.055 50.1202 213.007C50.1176 213.06 50.1176 213.06 50.0261 213.036ZM57.5654 216.183C57.2882 216.163 56.9169 216.173 56.6397 216.154C56.3599 216.187 56.5299 216.498 56.8071 216.517C57.1784 216.508 57.6386 216.575 58.01 216.566C56.7288 218.097 49.9403 216.64 47.4349 214.811C48.63 215.017 49.8329 215.066 51.0383 215.061C53.4441 215.157 55.1987 215.296 57.5654 216.183ZM58.4074 216.03C58.4074 216.03 58.4963 216.106 58.4074 216.03C58.4963 216.106 58.5878 216.13 58.6793 216.154C58.7709 216.178 58.9513 216.279 59.0428 216.302C58.8572 216.307 58.6741 216.259 58.4885 216.264C58.3995 216.187 58.3054 216.216 58.2113 216.245C55.2509 214.243 51.509 214.917 48.2795 214.606C48.2795 214.606 48.2821 214.553 48.1906 214.529C46.5588 213.782 51.2996 213.529 51.6684 213.572C53.0543 213.668 54.4246 214.08 55.6955 214.626C55.6903 214.732 55.7792 214.808 55.9596 214.909C56.7729 215.335 57.5888 215.709 58.4074 216.03ZM62.8331 225.882C63.6542 226.15 64.4727 226.471 65.286 226.897C65.8274 227.199 66.2772 227.476 66.727 227.754C65.3541 227.395 63.9942 226.772 62.8331 225.882ZM35.6233 215.56C30.7696 212.476 27.341 208.699 23.1514 205.309C32.4508 210.356 39.9905 217.237 49.4834 222.121C44.4729 220.33 39.8494 218.213 35.6233 215.56ZM18.9317 211.885C19.3763 212.268 19.9176 212.57 20.459 212.872C19.7346 212.522 19.0102 212.172 18.3826 211.741C18.3852 211.689 18.3852 211.689 18.2963 211.612C18.5682 211.737 18.7487 211.837 18.9317 211.885ZM16.5224 204.374C16.6218 204.24 18.5331 203.087 18.311 203.829C18.1986 204.226 18.2718 204.619 18.3425 205.064C18.7062 207.079 19.7315 208.841 18.636 210.368C18.058 208.936 17.1112 207.462 15.8846 206.021C15.9761 206.045 15.9787 205.992 15.9813 205.939C16.0074 205.413 16.2191 204.882 16.5224 204.374ZM9.75731 202.444C9.7834 201.917 9.95602 202.176 10.6778 202.578C11.4885 203.057 12.2992 203.536 13.1073 204.067C16.1591 206.093 17.1479 208.591 18.4269 210.846C18.4269 210.846 18.4269 210.846 18.4243 210.899C18.4243 210.899 18.4243 210.899 18.4217 210.952C18.236 210.956 18.1393 211.038 18.1341 211.143C18.0425 211.119 18.0425 211.119 17.951 211.095C16.5622 209.185 13.8817 207.15 10.9841 205.752C9.55624 204.631 9.61101 203.525 9.75731 202.444ZM6.49155 204.736C6.23523 204.295 9.33146 205.426 9.60343 205.55C10.9659 206.12 12.1375 206.8 13.2149 207.509C14.8311 208.572 16.1648 209.721 17.2188 210.903C15.8039 209.52 14.1093 208.17 12.2186 207.035C11.23 206.403 10.1395 205.957 8.95492 205.541C8.1338 205.272 7.31267 205.004 6.49155 204.736ZM10.4746 208.552C9.65607 208.231 8.83233 208.015 8.00599 207.852C6.65658 207.019 5.21303 206.215 4.52777 205.075C3.76142 203.701 6.74787 205.176 7.38594 205.397C10.1213 206.326 11.8446 207.097 13.9917 208.672C15.0639 209.486 16.0394 210.381 16.926 211.2C17.1901 211.483 17.5484 211.736 17.8125 212.019C15.4668 210.712 13.0243 209.486 10.4746 208.552ZM8.00148 213.558C6.90056 213.323 5.80747 212.931 4.8059 212.562C2.89168 211.901 2.80537 211.772 4.67762 211.408C8.51365 210.705 12.7343 211.597 17.2949 213.11C16.7405 213.072 16.181 213.139 15.6214 213.206C15.4331 213.263 15.6057 213.521 15.7914 213.517C15.8829 213.541 16.066 213.589 16.1575 213.613C14.5859 213.521 13.0954 213.665 11.7827 213.961C10.5746 214.018 9.37698 213.865 8.00148 213.558ZM17.9489 214.881C17.6743 214.81 17.6639 215.02 17.9384 215.092C18.1215 215.14 18.3046 215.188 18.4876 215.236C17.8182 215.647 17.1489 216.059 16.299 216.37C14.9759 216.877 13.0383 216.69 11.1947 216.474C10.6403 216.436 8.06716 215.975 7.87107 216.191C9.02415 215.372 10.4492 214.679 12.2273 214.344C12.4156 214.287 12.6039 214.229 12.881 214.248C13.0667 214.244 13.255 214.186 13.4406 214.182C14.8396 214.014 16.4086 214.158 17.9776 214.302C18.0665 214.379 18.1554 214.455 18.2495 214.427C18.6183 214.47 19.17 214.561 19.6329 214.575C19.3479 214.714 19.0602 214.906 18.7752 215.044C18.5006 214.972 18.2235 214.953 17.9489 214.881ZM21.9627 214.332C21.9601 214.384 21.866 214.413 21.8634 214.466C21.6673 214.681 21.2882 214.849 20.9116 214.963C20.5351 215.078 20.0696 215.116 19.6068 215.102C19.8003 214.939 20.0879 214.748 20.2814 214.585C21.0188 214.671 21.5784 214.605 21.9627 214.332C21.9627 214.332 21.8712 214.308 21.9627 214.332ZM17.5721 213.129C17.6662 213.101 17.5799 212.971 17.491 212.895C14.7713 211.65 11.9288 211.012 9.24847 210.844C8.06124 210.48 6.87401 210.116 5.78352 209.671C5.692 209.647 1.91833 207.219 3.47688 207.574C4.12017 207.689 4.85759 207.775 5.50349 207.837C9.92543 208.408 13.2728 210.084 16.981 211.961C16.8895 211.937 16.7979 211.913 16.7979 211.913C16.4292 211.87 16.4136 212.186 16.7771 212.335C17.6871 212.679 18.5971 213.024 19.5072 213.369C18.7698 213.283 18.1265 213.168 17.5721 213.129ZM30.0196 216.387C29.3894 216.009 28.7617 215.578 28.3198 215.142C29.4102 215.588 30.3072 216.196 31.2043 216.804C30.8408 216.655 30.4773 216.507 30.0196 216.387ZM72.9771 230.723C74.1904 230.561 75.5685 230.815 77.0433 230.987C75.6522 230.997 74.3552 230.977 72.9771 230.723ZM57.7314 225.933C57.5457 225.938 57.2685 225.919 57.0855 225.871C56.3454 225.837 55.5139 225.779 54.6875 225.617C54.8888 225.296 55.5347 225.358 56.178 225.473C56.7272 225.617 57.1848 225.737 57.7314 225.933ZM85.2387 232.119C84.5143 231.769 83.8841 231.391 83.4369 231.061C84.7208 231.343 85.8061 231.894 86.9803 232.521C86.3396 232.354 85.7904 232.21 85.2387 232.119ZM36.1661 227.063C36.1137 226.249 38.4516 227.714 38.993 228.016C40.0704 228.725 40.957 229.543 41.752 230.338C42.5445 231.186 43.0597 232.014 43.4834 232.818C43.1199 232.67 42.7538 232.574 42.3903 232.425C40.2537 230.639 36.3389 229.188 36.1661 227.063ZM35.9835 230.749C35.9861 230.696 35.9887 230.643 35.8972 230.619C35.178 230.164 31.2161 227.794 33.3264 228.24C34.9791 228.566 36.5194 229.289 37.9629 230.093C39.226 230.797 40.2094 231.535 41.1874 232.377C41.1848 232.43 41.1796 232.535 41.3601 232.636C41.0855 232.564 40.8109 232.492 40.5363 232.42C39.0013 231.592 37.4505 231.079 35.9835 230.749ZM38.5628 238.571C39.0072 237.087 40.3668 235.843 42.4299 235.369C42.5188 235.446 42.6993 235.546 42.8849 235.542C43.4445 235.475 44.467 235.422 45.0344 235.197C44.2894 237.136 42.3519 238.816 38.5628 238.571ZM41.6557 234.153C42.1108 234.326 42.5684 234.445 43.0286 234.513C43.1202 234.536 43.1202 234.536 43.2091 234.613C43.1123 234.694 43.0182 234.723 42.9215 234.804C42.7358 234.809 42.5501 234.814 42.3645 234.819C42.273 234.795 42.1814 234.771 42.0873 234.8C42.0847 234.852 41.9932 234.828 41.9906 234.881C41.2401 235.058 40.4844 235.34 40.0007 235.747C39.2528 235.871 38.3245 235.895 37.4904 235.89C36.6562 235.885 35.7383 235.698 34.8231 235.458C34.1824 235.291 31.2666 234.261 32.5741 234.07C34.0698 233.821 35.6622 233.491 37.2442 233.372C38.0732 233.482 38.9074 233.487 39.6526 233.416C40.2044 233.507 40.8477 233.622 41.4883 233.789C41.3864 233.976 41.4753 234.053 41.6557 234.153ZM42.1447 233.641C42.0531 233.617 42.0505 233.67 41.959 233.646C41.4125 233.45 40.9574 233.277 40.4057 233.186C40.4057 233.186 40.3142 233.162 40.2226 233.138C38.9361 232.908 37.639 232.889 36.4283 232.998C34.6815 232.701 32.8562 232.117 31.2296 231.265C28.5204 229.809 34.5034 230.681 35.5128 230.892C36.9825 231.17 38.3449 231.74 39.7048 232.363C39.6996 232.468 39.6969 232.52 39.8774 232.621C40.5992 233.023 41.4151 233.397 42.1447 233.641ZM65.1746 234.761C65.8153 234.929 66.3644 235.073 67.0025 235.293C67.549 235.49 68.0015 235.715 68.5454 235.964C67.264 235.628 66.1657 235.341 65.1746 234.761ZM81.1625 235.799C80.1452 235.746 79.0443 235.511 77.9512 235.118C78.8821 235.042 79.9752 235.435 81.1625 235.799ZM90.0666 237.596C90.4666 237.007 91.4027 236.826 92.0695 236.467C91.6694 237.055 91.0001 237.467 90.0666 237.596ZM103.9 239.083C104.648 238.959 105.654 239.222 106.661 239.485C105.827 239.481 104.904 239.399 103.9 239.083ZM120.95 244.878C117.645 244.227 114.425 243.704 111.133 242.789C110.859 242.717 110.846 242.981 111.12 243.053C114.779 244.063 118.453 244.758 122.135 245.295C122.135 245.295 122.135 245.295 122.226 245.319C122.318 245.343 122.318 245.343 122.409 245.367C115.487 244.729 108.325 243.334 101.131 240.705C101.131 240.705 104.454 240.988 104.549 240.959C106.949 241.161 109.334 241.678 111.808 242.273C114.833 242.958 117.846 243.906 120.95 244.878ZM120.394 250.493C119.491 249.99 118.602 249.224 120.25 249.655C121.348 249.943 122.352 250.259 123.448 250.599C124.727 250.987 126.003 251.428 127.282 251.816C127.282 251.816 127.282 251.816 127.187 251.845C126.999 251.902 127.172 252.16 127.355 252.208L127.446 252.232C126.617 252.122 125.783 252.117 125.038 252.189C123.568 251.911 121.837 251.298 120.394 250.493ZM130.101 252.927C130.098 252.98 130.098 252.98 130.19 253.004C130.001 253.061 129.721 253.094 129.533 253.152C129.07 253.137 128.704 253.042 128.247 252.922C128.529 252.836 128.809 252.802 129.18 252.793C129.455 252.865 129.732 252.884 130.101 252.927ZM120.491 254.145C121.453 253.437 122.685 252.906 124.272 252.682C124.74 252.591 125.205 252.553 125.76 252.591C126.314 252.629 126.869 252.668 127.423 252.706C127.331 252.682 127.329 252.735 127.235 252.764C127.046 252.821 127.222 253.027 127.402 253.127C127.86 253.247 128.317 253.367 128.775 253.487C128.493 253.573 128.299 253.736 128.108 253.846C127.452 253.994 126.882 254.271 126.312 254.549C125.846 254.587 125.383 254.573 125.104 254.606C123.715 254.563 122.049 254.5 120.491 254.145ZM129.62 255.148C129.324 255.497 129.12 255.871 129.008 256.268C128.715 256.565 128.516 256.833 128.224 257.129C127.837 257.455 127.452 257.728 126.885 257.952C125.941 258.292 124.667 257.799 124.523 256.961C124.387 255.965 125.998 255.267 127.036 254.898C127.13 254.87 127.224 254.841 127.319 254.812C128.064 254.741 128.814 254.564 129.107 254.267C129.201 254.238 129.295 254.21 129.39 254.181C129.484 254.152 129.575 254.176 129.669 254.148C129.471 254.416 129.363 254.707 129.439 255.047C129.531 255.071 129.528 255.124 129.62 255.148ZM130.111 254.583C130.221 254.239 130.514 253.942 130.804 253.698C131.089 253.559 131.468 253.392 131.664 253.176C131.667 253.124 131.67 253.071 131.672 253.018C131.675 252.966 131.677 252.913 131.589 252.836C131.774 252.832 131.957 252.88 132.143 252.875C131.827 253.645 130.966 254.167 130.111 254.583ZM131.421 252.473C131.144 252.453 130.958 252.458 130.681 252.439C130.312 252.396 129.852 252.329 129.483 252.285C129.3 252.238 129.211 252.161 129.028 252.113C129.583 252.151 130.046 252.166 130.597 252.257C130.597 252.257 130.597 252.257 130.689 252.281C130.78 252.305 130.78 252.305 130.875 252.276C131.058 252.324 131.335 252.343 131.609 252.415C131.515 252.444 131.515 252.444 131.421 252.473ZM127.315 251.131C127.132 251.083 127.033 251.217 127.122 251.294C126.212 250.949 125.297 250.71 124.384 250.417C123.675 249.752 122.865 249.273 121.866 248.852C124.169 249.135 126.52 250.337 128.785 251.409C128.325 251.342 127.867 251.222 127.315 251.131ZM165.808 252.672C166.383 252.289 167.319 252.107 168.252 251.978C167.677 252.361 166.833 252.566 165.808 252.672ZM183.377 253.59C184.708 252.925 187.454 253.643 189.578 253.826C187.797 254.213 185.493 253.93 183.377 253.59ZM170.561 246.555C172.378 247.297 174.099 248.121 175.723 249.026C175.265 248.906 174.899 248.811 174.439 248.744C173.262 248.169 171.641 247.211 170.561 246.555ZM110.871 220C112.103 221.335 113.139 222.887 113.259 224.198C113.079 224.098 112.898 223.997 112.718 223.896C112.629 223.82 112.443 223.825 112.441 223.877C112.041 222.599 111.366 221.249 110.871 220ZM104.946 217.969C106.745 219.08 108.262 220.277 109.59 221.531C110.388 222.273 111 223.02 111.706 223.738C111.876 224.049 112.049 224.308 112.219 224.619C112.305 224.748 112.58 224.82 112.585 224.715C112.763 224.868 112.938 225.074 113.116 225.227C113.11 225.333 113.016 225.361 113.011 225.467C112.739 225.342 112.47 225.165 112.198 225.04C111.133 224.068 109.789 223.13 108.254 222.301C106.376 220.903 104.964 219.467 104.946 217.969ZM100.733 220.653C100.197 220.246 103.965 220.912 103.597 220.869C105.064 221.2 106.421 221.875 107.687 222.526C108.864 223.101 109.758 223.762 110.65 224.475C110.467 224.427 110.378 224.351 110.195 224.303C109.829 224.207 109.632 224.422 109.899 224.652C109.988 224.729 110.077 224.805 110.169 224.829C109.894 224.757 109.619 224.686 109.345 224.614C109.253 224.59 109.159 224.618 109.068 224.594C108.155 224.302 107.24 224.063 106.23 223.852C104.232 223.009 102.248 221.903 100.733 220.653ZM107.727 229.204C106.618 229.127 106.351 228.897 106.657 228.337C106.861 227.964 107.34 227.662 107.813 227.466C108.192 227.299 108.569 227.184 109.037 227.093C109.777 227.127 110.428 227.084 111.081 226.988C111.725 227.103 112.371 227.166 113.014 227.281C112.3 228.587 110.496 229.449 107.727 229.204ZM108.035 226.724C106.461 226.686 104.709 226.494 103.148 226.192C102.504 226.077 100.033 225.43 100.81 224.727C101.584 224.076 102.891 223.885 104.465 223.923C105.114 223.933 105.849 224.072 106.583 224.211C107.677 224.604 108.77 224.997 109.871 225.231C110.051 225.332 110.231 225.432 110.412 225.533C109.86 225.442 109.306 225.404 108.84 225.442C108.563 225.422 108.642 225.71 109.008 225.806C110.017 226.016 111.032 226.122 112.046 226.227C111.764 226.314 111.39 226.376 111.108 226.462C111.108 226.462 111.108 226.462 111.016 226.438C109.999 226.385 108.974 226.49 108.035 226.724ZM113.673 227.08C113.676 227.027 113.678 226.975 113.681 226.922C113.681 226.922 113.681 226.922 113.683 226.869C114.052 226.912 114.515 226.927 114.884 226.97C115.064 227.071 115.156 227.095 115.336 227.195C114.782 227.157 114.227 227.118 113.673 227.08ZM122.159 229.834L122.07 229.757C121.984 229.628 121.798 229.633 121.706 229.609C120.723 228.872 119.745 228.029 119.321 227.225C120.579 228.034 121.372 228.881 122.159 229.834C122.25 229.858 122.25 229.858 122.159 229.834ZM124.886 232.788C126.003 232.707 127.201 232.86 128.393 233.119C127.282 233.095 126.076 233.099 124.886 232.788ZM132.776 236.346C134.264 236.256 135.914 236.634 137.564 237.013C136.079 237.051 134.23 236.94 132.776 236.346ZM152.174 241.53C149.821 240.38 147.467 239.231 145.31 237.866C140.72 235.065 136.709 231.829 131.834 229.166C131.653 229.065 131.463 229.176 131.643 229.276C136.23 232.13 140.532 235.123 145.025 238.005C146.552 238.992 148.179 239.844 149.808 240.644C148.26 240.079 146.803 239.537 145.255 238.972C136.649 234.906 128.944 229.477 125.989 223.636C125.989 223.636 132.134 226.845 132.856 227.247C135.827 229.038 138.698 230.963 141.476 232.916C146.227 236.187 150.984 239.352 155.548 242.679C154.452 242.339 153.359 241.947 152.174 241.53ZM194.379 254.229C192.399 253.017 189.758 252.059 188.345 250.623C191.175 251.523 193.23 253.075 195.38 254.597C195.017 254.449 194.651 254.353 194.379 254.229ZM128.954 246.12C127.506 245.421 125.963 244.75 124.613 243.917C126.261 244.348 127.697 245.311 129.137 246.168C129.137 246.168 129.046 246.144 128.954 246.12ZM158.19 251.105C156.231 251.339 154.448 251.779 152.759 252.19C150.225 252.807 148.586 254.085 146.052 254.702C145.864 254.759 146.133 254.936 146.319 254.931C148.662 254.425 150.199 253.333 152.453 252.75C153.862 252.372 155.267 252.1 156.762 251.851C155.905 252.32 155.136 252.865 154.459 253.435C151.381 255.67 147.637 256.396 142.778 257.152C141.097 257.405 139.471 258.419 140.501 256.342C141.416 254.715 143.968 253.729 146.141 252.911C149.731 251.557 153.745 251.008 158.119 250.659C158.582 250.674 159.045 250.688 159.599 250.727C159.04 250.794 158.569 250.937 158.19 251.105ZM156.485 249.965C151.629 248.801 146.843 248.082 142.006 246.549C141.823 246.501 141.817 246.606 141.998 246.707C146.103 248.048 150.319 249.045 154.542 249.883C153.339 249.835 152.047 249.71 150.753 249.638C150.661 249.614 150.664 249.562 150.57 249.59C145.688 248.953 141.193 247.99 136.281 246.064C133.645 245.001 131.109 243.804 128.475 242.688C131.959 243.493 135.552 243.953 138.938 244.839C145.068 246.497 151.098 248.288 157.131 250.027C156.945 250.032 156.671 249.96 156.485 249.965ZM135.465 240.09C137.583 240.378 139.382 241.489 141.281 242.466C139.351 242.121 137.081 241.153 135.465 240.09ZM109.168 235.661C109.898 235.906 110.625 236.203 111.349 236.552C111.982 236.878 112.524 237.18 113.156 237.505C113.065 237.481 112.973 237.457 112.973 237.457C111.512 237.021 110.152 236.399 109.168 235.661ZM114.875 238.382C124.247 240.088 133.716 241.712 143.093 243.313C143.185 243.337 143.276 243.361 143.279 243.309C146.864 243.927 150.446 244.598 154.123 245.24C152.729 245.302 151.506 245.675 150.917 246.321C150.821 246.402 150.996 246.608 151.27 246.68C153.561 247.226 155.805 246.853 156.328 245.657C159.267 246.213 162.298 246.793 165.234 247.401C169.915 248.36 174.499 249.399 178.984 250.573C171.61 249.71 164.356 250.158 157.596 249.989C157.599 249.937 157.602 249.884 157.51 249.86C153.329 248.179 148.841 247.058 144.539 245.932C139.691 244.61 134.848 243.182 129.974 242.387C128.787 242.023 127.683 241.84 126.661 241.893C125.934 241.596 125.115 241.275 124.294 241.007C123.839 240.834 123.638 241.155 124.093 241.327C124.639 241.524 125.277 241.744 125.824 241.94C127.006 242.41 128.096 242.855 129.276 243.377C132.181 244.618 134.898 245.915 137.9 247.075C140.447 248.061 143.104 248.703 145.769 249.187C140.884 248.602 135.827 247.759 130.876 246.623C129.891 245.938 128.531 245.316 127.448 244.712C126.271 244.138 125.003 243.539 123.711 243.414C123.434 243.395 123.332 243.582 123.601 243.759C124.679 244.468 125.85 245.148 127.121 245.694C125.382 245.238 123.735 244.807 121.998 244.3C115.511 242.388 109.328 239.917 103.635 236.934C104.096 237.001 104.558 237.015 105.019 237.082C105.202 237.13 105.212 236.919 104.938 236.848C104.203 236.709 103.468 236.57 102.733 236.431C102.461 236.306 102.192 236.129 101.92 236.005C106.146 236.79 110.557 237.572 114.875 238.382ZM155.768 245.724C155.083 246.451 153.493 246.729 151.838 246.455C152.703 245.828 154.28 245.814 155.768 245.724ZM78.8862 225.603C73.5385 225.003 68.6851 223.786 63.2746 222.584C62.1737 222.349 61.988 222.354 61.2454 222.373C62.4535 222.315 63.5883 221.866 64.5296 221.579C69.2311 220.249 75.5308 222.218 81.161 224.598C81.2526 224.622 81.3441 224.646 81.3467 224.593C81.8906 224.842 82.4346 225.091 82.887 225.316C77.8844 223.367 71.9117 222.284 67.3722 222.216C67.1865 222.221 67.3643 222.374 67.4559 222.398C70.5886 222.791 73.6298 223.16 76.8385 223.893C79.4064 224.459 81.8646 225.369 84.4247 226.092C85.1491 226.442 85.8708 226.844 86.5926 227.246C84.0403 226.365 81.6528 225.9 78.8862 225.603ZM69.7715 213.083C71.0659 213.155 72.1408 213.917 73.3097 214.649C72.0258 214.367 70.7574 213.768 69.7715 213.083ZM71.4316 209.518C71.5257 209.489 71.612 209.618 71.6983 209.747C71.8709 210.006 71.9546 210.188 71.9416 210.451C71.9233 210.82 71.7246 211.088 71.6175 211.38C71.3533 211.097 71.0002 210.738 70.7361 210.456C70.7413 210.35 70.7465 210.245 70.8407 210.216C70.9452 209.977 71.1465 209.656 71.4316 209.518ZM66.4941 206.252C66.4915 206.305 66.4889 206.357 66.4863 206.41C64.9802 206.869 63.0477 206.577 61.123 206.126C60.1162 205.863 59.0205 205.523 58.019 205.154C57.747 205.029 57.3809 204.934 57.1089 204.809C57.0174 204.785 56.7428 204.713 56.5572 204.718C56.5572 204.718 56.6487 204.742 56.6513 204.689C57.0226 204.68 57.3939 204.67 57.7653 204.661C58.1366 204.651 58.4216 204.513 58.704 204.427C61.2693 205.045 63.9288 205.634 66.4941 206.252C66.4941 206.252 66.5857 206.276 66.4941 206.252ZM62.1552 200.263C61.6399 199.435 61.224 198.472 61.5351 197.807C62.0475 196.821 63.567 197.966 64.1842 198.607C65.7664 200.355 66.3289 202.102 66.9854 203.82C66.8913 203.849 66.7972 203.878 66.792 203.983C66.8704 204.27 66.86 204.481 66.9385 204.768C66.5906 204.304 66.0571 203.844 65.4295 203.413C65.1575 203.289 64.8803 203.269 64.781 203.404C64.6032 203.25 64.3364 203.02 64.1612 202.815C64.0749 202.685 63.8944 202.585 63.8081 202.456C63.1046 201.685 62.5867 200.909 62.1552 200.263ZM60.4034 201.938C59.5012 201.435 58.6042 200.827 57.8954 200.161C57.6287 199.932 56.1562 197.839 56.8832 198.136C60.8843 199.717 62.8118 201.981 65.0138 204.318C63.382 203.571 61.8443 202.795 60.4034 201.938ZM65.7724 205.85C62.3833 205.016 58.9916 204.235 55.5293 203.009C55.4378 202.985 52.1689 201.596 52.9142 201.525C54.0333 201.391 55.1473 201.362 56.4391 201.487C58.6566 201.641 60.5552 202.618 62.4485 203.7C62.3544 203.728 62.3492 203.834 62.5296 203.934C63.4214 204.648 64.504 205.251 65.6834 205.773C65.6834 205.773 65.775 205.797 65.7724 205.85ZM66.7085 205.668C66.617 205.644 66.6144 205.697 66.6117 205.749C66.5202 205.725 66.5202 205.725 66.4287 205.701C66.3528 205.362 66.1854 204.998 66.018 204.634C66.3737 204.94 66.6326 205.328 66.7085 205.668ZM75.6119 201.865C75.2225 204.109 71.9331 205.009 68.5781 205.357C68.5807 205.305 68.586 205.199 68.6801 205.171C69.998 204.769 70.8843 203.721 71.1299 202.505C72.4478 202.103 73.9409 201.907 75.6119 201.865ZM70.2043 202.476C69.8827 203.352 69.2918 204.051 68.4264 204.678C68.3349 204.654 68.2433 204.63 68.1518 204.606C68 203.926 67.5763 203.122 67.15 202.37C66.9563 200.666 67.4163 198.866 69.4664 198.656C70.3057 198.556 70.2199 202.16 70.2043 202.476Z" fill="#C59C85"/>
<path d="M136.1 219.263C137.734 220.884 139.848 222.335 141.869 223.758C142.053 223.876 142.154 223.718 142.063 223.628C140.136 222.233 138.411 220.522 136.387 219.161C136.201 219.104 136.009 219.172 136.1 219.263Z" fill="#C59C85"/>
<path d="M141.262 255.927C141.161 256.034 141.348 256.235 141.449 256.128C142.438 255.61 143.618 255.154 144.607 254.636C144.706 254.598 144.519 254.397 144.421 254.435C143.243 254.822 142.251 255.409 141.262 255.927Z" fill="#C59C85"/>
<path d="M116.151 240.507C118.288 240.942 121.276 241.206 122.26 240.123C122.356 240.091 122.448 240.117 122.451 240.058C122.546 240.026 122.458 239.882 122.366 239.856C122.366 239.856 122.366 239.856 122.273 239.829C122.183 239.744 121.998 239.691 121.993 239.808C120.97 239.633 119.936 239.693 119.092 239.688C117.876 239.636 116.84 239.754 115.981 240.102C115.791 240.166 115.873 240.427 116.151 240.507ZM119.635 240.141C120.103 240.157 120.664 240.199 121.132 240.214C120.085 240.567 118.589 240.494 117.192 240.271C117.948 240.132 118.792 240.137 119.635 240.141Z" fill="#C59C85"/>
<path d="M59.8787 261.044C58.5562 261.645 57.9126 262.85 56.8814 263.699C56.7772 263.814 57.0685 264.063 57.1727 263.948C58.2039 263.099 59.04 262.108 60.0738 261.185C60.1753 261.144 59.9802 261.003 59.8787 261.044Z" fill="#C59C85"/>
<path d="M24.1528 227.26C24.5329 227.839 24.9129 228.419 24.9933 228.971C24.9827 229.268 25.5767 229.47 25.5874 229.173C25.6087 228.58 25.5256 228.101 25.1455 227.522C24.8618 227.05 24.3881 226.288 23.7967 226.013C23.5987 225.945 23.497 225.986 23.4943 226.06C23.4784 226.505 23.8638 226.936 24.1528 227.26Z" fill="#C59C85"/>
<path d="M46.6865 257.543C46.4897 257.321 46.2819 257.404 46.2764 257.557C46.2655 257.862 46.3557 258.203 46.2436 258.473C46.1288 258.82 45.8144 259.022 45.5 259.223C45.2922 259.306 45.5875 259.639 45.7953 259.556C46.5197 259.341 47.5722 258.544 46.6865 257.543Z" fill="#C59C85"/>
<path d="M72.592 200.807C72.2913 201.06 71.8999 201.143 71.5084 201.226C71.2181 201.202 71.3971 201.611 71.6874 201.636C72.2682 201.685 72.6596 201.602 73.0562 201.38C73.3543 201.196 73.852 200.867 73.673 200.458C73.6756 200.389 73.4863 200.257 73.3878 200.295C73.0015 200.239 72.8901 200.624 72.592 200.807Z" fill="#C59C85"/>
<path d="M52.4427 254.835C52.6246 254.879 52.6299 254.781 52.5416 254.711C51.1105 253.92 49.2059 253.359 47.5583 253.155C47.3764 253.111 47.2775 253.235 47.454 253.376C48.3342 254.132 50.2307 254.839 51.5226 254.808C51.7071 254.804 51.6268 254.587 51.3514 254.569C50.4313 254.543 49.0751 254.066 48.2725 253.575C49.7303 253.88 51.0838 254.406 52.4427 254.835Z" fill="#C59C85"/>
<path d="M31.4963 232.851C31.6798 232.901 31.6876 232.738 31.5041 232.689C31.229 232.615 30.8647 232.463 30.4061 232.34C30.317 232.261 30.2278 232.182 30.1335 232.212C30.1335 232.212 30.1335 232.212 30.0392 232.241C28.2965 231.774 26.0874 231.346 26.3132 232.45C26.3106 232.504 26.3971 232.637 26.5806 232.686C27.959 233.001 29.1721 232.887 30.1153 232.591C30.6708 232.63 31.2212 232.778 31.4963 232.851ZM26.8739 232.38C26.9916 231.863 28.2835 232.045 29.5676 232.389C28.7239 232.547 27.8854 232.597 26.8739 232.38Z" fill="#C59C85"/>
</svg>
