<svg width="182" height="802" viewBox="0 0 182 802" fill="none" xmlns="http://www.w3.org/2000/svg">
<path d="M151.382 493.182C151.112 486.177 148.822 478.363 144.107 473.109C139.526 467.855 132.79 468.798 126.459 469.741C126.593 469.472 126.593 469.202 126.728 468.798H126.863V468.663H126.728C126.863 468.259 126.997 467.855 127.132 467.451C127.806 465.295 128.479 463.544 128.345 461.254C128.075 458.02 126.728 453.036 123.495 451.554C122.282 451.015 121.07 450.746 119.992 449.803C119.184 448.994 118.51 447.917 118.106 446.974C117.298 445.357 116.624 443.471 115.412 441.989C113.121 439.16 109.753 438.621 106.385 439.16C101.536 439.968 96.6856 442.528 92.5093 444.953C88.4678 447.378 84.9651 450.342 82.5401 454.518C83.2137 450.746 83.4831 446.839 83.079 442.932C82.8096 440.238 82.4054 437.274 80.7888 434.984C79.1721 432.693 76.6125 432.693 73.9181 432.693C67.8557 432.693 60.5809 431.481 55.3268 435.118C53.0366 436.735 51.1505 438.89 48.995 440.507C46.3007 442.528 42.9327 442.797 39.9689 444.279C35.119 446.839 34.5801 451.958 37.6786 456.134C41.5855 461.254 45.2229 466.373 48.3214 472.031C49.1298 473.513 49.8034 474.86 50.4769 476.342C50.0728 476.073 49.8034 475.669 49.3992 475.399C46.3007 473.244 42.3938 473.109 38.7564 473.109C36.3314 473.109 33.9065 473.109 31.751 472.435C29.7302 471.897 27.8441 470.819 25.9581 469.741C24.8803 469.067 23.6678 468.529 22.4554 467.99C20.4346 467.047 15.45 465.295 11.6778 468.124C9.65704 469.606 8.57929 472.031 7.77097 474.052C5.75019 478.902 3.59468 484.021 3.19052 489.545C3.0558 491.7 3.19052 493.856 3.32524 495.877C3.45996 498.436 3.7294 500.996 3.32524 503.421L3.19052 503.96C3.0558 505.037 2.92108 505.981 3.0558 506.924C3.59468 510.292 7.09738 512.178 10.3306 512.447C11.6778 512.582 13.1597 512.582 14.5069 512.447C16.1236 512.447 17.6055 512.312 19.0874 512.582C20.4346 512.851 21.7818 513.255 23.129 513.794C15.1805 514.064 12.7556 516.489 9.52232 520.395C8.17513 522.012 7.50154 523.629 7.36682 525.111C7.36682 526.593 7.90569 527.94 8.30985 529.152L11.4084 536.696C13.1597 540.873 15.0458 545.184 19.0874 547.07C20.0304 547.474 21.1082 547.878 22.0512 548.148C23.3984 548.552 24.7456 548.956 25.6886 549.63C26.7664 550.438 27.44 551.516 28.2483 552.728C28.5177 553.267 28.9219 553.671 29.1913 554.21C30.6732 556.231 32.5593 557.443 34.3107 557.443C34.4454 557.443 34.7148 557.443 34.8495 557.443C36.3314 557.309 37.5439 556.365 38.8911 554.614C40.373 552.593 41.5855 550.168 42.798 547.878C44.5493 544.375 46.3007 541.142 48.7256 539.121C44.1451 547.743 41.7202 559.599 47.7826 568.355C49.1298 570.242 50.477 571.454 52.0936 571.858C52.7672 572.128 53.4408 572.128 54.1144 572.128C54.6532 572.128 55.3268 572.128 55.8657 571.993H56.4046C58.5601 571.858 60.8503 571.858 63.1405 571.993C65.8349 572.128 68.664 572.128 71.4931 571.858C75.8042 571.319 79.8457 569.703 83.3484 567.412C86.1775 565.526 88.0636 563.371 89.0066 560.946C89.9497 558.79 89.9497 556.231 90.0844 554.075L90.4885 543.028C90.758 537.774 90.8927 532.251 89.2761 526.997C87.9289 522.686 85.5039 518.779 83.079 515.141C82.4054 514.064 81.5971 512.851 80.5193 511.639C84.2915 514.468 87.2553 519.048 89.1414 523.09C91.5663 528.344 93.8565 533.598 96.5509 538.717C97.8981 541.142 99.2453 543.567 100.727 545.992C102.074 548.013 103.422 550.842 105.442 552.054C107.194 553.132 109.349 553.536 111.37 554.075C113.66 554.614 115.95 555.557 118.375 555.153C121.07 554.884 124.303 553.536 126.459 552.054C129.018 550.303 128.479 547.339 130.5 545.184C133.599 541.816 138.853 541.277 140.2 536.292C141.412 531.847 138.987 527.131 136.832 523.09C142.221 523.898 146.936 520.53 147.879 515.007C148.553 511.235 147.475 507.328 148.553 503.69C149.091 501.939 150.304 500.322 150.843 498.571C151.516 496.954 151.516 495.068 151.382 493.182Z" fill="#FFFCF9"/>
<path d="M54.2491 572.262C53.5755 572.262 52.9019 572.262 52.2283 571.993C50.6117 571.589 49.2645 570.376 47.9173 568.49C41.4507 559.06 44.684 546.262 49.9381 537.505C52.6324 533.059 55.8657 528.883 58.9642 524.841C62.3322 520.53 65.8349 516.084 68.3946 511.369L69.7418 512.043C67.0474 516.893 63.5447 521.338 60.1767 525.649C57.0782 529.691 53.8449 533.733 51.2852 538.178C46.3006 546.531 43.2021 558.656 49.2645 567.682C50.3422 569.299 51.5547 570.242 52.7672 570.646C53.8449 570.915 54.9227 570.915 56.1351 570.78H56.674C58.9642 570.646 61.2545 570.646 63.5447 570.78C66.2391 570.915 68.9335 570.915 71.6278 570.646C75.6694 570.107 79.5763 568.625 82.8095 566.335C85.3692 564.583 87.1205 562.697 87.9289 560.542C88.7372 558.521 88.8719 556.365 88.8719 554.21L89.2761 543.163C89.5455 537.909 89.6802 532.655 88.1983 527.536C86.9858 523.359 84.4262 519.722 82.1359 516.084C80.5193 513.659 79.0374 511.639 76.8819 510.696L77.4208 509.348C80.2499 510.426 82.0012 513.121 83.3484 515.276C85.7734 518.914 88.1983 522.82 89.5455 527.131C91.1621 532.385 90.8927 537.909 90.758 543.163L90.3538 554.21C90.2191 556.365 90.2191 558.79 89.2761 561.081C88.333 563.506 86.447 565.661 83.6178 567.547C80.1152 569.972 75.9389 571.589 71.7626 571.993C68.9335 572.397 66.1044 572.262 63.41 572.128C61.2545 571.993 58.9642 571.993 56.674 572.128H56.1351C55.4615 572.128 54.7879 572.262 54.2491 572.262Z" fill="#C59C85"/>
<path d="M73.5139 494.529C76.343 489.275 77.9596 483.752 79.0374 477.959C79.9804 472.974 79.9804 467.99 80.9235 463.005C82.2706 456.404 83.7526 449.668 83.079 442.932C82.8095 440.238 82.4054 437.274 80.7887 434.984C79.1721 432.693 76.6124 432.693 73.9181 432.693C67.8557 432.693 60.5809 431.481 55.3268 435.118C53.0366 436.735 51.1505 438.89 48.995 440.507C46.3006 442.528 42.9326 442.797 39.9688 444.279C35.1189 446.839 34.5801 451.958 37.6786 456.134C41.5855 461.254 45.2229 466.373 48.3214 472.031C53.0366 481.057 56.2698 490.353 64.2183 497.089C65.0266 497.763 66.3738 496.55 65.4307 495.877C59.2337 490.623 55.8657 483.887 52.4977 476.746C50.6116 472.705 48.5909 468.798 46.1659 465.161C44.684 462.87 43.0674 460.58 41.4507 458.29C39.2952 455.596 35.7925 452.362 37.8133 448.59C39.1605 446.03 41.9896 445.222 44.5493 444.414C46.9742 443.606 49.1297 442.528 51.1505 440.911C53.1713 439.16 55.0574 437.139 57.4823 435.927C60.1767 434.579 63.41 434.579 66.5085 434.579C69.607 434.579 72.7056 434.579 75.6694 434.714C80.3846 434.984 80.7887 440.238 81.0582 444.01C81.3276 450.342 79.9804 456.539 78.9027 462.601C78.0943 467.316 77.9596 471.897 77.8249 476.612C77.5555 482.944 75.9388 488.736 73.2445 494.529C73.1097 494.529 73.3792 494.664 73.5139 494.529Z" fill="#C59C85"/>
<path d="M37.4092 454.787C37.1398 451.419 38.6217 448.186 41.9896 447.108C44.2799 446.3 46.8395 446.704 49.2645 446.704C51.2853 446.704 53.5755 446.704 55.4616 445.761C57.2129 444.953 58.2907 443.336 59.6379 441.854C61.6586 439.564 64.4877 439.16 67.3168 438.756C70.1459 438.351 73.1098 438.217 75.5347 439.833C79.9804 442.662 79.711 448.051 80.654 452.497C80.654 452.766 81.1929 452.766 81.1929 452.497C82.0012 448.186 80.2499 442.124 76.7472 439.429C74.7264 437.813 72.032 437.408 69.4724 437.543C66.9127 437.678 63.9489 437.947 61.6586 439.025C58.6948 440.372 57.6171 443.875 54.3838 445.087C51.2853 446.3 47.9173 445.492 44.684 445.896C39.8341 446.435 36.6009 449.803 37.4092 454.787C37.4092 454.922 37.4092 454.922 37.4092 454.787Z" fill="#C59C85"/>
<path d="M74.0528 439.16C78.9027 447.243 75.5347 456.134 74.1875 464.622C73.5139 468.529 73.6487 472.166 74.1875 476.073C74.5917 478.633 74.7264 480.923 74.1875 483.482C73.6487 485.638 72.7056 487.659 72.1667 489.814C72.1667 490.084 72.4362 490.218 72.5709 489.949C74.7264 486.446 75.6694 482.135 75.2653 478.094C74.9958 475.669 74.3223 473.378 74.1875 470.954C74.0528 468.124 74.5917 465.295 75.1306 462.466C76.7472 454.787 78.9027 446.165 74.0528 439.16C74.0528 439.025 74.0528 439.025 74.0528 439.16Z" fill="#C59C85"/>
<path d="M66.9127 438.486C68.5293 442.932 68.7988 446.973 68.5293 451.689C68.2599 455.596 68.6641 459.233 69.4724 463.005C70.2807 467.451 70.9543 471.897 70.9543 476.612C70.9543 478.902 70.8196 481.057 70.6849 483.348C70.5501 485.503 70.146 487.928 70.4154 490.084C70.4154 490.218 70.6849 490.353 70.6849 490.084C71.8973 485.907 71.6279 480.788 71.4932 476.612C71.4932 472.301 70.9543 467.99 70.146 463.813C69.2029 459.098 68.9335 454.652 69.0682 449.937C69.3377 445.896 68.6641 442.124 66.9127 438.486Z" fill="#C59C85"/>
<path d="M59.6379 441.181C59.5032 449.533 63.0059 457.212 64.892 465.295C66.778 474.187 66.778 483.348 68.9336 492.104C68.9336 492.239 69.203 492.239 69.203 492.104C69.0683 488.063 68.26 483.887 67.7211 479.845C67.0475 475.399 66.6433 470.819 65.7003 466.508C63.6795 458.02 59.9074 450.072 59.6379 441.181Z" fill="#C59C85"/>
<path d="M48.7256 446.704C47.9173 455.461 52.2283 463.409 55.4616 471.223C57.0782 475.13 57.8865 479.171 59.2337 483.078C60.4462 486.446 62.6017 489.275 64.8919 491.97C65.0266 492.239 65.2961 491.835 65.1613 491.7C62.6017 488.467 60.4462 485.368 59.2337 481.327C58.1559 477.555 57.0782 473.917 55.5963 470.28C52.2283 462.601 48.4562 455.191 48.7256 446.704Z" fill="#C59C85"/>
<path d="M125.381 469.876C131.578 469.876 138.718 468.798 143.164 474.052C147.475 479.037 149.63 486.177 150.034 492.643C150.169 494.26 150.169 495.877 149.765 497.493C149.361 499.11 148.418 500.322 147.879 501.804C146.801 504.229 146.666 506.654 146.801 509.214C146.936 512.582 147.071 516.219 144.78 518.914C142.76 521.204 139.661 522.416 136.697 522.012C136.024 521.877 135.62 522.955 136.428 523.09C142.086 524.168 147.071 520.8 148.014 515.141C148.687 511.369 147.61 507.462 148.687 503.825C149.226 502.074 150.439 500.457 150.978 498.706C151.651 496.954 151.651 494.934 151.516 493.182C151.247 486.177 148.957 478.363 144.242 473.109C139.257 467.451 131.982 468.933 125.381 469.876Z" fill="#C59C85"/>
<path d="M31.6163 515.68C29.865 515.68 28.1136 515.546 26.497 515.007C25.4192 514.737 24.3415 514.333 23.3984 513.929C21.9165 513.39 20.5693 512.851 19.2221 512.716C17.7402 512.447 16.2583 512.582 14.6417 512.582C13.2945 512.582 11.8126 512.716 10.4654 512.582C7.36686 512.312 3.72944 510.291 3.19057 507.058C3.05585 506.115 3.19057 505.172 3.32529 504.229L3.46001 503.69C3.86416 501.131 3.59473 498.571 3.46001 496.146C3.19057 493.721 3.05585 491.7 3.19057 489.545C3.59473 484.021 5.61551 479.037 7.77102 474.052C8.57933 472.031 9.65709 469.606 11.6779 468.124C15.45 465.295 20.4346 467.181 22.4554 467.99C23.6679 468.529 24.8804 469.202 25.9581 469.741C27.9789 470.819 29.7302 471.897 31.751 472.435C33.9065 472.974 36.4662 473.109 38.7564 473.109C42.5286 473.109 46.3007 473.244 49.3992 475.399C51.6895 477.016 53.0367 479.306 54.2491 481.596C55.1922 483.213 56.1352 484.83 57.3477 486.177C58.5601 487.524 60.0421 488.332 61.524 489.275C63.9489 490.757 66.5086 492.239 66.778 495.877L65.2961 496.011C65.1614 493.182 63.1406 492.104 60.7157 490.622C59.2337 489.814 57.6171 488.736 56.2699 487.255C54.9227 485.773 53.9797 484.021 53.0367 482.405C51.6895 480.114 50.477 478.094 48.5909 476.612C45.8965 474.726 42.3938 474.591 38.7564 474.591C36.3315 474.591 33.7718 474.591 31.3469 473.917C29.1914 473.378 27.1706 472.166 25.1498 471.088C24.072 470.415 22.8596 469.876 21.7818 469.337C18.1444 467.72 14.6417 467.72 12.4862 469.337C10.7348 470.549 9.92653 472.705 9.11821 474.591C7.09742 479.441 4.94192 484.425 4.67248 489.679C4.53776 491.7 4.67248 493.856 4.8072 495.877C4.94192 498.436 5.21136 501.131 4.8072 503.825L4.67248 504.499C4.53776 505.172 4.40304 505.98 4.53776 506.654C4.94192 509.214 7.90574 510.696 10.4654 510.965C11.8126 511.1 13.0251 511.1 14.3723 510.965C15.9889 510.965 17.6055 510.83 19.3569 511.1C20.9735 511.369 22.4554 511.908 23.8026 512.447C24.7456 512.851 25.8234 513.121 26.7664 513.39C32.5593 515.007 39.0259 513.121 44.2799 511.639L62.0628 506.519L62.467 508.001L44.8188 513.255C40.9119 514.333 36.3315 515.68 31.6163 515.68Z" fill="#C59C85"/>
<path d="M34.4454 557.443C32.694 557.443 30.8079 556.231 29.326 554.21C29.0566 553.806 28.6524 553.267 28.383 552.728C27.5747 551.516 26.9011 550.303 25.8233 549.63C24.7456 548.821 23.5331 548.552 22.1859 548.148C21.2429 547.878 20.1651 547.609 19.2221 547.07C15.3152 545.184 13.2945 540.873 11.5431 536.696L8.44456 529.152C7.90569 527.94 7.36681 526.593 7.50153 525.111C7.63625 523.629 8.30984 522.147 9.65704 520.395C13.6986 515.546 16.393 513.121 29.7302 514.064L29.5955 515.546C16.2583 514.603 14.1028 517.162 10.6001 521.338C9.3876 522.82 8.84872 524.033 8.84872 525.111C8.84872 526.323 9.25288 527.401 9.65704 528.479L12.7556 536.158C14.3722 540.199 16.1236 544.106 19.6263 545.723C20.4346 546.127 21.3776 546.396 22.3206 546.666C23.8025 547.07 25.2845 547.474 26.4969 548.417C27.8441 549.36 28.6524 550.707 29.4608 551.92C29.7302 552.324 29.9996 552.863 30.4038 553.267C31.0774 554.075 32.694 556.096 34.7148 555.827C35.7926 555.692 36.7356 555.018 37.8133 553.536C39.2952 551.65 40.373 549.36 41.5855 547.07C43.8757 542.624 46.3006 537.909 50.7464 536.023L51.2853 537.37C47.2437 539.121 45.0882 543.298 42.7979 547.743C41.5855 550.034 40.373 552.459 38.8911 554.479C37.6786 556.096 36.3314 557.039 34.8495 557.309C34.8495 557.443 34.5801 557.443 34.4454 557.443Z" fill="#C59C85"/>
<path d="M138.179 470.01C141.817 473.783 145.589 477.824 145.05 483.482C144.646 488.332 142.49 492.509 143.568 497.493C144.107 500.053 145.185 502.882 143.837 505.307C142.894 507.058 141.143 508.001 140.335 509.887C139.661 511.504 139.931 513.255 140.469 514.872C141.412 518.375 140.335 521.877 136.158 522.147C135.62 522.147 135.62 522.82 136.158 522.955C140.604 523.494 143.164 519.183 142.086 515.276C141.547 513.255 141.143 511.504 142.625 509.753C143.433 508.81 144.242 508.136 145.05 507.193C146.397 505.307 146.667 503.151 146.262 500.996C145.589 497.628 144.376 494.664 144.915 491.161C145.319 488.332 146.397 485.638 146.262 482.809C146.128 477.285 142.086 473.378 138.179 470.01Z" fill="#C59C85"/>
<path d="M23.8026 469.472C23.8026 469.741 21.1082 469.741 20.704 469.741C19.6263 469.876 18.6832 470.145 17.7402 470.549C16.1236 471.223 14.7764 472.166 13.8334 473.648C12.6209 475.669 12.7556 478.094 12.6209 480.249C12.3514 483.752 10.4654 486.312 9.11819 489.41C8.17515 491.566 7.90571 493.721 7.77099 496.011C7.50156 499.11 6.28908 502.208 6.01964 505.307C5.75021 508.54 7.63627 513.121 11.6778 512.043C12.082 511.908 11.9473 511.369 11.5431 511.369C7.63627 511.639 6.55852 507.597 6.96268 504.499C7.23212 502.478 8.04043 500.457 8.30987 498.436C8.71403 496.011 8.57931 493.452 9.2529 491.027C9.9265 488.871 11.139 486.985 12.082 484.964C13.6986 481.192 12.082 475.938 14.9111 472.705C16.393 471.088 18.5485 470.28 20.704 470.011C21.6471 469.876 23.2637 470.145 24.072 469.472C23.9373 469.337 23.8026 469.202 23.8026 469.472C23.8026 469.606 23.6679 469.472 23.8026 469.472Z" fill="#C59C85"/>
<path d="M23.3984 480.249C23.5332 480.249 23.5332 480.114 23.3984 480.249C23.3984 480.114 23.3984 480.249 23.3984 480.249Z" fill="#C59C85"/>
<path d="M45.2229 551.785C45.4923 556.231 47.6478 562.428 52.0936 564.179C54.1144 564.988 56.0004 564.449 57.8865 563.506C59.5031 562.697 61.5239 561.62 63.41 562.158C65.4308 562.832 65.1613 564.449 66.5085 565.526C68.1252 566.874 71.089 567.143 73.1098 567.143C75.8042 567.143 78.6333 566.469 81.0582 565.122C85.3692 562.832 88.6025 558.386 89.5455 553.536C89.5455 553.402 89.4108 553.402 89.4108 553.536C88.0636 558.521 84.9651 562.832 80.1152 564.988C77.4208 566.2 74.457 566.604 71.4931 566.335C70.1459 566.2 68.3946 566.065 67.3168 565.257C66.2391 564.583 65.9696 563.101 65.1613 562.293C62.3322 559.599 58.5601 562.832 55.731 563.64C49.2645 565.661 46.1659 556.5 45.2229 551.785Z" fill="#C59C85"/>
<path d="M84.4263 495.472C89.5456 496.011 94.5302 495.203 99.2454 493.317C104.095 491.431 107.733 487.928 112.178 485.638C117.163 483.078 122.821 482.539 128.345 482.674C134.542 482.809 141.412 483.348 143.972 489.949C144.107 490.218 144.646 490.084 144.511 489.814C142.894 485.368 139.257 483.213 134.542 482.539C129.153 481.731 123.495 481.596 118.106 482.809C115.546 483.348 113.121 484.291 110.831 485.503C108.272 486.985 106.116 489.006 103.556 490.488C97.7635 493.99 91.1622 495.472 84.4263 495.472Z" fill="#C59C85"/>
<path d="M85.5039 497.628C95.2037 500.861 106.385 497.897 116.355 496.82C125.381 495.742 139.93 492.913 144.107 504.094C144.241 504.499 145.05 504.364 144.78 503.825C141.412 494.664 130.231 494.26 122.013 495.338C116.355 496.146 110.562 496.954 104.903 497.628C98.3022 498.571 91.9704 499.245 85.5039 497.628Z" fill="#C59C85"/>
<path d="M141.143 514.468C135.754 507.597 127.402 503.151 118.914 501.265C115.142 500.457 111.505 500.457 107.733 500.861C103.826 501.265 99.5148 501.939 95.7427 500.861C95.6079 500.861 95.4732 500.996 95.6079 501.131C98.437 502.343 101.805 502.074 104.904 501.804C108.945 501.535 112.987 500.861 117.028 501.669C121.474 502.478 125.92 504.229 129.961 506.385C133.868 508.675 137.371 511.773 141.143 514.468C141.143 514.468 141.008 514.468 141.143 514.468Z" fill="#C59C85"/>
<path d="M76.882 509.753C82.4054 511.639 86.8512 517.971 89.1414 523.225C91.5664 528.479 93.8566 533.733 96.551 538.852C97.8982 541.277 99.2453 543.702 100.727 546.127C102.074 548.148 103.422 550.977 105.442 552.189C107.194 553.267 109.349 553.671 111.37 554.21C113.66 554.749 115.951 555.692 118.375 555.288C120.935 555.018 124.303 553.671 126.459 552.189C129.018 550.438 128.479 547.474 130.5 545.319C133.599 541.951 138.853 541.412 140.2 536.427C141.547 531.173 138.044 525.515 135.62 521.069C132.656 515.815 129.153 510.965 123.899 507.732C117.702 503.96 110.292 502.613 103.287 501.4C95.3385 500.188 87.3901 499.514 79.3069 500.053C78.9027 500.053 78.768 500.726 79.3069 500.726C92.1052 501.4 105.577 501.939 117.702 506.385C123.764 508.675 128.479 512.447 132.117 517.701C135.215 522.147 139.392 528.344 139.257 533.867C139.122 539.93 133.464 540.603 129.961 543.971C128.345 545.588 128.479 547.474 127.267 549.36C126.324 550.977 124.034 551.65 122.417 552.324C120.396 553.132 118.106 553.671 115.951 553.267C114.064 552.863 112.044 552.324 110.158 551.785C109.08 551.516 107.867 551.246 106.924 550.707C105.442 549.899 104.634 548.282 103.691 546.935C100.727 542.624 98.3023 538.044 95.8774 533.463C93.3177 528.479 91.2969 523.09 88.0636 518.509C86.5817 516.489 84.6957 514.603 82.8096 512.851C81.193 511.504 79.3069 510.157 76.882 509.753C76.882 509.753 76.882 509.618 76.882 509.753Z" fill="#C59C85"/>
<path d="M85.504 502.478C88.0637 502.747 90.6234 503.69 93.0483 504.364C95.8774 505.172 98.7065 505.846 101.536 506.789C107.059 508.405 112.987 509.753 118.106 512.447C122.821 514.872 126.593 519.048 130.096 522.955C134.542 527.805 136.563 533.733 135.62 540.334C135.62 540.738 136.158 540.873 136.293 540.469C137.101 535.215 136.158 529.691 132.925 525.38C129.692 520.934 125.246 516.354 120.666 513.39C115.546 510.022 108.945 508.675 103.152 507.058C100.054 506.115 96.8204 505.307 93.7219 504.499C90.8928 503.69 88.1984 502.478 85.504 502.478Z" fill="#C59C85"/>
<path d="M130.231 543.702C131.308 538.717 127.671 533.463 125.516 529.152C124.438 526.862 123.36 524.572 121.474 522.955C119.588 521.339 117.298 520.53 115.007 519.452C110.292 517.162 107.059 512.986 101.805 511.369C96.0121 509.618 90.6233 507.867 85.0998 505.172C84.9651 505.172 84.9651 505.172 85.0998 505.307C88.872 507.732 93.0482 509.214 97.3593 510.561C100.188 511.369 103.017 511.908 105.577 513.525C107.733 514.872 109.619 516.623 111.639 518.105C113.526 519.452 115.681 520.395 117.837 521.339C120.531 522.686 122.417 524.437 123.899 527.131C125.111 529.422 126.189 531.847 127.402 534.272C129.018 537.37 130.5 540.334 130.231 543.702C130.231 543.837 130.231 543.837 130.231 543.702Z" fill="#C59C85"/>
<path d="M84.1568 506.789C87.7942 510.022 92.2399 512.312 96.551 514.737C100.997 517.297 105.308 520.126 108.945 523.629C112.717 527.266 115.142 531.442 117.298 536.158C119.723 541.412 123.899 546.127 122.552 552.324C122.552 552.459 122.686 552.459 122.821 552.324C124.707 547.743 121.474 543.163 119.319 539.256C116.759 534.541 114.873 529.691 111.37 525.515C103.691 517.028 92.7788 513.66 84.1568 506.789C84.0221 506.789 84.1568 506.654 84.1568 506.789Z" fill="#C59C85"/>
<path d="M111.505 554.075C110.966 549.091 110.023 544.241 108.002 539.66C107.059 537.505 105.981 535.349 104.769 533.463C103.422 531.577 101.805 530.095 100.188 528.479C96.9551 525.111 95.8773 520.261 92.5093 517.027C89.2761 514.064 85.0998 511.908 81.0582 510.561C80.9235 510.561 80.7888 510.83 80.9235 510.83C84.8303 512.851 89.0066 514.333 92.2399 517.566C95.3384 520.665 96.012 525.245 98.8411 528.613C100.323 530.365 102.074 531.847 103.422 533.733C104.634 535.484 105.577 537.505 106.52 539.391C108.541 544.106 110.427 548.956 111.505 554.075C111.505 554.075 111.37 554.075 111.505 554.075Z" fill="#C59C85"/>
<path d="M81.4623 499.514C83.3484 495.203 87.9289 491.97 92.1052 489.949C96.2814 487.793 100.862 486.446 105.308 484.695C109.349 482.944 113.391 481.327 117.298 479.171C120.531 477.42 124.303 475.938 125.785 472.301C126.459 470.684 126.863 469.067 127.402 467.316C128.075 465.161 128.749 463.409 128.614 461.119C128.345 457.886 126.997 452.901 123.764 451.419C122.552 450.88 121.339 450.611 120.261 449.668C119.453 448.86 118.78 447.782 118.375 446.839C117.567 445.222 116.893 443.336 115.681 441.854C113.121 439.16 109.753 438.621 106.385 439.16C101.535 439.968 96.6856 442.528 92.5093 444.953C88.0636 447.647 84.1567 451.015 81.8665 455.73C81.5971 456.134 82.2707 456.404 82.5401 456.134C87.7941 448.86 95.8773 443.74 104.365 441.181C108.945 439.833 113.121 440.238 115.681 444.683C117.163 447.243 118.106 450.341 120.935 451.823C122.013 452.362 123.36 452.632 124.303 453.44C125.381 454.248 125.785 456 126.189 457.212C127.132 459.907 127.671 462.601 126.728 465.43C125.65 468.394 125.246 472.57 122.417 474.322C115.546 478.902 107.463 482.135 99.7841 485.099C96.1467 486.446 92.2399 487.793 89.2761 490.353C86.1775 492.913 82.5401 495.472 81.4623 499.514C81.4623 499.514 81.3276 499.514 81.4623 499.514Z" fill="#C59C85"/>
<path d="M74.9959 490.623C75.4001 488.332 76.3431 486.312 77.1514 484.156C78.0944 481.327 79.0375 478.498 80.1152 475.669C82.136 470.28 83.8874 464.352 86.8512 459.368C89.5456 454.922 93.8566 451.554 97.8982 448.455C103.017 444.414 108.81 442.932 115.142 444.279C115.546 444.414 115.681 443.74 115.277 443.606C110.158 442.393 104.769 443.067 100.323 445.896C95.8774 448.725 91.2969 452.632 88.0637 456.808C84.4262 461.523 82.6749 467.855 80.6541 473.379C79.4416 476.612 78.3639 479.98 77.2861 483.213C76.3431 485.638 75.1306 488.063 74.9959 490.623C74.9959 490.623 74.8612 490.623 74.9959 490.623Z" fill="#C59C85"/>
<path d="M118.106 449.668C113.121 448.186 107.463 451.823 102.883 453.575C100.862 454.383 98.8412 455.326 97.3593 456.808C95.6079 458.559 94.6649 460.85 93.4524 462.87C90.8927 467.316 86.5817 470.28 84.6957 475.13C82.5402 480.653 80.6541 485.907 77.5555 491.027C77.5555 491.161 77.5555 491.161 77.6903 491.027C80.2499 487.389 82.136 483.482 83.6179 479.306C84.5609 476.612 85.3693 473.783 86.9859 471.492C88.4678 469.337 90.4886 467.586 92.1052 465.565C95.2038 461.793 96.1468 457.077 100.862 454.787C103.422 453.575 106.116 452.632 108.676 451.554C111.774 450.476 114.738 449.129 118.106 449.668C118.106 449.668 118.106 449.803 118.106 449.668Z" fill="#C59C85"/>
<path d="M79.0374 492.239C82.4054 489.006 84.8303 484.964 87.2553 481.057C89.9497 477.016 92.9135 472.974 96.5509 469.606C100.592 465.834 104.903 463.813 109.888 461.793C115.142 459.772 119.992 456.134 125.92 457.751C126.054 457.751 126.189 457.616 126.054 457.482C121.743 455.326 117.028 458.155 113.256 459.907C108.406 462.197 103.422 463.679 99.1106 467.047C90.2191 473.917 86.3122 484.291 79.0374 492.239C79.0374 492.374 78.9027 492.239 79.0374 492.239Z" fill="#C59C85"/>
<path d="M126.997 468.663C121.878 468.933 116.894 469.606 112.044 471.358C109.888 472.166 107.598 473.109 105.577 474.456C103.556 475.803 102.074 477.689 100.188 479.037C96.6856 481.462 92.5093 482.27 89.4108 485.234C86.447 488.063 84.1568 491.835 82.8096 495.607C82.5401 495.742 82.8096 495.742 82.8096 495.607C85.0998 491.97 86.5817 488.198 89.815 485.234C93.0482 482.405 97.3592 482 100.862 479.576C102.479 478.498 103.826 477.016 105.442 475.938C107.598 474.456 109.888 473.513 112.313 472.57C117.028 470.819 121.878 469.337 126.997 468.663C126.997 468.663 126.997 468.798 126.997 468.663Z" fill="#C59C85"/>
<path d="M76.2083 515.007C75.9389 517.297 75.6694 519.587 75.9389 521.877C76.2083 523.629 77.0166 525.245 77.5555 526.862C78.9027 531.173 78.768 535.888 78.768 540.199C78.9027 544.78 79.1721 549.36 78.768 553.941C78.6333 556.231 78.0944 558.521 77.4208 560.677C76.7472 562.832 75.6694 564.718 74.9958 566.874C74.9958 567.008 75.1306 567.143 75.2653 567.008C77.8249 564.179 79.0374 559.733 79.4416 555.961C79.9805 551.381 79.711 546.666 79.5763 542.085C79.4416 537.774 79.5763 533.329 78.6333 529.152C78.0944 526.862 76.8819 524.841 76.343 522.686C75.8042 520.126 76.0736 517.566 76.2083 515.007C76.2083 514.872 76.343 514.872 76.2083 515.007Z" fill="#C59C85"/>
<path d="M72.7056 516.084C71.2237 519.318 71.2237 522.82 71.3584 526.188C71.4931 530.769 71.8973 535.349 72.032 539.795C72.1667 544.106 72.5709 548.821 72.032 553.132C71.4931 557.578 68.5293 561.485 67.4515 565.931C67.4515 566.065 67.721 566.2 67.721 566.065C68.7987 564.179 69.607 562.158 70.5501 560.138C71.2237 558.521 72.1667 556.77 72.7056 555.018C73.7833 551.246 73.2445 546.666 73.1097 542.759C72.975 538.313 72.8403 533.733 72.3014 529.287C71.6278 524.841 71.2237 520.53 72.7056 516.084Z" fill="#C59C85"/>
<path d="M69.8765 515.411C67.5863 518.509 66.2391 522.147 64.8919 525.784C63.41 529.826 62.0628 533.867 61.3892 538.178C60.7156 542.759 61.7934 547.339 60.8503 551.785C60.1767 555.422 58.6948 558.79 59.2337 562.563C59.2337 562.967 59.9073 562.832 59.9073 562.428C59.9073 558.521 61.6586 554.884 62.0628 550.977C62.6017 546.935 61.6586 542.759 62.0628 538.717C62.4669 534.541 63.8141 530.634 64.8919 526.727C66.2391 522.686 67.5863 518.914 69.8765 515.411Z" fill="#C59C85"/>
<path d="M67.5863 515.007C64.6225 519.587 61.6587 524.033 58.8296 528.613C56.4046 532.52 53.7102 536.562 52.4978 541.007C51.2853 545.588 52.3631 550.034 52.0936 554.614C51.8242 558.386 51.5547 562.024 55.0574 564.449C55.1922 564.583 55.4616 564.314 55.3269 564.179C51.5547 561.081 53.4408 555.692 53.1714 551.381C53.0366 549.36 52.6325 547.339 52.7672 545.318C52.9019 542.894 53.5755 540.603 54.3838 538.448C56.0005 534.272 58.2907 530.634 60.5809 526.862C63.0059 522.955 65.2961 519.048 67.5863 515.007C67.5863 515.007 67.721 515.007 67.5863 515.007Z" fill="#C59C85"/>
<path d="M65.1613 514.333C61.6586 515.95 59.2337 518.779 57.0781 521.877C54.249 525.919 51.4199 529.961 47.7825 533.463C46.1659 535.08 44.4145 536.427 42.9326 538.313C41.7202 539.93 41.0466 541.816 40.1035 543.567C37.8133 547.878 34.0412 551.65 29.0566 552.593C28.6524 552.593 28.9218 553.132 29.1913 553.132C33.0981 552.593 36.1967 550.303 38.6216 547.205C39.8341 545.723 40.7771 543.971 41.5854 542.355C42.7979 539.795 44.2798 537.909 46.4353 535.888C49.8033 532.655 52.7671 529.152 55.3268 525.38C58.1559 521.069 60.7156 516.893 65.1613 514.333Z" fill="#C59C85"/>
<path d="M59.6378 511.773C55.3268 513.525 51.0158 515.546 47.109 518.105C43.3368 520.53 40.2383 523.494 37.1397 526.593C33.9065 529.826 30.5385 533.059 26.4969 535.08C22.5901 536.966 17.6055 537.774 14.3722 540.738C14.2375 540.873 14.3722 541.142 14.5069 541.007C18.4138 539.526 22.3206 537.774 26.0928 536.023C29.9996 534.137 33.0982 531.308 36.062 528.344C39.43 524.976 42.5285 521.608 46.4354 518.914C50.7464 516.084 55.3268 514.064 59.6378 511.773C59.7726 511.773 59.7726 511.773 59.6378 511.773Z" fill="#C59C85"/>
<path d="M42.2591 513.39C36.6009 514.603 29.865 515.68 25.1498 519.183C21.9165 521.473 19.3569 522.282 15.5847 522.686C13.1598 522.955 10.3307 523.225 8.17519 524.572C8.04047 524.707 8.17519 524.976 8.30991 524.841C11.2737 523.763 13.9681 523.359 17.0667 522.955C19.4916 522.551 21.7818 522.147 23.8026 520.665C26.497 518.644 28.7872 517.432 32.0205 516.354C35.5232 515.411 38.8912 514.468 42.2591 513.39C42.3939 513.39 42.3939 513.525 42.2591 513.39Z" fill="#C59C85"/>
<path d="M59.099 496.954C58.2907 497.897 53.4408 494.395 52.4978 493.856C50.3423 492.509 48.591 491.027 46.8396 489.275C44.0105 486.446 40.5078 484.695 36.7357 483.482C29.4608 481.057 19.7611 477.959 12.4862 482.27C12.3515 482.405 12.4862 482.674 12.6209 482.539C17.6056 480.653 22.4554 480.519 27.5748 481.596C32.2899 482.674 37.2745 483.887 41.5856 486.177C45.6271 488.332 48.1868 492.104 52.0937 494.26C53.3061 494.799 58.4255 498.706 59.099 496.954C59.099 496.82 59.2338 496.954 59.099 496.954Z" fill="#C59C85"/>
<path d="M8.98352 490.757C13.2945 488.198 20.1652 489.814 24.7457 490.488C29.0567 491.161 33.5024 491.97 37.6787 493.182C42.1244 494.395 45.4924 496.55 49.1298 499.11C51.5548 500.861 55.3269 502.343 58.156 500.457C58.4255 500.322 58.2907 499.918 58.0213 499.918C55.4616 500.053 53.3061 500.592 50.8812 499.245C48.9951 498.167 47.3785 496.685 45.4924 495.607C41.7203 493.452 37.544 492.374 33.233 491.431C28.7872 490.488 24.2068 489.679 19.6263 489.275C16.3931 489.141 11.8126 488.467 8.98352 490.757Z" fill="#C59C85"/>
<path d="M58.4254 502.478C57.3477 504.094 53.5755 503.286 51.8242 503.286C49.534 503.286 47.109 503.017 44.8188 502.613C40.9119 501.804 37.4092 499.783 33.5024 498.975C29.865 498.167 26.0928 498.302 22.4554 498.84C17.6055 499.514 13.1598 500.861 8.30991 499.783C8.04047 499.649 7.90575 500.188 8.17519 500.322C12.2168 501.804 16.6625 500.457 20.8388 499.783C26.3623 498.84 31.751 498.84 37.1398 500.861C41.3161 502.343 45.223 503.556 49.8034 503.825C52.0936 503.96 54.5186 504.094 56.6741 503.825C57.3477 503.556 58.0213 503.286 58.4254 502.478Z" fill="#C59C85"/>
<path d="M86.9859 519.722C86.9859 519.722 86.9859 519.587 86.9859 519.722C86.8512 519.587 86.8512 519.722 86.9859 519.722Z" fill="#C59C85"/>
<path d="M65.4308 494.529C65.4308 493.452 64.6224 493.452 63.5447 493.317C62.4669 493.182 61.3892 493.991 61.1197 495.068C60.985 495.607 61.1197 496.281 60.7156 496.82C60.3114 497.224 59.7726 497.359 59.2337 497.493C58.0212 498.032 57.3476 499.783 58.2906 500.727C58.6948 501.131 59.5031 501.4 59.6378 502.074C59.9073 503.286 58.0212 503.556 57.3476 504.499C56.8087 505.172 56.9435 506.115 57.3476 506.789C57.7518 507.462 58.5601 508.001 59.2337 508.406C59.6378 508.675 60.042 508.81 60.3114 509.214C60.5809 509.618 60.5809 510.022 60.5809 510.426C60.5809 511.773 60.8503 513.255 62.0628 513.929C63.41 514.737 65.1613 513.66 66.778 513.929C67.8557 514.198 68.664 515.007 69.4723 515.68C70.2807 516.354 71.4931 516.893 72.4362 516.489C73.1098 516.219 73.5139 515.546 74.1875 515.276C74.8611 514.872 75.6694 514.872 76.4777 514.603C77.1513 514.333 77.9596 513.66 77.8249 512.986C77.8249 512.717 77.6902 512.447 77.6902 512.178C77.6902 511.908 77.9596 511.773 78.0944 511.639C79.0374 510.965 80.1152 510.965 81.1929 510.696C82.2707 510.426 83.3484 509.349 82.9443 508.271C82.9443 508.001 82.8095 507.867 82.6748 507.597C82.6748 506.924 83.3484 506.654 83.8873 506.25C85.6386 505.307 86.5817 502.882 85.3692 501.4C85.0998 501.131 84.8303 500.996 84.6956 500.592C84.4262 500.053 84.8303 499.379 84.965 498.706C85.6386 496.954 85.2345 494.529 83.4831 493.991C83.079 493.856 82.5401 493.856 82.2707 493.586C81.7318 493.182 81.5971 492.374 81.1929 491.7C80.5193 490.218 78.4985 489.41 76.8819 490.218C76.4777 490.353 76.2083 490.623 75.8041 490.757C74.0528 491.296 72.1667 488.871 70.6848 489.814C70.4154 490.084 70.1459 490.353 69.7418 490.488C69.2029 490.757 68.5293 490.623 67.8557 490.623C66.5085 490.757 65.296 491.97 65.4308 493.317V494.529Z" fill="#FFFCF9"/>
<path d="M65.4309 494.529C65.2961 493.586 65.0267 493.452 64.0837 493.182C62.3323 492.778 61.6587 493.586 60.7157 494.934C60.0421 495.877 59.5032 496.415 58.5602 496.954C58.0213 497.224 57.6171 497.628 57.3477 498.302C57.0783 498.84 56.9435 499.379 57.0783 499.918C57.213 500.996 58.6949 501.804 58.156 502.882C57.8866 503.421 56.9436 503.556 56.5394 504.094C56.1352 504.633 56.0005 505.172 56.1352 505.846C56.4047 508.136 58.9643 508.405 59.6379 510.426C60.1768 511.908 59.7727 513.525 61.524 514.468C62.1976 514.872 63.0059 514.872 63.8142 514.737C64.0837 514.737 64.3531 514.603 64.6225 514.603C66.6433 514.468 67.4516 514.872 68.9336 515.95C70.0113 516.623 71.0891 517.297 72.4363 516.893C73.514 516.489 74.457 515.546 75.6695 515.007C76.3431 514.737 77.1514 514.603 77.5556 513.929C78.0945 513.121 77.4209 513.525 77.9597 512.716C79.0375 510.696 79.5764 511.369 81.193 510.696C81.8666 510.426 82.5402 510.022 82.9443 509.483C83.3485 508.944 83.0791 508.675 83.2138 508.001C83.8874 506.115 85.9082 505.576 86.3123 503.556C86.447 502.882 86.3123 502.343 86.1776 501.67C86.1776 501.4 85.9082 501.265 85.7735 501.131C85.0999 499.514 85.3693 499.649 85.7735 498.302C86.0429 497.089 86.0429 495.742 85.3693 494.664C84.9651 494.125 84.561 493.856 84.0221 493.452C82.4055 492.239 82.5402 491.835 81.5972 490.623C80.5194 489.141 78.6333 489.006 77.0167 489.41C76.4778 489.545 76.2084 489.949 75.5348 489.949C74.7265 489.949 73.9182 489.41 73.2446 489.141C72.571 488.871 72.0321 488.736 71.2238 488.871C70.146 489.006 69.0683 489.679 68.1252 489.949C67.3169 490.218 66.6433 490.353 65.9697 491.027C64.892 492.239 64.7573 493.317 65.4309 494.529C65.7003 494.26 65.9697 493.856 66.1045 493.586C66.2392 493.452 68.26 491.566 68.5294 491.431C68.7988 491.296 69.0683 491.566 69.203 491.431C69.7419 491.296 70.146 491.027 70.5502 490.757C72.1668 490.084 72.9751 491.027 74.5918 491.431C75.8042 491.7 76.3431 491.161 77.4209 490.892C80.1152 490.218 80.1152 492.239 81.4624 493.721C81.7319 494.125 82.0013 494.125 82.4055 494.395C83.6179 495.068 84.8304 495.472 84.8304 497.224C84.8304 498.436 83.8874 499.379 84.1568 500.592C84.2915 500.996 84.4263 501.131 84.561 501.4C84.6957 501.67 85.3693 502.747 85.3693 503.017C85.504 504.094 84.6957 505.037 84.0221 505.711C83.2138 506.519 82.6749 506.519 82.136 507.597C81.8666 508.271 81.8666 509.753 81.4624 510.157C80.9236 510.696 79.4416 510.696 78.6333 510.965C77.9597 511.235 77.6903 511.504 77.2861 512.043C77.1514 512.178 77.4209 512.447 77.2861 512.582C76.0737 514.468 75.4001 514.468 73.7834 515.007C72.7057 515.411 71.3585 516.219 70.0113 515.815C69.3377 515.546 68.7988 514.737 68.1252 514.333C67.0475 513.66 65.9697 513.39 64.7573 513.39C63.6795 513.39 63.1406 513.66 62.1976 513.121C60.9851 512.312 61.1198 511.504 60.9851 510.157C60.8504 509.079 60.581 508.675 59.7727 508.001C59.5032 507.867 59.2338 507.732 58.9643 507.462C58.0213 506.789 57.8866 505.307 58.5602 504.364C58.8296 503.96 59.3685 503.825 59.7727 503.421C60.3115 502.747 60.3115 502.208 59.9074 501.4C59.2338 500.188 57.4824 500.322 59.7727 497.763C60.0421 497.493 60.581 497.358 60.8504 496.954C60.9851 496.685 60.9851 496.415 61.1198 496.146C61.7934 494.934 59.9074 496.82 62.3323 494.529C63.1406 493.856 64.7573 492.509 65.4309 494.529Z" fill="#C59C85"/>
<path d="M69.3376 494.26C68.1251 494.395 66.9127 494.529 65.9696 495.338C65.0266 496.281 65.1613 496.954 65.0266 498.167C64.6224 500.726 63.1405 501.4 62.0628 503.421C61.5239 504.633 61.3892 505.846 61.7933 507.193C62.1975 508.271 63.0058 508.944 64.0836 509.483C64.8919 509.887 65.8349 510.022 66.6432 510.561C67.3168 510.965 67.8557 511.504 68.664 511.908C70.9543 512.986 73.6486 512.716 75.6694 511.235C77.0166 510.292 77.4208 508.944 78.4985 507.867C79.5763 506.789 81.3276 506.519 82.0012 505.037C82.4054 504.229 82.4054 503.151 82.0012 502.343C81.7318 501.804 81.4623 501.669 81.1929 501.131C81.0582 500.996 80.7887 500.861 80.654 500.726C79.8457 499.649 79.711 498.706 80.2499 497.763C80.3846 496.82 80.654 496.281 80.1152 495.472C79.4416 494.529 78.3638 494.26 77.286 494.26C75.9389 494.26 75.4 494.395 73.9181 493.99C73.2445 493.856 73.1098 493.452 72.4362 493.452C71.3584 493.317 70.2807 493.99 69.2029 494.26C68.9335 494.26 68.9335 494.799 69.2029 494.799C69.6071 494.799 70.1459 494.799 70.5501 494.799C71.2237 494.799 72.8403 494.934 73.6486 495.068C73.7834 495.068 74.0528 495.338 74.1875 495.472C74.9958 495.607 75.6694 495.338 76.4777 495.472C77.4208 495.068 77.9596 495.472 78.0944 496.685C79.0374 497.224 79.1721 497.897 78.768 498.436C78.768 498.706 78.6332 498.84 78.4985 499.11C78.2291 500.726 79.1721 500.861 79.9804 501.804C81.1929 503.017 81.3276 504.499 79.9804 505.711C79.5763 505.98 78.9027 506.25 78.4985 506.519C77.8249 506.924 77.4208 507.462 77.0166 508.136C75.4 510.292 73.5139 512.043 70.5501 511.773C69.2029 511.639 68.2599 510.965 67.1821 510.292C66.1044 509.618 64.8919 509.214 63.8141 508.54C61.6586 507.058 62.3322 504.499 63.8141 502.747C64.353 502.074 65.296 501.535 65.5655 500.592C65.8349 499.918 65.7002 499.649 65.7002 498.975C65.8349 498.167 65.5655 497.089 66.2391 496.281C66.9127 495.203 68.5293 494.664 69.3376 494.26C69.3376 494.26 69.3376 494.395 69.3376 494.26Z" fill="#C59C85"/>
<path d="M69.7418 500.996C70.7834 500.996 71.6279 500.152 71.6279 499.11C71.6279 498.068 70.7834 497.224 69.7418 497.224C68.7001 497.224 67.8557 498.068 67.8557 499.11C67.8557 500.152 68.7001 500.996 69.7418 500.996Z" fill="#C59C85"/>
<path d="M67.5863 504.094C67.5863 504.633 67.0474 505.172 66.5085 505.172C65.9697 505.172 65.4308 504.633 65.4308 504.094C65.4308 503.556 65.9697 503.017 66.5085 503.017C67.1821 503.017 67.5863 503.556 67.5863 504.094Z" fill="#C59C85"/>
<path d="M71.8973 505.846C72.5669 505.846 73.1098 505.303 73.1098 504.633C73.1098 503.964 72.5669 503.421 71.8973 503.421C71.2277 503.421 70.6848 503.964 70.6848 504.633C70.6848 505.303 71.2277 505.846 71.8973 505.846Z" fill="#C59C85"/>
<path d="M76.0737 498.706C76.0737 499.245 75.6695 499.649 75.1307 499.649C74.5918 499.649 74.1876 499.245 74.1876 498.706C74.1876 498.167 74.5918 497.763 75.1307 497.763C75.6695 497.763 76.0737 498.167 76.0737 498.706Z" fill="#C59C85"/>
<path d="M75.9389 502.478C75.9389 502.882 75.6694 503.151 75.2653 503.151C74.8611 503.151 74.5917 502.882 74.5917 502.478C74.5917 502.074 74.8611 501.804 75.2653 501.804C75.6694 501.939 75.9389 502.208 75.9389 502.478Z" fill="#C59C85"/>
<path d="M79.711 503.286C79.711 503.69 79.4415 504.094 78.9027 504.094C78.4985 504.094 78.0944 503.825 78.0944 503.286C78.0944 502.882 78.3638 502.478 78.9027 502.478C79.4415 502.478 79.711 502.882 79.711 503.286Z" fill="#C59C85"/>
<path d="M75.6695 507.597C75.6695 508.001 75.4 508.271 74.9959 508.271C74.5917 508.271 74.3223 508.001 74.3223 507.597C74.3223 507.193 74.5917 506.924 74.9959 506.924C75.4 506.924 75.6695 507.193 75.6695 507.597Z" fill="#C59C85"/>
<path d="M70.4154 509.214C70.9363 509.214 71.3585 508.792 71.3585 508.271C71.3585 507.75 70.9363 507.328 70.4154 507.328C69.8946 507.328 69.4724 507.75 69.4724 508.271C69.4724 508.792 69.8946 509.214 70.4154 509.214Z" fill="#C59C85"/>
<path d="M66.1044 509.079C66.6252 509.079 67.0474 508.657 67.0474 508.136C67.0474 507.615 66.6252 507.193 66.1044 507.193C65.5836 507.193 65.1614 507.615 65.1614 508.136C65.1614 508.657 65.5836 509.079 66.1044 509.079Z" fill="#C59C85"/>
<path d="M64.7573 503.96C64.7573 504.364 64.4878 504.768 63.9489 504.768C63.4101 504.768 63.1406 504.499 63.1406 503.96C63.1406 503.421 63.4101 503.151 63.9489 503.151C64.4878 503.151 64.7573 503.556 64.7573 503.96Z" fill="#C59C85"/>
<path d="M74.8612 495.472C74.8612 496.011 74.3223 496.55 73.7834 496.55C73.2446 496.55 72.7057 496.011 72.7057 495.472C72.7057 494.934 73.2446 494.395 73.7834 494.395C74.3223 494.395 74.8612 494.799 74.8612 495.472Z" fill="#C59C85"/>
<path d="M153.575 407.86C153.443 405.353 150.803 402.699 147.981 400.576C148.43 400.737 148.841 400.963 149.198 401.052C150.957 401.762 154.49 403.387 155.407 402.089C156.521 400.464 152.311 397.922 151.04 397.308C150.405 397.001 149.73 396.759 149.056 396.517C151.115 396.501 152.882 396.064 154.328 394.796C154.406 394.666 154.392 394.462 154.207 394.316C151.516 392.201 149.007 392.055 146.898 392.607C148.501 391.079 148.751 388.391 147.849 384.893C147.835 384.689 147.557 384.47 147.293 384.455C145.501 385.162 144.173 386.233 143.177 387.661C143.134 387.051 143.052 386.506 143.01 385.895C142.917 385.822 142.731 385.676 142.639 385.603C142.585 385.465 142.585 385.465 142.492 385.392C142.4 385.319 142.4 385.319 142.307 385.246C142.214 385.173 141.989 385.092 141.95 385.158C139.383 386.697 137.102 389.808 138.839 393.963C138.8 394.028 138.721 394.159 138.682 394.224C136.473 393.352 134.239 392.749 132.005 392.146C131.819 392 131.595 391.92 131.37 391.839C131.238 391.831 131.198 391.897 131.198 391.897C129.375 391.52 127.551 391.144 125.688 390.833C127.073 390.575 128.283 389.7 128.091 388.202C128.077 387.999 127.891 387.853 127.666 387.772C125.91 387.738 124.436 388.598 124.286 390.211C124.114 390.268 123.904 390.391 123.733 390.449C123.693 390.514 123.693 390.514 123.693 390.514C118.383 389.8 113.062 389.557 107.99 389.127C107.898 389.054 107.766 389.047 107.673 388.974C107.58 388.901 107.541 388.966 107.501 389.031C106.841 388.993 106.22 388.889 105.692 388.858C104.939 388.747 104.186 388.636 103.579 388.735C103.051 388.705 102.562 388.609 102.127 388.651C105.41 387.964 108.055 386.293 110.515 384.477C111.896 383.544 113.317 382.546 114.738 381.547C115.651 382.073 116.747 382.069 117.578 382.05C118.41 382.031 119.135 381.735 119.527 381.083C119.645 380.887 119.406 380.603 119.181 380.522C118.243 380.265 117.279 380.276 116.408 380.361C118.275 378.848 120.01 377.327 121.413 375.449C121.56 375.661 121.745 375.807 122.009 375.822C122.273 375.837 122.484 375.714 122.748 375.73C123.051 375.68 123.262 375.557 123.565 375.507C128.026 377.861 133.9 377.865 134.144 373.825C134.169 373.557 133.759 373.33 133.734 373.599C133.422 377.297 128.601 376.678 124.554 375.227C124.897 375.112 125.371 375.004 125.753 374.824C125.885 374.831 126.057 374.774 126.135 374.643C126.175 374.578 126.175 374.578 126.214 374.513C129.915 375.404 133.42 374.121 134.462 371.479C134.541 371.349 134.395 371.137 134.302 371.065C132.978 370.312 131.882 370.316 130.84 370.458C131.483 369.617 131.94 368.63 132.411 367.846C132.49 367.716 132.344 367.505 132.158 367.359C130.081 366.495 128.247 366.591 126.944 367.393C126.833 366.441 125.996 362.609 124.507 363.265C124.532 362.996 124.597 362.662 124.715 362.466C124.832 362.271 124.593 361.986 124.329 361.971C120.921 361.502 118.122 366.61 120.187 370.446C119.045 369.163 118.114 367.758 117.526 366.237C117.151 365.269 117.08 364.252 117.38 363.526C117.666 362.597 118.801 362.528 119.658 362.24C119.79 362.247 119.683 361.971 119.551 361.963C117.277 361.426 116.335 362.992 116.555 364.897C116.79 367.005 118.546 369.54 120.547 371.21C120.64 371.283 120.64 371.283 120.679 371.218C120.826 371.429 121.011 371.575 121.157 371.786C121.029 372.454 120.9 373.122 120.679 373.718C120.522 373.979 121.039 374.482 121.289 374.294C121.382 374.367 121.382 374.367 121.514 374.374C118.772 377.796 115.316 381.04 111.329 383.578C112.471 382.361 113.335 380.925 113.868 379.132C115.129 375.219 111.911 370.572 111.466 366.087C111.452 365.884 111.041 365.657 111.016 365.926C110.205 370 107.684 372.826 106.37 376.601C104.845 380.499 105.607 385.137 102.612 388.071C101.545 388.482 100.424 388.754 99.3036 389.027C96.2022 389.184 93.2077 389.618 90.4523 390.336C91.5202 387.426 92.6809 384.588 93.8951 381.888C95.6368 381.719 97.0968 380.656 97.4719 379.124C97.497 378.855 97.2187 378.636 97.0474 378.693C96.5192 378.663 95.8589 378.624 95.3057 378.862C96.7806 375.502 98.3482 372.215 100.009 369.001C100.48 368.218 100.819 367.427 101.291 366.644C103.364 366.832 105.259 365.726 105.992 364.282C106.109 364.086 105.87 363.802 105.606 363.787C104.457 363.652 103.468 363.933 102.665 364.359C103.254 363.38 103.976 362.408 104.565 361.429C104.565 361.429 104.565 361.429 104.604 361.364C108.563 355.919 115.866 353.776 123.318 352.521C128.911 351.63 135.317 352.341 140.072 350.117C139.772 350.843 139.286 351.423 138.562 351.719C137.812 352.283 137.009 352.709 136.166 353.201C133.81 354.618 130.977 355.466 128.036 356.038C123.064 357.033 117.118 356.011 111.932 356.453C111.761 356.51 111.961 356.86 112.132 356.802C123.991 357.762 135.923 357.24 141.903 349.346C142.021 349.15 141.689 348.793 141.517 348.85C135.657 349.05 129.301 347.801 123.548 348.277C117.927 348.761 113.44 351.676 110.316 355.277C110.277 355.343 110.33 355.481 110.423 355.554C109.449 356.038 108.567 356.594 107.778 357.224C111.437 352.505 115.561 348.15 119.499 343.65C121.254 343.685 122.928 343.174 123.914 342.218C123.992 342.087 123.753 341.803 123.66 341.73C122.854 341.481 122.194 341.442 121.455 341.534C122.426 340.375 123.397 339.215 124.407 337.99C124.539 337.998 124.632 338.071 124.618 337.867C124.657 337.802 124.604 337.664 124.643 337.598C124.722 337.468 124.8 337.337 124.879 337.207C126.691 338.055 128.672 338.171 129.657 337.215C129.75 337.287 129.882 337.295 129.975 337.368C132.415 342.172 138.839 343.762 142.763 347.234C143.042 347.452 143.252 347.33 143.331 347.199C143.927 345.072 141.473 342.564 139.207 340.878C142.008 341.447 143.972 340.683 146.252 340.072C146.424 340.014 146.449 339.746 146.17 339.527C144.022 337.645 141.703 335.821 139.444 335.487C140.536 334.807 141.297 333.77 141.608 332.572C141.647 332.507 141.501 332.296 141.369 332.288C140.787 332.119 140.694 332.046 140.562 332.039C141.101 331.597 141.604 331.896 141.786 331.367C141.826 331.301 141.811 331.098 141.719 331.025C139.396 328.525 136.98 328.452 135.056 329.151C135.445 327.822 135.649 326.347 136.131 325.092C136.21 324.961 135.971 324.677 135.839 324.669C132.649 322.93 130.821 324.377 129.589 326.197C129.604 323.901 129.077 321.371 128.114 318.882C128.007 318.606 127.689 318.452 127.611 318.583C125.333 319.869 123.891 321.812 123.68 324.435C122.824 322.223 121.572 319.988 120.07 317.941C119.923 317.73 119.566 317.642 119.673 317.918C119.887 320.971 118.644 323.263 119.36 326.616C119.738 328.259 120.923 330.152 122.054 331.907C121.925 332.576 121.889 333.317 122.078 334.138C122.36 335.033 122.973 336.285 123.94 336.949C121.091 340.094 118.057 343.093 115.208 346.238C115.387 345.032 115.473 343.754 115.876 342.629C115.815 343.638 115.383 344.357 115.283 345.432C115.297 345.635 115.522 345.716 115.561 345.651C116.283 344.679 116.619 343.212 116.201 341.634C116.094 341.357 115.816 341.139 115.698 341.334C114.741 342.698 114.527 344.645 114.708 346.614C111.688 349.817 108.761 353.092 106.072 356.652C105.897 356.034 105.591 355.408 105.034 354.97C104.849 354.824 104.677 354.882 104.638 354.947C104.049 355.926 104.016 357.343 104.062 358.63C104.077 358.833 104.012 359.167 104.119 359.444C102.663 361.183 101.524 363.076 100.345 365.035C99.2848 366.797 98.3171 368.633 97.3887 370.403C97.4497 369.393 97.193 368.229 96.8578 367.196C96.7508 366.92 96.3405 366.693 96.2226 366.889C95.4798 368.805 95.3328 371.094 95.7675 373.552L95.821 373.69C93.2213 379.146 90.9392 384.757 88.8034 390.578C88.5 390.628 88.1574 390.743 87.9468 390.866C89.3045 385.202 88.7425 378.413 87.9699 371.747C88.0092 371.681 88.0092 371.681 88.0485 371.616C88.6803 371.247 89.1516 370.464 89.4123 369.804C89.7516 369.013 90.0374 368.083 89.6094 366.977C89.5024 366.701 89.1848 366.547 88.9742 366.67C88.3031 367.104 87.9104 367.757 87.6104 368.483C87.5284 367.937 87.4858 367.327 87.4038 366.781C87.0443 363.517 86.9096 360.334 86.8283 357.289L86.9211 357.362C88.6912 357.6 89.7374 355.634 90.2196 354.378C90.2982 354.248 90.1377 353.833 89.8343 353.883C88.396 354.002 87.4892 354.827 86.8215 355.937C86.8913 348.779 87.7819 342.075 89.2541 335.539C89.4254 335.481 89.6895 335.497 89.9001 335.374C90.5211 335.478 91.035 335.305 91.417 335.124C93.2582 336.38 95.2565 337.375 97.0551 338.02C98.0864 338.35 101.098 338.796 99.5965 336.749C99.543 336.611 99.3182 336.53 99.2396 336.661C99.2037 337.402 99.325 337.882 98.4006 337.828C97.5156 337.709 96.4307 337.24 95.5314 336.918C94.2218 336.369 92.8587 335.681 91.4813 334.79C93.2941 335.639 95.396 336.234 96.9413 336.392C99.5572 336.814 101.866 336.611 103.205 335.067C103.284 334.937 103.137 334.725 103.045 334.652C100.804 332.698 99.1124 332.329 97.4099 332.433C99.0697 331.718 100.212 330.501 100.744 328.708C100.823 328.577 100.545 328.359 100.413 328.351C98.6566 328.316 97.0863 328.428 95.5836 328.881C96.2622 327.299 96.4769 325.352 96.1491 323.171C96.0956 323.032 95.9494 322.821 95.8173 322.813C93.5725 322.683 92.0732 323.812 91.3161 325.524C90.8706 323.539 90.2537 321.611 89.8758 319.968C89.8616 319.764 89.6761 319.618 89.4512 319.538C86.4818 319.703 85.439 322.345 86.0484 325.42C84.6392 323.447 82.9802 321.661 81.6279 320.501C81.4423 320.355 81.1782 320.34 81.1925 320.543C80.5274 324.829 84.0629 329.629 88.2803 333.523C88.3731 333.596 88.3731 333.596 88.4124 333.531C88.5051 333.604 88.4659 333.669 88.5586 333.742C88.7442 333.888 89.0083 333.903 88.862 333.692C88.7015 333.277 88.541 332.863 88.4198 332.382C88.4591 332.317 88.4591 332.317 88.4984 332.252C88.7516 332.74 88.8728 333.22 88.9941 333.7C88.9941 333.7 88.9941 333.7 88.9548 333.765C88.837 333.961 88.9832 334.172 89.1688 334.318C89.1295 334.383 89.0902 334.448 89.1044 334.652C89.0652 334.717 88.9331 334.71 88.9331 334.71C88.9331 334.71 88.9331 334.71 88.8938 334.775C88.6832 334.898 88.7509 335.239 88.9365 335.385C88.1862 338.45 87.5679 341.522 87.0424 344.667C87.0424 344.667 87.0424 344.667 86.9496 344.594C85.558 343.499 84.7305 341.694 85.3197 340.715C85.5729 341.203 85.919 341.764 86.0009 342.309C86.1756 342.927 86.2575 343.472 86.5643 344.098C86.7106 344.31 86.9747 344.325 86.9212 344.187C86.9713 343.649 86.7431 342.893 86.5291 342.34C86.3009 341.583 85.9406 340.819 85.4091 340.112C85.2628 339.901 85.038 339.821 84.9594 339.951C83.8028 340.965 84.8192 343.591 86.7532 344.92C86.846 344.993 86.8853 344.928 86.8853 344.928C86.1701 349.751 85.8261 354.866 86.0638 360.15C85.5254 358.091 84.9478 356.098 84.4095 354.04C83.2414 344.851 79.7432 334.31 69.8952 326.372C69.7096 326.226 69.499 326.349 69.7381 326.633C74.3692 331.43 78.0333 335.562 80.5693 341.114C82.0245 344.375 82.8195 347.597 83.4824 350.811C80.9722 342.489 77.2878 334.302 69.9771 326.918C69.7916 326.772 69.713 326.902 69.7665 327.04C74.8148 333.415 78.5784 338.972 81.2925 345.819C82.4552 348.656 83.3145 351.544 84.1738 354.432C84.1738 354.432 84.1345 354.497 84.2273 354.57C82.8222 350.772 79.8467 347.086 77.3602 343.495C73.4645 337.931 71.4817 332.14 69.3277 326.407C69.2742 326.269 68.9173 326.18 69.0636 326.391C70.5114 330.8 72.1304 335.151 74.5025 339.613C77.3277 344.912 81.4306 349.678 84.1237 354.969C84.1772 355.108 84.3092 355.115 84.402 355.188C84.3627 355.254 84.4555 355.327 84.4162 355.392C84.377 355.457 84.4697 355.53 84.5625 355.603C85.1401 357.596 85.6785 359.654 86.2561 361.647C86.7111 368.16 87.4695 374.623 87.5927 380.778C87.1363 379.265 85.9519 377.372 84.6924 376.285C84.4141 376.067 84.2035 376.189 84.2177 376.393C84.4242 378.094 85.505 380.387 87.3604 381.846C87.5459 381.992 87.5852 381.926 87.6638 381.796C87.6665 384.972 87.4978 388.205 87.0116 391.285C85.4304 391.868 84.0347 392.598 82.5998 393.393C83.4138 392.494 84.0673 391.181 83.2933 389.514C83.1863 389.238 82.8687 389.084 82.6581 389.207C81.7513 390.033 81.1263 391.753 81.861 393.485C81.8217 393.55 81.7825 393.615 81.7432 393.681C81.7039 393.746 81.7967 393.819 81.7967 393.819C80.1119 394.802 78.6126 395.931 77.1668 397.198C76.6278 397.64 76.1816 398.154 75.6425 398.596C76.5208 397.363 77.3991 396.13 78.2239 394.76C80.1092 391.626 80.1817 387.644 81.1534 383.985C81.1785 383.716 80.7146 383.351 80.504 383.474C74.8103 387.94 72.2851 395.09 71.851 403.307C68.6412 408.188 66.6374 414.017 65.4543 420.299C64.8598 414.927 62.7701 408.86 60.7481 403.134C61.0481 402.408 61.3874 401.617 61.5946 400.819C63.8326 399.598 66.8379 398.691 66.8888 395.654C66.9138 395.385 66.6355 395.166 66.3321 395.216C65.5683 395.577 64.7902 395.735 63.9728 395.957C64.7333 394.92 65.4403 393.745 66.0687 392.701C66.1473 392.57 66.0403 392.294 65.8155 392.213C63.1034 391.042 61.1545 392.01 60.1868 393.845C59.6342 391.583 58.4607 389.218 56.9445 386.968C56.7983 386.756 56.5735 386.676 56.4556 386.871C55.6308 388.242 55.6017 390.335 55.8224 392.24C55.7689 392.102 55.6762 392.029 55.7155 391.963C54.8629 390.427 52.9865 387.413 51.045 387.232C48.2185 386.933 49.7381 389.859 51.8109 392.547C51.4398 392.255 51.0687 391.963 50.6976 391.671C47.7966 389.678 46.5364 391.091 46.6143 393.461C46.5892 393.729 46.9996 393.956 47.1709 393.898C50.2974 393.472 54.9285 398.269 57.5546 400.719C57.7401 400.865 57.9115 400.807 57.7652 400.596C55.5461 397.696 50.6793 393.292 47.3388 393.165C47.3605 392.22 47.607 391.356 48.6634 391.418C49.7198 391.479 51.0721 392.639 52.0533 393.507C54.0157 395.243 55.1608 397.201 56.7806 399.052L56.8734 399.125C57.5654 400.246 58.4288 401.31 59.3173 402.105L59.278 402.17C59.2529 402.439 59.624 402.731 59.7561 402.739C59.8096 402.877 59.9023 402.95 59.9951 403.023C59.9165 403.153 59.97 403.292 59.8915 403.422C59.8664 403.691 60.3303 404.056 60.4874 403.795C60.5267 403.729 60.5267 403.729 60.566 403.664C61.6108 406.698 62.4308 409.651 63.2116 412.669C64.1671 416.306 64.316 419.692 65.0467 423.248C65.0216 423.517 64.9431 423.648 64.918 423.916C64.6999 425.188 64.6139 426.466 64.4886 427.81C62.9278 419.274 58.3983 408.403 50.8052 402.623C50.5269 402.404 50.1842 402.519 50.2912 402.796C52.0993 407.968 52.3369 413.252 54.9372 418.471C57.1238 422.787 60.6701 427.115 62.7639 431.358C63.0063 432.318 63.3415 433.351 63.5839 434.311C63.6374 434.45 63.8622 434.53 63.848 434.327C63.8338 434.123 63.7803 433.985 63.7661 433.781C63.8873 434.261 64.1013 434.814 64.2225 435.294C64.1717 438.332 64.2529 441.377 64.2021 444.415C64.0558 444.203 63.8561 443.854 63.617 443.57C63.4532 442.479 63.011 441.17 62.6758 440.137C62.2871 438.965 61.7521 437.583 60.6639 436.439C60.4249 436.155 60.0287 436.131 60.0037 436.4C59.9637 438.965 61.7508 442.583 64.0342 445.148C63.8723 449.733 63.4856 454.237 62.2389 458.354C61.8854 458.941 61.4391 459.456 60.9929 459.97C61.3931 458.169 61.276 455.865 59.881 454.095C59.642 453.811 59.2851 453.723 59.128 453.984C58.3601 456.169 57.517 459.16 59.2613 462.167C55.1021 467.262 50.2935 471.847 44.6107 475.841C44.4001 475.964 44.8246 476.394 45.0352 476.271C49.961 473.99 53.9983 470.914 57.5575 467.27C60.9265 467.804 65.1202 466.967 66.031 464.317C66.1096 464.187 65.9491 463.772 65.685 463.757C63.0548 463.131 61.5949 464.194 59.7103 464.828C62.5057 461.545 64.9157 457.766 67.0082 453.834C69.767 453.792 71.6198 452.076 73.3154 450.62C73.526 450.497 73.3655 450.083 73.0087 449.994C72.2949 449.818 70.1713 450.167 68.5509 450.816C68.708 450.555 68.8651 450.294 68.9687 449.894C71.5927 446.669 74.2703 443.582 77.0941 440.705C82.3083 440.671 87.1088 439.734 92.0163 439.074C99.1401 438.137 106 437.185 112.232 434.778C112.442 434.655 112.375 434.313 112.057 434.159C102.276 429.063 93.0896 429.339 86.0294 432.442C88.3427 430.415 90.7094 428.525 93.1154 426.571L93.0761 426.636C93.0368 426.701 93.3152 426.92 93.3544 426.855C93.8149 426.544 94.1684 425.956 94.4826 425.434C95.9426 424.371 97.4026 423.307 98.8626 422.243C101.111 423.05 103.62 423.196 105.201 422.612C105.411 422.489 105.344 422.147 105.026 421.994C103.702 421.241 102.143 420.88 100.915 420.876C101.915 420.124 103.007 419.444 104.006 418.691C105.434 419.045 106.676 419.252 107.996 419.329C107.825 419.387 107.693 419.379 107.522 419.436C107.39 419.429 107.497 419.705 107.629 419.713C107.985 419.801 108.382 419.824 108.685 419.774C111.522 422.102 116.122 423.315 118.605 423.73C118.87 423.745 118.841 423.338 118.656 423.192C116.854 421.871 114.802 420.738 112.764 419.809C115.737 420.32 118.535 420.213 120.909 419.675C121.08 419.617 121.105 419.349 120.827 419.13C118.268 417.021 115.902 416.411 113.486 416.338C115.249 415.224 116.256 413.323 116.047 410.946C116.032 410.743 115.754 410.524 115.622 410.516C113.456 410.255 111.518 410.75 110.004 411.676C110.197 410.674 110.165 409.591 109.909 408.427C109.627 407.532 107.997 403.654 106.548 404.245C104.624 404.944 104.359 407.429 104.198 409.514C103.292 407.839 102.043 406.28 100.495 405.447C100.309 405.301 100.138 405.359 100.059 405.489C98.606 407.905 100.414 413.077 103.861 415.98C103.771 416.583 103.775 417.259 103.685 417.862L103.739 418L103.7 418.065C103.66 418.131 103.66 418.131 103.621 418.196C102.108 419.121 100.594 420.047 99.0806 420.972L99.0414 421.038C98.8308 421.16 98.6202 421.283 98.4096 421.406C98.0527 421.318 97.6958 421.229 97.2997 421.206C97.0748 421.126 97.1426 421.468 97.3281 421.613C97.4209 421.686 97.6457 421.767 97.7385 421.84C96.8568 422.397 95.9751 422.954 95.0934 423.51C95.365 422.378 95.2797 421.156 94.9303 419.92C94.916 419.716 94.5984 419.563 94.4271 419.62C93.2705 420.634 92.9915 422.915 93.173 424.885C91.5416 426.006 90.0424 427.135 88.4111 428.256C89.0253 427.008 89.4004 425.476 89.0226 423.833C89.0084 423.629 88.73 423.41 88.5587 423.468C86.8062 424.109 86.4771 426.928 87.1617 429.197L87.1224 429.262C83.2564 432.281 79.5367 435.51 76.1881 439.031C75.2529 439.45 74.2249 439.795 73.2363 440.076C72.9329 440.125 73.3182 440.621 73.5288 440.498C73.7001 440.44 73.9107 440.318 74.1748 440.333C74.2283 440.471 74.3211 440.544 74.5459 440.625C74.678 440.632 74.678 440.632 74.81 440.64C73.6283 441.923 72.5787 443.213 71.4898 444.568C73.929 438.697 75.9044 432.461 77.8404 426.29L77.9725 426.298C80.4922 425.971 82.9267 424.424 83.0594 421.932C83.0452 421.728 82.8454 421.379 82.5813 421.363C81.2751 421.49 79.9438 421.886 79.0763 422.646C80.5194 418.203 81.8304 413.752 83.3805 409.586C84.227 407.271 85.0342 405.02 85.8807 402.705C87.8472 402.617 89.8353 401.584 90.5139 400.002C90.6317 399.806 90.3392 399.383 90.0751 399.368C88.9794 399.372 87.7266 399.637 86.845 400.193C87.9129 397.283 88.9808 394.372 90.0487 391.461C92.408 390.72 94.8742 390.256 97.526 389.937C97.6188 390.01 97.7116 390.083 97.7116 390.083C98.6894 390.275 100.16 391.239 101.141 392.107C100.573 392.141 100.045 392.111 99.3314 391.934C98.3928 391.677 97.6899 391.028 96.7229 390.363C96.5374 390.217 96.1947 390.333 96.4338 390.617C97.8429 392.591 100.498 392.948 101.976 392.763C102.147 392.706 102.133 392.502 101.987 392.291C101.084 391.293 99.653 390.264 98.3576 389.918C100.363 389.764 102.33 389.676 104.482 389.734C105.67 389.803 106.991 389.88 108.179 389.949C110.467 390.69 113.008 391.919 115.27 392.929C120.787 395.345 125.75 397.998 131.089 401.619C131.274 401.765 131.431 401.504 131.246 401.358C125.851 396.923 120.07 394.492 114.235 391.923C112.833 391.301 111.338 390.606 109.896 390.049C109.896 390.049 109.896 390.049 109.989 390.122C113.322 391.397 116.573 392.127 119.799 393.125C123.699 394.365 127.528 397.088 131.053 399.861C132.909 401.32 141.879 407.99 136.605 406.535C129.849 404.588 124.818 401.592 118.617 396.907C114.588 393.835 110.641 391.308 106.252 389.972C105.685 390.006 105.699 390.21 105.884 390.356C112.804 393.394 118.477 398.048 124.796 402.537C129.592 405.924 135.049 406.85 139.888 408.347C140.205 408.501 140.309 408.102 140.07 407.818C135.228 403.144 130.493 398.747 124.852 395.176C120.495 392.422 116.055 391.623 111.627 390.352C114.717 390.667 117.769 391.047 120.859 391.362C123.857 391.604 126.776 391.977 129.842 392.561C130.613 393.552 131.515 394.55 132.575 395.287C133.171 395.66 134.388 396.136 134.516 395.468C134.699 394.938 133.942 394.151 133.557 393.655C133.464 393.582 133.318 393.371 133.132 393.225C134.824 393.594 136.608 394.036 138.314 394.608C138.368 394.746 138.421 394.884 138.514 394.957C138.607 395.03 138.699 395.103 138.792 395.176C139.045 395.664 139.338 396.086 139.763 396.516C139.855 396.589 139.948 396.662 140.08 396.67C140.08 396.67 140.173 396.743 140.266 396.816C140.358 396.889 140.358 396.889 140.451 396.962C141.028 401.455 142.836 406.627 147.528 410.414C147.807 410.633 148.017 410.51 148.003 410.306C148.007 408.482 147.786 406.577 146.813 404.561C149 406.378 151.369 407.664 153.193 408.041C153.55 408.129 153.628 407.998 153.575 407.86ZM116.187 380.956C116.319 380.964 116.358 380.898 116.49 380.906C116.794 380.856 117.058 380.871 117.361 380.821C117.757 380.845 118.153 380.868 118.55 380.891C118.221 381.209 117.654 381.244 117.086 381.278C116.822 381.263 116.558 381.248 116.294 381.232C116.294 381.232 116.28 381.029 116.187 380.956ZM129.998 370.949C130.341 370.834 130.644 370.784 130.987 370.669C130.987 370.669 133.76 370.83 133.445 371.352C132.817 372.397 131.857 373.084 130.657 373.487C129.208 374.079 127.531 373.914 125.707 373.537C127.488 373.303 128.948 372.239 129.998 370.949ZM126.997 367.531C127.511 367.359 128.197 367.128 127.854 367.243C128.025 367.186 128.197 367.128 128.461 367.144C129.278 366.921 130.256 367.113 131.301 367.647C130.791 368.495 130.28 369.344 129.638 370.185C128.274 371.997 126.482 372.704 124.066 372.631C124.105 372.566 124.144 372.5 124.223 372.37C126.029 371.867 126.772 369.951 126.762 367.923C126.84 367.793 126.972 367.8 127.051 367.67C126.958 367.597 126.958 367.597 126.997 367.531ZM121.696 371.344C121.722 371.076 121.693 370.669 121.718 370.4C121.65 370.058 121.108 369.824 121.083 370.093C121.111 370.5 121.008 370.899 121.036 371.306C118.3 367.904 120.65 362.635 123.79 362.413C123.465 363.407 123.419 364.621 123.465 365.907C123.371 368.334 123.181 370.012 121.696 371.344ZM121.992 372.443C121.992 372.443 121.86 372.435 121.992 372.443C121.86 372.435 121.821 372.5 121.782 372.566C121.742 372.631 121.571 372.688 121.532 372.754C121.518 372.55 121.596 372.42 121.582 372.216C121.714 372.224 121.661 372.086 121.607 371.947C125.037 371.471 123.732 366.598 124.179 363.584C124.179 363.584 124.272 363.657 124.311 363.592C125.575 362.854 126.169 368.226 126.105 368.561C125.98 369.905 125.298 370.811 124.377 371.433C124.191 371.287 124.059 371.279 123.888 371.337C123.163 371.632 122.531 372.001 121.992 372.443ZM104.789 364.009C104.343 364.524 103.804 364.966 103.079 365.261C102.565 365.434 102.09 365.542 101.616 365.649C102.205 364.67 103.258 364.055 104.789 364.009ZM122.099 348.869C127.374 347.824 133.915 349.219 139.751 349.288C131.159 352.436 119.286 351.273 110.987 354.844C113.982 351.91 117.562 349.821 122.099 348.869ZM128.041 336.039C127.381 336.001 126.867 336.174 126.353 336.347C126.945 336.043 127.538 335.74 128.277 335.648C128.37 335.721 128.37 335.721 128.502 335.728C128.291 335.851 128.12 335.909 128.041 336.039ZM141.187 343.493C141.426 343.777 143.516 347.345 142.203 346.12C141.5 345.471 140.812 345.025 140.03 344.507C136.494 342.207 133.425 340.947 130.703 337.748C133.205 339.042 135.77 340.003 138.268 340.621C138.229 340.686 138.322 340.759 138.415 340.832C139.342 341.562 140.284 342.495 141.187 343.493ZM144.372 338.882C145.299 339.611 144.85 339.45 144.165 339.68C143.347 339.903 142.53 340.126 141.62 340.275C138.151 340.817 133.783 338.536 129.854 336.888C129.854 336.888 129.854 336.888 129.761 336.815C129.761 336.815 129.761 336.815 129.668 336.742C129.654 336.539 129.508 336.327 129.322 336.182C129.362 336.116 129.362 336.116 129.401 336.051C132.72 337.122 136.217 336.988 138.587 335.775C140.515 335.752 142.463 337.284 144.372 338.882ZM140.234 332.357C141.001 332.672 139.109 334.454 138.898 334.577C137.938 335.264 136.778 335.602 135.564 335.802C133.744 336.101 131.764 335.986 129.715 335.529C132.106 335.871 134.43 335.871 136.368 335.375C137.449 335.168 138.199 334.604 138.895 333.901C139.341 333.386 139.787 332.872 140.234 332.357ZM133.642 331.501C134.181 331.059 134.535 330.472 134.795 329.811C136.219 329.489 137.59 329.028 139.574 329.819C141.969 330.837 139.466 332.042 139.099 332.426C137.549 334.093 136.246 334.895 133.541 335.076C132.142 335.129 130.597 334.972 129.183 334.822C128.695 334.726 128.259 334.768 127.77 334.672C129.997 333.924 132.078 332.964 133.642 331.501ZM124.751 322.2C125.129 321.344 125.786 320.706 126.404 320.134C127.507 318.982 127.732 319.063 128.431 321.536C129.789 326.547 128.353 329.842 125.833 332.668C125.883 332.13 125.748 331.447 125.612 330.763C125.505 330.487 125.055 330.325 125.07 330.529C125.03 330.594 124.952 330.725 124.913 330.79C125.024 329.242 124.724 327.468 124.161 325.679C124.022 324.32 124.254 323.252 124.751 322.2ZM122.735 331.001C122.853 330.805 122.482 330.513 122.364 330.709C122.286 330.84 122.207 330.97 122.129 331.101C121.383 329.841 120.638 328.582 120.063 327.265C119.129 325.183 119.397 323.375 119.719 321.704C119.769 321.167 120.498 319.047 120.112 318.552C121.589 320.867 122.855 323.306 123.501 325.64C123.608 325.917 123.715 326.193 123.69 326.462C123.704 326.666 123.811 326.942 123.825 327.146C124.164 328.855 123.96 330.329 123.756 331.804C123.624 331.796 123.492 331.788 123.545 331.927C123.481 332.261 123.338 332.725 123.327 333.198C123.074 332.71 122.728 332.149 122.475 331.662C122.593 331.466 122.618 331.197 122.735 331.001ZM123.83 335.997C123.737 335.924 123.683 335.786 123.591 335.713C123.205 335.218 122.899 334.592 122.685 334.039C122.471 333.486 122.389 332.94 122.4 332.468C122.692 332.89 123.038 333.451 123.331 333.874C123.202 334.542 123.337 335.225 123.83 335.997C123.83 335.997 123.869 335.932 123.83 335.997ZM125.808 332.937C125.861 333.075 126.086 333.156 126.218 333.163C128.324 331.934 129.356 329.765 129.567 327.142C130.171 326.366 130.774 325.591 131.524 325.026C131.563 324.961 135.718 324.189 135.143 325.372C134.96 325.902 134.832 326.57 134.742 327.173C133.878 331.109 131.033 332.43 127.845 333.866C127.885 333.801 127.924 333.735 127.924 333.735C127.988 333.401 127.432 332.964 127.182 333.152C126.603 333.659 126.025 334.165 125.447 334.672C125.576 334.004 125.758 333.474 125.808 332.937ZM120.466 341.815C121.112 341.649 121.851 341.557 122.604 341.669C121.854 342.233 120.812 342.375 119.77 342.517C120.02 342.329 120.27 342.141 120.466 341.815ZM96.5863 368.329C96.9106 369.835 96.507 370.96 96.2497 372.296C96.1894 370.806 96.1827 369.454 96.5863 368.329ZM104.537 358.522C104.523 358.319 104.548 358.05 104.626 357.919C104.662 357.178 104.737 356.372 104.998 355.711C105.569 356.352 105.48 356.955 105.297 357.485C105.062 357.877 104.865 358.203 104.537 358.522ZM94.5168 379.492C95.1093 379.189 95.7553 379.024 96.3228 378.989C95.8657 379.976 94.9305 380.395 93.8633 380.805C94.1382 380.348 94.3739 379.957 94.5168 379.492ZM101.867 334.111C103.298 335.14 100.792 335.67 100.278 335.843C99.0649 336.042 97.6517 335.893 96.2777 335.677C94.8109 335.389 93.3693 334.833 91.9668 334.21C92.2167 334.022 92.3738 333.761 92.6237 333.573C95.7001 333.684 98.1311 331.461 101.867 334.111ZM95.373 329.003C95.4658 329.076 95.5586 329.149 95.5979 329.084C96.3759 328.927 100.423 327.879 99.7056 329.526C99.1841 330.847 97.9598 331.519 96.5892 331.98C95.3899 332.383 94.123 332.444 92.6704 332.36C92.5777 332.287 92.3921 332.141 92.2208 332.198C92.3386 332.002 92.4564 331.807 92.5743 331.611C93.9841 331.085 94.8374 330.121 95.373 329.003ZM81.6847 321.315C84.3108 323.765 86.5441 326.868 87.4427 329.691C87.3106 329.683 87.1393 329.741 87.1535 329.944C87.289 330.628 87.4136 331.783 87.8273 332.686C84.3914 329.31 81.3732 325.013 81.6847 321.315ZM89.5588 330.489C89.2697 330.743 89.0733 331.069 88.9697 331.469C88.9304 331.534 88.9304 331.534 88.7984 331.526C88.6521 331.315 88.5986 331.177 88.4523 330.966C88.4381 330.762 88.4239 330.558 88.4097 330.355C88.449 330.29 88.4882 330.224 88.4347 330.086C88.342 330.013 88.3812 329.948 88.2885 329.875C87.9533 328.842 87.4325 327.663 86.7012 326.607C86.4588 325.647 86.3877 324.629 86.3701 323.75C86.3525 322.871 86.6525 322.145 87.0452 321.492C87.3202 321.035 89.0409 319.311 89.4187 320.955C89.9036 322.875 90.5347 325.006 90.7947 326.845C90.6268 327.579 90.6444 328.458 90.794 329.345C90.6511 329.81 90.469 330.34 90.194 330.797C89.8622 330.439 89.7302 330.432 89.5588 330.489ZM90.4757 331.691C90.515 331.626 90.4222 331.553 90.4615 331.488C90.7899 331.169 91.0791 330.916 91.222 330.451C91.222 330.451 91.2612 330.386 91.3005 330.32C91.6648 329.261 91.6581 327.909 91.4265 326.477C91.8944 325.017 92.8655 323.858 94.3147 323.266C96.7918 322.33 95.4448 327.521 95.1056 328.312C94.6627 329.503 93.7024 330.19 92.6494 330.804C92.4639 330.658 92.3711 330.585 92.1998 330.643C91.5145 330.873 90.8827 331.242 90.4757 331.691ZM89.2309 354.659C88.956 355.115 88.7203 355.507 88.3526 355.891C88.0242 356.21 87.6423 356.39 87.2211 356.636C87.7709 355.722 88.2423 354.939 89.2309 354.659ZM87.9097 370.257C87.9706 369.247 88.3492 368.39 89.006 367.753C89.1699 368.844 88.513 369.481 87.9097 370.257ZM85.0276 377.318C86.0765 378.528 86.4259 379.765 87.0787 380.951C86.0298 379.741 85.2842 378.482 85.0276 377.318ZM82.847 390.029C83.0894 390.989 82.6574 391.707 82.2253 392.425C82.2077 391.546 82.3222 390.674 82.847 390.029ZM73.183 400.412C74.2259 397.77 75.0439 395.047 76.5506 392.77C76.6685 392.575 76.2046 392.21 76.0868 392.406C74.423 394.944 73.3158 397.92 72.4869 401.115C72.4869 401.115 72.4869 401.115 72.4476 401.18C72.4083 401.245 72.4083 401.245 72.3691 401.31C73.2738 394.809 75.5024 389.061 79.9041 384.925C79.9041 384.925 79.5106 388.078 79.5641 388.216C79.2851 390.497 78.4494 392.34 77.4818 394.176C76.3712 396.476 74.7967 398.411 73.183 400.412ZM63.2815 392.336C64.1381 392.048 65.4586 392.125 64.7516 393.3C64.2803 394.083 63.7555 394.728 63.1914 395.439C62.5488 396.28 61.8133 397.048 61.1707 397.889C61.1707 397.889 61.1707 397.889 61.1172 397.75C61.0102 397.474 60.5606 397.313 60.482 397.443L60.4427 397.508C60.6107 396.775 60.5931 395.896 60.4434 395.009C60.8863 393.818 61.9109 392.797 63.2815 392.336ZM59.3037 399.402C59.211 399.329 59.211 399.329 59.1717 399.394C59.0647 399.117 58.997 398.776 58.89 398.499C58.9008 398.027 59.0579 397.766 59.2543 397.439C59.4148 397.854 59.4825 398.196 59.511 398.603C59.3931 398.799 59.3681 399.068 59.3037 399.402ZM56.8552 387.57C58.1323 389.537 59.1061 391.553 59.5516 393.538C59.7263 394.156 59.8083 394.701 59.7581 395.239C59.708 395.777 59.6579 396.314 59.6078 396.852C59.6471 396.787 59.5543 396.714 59.5008 396.575C59.3938 396.299 59.0369 396.211 58.8656 396.268C58.6692 396.595 58.4729 396.921 58.2765 397.247C58.116 396.833 57.8235 396.41 57.6237 396.061C57.342 395.166 56.8355 394.191 56.329 393.215C56.247 392.67 56.2579 392.198 56.1901 391.856C56.2227 390.439 56.2802 388.753 56.8552 387.57ZM55.3789 395.93C54.7545 395.151 54.0909 394.436 53.388 393.787C52.8564 393.081 52.3783 392.512 51.8468 391.806C51.2617 390.961 50.7694 390.189 50.3557 389.287C49.7279 387.831 50.5561 387.136 52.0262 388.1C53.7747 389.283 55.0552 391.925 55.7364 393.519C55.7899 393.657 55.8434 393.795 55.8969 393.933C56.0466 394.82 56.3818 395.853 56.9133 396.56C56.9668 396.698 57.0203 396.836 57.0738 396.975C57.1273 397.113 57.088 397.178 57.1415 397.316C56.6635 396.748 56.1461 396.245 55.5502 395.872C55.5109 395.938 55.4181 395.865 55.3789 395.93ZM56.3885 397.205C56.9986 397.781 57.5302 398.488 57.969 399.121C58.2223 399.609 58.529 400.235 58.9144 400.73C59.0071 400.803 59.0999 400.876 59.1927 400.949C59.2854 401.022 59.3782 401.095 59.5103 401.103C59.5245 401.306 59.4459 401.437 59.4601 401.64C58.0936 400.277 57.1483 398.668 56.3885 397.205ZM60.1454 401.41C60.1705 401.141 60.1563 400.938 60.1813 400.669C60.2457 400.335 60.3493 399.935 60.4136 399.601C60.4922 399.471 60.6242 399.478 60.7028 399.348C60.6527 399.885 60.6418 400.358 60.4989 400.822C60.4989 400.822 60.4989 400.822 60.4597 400.888C60.4204 400.953 60.4204 400.953 60.4739 401.091C60.3953 401.222 60.3703 401.491 60.2524 401.686C60.1989 401.548 60.1989 401.548 60.1454 401.41ZM62.3767 398.837C62.4553 398.707 62.2163 398.422 62.0842 398.415C62.6625 397.908 63.0553 397.255 63.5408 396.675C64.69 396.81 65.5073 396.587 66.2177 396.088C65.7924 398.158 63.7507 399.052 61.9339 400.028C62.0375 399.628 62.2339 399.302 62.3767 398.837ZM60.8813 437.667C61.5734 438.789 61.9228 440.025 62.1794 441.189C61.4873 440.068 61.0987 438.896 60.8813 437.667ZM59.8201 455.105C61.0329 457.405 59.8546 459.364 59.6006 461.376C58.8625 458.968 59.2878 456.898 59.8201 455.105ZM71.7986 450.87C70.5492 451.811 69.1535 452.54 67.6116 453.059C67.808 452.732 67.9651 452.471 68.0687 452.072C69.0431 451.588 70.6778 451.142 71.7986 450.87ZM116.661 422.874C114.348 422.401 111.65 421.433 109.345 419.813C109.517 419.755 109.688 419.698 109.859 419.64C109.991 419.648 109.977 419.444 109.884 419.371C112.122 420.65 114.477 421.733 116.661 422.874ZM120.049 419.287C118.15 419.717 116.091 419.732 113.924 419.471C112.643 419.329 111.348 418.983 110.106 418.776C109.563 418.542 109.114 418.381 108.571 418.146C108.346 418.066 108.229 418.261 108.414 418.407C108.15 418.392 107.793 418.304 107.529 418.288C107.343 418.142 107.29 418.004 107.104 417.858C107.315 417.735 107.618 417.685 107.829 417.563C109.506 417.728 111.116 417.551 112.526 417.025C114.928 416.895 117.412 417.309 120.049 419.287ZM115.19 411.234C115.889 411.208 114.836 414.322 114.9 413.988C114.364 415.105 113.219 415.647 112.112 416.123C111.138 416.607 110.003 416.676 108.775 416.672C108.854 416.541 108.986 416.549 109.064 416.418C109.221 416.157 108.836 415.662 108.44 415.639C108.308 415.631 108.176 415.623 108.136 415.689C108.254 415.493 108.372 415.297 108.49 415.101C108.529 415.036 108.476 414.898 108.515 414.832C109.001 414.253 109.393 413.6 109.733 412.809C111.153 411.81 113.038 411.177 115.19 411.234ZM100.359 407.263C100.459 406.188 100.855 406.211 101.85 407.283C102.514 407.997 103.06 408.907 103.42 409.671C103.727 410.297 103.941 410.85 104.115 411.468C104.08 412.209 104.176 412.958 104.365 413.78C104.182 414.31 104.093 414.913 103.911 415.443C101.588 412.943 100.015 409.878 100.359 407.263ZM104.733 410.896C104.751 409.276 105.034 407.671 105.516 406.415C105.698 405.885 106.759 404.122 108.021 405.885C109.192 407.575 109.569 409.218 109.551 410.839C109.555 411.515 109.333 412.11 109.112 412.705C108.455 413.342 107.798 413.98 107.419 414.836C107.248 414.894 107.077 414.951 106.905 415.009C107.048 414.544 107.098 414.007 107.016 413.461C107.042 413.193 106.538 412.893 106.381 413.154C106.042 413.945 105.888 414.882 105.735 415.819C105.574 415.404 105.453 414.924 105.292 414.51C105.292 414.51 105.292 414.51 105.332 414.444C105.393 413.434 105.175 412.206 104.733 410.896ZM104.285 416.41C104.378 416.483 104.471 416.556 104.564 416.629C104.564 416.629 104.564 416.629 104.656 416.702C104.592 417.036 104.581 417.509 104.517 417.843C104.346 417.9 104.306 417.966 104.135 418.023C104.185 417.486 104.235 416.948 104.285 416.41ZM99.705 421.752L99.837 421.759C100.062 421.84 100.048 421.637 100.087 421.571C101.354 421.51 102.806 421.594 104.209 422.217C102.824 422.474 101.357 422.186 99.705 421.752C99.6657 421.817 99.6657 421.817 99.705 421.752ZM94.591 420.711C94.7691 422.005 94.5368 423.073 94.119 423.994C94.1264 422.846 94.0804 421.56 94.591 420.711ZM88.5763 424.347C88.7829 426.048 88.1687 427.296 87.5545 428.544C87.4407 426.916 87.5768 425.1 88.5763 424.347ZM80.0642 438.041C82.0131 437.073 83.962 436.105 86.2962 435.633C91.0825 434.493 96.6536 434.547 101.187 432.919C101.358 432.861 101.158 432.512 100.987 432.569C96.1078 433.637 90.9755 434.216 86.043 435.145C84.3548 435.453 82.9056 436.044 81.5492 436.708C82.4953 435.817 83.402 434.992 84.348 434.101C91.2335 430.38 100.549 429.436 110.737 434.082C110.737 434.082 105.283 436.333 104.597 436.563C101.539 437.331 98.2408 437.815 94.8895 438.16C89.2825 438.847 83.8611 439.68 78.1471 440.091C78.7112 439.381 79.3681 438.743 80.0642 438.041ZM59.0426 465.938C61.1127 465.45 62.7156 463.922 65.1994 464.337C63.7036 466.141 61.0375 466.256 58.425 466.51C58.6749 466.322 58.832 466.061 59.0426 465.938ZM71.2503 407.259C72.4354 406.652 73.5669 405.907 74.991 405.585C74.2841 406.76 72.6352 407.001 71.1718 407.389C71.1718 407.389 71.2111 407.324 71.2503 407.259ZM63.3991 431.666C62.9251 429.273 62.0942 426.793 61.3168 424.45C60.1507 420.936 57.8497 417.492 56.6837 413.978C56.5767 413.702 56.2733 413.752 56.2875 413.955C57.2538 417.119 59.223 420.207 60.3214 423.379C61.031 425.379 61.5551 427.234 62.04 429.154C61.1874 427.618 60.2028 426.074 59.179 424.596C55.1478 418.348 53.7502 413.402 52.2672 407.235C51.7681 405.111 49.931 402.032 53.6202 405.895C56.5137 409.036 58.3292 413.061 59.8379 416.459C62.3346 422.077 63.4289 427.073 64.1805 432.184C64.1697 432.656 64.1588 433.129 64.1087 433.666C63.9733 432.983 63.7058 432.292 63.3991 431.666ZM65.3513 431.374C67.2474 427.768 68.3621 423.644 70.9076 420.549C70.9862 420.418 70.8006 420.272 70.6293 420.33C68.398 422.903 66.7768 426.052 65.434 429.419C65.4807 428.206 65.6595 427 65.7455 425.721C65.7848 425.656 65.8775 425.729 65.824 425.591C66.7924 421.255 68.3459 417.765 71.5801 415.115C73.3685 413.733 75.3959 412.635 77.2771 411.325C75.9702 413.952 75.2733 417.155 73.8201 419.57C71.0958 423.871 68.1325 427.887 65.2619 431.977C65.2477 431.773 65.3656 431.577 65.3513 431.374ZM82.0708 422.212C81.6313 424.078 79.7325 424.508 78.0727 425.223C78.6192 423.633 80.2505 422.512 82.0708 422.212ZM89.0363 400.186C88.6293 400.635 88.1295 401.011 87.537 401.315C86.9838 401.553 86.4698 401.726 85.9165 401.964C85.9558 401.898 85.9951 401.833 85.9951 401.833C86.7163 400.862 87.7693 400.247 89.0363 400.186ZM84.4281 402.62C81.7207 410.3 79.1596 418.191 76.6378 426.017C76.5985 426.083 76.5592 426.148 76.652 426.221C75.6769 429.205 74.6089 432.115 73.5945 435.164C73.4415 433.601 72.746 431.804 71.5901 430.318C71.4439 430.107 71.087 430.018 70.9692 430.214C70.08 431.919 70.8073 434.799 72.9302 436.95C72.0445 439.331 71.1194 441.777 70.1409 444.084C68.6017 447.779 66.9162 451.261 64.9916 454.46C66.2783 447.778 65.2599 439.476 65.3439 432.522C65.4367 432.595 65.5294 432.668 65.5687 432.603C68.3959 430.402 70.2277 427.131 72.0737 424.063C74.2481 420.676 76.608 417.435 77.8547 413.318C78.4581 412.543 78.7439 411.613 78.6193 410.458C79.119 410.081 79.6581 409.64 80.1043 409.125C80.3935 408.872 79.8226 408.23 79.5335 408.484C79.2051 408.803 78.8373 409.187 78.5089 409.505C77.72 410.135 76.9704 410.699 76.0887 411.256C73.9969 412.689 71.7981 413.844 69.8526 415.488C68.1962 416.878 67.15 418.844 66.3821 421.029C67.2577 416.621 68.5829 412.373 70.4255 408.63C71.5997 408.495 72.6528 407.881 73.6807 407.535C74.6552 407.051 75.6689 406.502 75.8477 405.297C75.8727 405.028 75.5409 404.671 75.2375 404.721C74.024 404.92 72.8641 405.258 71.9431 405.88C72.6893 404.64 73.3963 403.465 74.2353 402.297C77.395 397.954 81.5502 394.683 86.6222 392.613C86.5186 393.013 86.5078 393.485 86.4042 393.884C86.3256 394.015 86.6967 394.307 86.8145 394.111C87.036 393.516 87.2574 392.92 87.4788 392.325C87.6894 392.202 87.9928 392.152 88.2034 392.03C86.9533 395.47 85.7175 399.114 84.4281 402.62ZM72.7948 436.266C71.4926 434.569 70.9542 432.511 71.3829 431.117C72.5138 432.872 72.5882 434.565 72.7948 436.266ZM105.787 381.432C106.673 376.551 108.662 373.018 110.608 368.875C110.987 368.019 110.973 367.815 110.916 367.001C111.055 368.36 111.882 370.165 112.417 371.548C114.906 378.314 111.64 382.38 107.627 385.187C107.588 385.253 107.549 385.318 107.642 385.391C107.22 385.637 106.799 385.882 106.417 386.063C109.691 383.348 111.409 378.448 111.385 373.717C111.371 373.514 111.107 373.498 111.068 373.564C110.474 376.367 109.92 379.105 108.731 381.535C107.817 383.509 106.293 384.907 105.1 386.662C104.508 386.965 103.822 387.196 103.137 387.426C104.608 385.89 105.351 383.974 105.787 381.432ZM127.538 388.44C127.452 389.719 126.145 389.846 124.893 390.111C125.35 389.124 126.363 388.575 127.538 388.44ZM133.867 394.957C133.921 395.095 133.696 395.015 133.471 394.934C133.021 394.773 132.704 394.619 132.24 394.254C131.59 393.744 131.112 393.175 130.595 392.672C131.084 392.768 131.705 392.872 132.194 392.968C132.379 393.114 132.565 393.26 132.618 393.398C133.043 393.828 133.614 394.469 133.867 394.957ZM139.46 394.066C139.367 393.993 139.274 393.92 139.182 393.848C138.326 391.636 138.779 389.973 139.511 388.529C139.943 387.811 140.507 387.101 141.125 386.529C141.336 386.406 141.493 386.145 141.703 386.022C141.743 385.956 141.86 385.761 141.846 385.557C141.846 385.557 141.807 385.622 141.9 385.695C141.928 386.102 141.957 386.509 141.985 386.916C142.014 387.323 142.267 387.811 142.427 388.226C141.42 390.127 140.467 392.166 139.46 394.066C139.46 394.066 139.421 394.132 139.46 394.066ZM149.866 397.442C151.308 397.999 152.988 398.84 154.169 400.057C155.921 401.916 153.955 402.004 152.845 401.804C149.818 401.155 146.76 399.423 143.756 397.83C143.702 397.692 143.649 397.553 143.463 397.407C142.96 397.108 142.589 396.816 142.086 396.516C142.892 396.766 143.685 396.812 144.423 396.72C144.634 396.597 144.659 396.328 144.42 396.044C144.684 396.06 145.08 396.083 145.437 396.171C145.662 396.252 145.833 396.194 146.058 396.275C147.393 396.555 148.742 397.039 149.866 397.442ZM146.862 393.349C147.719 393.061 148.761 392.919 149.91 393.053C150.306 393.076 153.943 394.301 153.443 394.677C150.787 396.82 146.861 395.848 142.818 395.073C144.082 394.335 145.399 393.736 146.862 393.349ZM140.145 393.836C141.506 391.348 142.773 388.786 144.822 386.744C144.862 386.678 147.203 385.058 147.353 385.945C147.624 387.312 147.709 388.533 147.53 389.739C147.33 391.889 145.67 392.604 143.825 393.172C143.771 393.034 143.586 392.888 143.415 392.945C142.187 392.941 141.159 393.287 140.277 393.844C140.277 393.844 140.238 393.909 140.145 393.836ZM140.495 395.073C140.534 395.007 140.441 394.934 140.348 394.861C140.388 394.796 140.388 394.796 140.427 394.731C141.023 395.103 141.658 395.411 142.293 395.718C141.765 395.687 141.09 395.445 140.495 395.073ZM147.471 409.6C143.507 406.193 141.82 401.501 141.101 397.473C141.193 397.546 141.379 397.691 141.432 397.83C142.181 399.765 144.054 402.104 146.202 403.985C146.951 405.921 147.343 407.768 147.471 409.6ZM146.224 403.041C144.672 401.532 143.423 399.973 142.292 398.218C142.332 398.152 142.371 398.087 142.41 398.022C143.602 398.767 145.004 399.389 146.314 399.938C149.308 402.004 152.491 404.892 152.925 407.349C153.128 408.375 146.781 403.479 146.224 403.041Z" fill="#C59C85"/>
<path d="M92.6734 433.614C90.4043 433.488 88.3908 434.007 86.4146 434.465C86.2511 434.519 86.4794 434.783 86.6054 434.79C88.544 434.393 90.9392 434.526 92.8267 434C92.9017 433.878 92.7995 433.621 92.6734 433.614Z" fill="#C59C85"/>
<path d="M56.6045 421.078C56.4699 420.895 56.2268 420.882 56.3615 421.065C57.0247 422.396 57.6156 423.841 58.2788 425.172C58.328 425.293 58.5711 425.306 58.5218 425.185C58.0163 423.804 57.2677 422.409 56.6045 421.078Z" fill="#C59C85"/>
<path d="M80.6739 404.723C80.0674 406.372 79.7483 409.073 81.439 411.304C81.491 411.437 81.4528 411.499 81.5429 411.569C81.5949 411.701 81.8132 411.778 81.8513 411.716C81.8513 411.716 81.8513 411.716 81.8894 411.653C82.0176 411.661 82.0938 411.535 81.9137 411.396C82.1528 410.568 82.0317 409.46 82.0144 408.618C82.0596 407.455 81.8484 406.278 81.2906 405.017C81.1867 404.752 80.7883 404.536 80.6739 404.723ZM81.3353 408.644C81.3249 409.097 81.2763 409.612 81.2659 410.065C80.6943 408.608 80.7637 407.188 81.0653 406.04C81.3008 406.96 81.3181 407.802 81.3353 408.644Z" fill="#C59C85"/>
<path d="M88.9258 346.038C88.2197 344.501 86.8513 343.041 85.8733 341.546C85.7422 341.372 85.4702 341.414 85.6013 341.587C86.5793 343.082 87.711 344.53 88.7722 346.085C88.8201 346.199 88.9737 346.151 88.9258 346.038Z" fill="#C59C85"/>
<path d="M133.751 328.125C133.111 327.981 132.472 327.836 131.855 327.472C131.523 327.232 131.312 327.554 131.644 327.793C132.309 328.271 132.842 328.576 133.482 328.72C134.003 328.859 134.843 329.069 135.138 328.807C135.208 328.7 135.16 328.586 135.077 328.527C134.579 328.168 134.105 328.143 133.751 328.125Z" fill="#C59C85"/>
<path d="M97.1842 335.5C97.418 335.513 97.3234 335.293 97.1593 335.177C96.831 334.945 96.4679 334.764 96.1744 334.48C95.7989 334.138 95.575 333.75 95.3511 333.363C95.2566 333.143 94.906 333.124 95.0005 333.344C95.2493 334.056 96.1324 335.446 97.1842 335.5Z" fill="#C59C85"/>
<path d="M136.95 383.123C136.632 382.636 136.52 382.219 136.409 381.802C136.432 381.568 135.933 381.365 135.91 381.599C135.864 382.067 135.976 382.484 136.258 383.028C136.49 383.451 136.907 384.178 137.405 384.381C137.491 384.444 137.648 384.394 137.599 384.274C137.658 383.983 137.183 383.547 136.95 383.123Z" fill="#C59C85"/>
<path d="M97.17 341.348C97.0898 341.482 97.2791 341.632 97.4138 341.64C98.9071 341.243 99.9384 339.986 100.281 338.48C100.362 338.346 100.118 338.054 99.8482 338.038C98.4062 337.883 97.091 338.915 97.1923 340.378C97.2067 340.587 97.6254 340.82 97.6511 340.544C97.6734 339.574 98.5587 338.794 99.4874 338.641C98.9406 339.788 97.9606 340.493 97.17 341.348Z" fill="#C59C85"/>
<path d="M126.599 332.329C126.521 332.458 126.797 332.675 126.875 332.546C126.992 332.352 127.241 332.165 127.436 331.842C127.567 331.85 127.698 331.857 127.645 331.72C127.645 331.72 127.645 331.72 127.591 331.584C128.332 330.355 128.992 328.587 127.125 327.409C127.033 327.336 126.809 327.257 126.731 327.386C126.239 328.428 126.469 329.846 127 331.215C126.95 331.747 126.716 332.135 126.599 332.329ZM127.259 328.085C128.141 328.872 127.872 329.994 127.326 330.899C127.032 329.812 126.922 328.869 127.259 328.085Z" fill="#C59C85"/>
</svg>
