<svg width="285" height="269" viewBox="0 0 285 269" fill="none" xmlns="http://www.w3.org/2000/svg">
<path d="M284.606 116.394C284.09 102.957 279.697 87.97 270.653 77.8924C261.867 67.8148 248.947 69.6236 236.802 71.4324C237.061 70.9156 237.061 70.3988 237.319 69.6236H237.577V69.3652H237.319C237.578 68.59 237.836 67.8147 238.094 67.0395C239.386 62.9051 240.678 59.5459 240.42 55.1531C239.903 48.9515 237.319 39.3906 231.117 36.5482C228.792 35.5146 226.466 34.9978 224.399 33.189C222.849 31.6386 221.557 29.5714 220.781 27.7626C219.231 24.6618 217.939 21.0442 215.613 18.2018C211.221 12.7753 204.761 11.7417 198.301 12.7753C188.998 14.3258 179.696 19.2354 171.685 23.8866C163.933 28.5378 157.215 34.2226 152.564 42.2331C153.856 34.9978 154.372 27.5042 153.597 20.0106C153.08 14.8426 152.305 9.15773 149.204 4.76491C146.104 0.372097 141.194 0.372097 136.026 0.372097C124.398 0.372097 110.444 -1.95351 100.367 5.02331C95.9738 8.12413 92.3562 12.2585 88.2217 15.3594C83.0537 19.2354 76.5937 19.7522 70.9089 22.5946C61.6065 27.5042 60.5729 37.3234 66.5161 45.3339C74.0097 55.1531 80.9865 64.9723 86.9297 75.8252C88.4801 78.6676 89.7722 81.2516 91.0642 84.094C90.289 83.5772 89.7722 82.802 88.997 82.2852C83.0537 78.1508 75.5601 77.8924 68.5833 77.8924C63.9321 77.8924 59.2808 77.8924 55.1464 76.6004C51.2704 75.5668 47.6528 73.4996 44.0352 71.4324C41.968 70.1404 39.6424 69.1068 37.3168 68.0731C33.4408 66.2643 23.8799 62.9051 16.6447 68.3316C12.7687 71.174 10.7015 75.8252 9.15107 79.7012C5.27505 89.0036 1.14064 98.8229 0.365434 109.417C0.107033 113.552 0.365434 117.686 0.623835 121.562C0.882236 126.472 1.39904 131.381 0.623835 136.033L0.365434 137.066C0.107033 139.133 -0.151368 140.942 0.107033 142.751C1.14064 149.211 7.85906 152.829 14.0607 153.345C16.6447 153.604 19.4871 153.604 22.0711 153.345C25.1719 153.345 28.0143 153.087 30.8567 153.604C33.4408 154.121 36.0248 154.896 38.6088 155.929C23.3631 156.446 18.7119 161.098 12.5103 168.591C9.92627 171.692 8.63426 174.793 8.37586 177.635C8.37586 180.478 9.40947 183.062 10.1847 185.387L16.1279 199.858C19.4871 207.868 23.1047 216.137 30.8567 219.755C32.6655 220.53 34.7328 221.305 36.5416 221.822C39.1256 222.597 41.7096 223.372 43.5184 224.664C45.5856 226.215 46.8776 228.282 48.428 230.607C48.9448 231.641 49.72 232.416 50.2368 233.45C53.0792 237.326 56.6968 239.651 60.0561 239.651C60.3145 239.651 60.8313 239.651 61.0897 239.651C63.9321 239.393 66.2577 237.584 68.8417 234.225C71.6841 230.349 74.0097 225.698 76.3353 221.305C79.6945 214.586 83.0537 208.385 87.705 204.509C78.9193 221.047 74.2681 243.786 85.8961 260.582C88.4802 264.199 91.0642 266.525 94.165 267.3C95.457 267.817 96.749 267.817 98.041 267.817C99.0746 267.817 100.367 267.817 101.4 267.559H102.434C106.568 267.3 110.961 267.3 115.354 267.559C120.522 267.817 125.948 267.817 131.375 267.3C139.644 266.267 147.396 263.166 154.114 258.773C159.54 255.155 163.158 251.021 164.967 246.37C166.776 242.235 166.776 237.326 167.034 233.191L167.809 212.002C168.326 201.925 168.584 191.33 165.484 181.253C162.9 172.984 158.248 165.49 153.597 158.513C152.305 156.446 150.755 154.121 148.688 151.795C155.923 157.221 161.608 166.007 165.225 173.759C169.876 183.837 174.269 193.914 179.437 203.734C182.021 208.385 184.605 213.036 187.448 217.687C190.032 221.563 192.616 226.99 196.492 229.315C199.851 231.383 203.985 232.158 207.861 233.191C212.254 234.225 216.647 236.034 221.298 235.259C226.466 234.742 232.668 232.158 236.802 229.315C241.712 225.956 240.678 220.271 244.554 216.137C250.498 209.677 260.575 208.643 263.159 199.082C265.485 190.555 260.834 181.511 256.699 173.759C267.035 175.31 276.079 168.85 277.888 158.255C279.18 151.02 277.113 143.526 279.18 136.549C280.214 133.19 282.539 130.089 283.573 126.73C284.865 123.629 284.865 120.012 284.606 116.394Z" fill="#FFFCF9"/>
<path d="M98.2994 268.075C97.0074 268.075 95.7154 268.075 94.4234 267.559C91.3226 266.783 88.7386 264.458 86.1546 260.84C73.7513 242.752 79.9529 218.204 90.0306 201.408C95.1986 192.881 101.4 184.87 107.343 177.118C113.803 168.85 120.522 160.322 125.432 151.278L128.016 152.57C122.848 161.873 116.129 170.4 109.669 178.669C103.726 186.421 97.5242 194.173 92.6146 202.7C83.0538 218.721 77.1105 241.977 88.7386 259.29C90.8058 262.391 93.1314 264.199 95.457 264.975C97.5242 265.491 99.5914 265.491 101.917 265.233H102.951C107.343 264.975 111.736 264.975 116.129 265.233C121.297 265.491 126.465 265.491 131.633 264.975C139.385 263.941 146.879 261.099 153.08 256.706C157.99 253.347 161.349 249.729 162.9 245.595C164.45 241.719 164.708 237.584 164.708 233.45L165.484 212.261C166 202.183 166.259 192.106 163.416 182.286C161.091 174.276 156.181 167.299 151.788 160.322C148.688 155.671 145.845 151.795 141.711 149.986L142.744 147.402C148.171 149.469 151.53 154.637 154.114 158.772C158.765 165.749 163.416 173.242 166 181.511C169.101 191.589 168.584 202.183 168.326 212.261L167.551 233.45C167.292 237.584 167.292 242.235 165.484 246.628C163.675 251.279 160.057 255.414 154.631 259.031C147.912 263.683 139.902 266.783 131.892 267.559C126.465 268.334 121.039 268.075 115.871 267.817C111.736 267.559 107.343 267.559 102.951 267.817H101.917C100.625 267.817 99.333 268.075 98.2994 268.075Z" fill="#C59C85"/>
<path d="M135.251 118.978C140.677 108.9 143.778 98.3061 145.845 87.1948C147.654 77.634 147.654 68.0732 149.463 58.5123C152.047 45.8507 154.889 32.9306 153.597 20.0106C153.08 14.8426 152.305 9.15773 149.204 4.76491C146.104 0.372097 141.194 0.372097 136.026 0.372097C124.398 0.372097 110.444 -1.95351 100.367 5.02331C95.9737 8.12413 92.3561 12.2585 88.2217 15.3594C83.0537 19.2354 76.5937 19.7522 70.9088 22.5946C61.6064 27.5042 60.5728 37.3234 66.516 45.3339C74.0097 55.1531 80.9865 64.9723 86.9297 75.8252C95.9737 93.138 102.175 110.968 117.421 123.888C118.971 125.18 121.555 122.854 119.747 121.562C107.86 111.485 101.4 98.5645 94.9401 84.8692C91.3225 77.1172 87.4465 69.6236 82.7953 62.6467C79.9529 58.2539 76.8521 53.8611 73.7513 49.4683C69.6168 44.3003 62.8984 38.0986 66.7744 30.8634C69.3584 25.9538 74.7849 24.4034 79.6945 22.853C84.3457 21.3026 88.4801 19.2354 92.3561 16.1346C96.2321 12.7753 99.8498 8.89933 104.501 6.57372C109.669 3.98971 115.871 3.98971 121.814 3.98971C127.757 3.98971 133.7 3.98971 139.385 4.24811C148.429 4.76491 149.204 14.8426 149.721 22.0778C150.238 34.2226 147.654 46.1091 145.587 57.7371C144.036 66.7811 143.778 75.5668 143.52 84.6108C143.003 96.7557 139.902 107.867 134.734 118.978C134.475 118.978 134.992 119.237 135.251 118.978Z" fill="#C59C85"/>
<path d="M65.9993 42.7499C65.4825 36.2899 68.3249 30.0883 74.785 28.0211C79.1778 26.4707 84.0874 27.2459 88.7386 27.2459C92.6146 27.2459 97.0074 27.2459 100.625 25.4371C103.984 23.8867 106.051 20.7858 108.635 17.9434C112.511 13.5506 117.938 12.7754 123.364 12.0002C128.791 11.225 134.476 10.9666 139.127 14.0674C147.654 19.4938 147.137 29.8299 148.946 38.3571C148.946 38.8739 149.98 38.8739 149.98 38.3571C151.53 30.0883 148.171 18.4602 141.452 13.2922C137.576 10.1914 132.408 9.4162 127.499 9.6746C122.589 9.933 116.904 10.4498 112.511 12.517C106.827 15.101 104.759 21.8194 98.5578 24.1451C92.6146 26.4707 86.1546 24.9203 79.953 25.6955C70.6505 26.7291 64.4489 33.1891 65.9993 42.7499C65.9993 43.0083 65.9993 43.0083 65.9993 42.7499Z" fill="#C59C85"/>
<path d="M136.284 12.7755C145.587 28.2795 139.127 45.334 136.543 61.6133C135.251 69.1069 135.509 76.0837 136.543 83.5773C137.318 88.487 137.576 92.8798 136.543 97.7894C135.509 101.924 133.7 105.8 132.667 109.934C132.667 110.451 133.184 110.709 133.442 110.193C137.576 103.474 139.385 95.2054 138.61 87.4534C138.093 82.8021 136.801 78.4093 136.543 73.7581C136.284 68.3317 137.318 62.9053 138.352 57.4788C141.452 42.75 145.587 26.2123 136.284 12.7755C136.284 12.5171 136.284 12.5171 136.284 12.7755Z" fill="#C59C85"/>
<path d="M122.589 11.4833C125.69 20.0105 126.207 27.7625 125.69 36.8066C125.173 44.3002 125.948 51.277 127.499 58.5123C129.049 67.0395 130.341 75.5667 130.341 84.6108C130.341 89.0036 130.083 93.138 129.824 97.5308C129.566 101.665 128.791 106.316 129.308 110.451C129.308 110.709 129.824 110.968 129.824 110.451C132.15 102.44 131.633 92.6212 131.375 84.6108C131.375 76.3419 130.341 68.0731 128.791 60.0627C126.982 51.0186 126.465 42.4914 126.724 33.4474C127.24 25.6953 125.948 18.4601 122.589 11.4833Z" fill="#C59C85"/>
<path d="M108.636 16.6515C108.377 32.6723 115.096 47.4012 118.713 62.9053C122.331 79.9597 122.331 97.531 126.465 114.327C126.465 114.585 126.982 114.585 126.982 114.327C126.724 106.575 125.173 98.5646 124.14 90.8126C122.848 82.2853 122.072 73.4997 120.264 65.2309C116.388 48.9516 109.152 33.706 108.636 16.6515Z" fill="#C59C85"/>
<path d="M87.705 27.2457C86.1546 44.0418 94.4234 59.2874 100.625 74.2747C103.726 81.7683 105.276 89.5204 107.86 97.014C110.186 103.474 114.32 108.9 118.713 114.068C118.972 114.585 119.488 113.81 119.23 113.552C114.32 107.35 110.186 101.407 107.86 93.6548C105.793 86.4195 103.726 79.4427 100.883 72.4659C94.4234 57.737 87.1882 43.525 87.705 27.2457Z" fill="#C59C85"/>
<path d="M234.735 71.6907C246.622 71.6907 260.317 69.6235 268.844 79.7011C277.113 89.262 281.247 102.957 282.023 115.36C282.281 118.461 282.281 121.562 281.506 124.663C280.731 127.764 278.922 130.089 277.888 132.932C275.821 137.583 275.563 142.234 275.821 147.144C276.079 153.604 276.338 160.581 271.945 165.749C268.069 170.141 262.126 172.467 256.441 171.692C255.149 171.433 254.374 173.501 255.924 173.759C266.777 175.826 276.338 169.366 278.147 158.513C279.439 151.278 277.371 143.785 279.439 136.808C280.472 133.449 282.798 130.348 283.831 126.989C285.123 123.629 285.123 119.753 284.865 116.394C284.348 102.957 279.955 87.97 270.911 77.8923C261.351 67.0395 247.397 69.8819 234.735 71.6907Z" fill="#C59C85"/>
<path d="M54.8882 159.547C51.529 159.547 48.1697 159.289 45.0689 158.255C43.0017 157.738 40.9345 156.963 39.1257 156.188C36.2833 155.154 33.6993 154.121 31.1153 153.862C28.2729 153.345 25.4305 153.604 22.3296 153.604C19.7456 153.604 16.9032 153.862 14.3192 153.604C8.37599 153.087 1.39916 149.211 0.365555 143.009C0.107154 141.201 0.365555 139.392 0.623956 137.583L0.882357 136.549C1.65756 131.64 1.14076 126.73 0.882357 122.079C0.365555 117.428 0.107154 113.552 0.365555 109.417C1.14076 98.8228 5.01677 89.2619 9.15119 79.7011C10.7016 75.8251 12.7688 71.1738 16.6448 68.3314C23.88 62.905 33.4409 66.5226 37.3169 68.073C39.6425 69.1066 41.9681 70.3986 44.0353 71.4322C47.9113 73.4995 51.2705 75.5667 55.1466 76.6003C59.281 77.6339 64.1906 77.8923 68.5834 77.8923C75.8186 77.8923 83.0539 78.1507 88.9971 82.2851C93.3899 85.3859 95.9739 89.7787 98.2995 94.1715C100.108 97.2723 101.917 100.373 104.243 102.957C106.568 105.541 109.411 107.092 112.253 108.9C116.904 111.743 121.814 114.585 122.331 121.562L119.488 121.82C119.23 116.394 115.354 114.327 110.703 111.484C107.86 109.934 104.76 107.867 102.176 105.024C99.5915 102.182 97.7827 98.8227 95.9739 95.7219C93.3899 91.3291 91.0643 87.4531 87.4467 84.6107C82.2787 80.9931 75.5602 80.7347 68.5834 80.7347C63.9322 80.7347 59.0226 80.7347 54.3714 79.4427C50.2369 78.4091 46.3609 76.0835 42.4849 74.0163C40.4177 72.7242 38.0921 71.6906 36.0249 70.657C29.0481 67.5562 22.3296 67.5562 18.1952 70.657C14.836 72.9826 13.2856 77.1171 11.7352 80.7347C7.85918 90.0371 3.72477 99.5979 3.20797 109.676C2.94957 113.552 3.20797 117.686 3.46637 121.562C3.72477 126.472 4.24157 131.64 3.46637 136.808L3.20797 138.1C2.94957 139.392 2.69116 140.942 2.94957 142.234C3.72477 147.144 9.40959 149.986 14.3192 150.503C16.9032 150.761 19.2288 150.761 21.8128 150.503C24.9136 150.503 28.0145 150.245 31.3737 150.761C34.4745 151.278 37.3169 152.312 39.9009 153.345C41.7097 154.121 43.7769 154.637 45.5857 155.154C56.697 158.255 69.1002 154.637 79.1779 151.795L113.287 141.976L114.062 144.818L80.2115 154.896C72.7178 156.963 63.9322 159.547 54.8882 159.547Z" fill="#C59C85"/>
<path d="M60.3145 239.651C56.9553 239.651 53.3376 237.326 50.4952 233.45C49.9784 232.675 49.2032 231.641 48.6864 230.607C47.136 228.282 45.844 225.956 43.7768 224.664C41.7096 223.114 39.384 222.597 36.8 221.822C34.9912 221.305 32.924 220.788 31.1152 219.755C23.6215 216.137 19.7455 207.868 16.3863 199.858L10.4431 185.387C9.40948 183.062 8.37588 180.478 8.63428 177.635C8.89268 174.793 10.1847 171.95 12.7687 168.591C20.5207 159.289 25.6887 154.638 51.2704 156.446L51.012 159.289C25.4303 157.48 21.2959 162.39 14.5775 170.4C12.2519 173.242 11.2183 175.568 11.2183 177.635C11.2183 179.961 11.9935 182.028 12.7687 184.095L18.7119 198.824C21.8127 206.576 25.1719 214.07 31.8904 217.171C33.4408 217.946 35.2496 218.463 37.0584 218.979C39.9008 219.755 42.7432 220.53 45.0688 222.339C47.6528 224.147 49.2032 226.731 50.7536 229.057C51.2704 229.832 51.7872 230.866 52.5624 231.641C53.8544 233.191 56.9553 237.067 60.8313 236.551C62.8985 236.292 64.7073 235 66.7745 232.158C69.6169 228.54 71.6841 224.147 74.0097 219.755C78.4025 211.227 83.0538 202.183 91.581 198.566L92.6146 201.15C84.8626 204.509 80.7281 212.519 76.3353 221.047C74.0097 225.439 71.6841 230.091 68.8417 233.967C66.5161 237.067 63.9321 238.876 61.0897 239.393C61.0897 239.651 60.5729 239.651 60.3145 239.651Z" fill="#C59C85"/>
<path d="M259.283 71.9491C266.26 79.1843 273.495 86.9364 272.462 97.7892C271.687 107.092 267.552 115.102 269.619 124.663C270.653 129.573 272.72 134.999 270.136 139.65C268.327 143.009 264.968 144.818 263.418 148.436C262.126 151.537 262.643 154.896 263.676 157.997C265.485 164.715 263.418 171.433 255.407 171.95C254.374 171.95 254.374 173.242 255.407 173.501C263.935 174.534 268.844 166.265 266.777 158.772C265.743 154.896 264.968 151.537 267.811 148.177C269.361 146.369 270.911 145.077 272.462 143.268C275.046 139.65 275.563 135.516 274.787 131.381C273.495 124.921 271.17 119.236 272.203 112.518C272.979 107.092 275.046 101.924 274.787 96.4972C274.529 85.9028 266.777 78.4091 259.283 71.9491Z" fill="#C59C85"/>
<path d="M39.9008 70.9156C39.9008 71.4324 34.7328 71.4324 33.9576 71.4324C31.8904 71.6908 30.0816 72.2076 28.2728 72.9828C25.172 74.2748 22.588 76.0836 20.7792 78.926C18.4536 82.802 18.712 87.4532 18.4536 91.5876C17.9368 98.3061 14.3191 103.216 11.7351 109.159C9.92633 113.293 9.40953 117.428 9.15112 121.821C8.63432 127.764 6.30871 133.707 5.79191 139.65C5.27511 145.852 8.89272 154.637 16.6448 152.57C17.42 152.312 17.1616 151.278 16.3864 151.278C8.89272 151.795 6.82552 144.043 7.60072 138.1C8.11752 134.224 9.66793 130.348 10.1847 126.472C10.9599 121.821 10.7015 116.911 11.9935 112.26C13.2855 108.125 15.6111 104.508 17.42 100.632C20.5208 93.3964 17.42 83.3188 22.8464 77.1172C25.6888 74.0164 29.8232 72.466 33.9576 71.9492C35.7664 71.6908 38.8672 72.2076 40.4176 70.9156C40.1592 70.6572 39.9008 70.3988 39.9008 70.9156C39.9008 71.174 39.6424 70.9156 39.9008 70.9156Z" fill="#C59C85"/>
<path d="M39.1257 91.5876C39.3841 91.5876 39.3841 91.3292 39.1257 91.5876C39.1257 91.3292 39.1257 91.5876 39.1257 91.5876Z" fill="#C59C85"/>
<path d="M80.9865 228.799C81.5033 237.326 85.6378 249.212 94.165 252.571C98.041 254.122 101.659 253.088 105.276 251.279C108.377 249.729 112.253 247.662 115.871 248.695C119.747 249.987 119.23 253.088 121.814 255.155C124.915 257.74 130.6 258.256 134.476 258.256C139.644 258.256 145.07 256.964 149.721 254.38C157.99 249.987 164.192 241.46 166 232.158C166 231.899 165.742 231.899 165.742 232.158C163.158 241.719 157.215 249.987 147.912 254.122C142.744 256.447 137.06 257.223 131.375 256.706C128.791 256.447 125.432 256.189 123.364 254.639C121.297 253.347 120.78 250.504 119.23 248.954C113.803 243.786 106.568 249.987 101.142 251.538C88.7386 255.414 82.7953 237.843 80.9865 228.799Z" fill="#C59C85"/>
<path d="M156.181 120.787C166.001 121.821 175.561 120.27 184.606 116.653C193.908 113.035 200.885 106.317 209.412 101.924C218.973 97.0141 229.826 95.9805 240.42 96.2389C252.307 96.4973 265.485 97.5309 270.395 110.193C270.653 110.709 271.687 110.451 271.428 109.934C268.327 101.407 261.351 97.2725 252.307 95.9805C241.971 94.4301 231.118 94.1717 220.782 96.4973C215.872 97.5309 211.221 99.3398 206.828 101.665C201.918 104.508 197.784 108.384 192.874 111.226C181.763 117.945 169.101 120.787 156.181 120.787Z" fill="#C59C85"/>
<path d="M158.248 124.921C176.853 131.123 198.301 125.438 217.422 123.371C234.735 121.304 262.642 115.877 270.653 137.325C270.911 138.1 272.462 137.841 271.945 136.808C265.485 119.236 244.038 118.461 228.275 120.528C217.422 122.079 206.311 123.629 195.458 124.921C182.796 126.73 170.652 128.022 158.248 124.921Z" fill="#C59C85"/>
<path d="M264.968 157.221C254.632 144.043 238.611 135.516 222.332 131.898C215.097 130.348 208.12 130.348 200.885 131.123C193.391 131.898 185.122 133.19 177.887 131.123C177.629 131.123 177.37 131.381 177.629 131.64C183.055 133.965 189.515 133.449 195.458 132.932C203.21 132.415 210.962 131.123 218.714 132.673C227.242 134.224 235.769 137.583 243.521 141.717C251.015 146.11 257.733 152.053 264.968 157.221C264.968 157.221 264.71 157.221 264.968 157.221Z" fill="#C59C85"/>
<path d="M141.711 148.177C152.305 151.795 160.833 163.94 165.225 174.018C169.877 184.095 174.269 194.173 179.437 203.992C182.021 208.643 184.605 213.295 187.448 217.946C190.032 221.822 192.616 227.248 196.492 229.574C199.851 231.641 203.986 232.416 207.862 233.45C212.254 234.483 216.647 236.292 221.298 235.517C226.208 235 232.668 232.416 236.802 229.574C241.712 226.215 240.678 220.53 244.554 216.395C250.498 209.935 260.575 208.902 263.159 199.341C265.743 189.263 259.025 178.41 254.374 169.883C248.689 159.806 241.97 150.503 231.893 144.301C220.006 137.066 205.794 134.482 192.358 132.157C177.112 129.831 161.866 128.539 146.362 129.573C145.587 129.573 145.329 130.865 146.362 130.865C170.91 132.157 196.75 133.19 220.006 141.717C231.634 146.11 240.678 153.345 247.655 163.423C253.599 171.95 261.609 183.837 261.351 194.431C261.092 206.059 250.239 207.351 243.521 213.811C240.42 216.912 240.678 220.53 238.353 224.147C236.544 227.248 232.151 228.54 229.05 229.832C225.174 231.383 220.782 232.416 216.647 231.641C213.03 230.866 209.154 229.832 205.536 228.799C203.469 228.282 201.143 227.765 199.334 226.731C196.492 225.181 194.941 222.08 193.133 219.496C187.448 211.227 182.797 202.442 178.145 193.656C173.236 184.095 169.36 173.759 163.158 164.974C160.316 161.098 156.698 157.48 153.081 154.121C149.98 151.537 146.362 148.953 141.711 148.177C141.711 148.177 141.711 147.919 141.711 148.177Z" fill="#C59C85"/>
<path d="M158.249 134.224C163.158 134.741 168.068 136.549 172.719 137.841C178.146 139.392 183.572 140.684 188.998 142.493C199.593 145.593 210.962 148.177 220.782 153.345C229.826 157.997 237.061 166.007 243.779 173.501C252.307 182.803 256.183 194.173 254.374 206.834C254.374 207.61 255.407 207.868 255.666 207.093C257.216 197.015 255.407 186.421 249.206 178.152C243.004 169.625 234.477 160.839 225.691 155.154C215.872 148.694 203.21 146.11 192.099 143.009C186.156 141.201 179.954 139.65 174.011 138.1C168.585 136.549 163.417 134.224 158.249 134.224Z" fill="#C59C85"/>
<path d="M244.038 213.294C246.105 203.734 239.128 193.656 234.994 185.387C232.926 180.994 230.859 176.601 227.242 173.501C223.624 170.4 219.231 168.849 214.838 166.782C205.794 162.389 199.593 154.379 189.515 151.278C178.404 147.919 168.068 144.56 157.473 139.392C157.215 139.392 157.215 139.392 157.473 139.65C164.709 144.301 172.719 147.144 180.988 149.728C186.414 151.278 191.841 152.312 196.75 155.413C200.885 157.997 204.502 161.356 208.378 164.198C211.996 166.782 216.13 168.591 220.265 170.4C225.433 172.984 229.05 176.343 231.893 181.511C234.218 185.904 236.286 190.555 238.611 195.206C241.712 201.15 244.554 206.834 244.038 213.294C244.038 213.553 244.038 213.553 244.038 213.294Z" fill="#C59C85"/>
<path d="M155.665 142.493C162.641 148.694 171.169 153.087 179.437 157.738C187.965 162.648 196.234 168.074 203.21 174.793C210.446 181.769 215.097 189.78 219.231 198.824C223.882 208.902 231.893 217.946 229.309 229.832C229.309 230.09 229.567 230.09 229.826 229.832C233.443 221.046 227.242 212.261 223.107 204.767C218.198 195.723 214.58 186.421 207.862 178.41C193.133 162.131 172.202 155.671 155.665 142.493C155.406 142.493 155.665 142.234 155.665 142.493Z" fill="#C59C85"/>
<path d="M208.12 233.191C207.086 223.631 205.277 214.328 201.401 205.543C199.593 201.408 197.525 197.274 195.2 193.656C192.616 190.038 189.515 187.196 186.414 184.095C180.213 177.635 178.145 168.333 171.685 162.131C165.484 156.446 157.473 152.312 149.721 149.728C149.463 149.728 149.204 150.245 149.463 150.245C156.956 154.121 164.967 156.963 171.168 163.165C177.112 169.108 178.404 177.894 183.83 184.354C186.673 187.713 190.032 190.555 192.616 194.173C194.941 197.532 196.75 201.408 198.559 205.026C202.435 214.07 206.053 223.372 208.12 233.191C208.12 233.191 207.861 233.191 208.12 233.191Z" fill="#C59C85"/>
<path d="M150.496 128.539C154.114 120.27 162.9 114.069 170.91 110.193C178.921 106.058 187.706 103.474 196.233 100.115C203.985 96.7557 211.737 93.6548 219.231 89.5204C225.433 86.1612 232.668 83.3188 235.51 76.342C236.802 73.2412 237.578 70.1404 238.611 66.7811C239.903 62.6467 241.195 59.2875 240.937 54.8947C240.42 48.6931 237.836 39.1322 231.634 36.2898C229.309 35.2562 226.983 34.7394 224.916 32.9306C223.365 31.3802 222.073 29.313 221.298 27.5042C219.748 24.4034 218.456 20.7858 216.13 17.9434C211.221 12.7753 204.761 11.7417 198.301 12.7753C188.998 14.3257 179.696 19.2354 171.685 23.8866C163.158 29.0546 155.664 35.5146 151.272 44.5587C150.755 45.3339 152.047 45.8507 152.564 45.3339C162.641 31.3802 178.145 21.561 194.425 16.6514C203.21 14.0673 211.221 14.8425 216.13 23.3698C218.973 28.2794 220.781 34.2226 226.208 37.065C228.275 38.0986 230.859 38.6154 232.668 40.1658C234.735 41.7163 235.51 45.0755 236.286 47.4011C238.094 52.5691 239.128 57.7371 237.319 63.1635C235.252 68.8483 234.477 76.8588 229.05 80.218C215.872 89.0036 200.368 95.2052 185.639 100.89C178.662 103.474 171.168 106.058 165.484 110.968C159.54 115.877 152.564 120.787 150.496 128.539C150.496 128.539 150.238 128.539 150.496 128.539Z" fill="#C59C85"/>
<path d="M138.093 111.485C138.869 107.092 140.677 103.216 142.228 99.0814C144.037 93.655 145.845 88.2285 147.913 82.8021C151.789 72.4661 155.148 61.0964 160.833 51.5356C166.001 43.0084 174.269 36.5483 182.021 30.6051C191.841 22.8531 202.952 20.0107 215.097 22.5947C215.872 22.8531 216.13 21.5611 215.355 21.3027C205.536 18.9771 195.2 20.2691 186.673 25.6955C178.145 31.1219 169.36 38.6155 163.158 46.626C156.181 55.67 152.822 67.8149 148.946 78.4093C146.621 84.6109 144.553 91.0709 142.486 97.2726C140.677 101.924 138.352 106.575 138.093 111.485C138.093 111.485 137.835 111.485 138.093 111.485Z" fill="#C59C85"/>
<path d="M220.782 32.9305C211.221 30.0881 200.368 37.0649 191.582 40.4241C187.706 41.9745 183.83 43.7833 180.988 46.6257C177.629 49.9849 175.82 54.3778 173.494 58.2538C168.585 66.781 160.316 72.4658 156.698 81.7683C152.564 92.3627 148.946 102.44 143.003 112.26C143.003 112.518 143.003 112.518 143.261 112.26C148.171 105.283 151.789 97.7891 154.631 89.7787C156.44 84.6107 157.99 79.1843 161.091 74.7914C163.933 70.657 167.809 67.2978 170.91 63.4218C176.853 56.1866 178.662 47.1425 187.706 42.7497C192.616 40.4241 197.784 38.6153 202.694 36.5481C208.637 34.4809 214.322 31.8969 220.782 32.9305C220.782 32.9305 220.782 33.1889 220.782 32.9305Z" fill="#C59C85"/>
<path d="M145.845 114.585C152.305 108.384 156.956 100.632 161.608 93.1379C166.776 85.3858 172.46 77.6338 179.437 71.1738C187.189 63.9386 195.458 60.0625 205.019 56.1865C215.097 52.3105 224.399 45.3337 235.769 48.4345C236.027 48.4345 236.286 48.1761 236.027 47.9177C227.758 43.7833 218.714 49.2097 211.479 52.5689C202.177 56.9617 192.616 59.8042 184.347 66.2642C167.292 79.4426 159.799 99.3395 145.845 114.585C145.845 114.844 145.587 114.585 145.845 114.585Z" fill="#C59C85"/>
<path d="M237.836 69.3651C228.017 69.8819 218.456 71.1739 209.154 74.5331C205.019 76.0835 200.626 77.8923 196.75 80.4764C192.874 83.0604 190.032 86.678 186.414 89.262C179.696 93.9132 171.685 95.4636 165.742 101.148C160.057 106.575 155.664 113.81 153.08 121.045C152.564 121.304 153.08 121.304 153.08 121.045C157.473 114.068 160.316 106.833 166.517 101.148C172.719 95.722 180.988 94.9468 187.706 90.2956C190.807 88.2284 193.391 85.386 196.492 83.3188C200.626 80.4764 205.019 78.6675 209.67 76.8587C218.714 73.4995 228.017 70.6571 237.836 69.3651C237.836 69.3651 237.836 69.6235 237.836 69.3651Z" fill="#C59C85"/>
<path d="M140.419 158.255C139.902 162.648 139.385 167.041 139.902 171.434C140.419 174.793 141.969 177.894 143.003 180.994C145.587 189.263 145.328 198.307 145.328 206.576C145.587 215.362 146.104 224.147 145.328 232.933C145.07 237.326 144.036 241.719 142.744 245.853C141.452 249.987 139.385 253.605 138.093 257.739C138.093 257.998 138.352 258.256 138.61 257.998C143.52 252.571 145.845 244.044 146.62 236.809C147.654 228.023 147.137 218.979 146.879 210.194C146.62 201.925 146.879 193.398 145.07 185.387C144.036 180.994 141.711 177.118 140.677 172.984C139.644 168.074 140.16 163.165 140.419 158.255C140.419 157.997 140.677 157.997 140.419 158.255Z" fill="#C59C85"/>
<path d="M133.7 160.322C130.858 166.524 130.858 173.242 131.116 179.702C131.375 188.488 132.15 197.274 132.408 205.801C132.667 214.07 133.442 223.114 132.408 231.383C131.375 239.91 125.69 247.403 123.623 255.931C123.623 256.189 124.139 256.447 124.139 256.189C126.207 252.571 127.757 248.695 129.566 244.819C130.858 241.719 132.667 238.359 133.7 235C135.768 227.765 134.734 218.979 134.476 211.486C134.217 202.958 133.959 194.173 132.925 185.646C131.633 177.118 130.858 168.849 133.7 160.322Z" fill="#C59C85"/>
<path d="M128.274 159.03C123.881 164.973 121.297 171.95 118.713 178.927C115.871 186.679 113.287 194.431 111.995 202.7C110.703 211.486 112.77 220.271 110.961 228.799C109.669 235.775 106.827 242.235 107.86 249.471C107.86 250.246 109.152 249.987 109.152 249.212C109.152 241.719 112.511 234.742 113.287 227.248C114.32 219.496 112.511 211.486 113.287 203.734C114.062 195.723 116.646 188.23 118.713 180.736C121.297 172.984 123.881 165.749 128.274 159.03Z" fill="#C59C85"/>
<path d="M123.881 158.255C118.196 167.041 112.512 175.568 107.085 184.354C102.434 191.847 97.2659 199.599 94.9403 208.126C92.6147 216.912 94.6819 225.439 94.1651 234.225C93.6483 241.46 93.1315 248.437 99.8499 253.088C100.108 253.347 100.625 252.83 100.367 252.571C93.1315 246.628 96.7491 236.292 96.2323 228.023C95.9739 224.147 95.1987 220.271 95.4571 216.395C95.7155 211.744 97.0075 207.351 98.5579 203.217C101.659 195.206 106.052 188.23 110.444 180.994C115.096 173.501 119.488 166.007 123.881 158.255C123.881 158.255 124.14 158.255 123.881 158.255Z" fill="#C59C85"/>
<path d="M119.23 156.963C112.511 160.064 107.86 165.49 103.726 171.434C98.2994 179.186 92.873 186.938 85.8961 193.656C82.7953 196.757 79.4361 199.341 76.5937 202.959C74.2681 206.059 72.9761 209.677 71.1673 213.036C66.7745 221.305 59.5392 228.54 49.9784 230.349C49.2032 230.349 49.72 231.383 50.2368 231.383C57.7304 230.349 63.6736 225.956 68.3249 220.013C70.6505 217.171 72.4593 213.811 74.0097 210.711C76.3353 205.801 79.1777 202.183 83.3121 198.307C89.7721 192.106 95.457 185.387 100.367 178.152C105.793 169.883 110.703 161.873 119.23 156.963Z" fill="#C59C85"/>
<path d="M108.635 152.053C100.367 155.413 92.0978 159.289 84.6042 164.198C77.3689 168.849 71.4257 174.534 65.4825 180.477C59.2809 186.679 52.8208 192.881 45.0688 196.757C37.5752 200.374 28.0144 201.925 21.8127 207.61C21.5543 207.868 21.8127 208.385 22.0711 208.126C29.5648 205.284 37.0584 201.925 44.2936 198.566C51.7872 194.948 57.7305 189.521 63.4153 183.837C69.8753 177.377 75.8185 170.917 83.3122 165.749C91.581 160.322 100.367 156.446 108.635 152.053C108.894 152.053 108.894 152.053 108.635 152.053Z" fill="#C59C85"/>
<path d="M75.3019 155.154C64.449 157.48 51.529 159.547 42.4849 166.266C36.2833 170.658 31.3737 172.209 24.1385 172.984C19.4873 173.501 14.0608 174.018 9.92642 176.602C9.66802 176.86 9.92642 177.377 10.1848 177.119C15.8696 175.051 21.0377 174.276 26.9809 173.501C31.6321 172.726 36.0249 171.95 39.9009 169.108C45.069 165.232 49.4618 162.906 55.6634 160.839C62.3818 159.03 68.8418 157.222 75.3019 155.154C75.5603 155.154 75.5603 155.413 75.3019 155.154Z" fill="#C59C85"/>
<path d="M107.602 123.629C106.052 125.438 96.7492 118.72 94.9404 117.686C90.806 115.102 87.4468 112.26 84.0875 108.9C78.6611 103.474 71.9427 100.115 64.7075 97.7892C50.7538 93.1379 32.149 87.1947 18.1953 95.4636C17.9369 95.722 18.1953 96.2388 18.4537 95.9804C28.0145 92.3627 37.317 92.1043 47.1362 94.1715C56.1802 96.2388 65.7411 98.5644 74.0099 102.957C81.7619 107.092 86.6716 114.327 94.1652 118.461C96.4908 119.495 106.31 126.988 107.602 123.629C107.602 123.371 107.86 123.629 107.602 123.629Z" fill="#C59C85"/>
<path d="M11.4768 111.743C19.7457 106.833 32.9241 109.934 41.7097 111.226C49.9786 112.518 58.5058 114.069 66.5162 116.394C75.0435 118.72 81.5035 122.854 88.4803 127.764C93.1315 131.123 100.367 133.965 105.793 130.348C106.31 130.089 106.052 129.314 105.535 129.314C100.625 129.573 96.4907 130.606 91.8395 128.022C88.2219 125.955 85.1211 123.113 81.5035 121.045C74.2683 116.911 66.2578 114.844 57.989 113.035C49.4618 111.226 40.6761 109.676 31.8905 108.901C25.6889 108.642 16.9032 107.35 11.4768 111.743Z" fill="#C59C85"/>
<path d="M106.31 134.224C104.243 137.325 97.0075 135.774 93.6483 135.774C89.2555 135.774 84.6043 135.257 80.2115 134.482C72.7178 132.932 65.9994 129.056 58.5058 127.505C51.529 125.955 44.2937 126.213 37.3169 127.247C28.0145 128.539 19.4873 131.123 10.1848 129.056C9.66801 128.797 9.40961 129.831 9.92642 130.089C17.6784 132.932 26.2057 130.348 34.2161 129.056C44.8105 127.247 55.1466 127.247 65.4826 131.123C73.4931 133.965 80.9867 136.291 89.7723 136.808C94.1651 137.066 98.8163 137.325 102.951 136.808C104.243 136.291 105.535 135.774 106.31 134.224Z" fill="#C59C85"/>
<path d="M161.091 167.299C161.091 167.299 161.091 167.041 161.091 167.299C160.833 167.041 160.833 167.299 161.091 167.299Z" fill="#C59C85"/>
<path d="M119.747 118.978C119.747 116.911 118.196 116.911 116.129 116.653C114.062 116.394 111.995 117.945 111.478 120.012C111.219 121.045 111.478 122.337 110.703 123.371C109.927 124.146 108.894 124.405 107.86 124.663C105.535 125.697 104.243 129.056 106.051 130.865C106.827 131.64 108.377 132.157 108.635 133.449C109.152 135.774 105.535 136.291 104.243 138.1C103.209 139.392 103.467 141.201 104.243 142.493C105.018 143.785 106.568 144.818 107.86 145.593C108.635 146.11 109.411 146.369 109.927 147.144C110.444 147.919 110.444 148.694 110.444 149.469C110.444 152.054 110.961 154.896 113.287 156.188C115.871 157.738 119.23 155.671 122.331 156.188C124.398 156.705 125.948 158.255 127.499 159.547C129.049 160.839 131.375 161.873 133.184 161.098C134.476 160.581 135.251 159.289 136.543 158.772C137.835 157.997 139.385 157.997 140.936 157.48C142.228 156.963 143.778 155.671 143.52 154.379C143.52 153.862 143.261 153.346 143.261 152.829C143.261 152.312 143.778 152.054 144.036 151.795C145.845 150.503 147.912 150.503 149.98 149.986C152.047 149.469 154.114 147.402 153.339 145.335C153.339 144.818 153.08 144.56 152.822 144.043C152.822 142.751 154.114 142.234 155.148 141.459C158.507 139.65 160.316 134.999 157.99 132.157C157.473 131.64 156.956 131.381 156.698 130.606C156.181 129.573 156.956 128.281 157.215 126.989C158.507 123.629 157.732 118.978 154.372 117.945C153.597 117.686 152.564 117.686 152.047 117.169C151.013 116.394 150.755 114.844 149.98 113.552C148.688 110.709 144.812 109.159 141.711 110.709C140.936 110.968 140.419 111.485 139.644 111.743C136.284 112.777 132.667 108.125 129.824 109.934C129.308 110.451 128.791 110.968 128.016 111.226C126.982 111.743 125.69 111.485 124.398 111.485C121.814 111.743 119.488 114.069 119.747 116.653V118.978Z" fill="#FFFCF9"/>
<path d="M119.747 118.978C119.488 117.169 118.972 116.911 117.163 116.394C113.804 115.619 112.512 117.169 110.703 119.753C109.411 121.562 108.377 122.596 106.568 123.629C105.535 124.146 104.76 124.921 104.243 126.213C103.726 127.247 103.468 128.281 103.726 129.314C103.984 131.381 106.827 132.932 105.793 134.999C105.276 136.033 103.468 136.291 102.692 137.325C101.917 138.358 101.659 139.392 101.917 140.684C102.434 145.077 107.344 145.593 108.636 149.469C109.669 152.312 108.894 155.413 112.253 157.221C113.545 157.997 115.096 157.997 116.646 157.738C117.163 157.738 117.68 157.48 118.196 157.48C122.073 157.221 123.623 157.997 126.465 160.064C128.533 161.356 130.6 162.648 133.184 161.873C135.251 161.097 137.06 159.289 139.385 158.255C140.677 157.738 142.228 157.48 143.003 156.188C144.037 154.637 142.745 155.413 143.778 153.862C145.845 149.986 146.879 151.278 149.98 149.986C151.272 149.469 152.564 148.694 153.339 147.661C154.114 146.627 153.597 146.11 153.856 144.818C155.148 141.201 159.024 140.167 159.799 136.291C160.057 134.999 159.799 133.965 159.541 132.673C159.541 132.157 159.024 131.898 158.765 131.64C157.473 128.539 157.99 128.797 158.765 126.213C159.282 123.888 159.282 121.304 157.99 119.237C157.215 118.203 156.44 117.686 155.406 116.911C152.305 114.585 152.564 113.81 150.755 111.485C148.688 108.642 145.07 108.384 141.969 109.159C140.936 109.417 140.419 110.193 139.127 110.193C137.577 110.193 136.026 109.159 134.734 108.642C133.442 108.125 132.409 107.867 130.858 108.125C128.791 108.384 126.724 109.676 124.915 110.193C123.365 110.709 122.073 110.968 120.78 112.26C118.713 114.585 118.455 116.653 119.747 118.978C120.264 118.461 120.78 117.686 121.039 117.169C121.297 116.911 125.173 113.293 125.69 113.035C126.207 112.777 126.724 113.293 126.982 113.035C128.016 112.777 128.791 112.26 129.566 111.743C132.667 110.451 134.217 112.26 137.318 113.035C139.644 113.552 140.677 112.518 142.745 112.001C147.913 110.709 147.913 114.585 150.497 117.428C151.013 118.203 151.53 118.203 152.305 118.72C154.631 120.012 156.957 120.787 156.957 124.146C156.957 126.472 155.148 128.281 155.665 130.606C155.923 131.381 156.181 131.64 156.44 132.157C156.698 132.673 157.99 134.741 157.99 135.257C158.249 137.325 156.698 139.133 155.406 140.425C153.856 141.976 152.822 141.976 151.789 144.043C151.272 145.335 151.272 148.177 150.497 148.953C149.463 149.986 146.621 149.986 145.07 150.503C143.778 151.02 143.261 151.537 142.486 152.57C142.228 152.829 142.745 153.345 142.486 153.604C140.161 157.221 138.869 157.221 135.768 158.255C133.701 159.03 131.117 160.581 128.533 159.805C127.241 159.289 126.207 157.738 124.915 156.963C122.848 155.671 120.78 155.154 118.455 155.154C116.388 155.154 115.354 155.671 113.545 154.637C111.22 153.087 111.478 151.537 111.22 148.953C110.961 146.885 110.444 146.11 108.894 144.818C108.377 144.56 107.86 144.301 107.344 143.785C105.535 142.493 105.276 139.65 106.568 137.841C107.085 137.066 108.119 136.808 108.894 136.033C109.928 134.741 109.928 133.707 109.152 132.157C107.86 129.831 104.501 130.089 108.894 125.18C109.411 124.663 110.444 124.405 110.961 123.629C111.22 123.113 111.22 122.596 111.478 122.079C112.77 119.753 109.152 123.371 113.804 118.978C115.354 117.686 118.455 115.102 119.747 118.978Z" fill="#C59C85"/>
<path d="M127.24 118.461C124.915 118.72 122.589 118.978 120.78 120.528C118.972 122.337 119.23 123.629 118.972 125.955C118.196 130.865 115.354 132.157 113.287 136.033C112.253 138.358 111.995 140.684 112.77 143.268C113.545 145.335 115.096 146.627 117.163 147.661C118.713 148.436 120.522 148.694 122.072 149.728C123.364 150.503 124.398 151.537 125.948 152.312C130.341 154.379 135.509 153.862 139.385 151.02C141.969 149.211 142.744 146.627 144.812 144.56C146.879 142.493 150.238 141.976 151.53 139.133C152.305 137.583 152.305 135.516 151.53 133.965C151.013 132.932 150.496 132.673 149.98 131.64C149.721 131.381 149.204 131.123 148.946 130.865C147.396 128.797 147.137 126.989 148.171 125.18C148.429 123.371 148.946 122.337 147.912 120.787C146.62 118.978 144.553 118.461 142.486 118.461C139.902 118.461 138.868 118.72 136.026 117.944C134.734 117.686 134.476 116.911 133.184 116.911C131.116 116.652 129.049 117.944 126.982 118.461C126.465 118.461 126.465 119.495 126.982 119.495C127.757 119.495 128.791 119.495 129.566 119.495C130.858 119.495 133.959 119.753 135.509 120.012C135.768 120.012 136.284 120.528 136.543 120.787C138.093 121.045 139.385 120.528 140.936 120.787C142.744 120.012 143.778 120.787 144.036 123.112C145.845 124.146 146.104 125.438 145.328 126.472C145.328 126.989 145.07 127.247 144.812 127.764C144.295 130.865 146.104 131.123 147.654 132.932C149.98 135.257 150.238 138.1 147.654 140.425C146.879 140.942 145.587 141.459 144.812 141.976C143.52 142.751 142.744 143.785 141.969 145.077C138.868 149.211 135.251 152.57 129.566 152.053C126.982 151.795 125.173 150.503 123.106 149.211C121.039 147.919 118.713 147.144 116.646 145.852C112.511 143.009 113.803 138.1 116.646 134.741C117.68 133.449 119.488 132.415 120.005 130.606C120.522 129.314 120.264 128.797 120.264 127.505C120.522 125.955 120.005 123.888 121.297 122.337C122.589 120.27 125.69 119.236 127.24 118.461C127.24 118.461 127.24 118.72 127.24 118.461Z" fill="#C59C85"/>
<path d="M128.016 131.381C130.013 131.381 131.633 129.762 131.633 127.764C131.633 125.766 130.013 124.146 128.016 124.146C126.018 124.146 124.398 125.766 124.398 127.764C124.398 129.762 126.018 131.381 128.016 131.381Z" fill="#C59C85"/>
<path d="M123.881 137.325C123.881 138.358 122.848 139.392 121.814 139.392C120.78 139.392 119.747 138.358 119.747 137.325C119.747 136.291 120.78 135.257 121.814 135.257C123.106 135.257 123.881 136.291 123.881 137.325Z" fill="#C59C85"/>
<path d="M132.15 140.684C133.434 140.684 134.476 139.643 134.476 138.358C134.476 137.074 133.434 136.033 132.15 136.033C130.866 136.033 129.824 137.074 129.824 138.358C129.824 139.643 130.866 140.684 132.15 140.684Z" fill="#C59C85"/>
<path d="M140.161 126.989C140.161 128.022 139.385 128.797 138.352 128.797C137.318 128.797 136.543 128.022 136.543 126.989C136.543 125.955 137.318 125.18 138.352 125.18C139.385 125.18 140.161 125.955 140.161 126.989Z" fill="#C59C85"/>
<path d="M139.902 134.224C139.902 134.999 139.385 135.516 138.61 135.516C137.835 135.516 137.318 134.999 137.318 134.224C137.318 133.448 137.835 132.932 138.61 132.932C139.385 133.19 139.902 133.707 139.902 134.224Z" fill="#C59C85"/>
<path d="M147.137 135.774C147.137 136.549 146.62 137.324 145.587 137.324C144.812 137.324 144.036 136.808 144.036 135.774C144.036 134.999 144.553 134.224 145.587 134.224C146.62 134.224 147.137 134.999 147.137 135.774Z" fill="#C59C85"/>
<path d="M139.385 144.043C139.385 144.818 138.868 145.335 138.093 145.335C137.318 145.335 136.801 144.818 136.801 144.043C136.801 143.268 137.318 142.751 138.093 142.751C138.868 142.751 139.385 143.268 139.385 144.043Z" fill="#C59C85"/>
<path d="M129.308 147.144C130.307 147.144 131.116 146.334 131.116 145.335C131.116 144.336 130.307 143.526 129.308 143.526C128.309 143.526 127.499 144.336 127.499 145.335C127.499 146.334 128.309 147.144 129.308 147.144Z" fill="#C59C85"/>
<path d="M121.039 146.885C122.038 146.885 122.848 146.075 122.848 145.077C122.848 144.078 122.038 143.268 121.039 143.268C120.04 143.268 119.23 144.078 119.23 145.077C119.23 146.075 120.04 146.885 121.039 146.885Z" fill="#C59C85"/>
<path d="M118.455 137.066C118.455 137.841 117.938 138.617 116.904 138.617C115.871 138.617 115.354 138.1 115.354 137.066C115.354 136.033 115.871 135.516 116.904 135.516C117.938 135.516 118.455 136.291 118.455 137.066Z" fill="#C59C85"/>
<path d="M137.835 120.787C137.835 121.82 136.801 122.854 135.768 122.854C134.734 122.854 133.701 121.82 133.701 120.787C133.701 119.753 134.734 118.72 135.768 118.72C136.801 118.72 137.835 119.495 137.835 120.787Z" fill="#C59C85"/>
</svg>
