<svg width="372" height="495" viewBox="0 0 372 495" fill="none" xmlns="http://www.w3.org/2000/svg">
<path d="M136.608 109.736C136.678 109.438 137.03 109.189 137.1 108.891C137.521 108.344 138.156 108.143 138.652 108.537C139.64 108.087 140.344 107.588 141.331 107.137C142.318 106.687 143.593 107.524 143.315 108.715C137.395 130.306 149.572 154.99 153.96 175.246C156.91 189.064 159.166 205.86 148.261 217.31C148.122 217.906 148.053 218.203 147.914 218.799C147.775 219.394 147.209 219.298 146.644 219.201C147.457 228.319 147.138 237.244 144.558 245.782C149.053 239.119 154.113 232.553 159.387 226.333L159.174 225.987C160.4 214.431 168.561 205.918 174.386 196.076C174.381 194.837 174.376 193.598 174.019 192.608C172.607 174.718 168.566 152.973 177.894 135.68C178.385 134.835 179.586 134.73 180.012 135.422C186.892 142.481 192.859 150.932 197.417 160.381C200.225 155.907 203.033 151.433 205.841 146.958C205.345 146.564 205.271 145.622 206.189 145.47C206.541 145.22 206.824 145.269 207.176 145.019C207.598 144.472 208.019 143.925 208.158 143.329C210.74 117.143 208.446 90.4324 223.117 66.6216C232.593 51.2119 248.628 32.8979 266.769 29.4965C268.248 28.201 269.443 26.8572 271.135 25.9079C271.84 25.409 272.479 26.4473 271.988 27.2922C271.567 27.8394 270.793 28.636 270.371 29.1831C270.654 29.2315 270.654 29.2315 270.936 29.2798C271.571 29.0787 272.206 28.8776 272.841 28.6765C272.911 28.3788 273.476 28.4754 273.759 28.5238C274.394 28.3227 274.96 28.4193 275.595 28.2182C276.299 27.7194 276.448 29.6025 275.247 29.707C274.964 29.6586 274.612 29.9081 274.329 29.8597C274.26 30.1575 274.26 30.1575 274.191 30.4552C253.496 67.4793 254.79 127.458 210.073 145.205C209.726 146.693 209.378 148.182 209.031 149.671C208.822 150.564 207.409 150.323 207.617 149.429C207.756 148.834 207.826 148.536 207.682 147.892C204.521 152.616 201.361 157.339 198.27 161.765C200.551 167.109 202.55 172.405 203.562 178.151C216.987 160.939 234.102 148.073 251.287 134.91C249.447 133.976 249.085 131.747 248.936 129.864C248.927 127.385 249.339 124.359 249.329 121.881C248.555 122.677 247.781 123.474 246.794 123.924C246.442 124.174 246.09 124.423 245.737 124.673C245.033 125.171 244.254 124.729 243.828 124.037C243.614 123.69 243.401 123.344 243.47 123.047C243.54 122.749 243.609 122.451 243.609 122.451L243.679 122.153C244.309 120.713 245.083 119.916 246.492 118.919C246.844 118.669 247.196 118.42 247.479 118.468C247.831 118.219 248.536 117.72 248.888 117.47C249.24 117.221 250.089 117.366 250.232 118.01C251.16 120.336 250.817 123.064 250.757 125.84C250.623 127.675 249.442 132.737 251.565 133.719C251.848 133.767 251.779 134.065 251.779 134.065C253.54 132.818 255.018 131.522 256.779 130.275C260.357 123.765 263.438 116.861 265.884 110.158C265.671 109.812 265.74 109.514 266.162 108.967C266.231 108.669 266.584 108.419 266.653 108.122L266.723 107.824L267.075 107.575C260.487 103.043 270.678 89.6128 276.714 97.766C277.354 98.8042 277.29 100.341 275.95 101.041C273.271 102.441 271.575 102.151 269.66 100.276C268.464 101.62 268.052 104.645 270.245 105.33C271.306 105.821 272.09 107.503 270.681 108.501C269.624 109.249 268.498 110.295 267.442 111.043C267.372 111.341 267.089 111.293 267.089 111.293C264.137 115.123 262.257 121.923 260.366 126.244C259.875 127.089 259.736 127.684 259.245 128.529C264.667 124.193 270.09 119.856 275.582 115.221C275.086 114.827 275.225 114.231 275.86 114.03C281.857 112.269 284.989 100.109 285.877 92.5203C285.381 92.1259 284.885 91.7315 284.811 90.7899C284.801 88.3112 286.196 83.5955 289.663 85.117C293.344 86.9846 290.962 92.1508 288.64 94.5406C288.288 94.7901 287.722 94.6934 287.44 94.6451C286.75 98.8619 285.99 103.377 284.522 107.151C288.813 102.62 293.104 98.0903 296.969 92.868C295.551 91.387 295.893 88.6589 296.027 86.8241C296.231 84.6915 297.069 82.3578 298.9 80.8129C302.07 78.5681 305.681 80.7335 307.457 83.2044C307.67 83.5505 307.601 83.8482 307.884 83.8965C308.519 83.6954 309.511 84.4843 309.019 85.3292C308.95 85.6269 308.598 85.8764 308.598 85.8764C308.469 88.9505 306.221 92.2819 302.972 92.3458C302.689 92.2975 302.689 92.2975 302.406 92.2491C300.997 93.2468 299.375 93.8984 298.031 93.3591L297.748 93.3107C292.057 101.317 285.727 108.286 278.9 114.859C285.483 118.152 293.663 114.596 301.432 114.066C301.283 112.183 301.7 110.396 302.261 109.254C302.822 108.111 304.801 108.449 304.806 109.689C304.667 110.284 304.81 110.928 305.237 111.62C305.381 112.264 304.676 112.763 304.394 112.715C304.324 113.012 304.468 113.656 304.398 113.954C305.455 113.206 306.656 113.101 307.504 113.246C308.352 113.391 308.496 114.035 308.853 115.025C309.349 115.419 309.845 115.814 309.423 116.361C309.354 116.659 309.002 116.908 308.863 117.504C308.515 118.992 307.885 120.433 306.615 120.835C305.98 121.036 305.063 121.189 304.567 120.794C303.366 120.899 302.304 120.408 301.451 119.023C300.742 118.283 300.95 117.39 301.442 116.545C293.108 116.978 283.657 120.936 277.422 116.155C270.665 122.431 263.695 128.361 256.442 134.243C255.95 135.088 255.459 135.933 254.968 136.778C254.477 137.622 253.698 137.18 253.554 136.536C249.189 140.125 244.61 143.367 240.244 146.956C245.968 147.624 252.031 144.326 257.959 142.862C263.604 141.35 269.18 140.136 274.612 138.277C271.413 133.086 278.369 123.438 284.391 127.873C290.199 131.962 285.302 144.13 278.506 140.491C277.802 140.99 277.449 141.239 276.249 141.344C275.331 141.497 274.835 141.102 274.691 140.458C267.707 142.67 260.295 144.19 253.097 146.056C248.087 147.367 243.647 150.014 238.552 147.905C225.946 157.826 213.623 167.795 202.862 179.889C204.518 187.913 205.187 196.387 204.442 204.619C213.481 203.687 224.359 203.689 232.391 198.25C227.927 194.7 232.13 185.511 239.194 185.479C250.425 185.232 248.508 201.005 238.324 198.026C238.046 199.217 236.92 200.263 235.859 199.772C235.859 199.772 235.859 199.772 235.576 199.723C235.01 199.627 234.445 199.53 234.162 199.482C225.991 205.516 213.282 207.059 204.308 206.454C202.605 222.573 196.309 238.217 183.077 250.818C182.447 252.258 181.747 253.996 181.117 255.437C181.474 256.427 181.618 257.07 181.975 258.06C182.476 259.694 180.08 261.142 179.579 259.509C177.689 263.83 175.585 267.805 173.129 272.03C180.526 266.792 188.349 262.246 196.882 258.441C200.761 256.937 204.428 255.086 208.094 253.236C207.88 252.89 208.302 252.342 208.654 252.093C220.422 244.506 227.859 231.534 236.293 220.591C242.48 212.979 249.946 207.443 258.191 202.35C277.782 190.217 300.721 185.159 322.206 187.592C323.337 187.786 323.624 189.073 322.568 189.822C301.92 202.703 289.789 225.709 269.712 239.926C251.396 252.896 229.127 248.781 209.021 255.562C208.317 256.06 207.682 256.262 206.977 256.76C186.672 266.913 169.403 276.657 152.302 293.24C144.702 300.611 137.88 308.424 131.272 316.583C136.555 312.842 142.478 310.139 148.263 308.031C148.332 307.733 148.615 307.782 148.684 307.484C181.238 286.42 228.056 245.811 258.07 279.736C258.775 279.237 259.132 280.227 258.71 280.774C259.206 281.169 259.419 281.515 259.846 282.207C260.769 283.293 258.799 285.434 257.946 284.05C257.519 283.357 257.023 282.963 256.527 282.569C240.394 293.744 223.338 303.833 205.35 310.357C186.092 317.283 170.085 306.497 151.095 309.754C150.812 309.705 150.53 309.657 150.247 309.609C143.193 312.119 136.213 315.57 129.872 320.06C122.703 329.361 115.961 339.356 109.501 349.398C108.658 350.492 107.1 349.607 107.73 348.167C124.718 320.727 145.59 293.022 171.864 273.671C174.95 268.006 177.684 262.591 180.204 256.829C175.766 241.827 175.633 226.014 175.218 210.152C160.24 227.718 145.476 245.629 133.97 265.956C133.548 266.503 133.409 267.099 132.988 267.646C144.343 263.085 154.126 253.92 165.338 248.715C165.69 248.465 166.538 248.61 166.4 249.206L166.33 249.503C167.669 248.803 169.162 251.226 167.753 252.224L167.401 252.473C166.345 253.221 165.288 253.97 164.37 254.122C164.018 254.372 163.666 254.621 163.596 254.919C163.036 256.062 161.691 255.522 161.617 254.581C161.051 254.484 160.977 253.543 161.612 253.341C161.964 253.092 162.317 252.843 162.599 252.891C163.021 252.344 163.725 251.845 164.147 251.298C165.06 249.906 161.116 252.947 160.833 252.899C157.098 255.047 153.858 257.589 150.405 259.786C144.487 263.728 138.851 267.719 132.149 269.979C120.509 292.141 114.103 315.816 109.676 339.829C108.981 342.807 108.569 345.833 107.874 348.81C107.805 349.108 107.805 349.108 107.735 349.406L107.11 352.086C107.04 352.383 107.04 352.383 106.971 352.681C98.5092 392.725 85.6673 432.639 52.5721 459.803C51.4459 460.849 49.814 459.022 50.9402 457.976C74.5995 438.488 86.6513 413.301 95.0225 386.246C89.6356 381.61 90.5194 372.782 89.8553 365.547C89.2898 365.45 88.7243 365.353 88.5805 364.71C88.0101 363.374 88.6403 361.933 89.5532 360.541C90.0444 359.696 91.4581 359.938 91.5325 360.879C92.1125 364.694 92.0576 368.71 92.5681 372.822C92.8654 376.588 93.2371 381.296 95.7916 384.21C98.7193 374.183 101.151 363.762 103.513 353.638C103.23 353.59 102.665 353.493 102.521 352.849C95.8206 337.461 94.9788 320.907 95.6898 303.999C94.911 303.557 94.6234 302.269 94.053 300.933C92.6893 295.436 89.7034 290.591 87.7048 285.295C85.7804 280.941 84.1388 276.636 82.2145 272.282C82.0755 272.877 81.6538 273.424 81.5148 274.02C81.3064 274.913 79.8232 274.969 79.8183 273.73C79.883 272.193 80.2303 270.704 80.791 269.561C80.5777 269.215 80.3645 268.869 80.4339 268.571C80.2206 268.225 80.3596 267.63 80.7118 267.38C81.3468 267.179 81.699 266.93 82.0513 266.68C82.6863 266.479 83.1823 266.874 83.0433 267.469C82.8349 268.363 82.8398 269.602 82.3486 270.447C82.9884 271.485 83.8415 272.869 84.2681 273.562C86.1924 277.916 87.834 282.221 89.4756 286.527C90.7601 289.843 92.3969 292.909 93.7509 295.927C93.9642 296.273 94.6088 298.551 95.3925 300.233C95.5266 298.398 95.5912 296.861 95.7253 295.026C95.512 294.68 95.3682 294.036 95.4377 293.739C95.5072 293.441 95.5072 293.441 95.8594 293.191C96.3312 287.389 96.8725 281.289 97.627 275.535C97.3443 275.487 97.131 275.141 97.4832 274.891C97.5527 274.594 97.5527 274.594 97.9049 274.344C98.1085 272.212 98.3121 270.079 98.5157 267.946C89.9442 261.837 88.0651 250.989 85.7643 240.687C85.4815 240.639 84.916 240.542 84.7027 240.196L84.4894 239.85L84.2067 239.802L83.9239 239.753C83.9239 239.753 83.9239 239.753 83.6412 239.705C83.6412 239.705 83.6412 239.705 83.3584 239.657C83.3584 239.657 83.3584 239.657 83.0757 239.608C82.2274 239.463 81.1659 238.972 80.4565 238.232C77.7631 235.914 77.8132 230.659 80.4178 228.317C82.6701 226.225 85.8499 226.459 87.834 228.037C89.3221 229.22 89.6146 231.747 88.8455 233.783C89.1282 233.831 89.3415 234.177 89.272 234.475C89.1379 236.31 88.5078 237.75 87.0988 238.748C88.5514 248.904 90.9266 260.147 98.5109 266.707C98.7791 263.037 99.0473 259.368 99.385 255.4C96.1309 254.225 95.3375 250.064 94.7575 246.249C94.053 246.748 93.2048 246.603 93.1304 245.662C92.838 243.135 94.4553 241.244 95.5072 239.256C96.4896 237.566 98.3299 238.5 98.548 240.086C98.6223 241.027 98.6272 242.266 98.3493 243.457C98.2798 243.755 98.2103 244.053 97.9276 244.005C98.1505 246.829 98.443 249.356 99.4399 251.385C99.8228 240.923 99.288 230.614 97.2005 220.658C96.8482 220.908 96.496 221.157 96.2133 221.109C93.8866 222.259 91.3418 221.824 89.7794 219.7C87.6466 216.239 88.4755 211.426 92.2111 209.278C94.9594 207.581 98.7742 207.613 101.324 209.288C104.3 211.654 103.332 217.062 99.6661 218.912C99.3833 218.864 99.3139 219.162 99.0311 219.114C99.0311 219.114 99.0311 219.114 98.9616 219.411C101.902 230.751 102.09 242.549 101.642 254.548C101.642 254.548 101.642 254.548 101.573 254.845C101.24 260.052 100.907 265.259 100.222 270.715C104.856 263.457 110.765 257.036 115.964 249.874C115.681 249.826 115.751 249.528 115.82 249.23C116.381 248.088 116.803 247.54 117.294 246.695L117.011 246.647C114.387 244.031 115.42 237.086 118.872 234.89C121.338 233.144 124.592 234.319 126.507 236.195C127.925 237.676 128.005 239.857 126.739 241.498C127.305 241.595 127.732 242.287 127.31 242.834C125.697 245.964 122.319 249.102 119.065 247.927C113.166 256.827 106.701 265.63 99.8099 273.741C99.532 274.932 99.6063 275.873 99.3284 277.065C98.9213 281.33 98.4446 285.893 98.0374 290.158C98.4591 289.611 98.8809 289.063 99.372 288.219C99.8632 287.374 100.925 287.865 101.069 288.509C101.843 287.712 102.616 286.915 103.39 286.119C104.517 285.073 108.178 281.983 109.582 279.746L109.299 279.698C108.734 279.601 108.52 279.255 108.942 278.708C109.433 277.863 109.781 276.374 110.768 275.923C110.768 275.923 110.485 275.875 110.555 275.577C108.144 273.308 108.482 269.34 111.086 266.999C112.773 264.81 116.017 263.507 118.637 264.883C119.698 265.374 120.551 266.759 120.556 267.998C120.635 270.179 119.653 271.869 118.105 273.462C117.683 274.009 116.904 273.566 117.043 272.971C117.321 271.78 117.669 270.291 117.312 269.301C117.098 268.955 117.168 268.657 117.237 268.36C117.024 268.014 117.024 268.014 117.024 268.014C117.024 268.014 116.741 267.965 116.459 267.917C116.741 267.965 115.541 268.07 115.893 267.82C114.975 267.973 114.623 268.222 113.636 268.673C112.296 269.373 111.736 270.516 111.954 272.101C112.098 272.745 112.951 274.129 113.868 273.976C114.786 273.824 115.769 272.134 115.977 271.241C116.116 270.645 117.034 270.492 117.178 271.136C117.326 273.019 116.979 274.508 115.5 275.803C114.444 276.552 113.526 276.705 112.395 276.511C113.536 279.183 111.07 280.929 109.383 283.118C105.796 287.149 101.996 290.834 97.913 294.471C97.4412 300.274 96.9694 306.076 97.1326 311.677C97.1569 317.874 97.4639 324.119 98.3364 330.46C99.0651 336.158 104.109 343.522 103.424 348.979C103.494 348.681 103.846 348.432 103.915 348.134C103.985 347.836 104.268 347.884 104.268 347.884C106.208 338.308 108.432 328.78 110.655 319.252C114.754 301.684 121.472 285.494 129.817 269.891C129.604 269.545 129.743 268.949 130.378 268.748C133.886 262.536 137.676 256.372 141.75 250.256C143.64 245.935 144.682 241.469 145.228 236.608C144.876 236.857 144.311 236.761 144.38 236.463C144.317 220.352 132.06 211.135 122.765 200.567C114.605 191.432 111.173 180.937 109.994 168.351C107.575 145.954 117.018 121.869 136.608 109.736ZM299.713 89.931L299.782 89.6333C300.204 89.0861 300.983 89.5288 300.561 90.076C300.492 90.3738 300.209 90.3254 300.139 90.6232C301.34 90.5187 302.818 89.2233 303.592 88.4267C304.297 87.9279 304.718 87.3807 305.14 86.8335C305.279 86.238 305.066 85.8919 304.922 85.2481C304.495 84.5559 303.786 83.8154 303.007 83.3727C302.511 82.9783 301.594 83.1311 300.959 83.3322C300.254 83.831 299.693 84.9737 299.416 86.1647C299.138 87.3557 299.212 88.2973 299.217 89.5366C299.713 89.931 299.713 89.931 299.713 89.931ZM279.27 137.216C279.623 136.966 279.905 137.015 280.54 136.814C281.175 136.613 281.885 137.353 281.746 137.949C283.016 137.546 283.859 136.452 283.924 134.915C284.118 130.304 275.233 134.358 279.27 137.216ZM237.749 195.45L238.032 195.499L238.315 195.547C238.88 195.644 239.093 195.99 239.307 196.336C241.073 196.328 242.482 195.33 243.677 193.986C244.228 190.365 242.81 188.884 239.352 189.841C236.529 190.597 234.708 194.621 237.749 195.45ZM316.987 189.797C282.802 191.385 262.412 215.766 238.122 236.694C246.72 231.352 255.104 225.664 263.488 219.975C279.269 209.049 295.893 197.028 313.817 192.041C314.873 191.293 315.93 190.545 316.987 189.797ZM270.268 237.544C281.683 230.206 290.608 218.418 299.469 208.167C300.734 206.525 304.743 201.947 308.751 197.368C282.269 217.612 253.53 238.709 223.408 249.351C222.773 249.552 222.698 248.611 223.051 248.361C239.898 239.165 256.82 230.911 273.166 220.081C285.99 211.746 298.105 202.67 310.433 193.94C279.889 205.13 253.139 229.043 224.951 246.519C222.485 248.264 220.372 249.761 217.693 251.161C235.408 247.067 253.708 248.028 270.268 237.544ZM223.463 245.335C252.758 221.857 278.274 189.372 316.843 189.153C294.867 187.564 272.295 196.091 253.414 208.965C238.407 219.094 230.989 237.023 217.614 248.98C219.444 247.435 221.419 246.534 223.463 245.335ZM250.853 276.645C235.009 271.46 220.533 273.011 204.098 279.181C190.555 284.297 179.859 294.854 167.382 301.7C183.326 296.375 196.994 286.946 212.511 280.928C220.622 277.67 228.46 276.842 236.303 277.254C241.527 276.289 246.825 276.266 251.845 277.433C251.349 277.039 251.136 276.693 250.853 276.645ZM186.223 296.561C190.668 295.153 194.83 293.697 199.131 291.646C207.664 287.84 216.688 283.19 225.717 279.779C218.444 280.704 211.107 283.165 202.788 287.317C197.36 290.414 191.933 293.512 186.223 296.561ZM255.674 281.184C255.744 280.886 255.53 280.54 255.248 280.492C255.178 280.79 254.895 280.742 254.613 280.693C247.191 279.734 240.901 278.969 234.403 279.097C221.416 281.831 208.448 289.523 196.388 294.583C186.654 298.492 176.564 301.412 166.543 304.034C183.856 305.445 198.461 300.82 215.387 293.805C228.434 288.294 241.62 282.188 255.674 281.184ZM181.4 309.67C205.648 314.124 231.291 296.214 252.926 282.882C236.833 286.324 221.955 293.379 206.368 299.694C193.038 305.157 177.233 309.886 163.934 305.136C162.664 305.538 161.111 305.892 159.841 306.295C167.119 306.609 174.048 308.413 181.4 309.67ZM160.68 303.961C188.873 287.725 215.767 264.455 247.028 274.133C222.177 259.668 189.35 283.162 165.75 299.873C163.354 301.322 161.171 303.116 158.775 304.564C159.41 304.363 160.045 304.162 160.68 303.961ZM218.646 79.4811C211.571 94.682 212.765 110.987 212.193 127.299C217.557 108.09 224.474 88.5275 232.74 70.7435C238.903 56.9347 248.096 41.4766 261.134 33.4872C242.932 39.6651 226.421 62.542 218.646 79.4811ZM261.848 35.4671C231.05 54.0444 225.019 101.315 213.284 135.226C225.007 116.485 236.096 97.9449 243.713 76.644C248.045 64.3801 253.136 47.6016 261.848 35.4671ZM252.577 85.2805C253.902 80.8625 255.227 76.4446 256.551 72.0266C246.901 97.005 235.623 121.396 216.904 139.87C236.143 127.987 245.387 107.274 252.577 85.2805ZM211.125 143.217C212.112 142.767 212.817 142.268 213.804 141.817C213.804 141.817 213.873 141.519 213.943 141.222C241.86 108.528 252.236 70.3601 270.668 32.9495C270.807 32.354 270.594 32.0079 269.746 31.8629C269.111 32.064 268.123 32.5145 267.488 32.7156C255.12 49.1792 248.699 69.1363 241.921 88.1036C234.721 107.618 222.854 125.715 211.125 143.217ZM185.607 247.535C200.521 231.506 205.315 210.961 203.253 189.554C202.227 180.09 199.365 170.931 195.73 162.569C195.016 160.59 189.61 150.996 185.066 145.265C198.17 172.275 210.151 219.219 186.238 246.094C185.816 246.641 185.746 246.939 185.607 247.535ZM183.98 246.947C186.705 239.053 188.863 231.062 190.243 222.628C193.479 201.198 188.461 182.382 181.463 163.227C181.319 162.583 182.093 161.787 182.52 162.479C195.678 185.473 195.864 214.919 187.493 241.974C206.451 212.394 194.499 172.886 182.591 144.533C182.447 143.889 182.869 143.342 183.152 143.39C182.938 143.044 182.442 142.649 182.229 142.303C178.005 164.184 181.893 182.807 185.438 204.158C187.966 218.523 188.873 233.54 183.276 247.446C183.559 247.494 183.628 247.196 183.98 246.947ZM177.887 206.273C178.511 221.242 178.073 235.72 181.237 249.884C195.081 213.237 166.54 176.777 180.671 141.418C179.397 140.581 178.479 140.734 177.849 142.174C170.852 159.556 176.238 181.84 177.506 199.087C177.516 201.565 177.595 203.746 177.887 206.273ZM174.856 207.923C174.772 204.502 174.619 201.38 174.535 197.96C168.844 205.966 162.593 215.115 160.652 224.692C165.222 218.971 169.791 213.249 174.856 207.923ZM85.6608 232.31C85.7998 231.714 85.656 231.07 85.3732 231.022C84.9467 230.33 83.7462 230.434 83.394 230.684C83.0417 230.933 82.6895 231.183 82.62 231.48C82.1288 232.325 82.2032 233.267 82.6297 233.959C82.704 234.901 83.4133 235.641 84.4749 236.132L84.5444 235.834C84.6138 235.537 85.2488 235.335 85.6011 235.086C85.244 234.096 85.4524 233.203 85.6608 232.31ZM99.6467 213.955C99.8551 213.062 99.3591 212.667 99.1458 212.321C97.9405 211.186 95.8223 211.444 93.9173 212.047C92.0123 212.65 91.3127 214.388 91.7441 216.32C92.3193 218.895 94.3681 218.936 96.3425 218.035C96.3425 218.035 96.3425 218.035 96.412 217.737C96.0549 216.747 97.3944 216.047 98.1037 216.788C98.5254 216.24 98.8776 215.991 99.2993 215.444C99.3688 215.146 99.5078 214.551 99.6467 213.955ZM121.739 245.288C123.574 244.982 124.77 243.639 125.47 241.9C125.117 242.15 124.482 242.351 123.917 242.254C123.351 242.158 122.925 241.465 123.346 240.918C124.19 239.824 124.964 239.027 123.758 237.892C122.836 236.806 121.492 236.266 120.222 236.669C117.964 237.521 118.123 241.883 118.624 243.517C119.125 245.151 120.186 245.642 121.739 245.288ZM138.593 111.313C138.24 111.563 137.888 111.812 137.536 112.062C136.975 113.204 136.062 114.597 135.784 115.788C137.05 114.146 138.245 112.802 139.724 111.507C139.793 111.209 139.228 111.112 138.593 111.313ZM137.694 116.424C136.429 118.065 135.164 119.707 133.899 121.348C128.678 141.201 137.248 164.959 140.357 183.139C141.953 193.939 145.107 205.625 146.495 217.318C146.847 217.069 146.917 216.771 146.917 216.771C153.551 197.16 142.748 180.451 137.452 162.826C133.013 147.825 130.971 131.375 137.694 116.424ZM146.471 156.937C143.892 147.826 141.596 138.764 140.005 129.204C139.425 125.389 139.127 121.623 139.113 117.905C139.182 117.607 139.252 117.309 139.039 116.963C129.805 140.155 138.786 160.887 146.216 181.973C149.717 192.17 151.948 202.769 149.164 213.439C159.628 197.579 150.488 172.485 146.471 156.937ZM144.689 225.06C144.976 226.347 145.264 227.635 145.552 228.923C145.97 209.488 139.885 188.941 136.216 171.904C133.479 158.432 128.892 141.547 131.021 126.12C123.519 140.629 121.191 159.428 123.72 173.793C126.828 191.973 139.179 207.088 144.897 224.166C144.828 224.464 144.758 224.762 144.689 225.06ZM122.041 196.109C127.011 202.532 134.947 208.842 140.275 216.255C132.582 200.078 121.501 184.56 120.933 165.576C120.666 151.597 123.634 133.837 131.989 120.712C132.267 119.521 132.475 118.628 133.036 117.485C120.529 134.544 118.488 154.631 120.475 175.096C120.619 175.74 119.701 175.893 119.557 175.249C114.108 154.501 120.231 130.778 134.505 113.711L134.574 113.413C108.221 130.583 106.064 175.11 122.041 196.109Z" fill="#C59C85"/>
<path d="M301.416 113.646C301.124 113.597 300.904 113.245 300.613 113.196C298.213 114.367 296.601 112.204 296.228 109.936C295.706 107.011 296.857 103.424 300.28 103.056C302.756 102.843 305.386 104.547 306.051 106.865C307.448 109.936 304.916 114.236 301.416 113.646ZM300.95 106.635C300.367 106.537 300.075 106.487 299.712 106.741C299.712 106.741 299.712 106.741 299.349 106.995C299.349 106.995 299.205 107.601 299.134 107.904C298.99 108.511 299.001 111.033 299.656 110.829C300.894 110.722 302.127 109.354 302.997 108.24C302.628 107.233 301.825 106.782 300.95 106.635Z" fill="#C59C85"/>
<path d="M257.457 116.736C257.095 116.989 256.733 117.243 256.299 117.798C256.085 118.704 255.581 119.562 255.147 120.117C254.714 120.672 253.914 120.223 253.694 119.872C253.766 119.57 253.475 119.521 253.546 119.219C253.256 119.17 252.965 119.121 252.384 119.023C250.564 117.773 251.063 115.658 251.492 113.845C251.706 112.938 252.72 112.481 253.592 112.628C254.974 113.175 255.993 113.976 256.508 115.634C257.594 114.874 258.252 115.928 257.457 116.736Z" fill="#C59C85"/>
<path d="M229.981 188.925C232.467 191.234 230.959 196.335 227.686 197.358C227.031 197.563 226.519 197.162 226.663 196.556C225.502 197.62 223.829 198.283 222.515 197.432C221.2 196.58 220.607 193.96 220.673 192.396C220.668 191.135 221.318 189.67 222.479 188.605C224.729 186.78 228.007 187.017 229.981 188.925ZM224.673 190.865C224.018 191.07 223.947 191.373 223.732 192.282C223.517 193.191 223.814 194.501 224.325 194.902C224.765 195.606 226.795 193.428 228.028 192.061C228.099 191.758 227.808 191.709 227.88 191.406C227.22 190.35 225.691 190.407 224.673 190.865Z" fill="#C59C85"/>
<path d="M232.945 211.645C232.148 212.455 230.764 211.907 229.962 211.457C229.452 211.056 229.304 210.402 229.738 209.845C230.243 208.986 231.26 208.528 231.985 208.021C233.145 206.957 234.605 208.462 234.028 209.624C234.028 209.624 233.956 209.927 233.665 209.878C233.594 210.181 233.522 210.483 233.451 210.786C233.379 211.089 233.017 211.343 232.945 211.645Z" fill="#C59C85"/>
<path d="M163.505 244.897C163.069 245.456 162.34 245.965 161.39 246.122C159.49 246.434 157.949 245.225 157.066 243.812C155.813 241.387 158.288 238.642 160.331 237.722C162.447 236.497 165.661 235.774 167.643 237.689C168.671 238.495 168.604 240.064 168.316 241.281C167.957 242.801 166.139 245.341 164.239 245.653C164.311 245.349 163.726 245.25 163.505 244.897ZM165.097 240.738C165.169 240.434 165.169 240.434 165.24 240.13C165.312 239.826 165.24 240.13 165.312 239.826C165.312 239.826 165.312 239.826 165.02 239.777C164.727 239.727 164.727 239.727 164.434 239.678C163.849 239.579 163.192 239.785 162.462 240.294C162.462 240.294 161.805 240.5 161.441 240.754C161.148 240.705 160.419 241.215 160.711 241.264L160.347 241.519L160.275 241.823C160.496 242.176 160.789 242.226 161.009 242.579C161.744 243.335 163.053 241.659 163.782 241.149C164.147 240.894 164.439 240.944 164.732 240.993C165.025 241.042 165.025 241.042 165.097 240.738Z" fill="#C59C85"/>
<path d="M68.4284 230.095C71.6371 231.895 71.0038 237.139 68.0304 239.471C66.0022 241.647 62.6608 242.972 60.3974 241.017C57.6229 238.66 56.9483 233.825 59.9932 231.191C62.2412 229.367 65.7307 228.696 68.4284 230.095ZM61.5467 237.433C62.4308 240.1 65.4809 238.726 67.4376 236.853C67.5806 236.247 67.7237 235.642 67.5755 234.988C67.647 234.685 67.4988 234.03 67.4988 234.03C67.2791 233.679 67.0594 233.327 67.0594 233.327C66.0375 232.525 64.2186 232.533 62.5479 233.196C61.8224 233.703 61.4597 233.957 61.3167 234.562C60.7394 235.724 61.1788 236.427 61.5467 237.433Z" fill="#C59C85"/>
<path d="M69.969 264.743C70.3362 265.748 70.4127 266.703 70.1986 267.61C69.9132 268.819 68.5365 269.529 67.4454 269.031C67.1547 268.982 66.9355 268.631 67.0068 268.329C65.6354 270.297 63.6113 272.469 61.7196 271.522C60.1185 270.623 60.9801 268.255 61.5562 267.095C62.2037 265.633 63.1418 264.22 64.5898 263.208C66.4712 261.64 68.8727 262.987 69.969 264.743ZM64.0292 268.141L63.9578 268.443C64.9724 267.985 66.2011 266.622 66.6345 266.066C66.7059 265.764 66.9965 265.813 66.9965 265.813C66.7773 265.462 66.2674 265.062 65.9054 265.315C65.5434 265.568 65.11 266.123 64.748 266.376C64.6053 266.981 64.1719 267.536 64.0292 268.141Z" fill="#C59C85"/>
<path d="M94.9386 257.569C96.9589 251.176 99.5912 244.584 101.066 238.095C100.727 238.342 100.387 238.589 100.32 238.884C99.6412 239.378 98.9578 238.645 98.8195 238.007L98.8865 237.712C98.4086 237.321 97.9977 236.635 98.1989 235.75C98.4 234.866 98.8067 234.324 99.2803 233.487C97.5027 231.334 97.6954 227.993 99.5943 225.873C101.154 224.001 103.736 222.614 106.121 223.341C108.985 224.458 108.591 228.683 106.419 230.755C106.419 230.755 106.419 230.755 106.08 231.002C105.539 232.134 104.659 233.513 103.64 234.254C102.308 242.608 98.9292 249.989 95.9616 258.056C95.622 258.303 94.532 258.111 94.9386 257.569ZM105.25 227.175C105.25 227.175 105.111 226.537 105.044 226.832C105.044 226.832 104.772 226.784 104.839 226.489C104.839 226.489 104.839 226.489 104.566 226.441C104.021 226.345 103.749 226.298 103.137 226.497C102.525 226.696 102.118 227.238 101.506 227.437C100.76 228.226 100.219 229.358 100.563 230.338C100.97 229.796 101.309 229.549 101.716 229.007C102.395 228.513 103.485 228.705 103.556 229.638C103.829 229.686 103.762 229.981 104.034 230.029C104.646 229.83 105.053 229.288 105.12 228.993C105.254 228.403 105.116 227.765 105.25 227.175Z" fill="#C59C85"/>
<path d="M73.8086 253.756C72.8555 253.913 72.1187 253.154 72.0414 252.189C71.8919 251.529 71.7425 250.869 72.1804 250.308C72.6183 249.747 73.1283 248.881 73.8599 248.37C74.2978 247.809 75.2509 247.652 76.0598 248.106C76.8687 248.559 77.0182 249.219 76.8018 250.135C76.6576 250.745 76.5133 251.356 76.1476 251.611C77.178 252.42 78.2085 253.228 78.8732 254.292C81.3051 256.924 82.9333 260.372 86.0967 262.492C86.9056 262.946 86.2514 264.423 85.4425 263.969C84.2678 263.771 83.4589 263.317 82.65 262.863C82.3563 262.814 82.4284 262.509 82.5006 262.203C81.7638 261.444 81.027 260.685 80.2902 259.927C78.7445 258.714 75.7149 253.443 73.8086 253.756Z" fill="#C59C85"/>
<path d="M266.242 156.269C268.002 154.011 271.253 155.838 269.715 158.452L269.643 158.759C270.75 159.265 271.491 160.029 271.496 161.307C271.356 163.199 269.886 164.228 268.488 164.95C267.458 165.415 266.573 165.265 265.76 164.809C264.145 166.452 262.53 168.095 260.47 169.024C259.735 169.539 258.995 168.775 259.507 167.904C261.044 165.29 262.509 162.983 264.047 160.368C264.192 159.754 264.704 158.883 264.849 158.269C264.331 157.862 263.519 157.406 262.706 156.949C258.642 154.666 253.776 154.483 250.008 152.251C249.195 151.794 249.78 150.616 250.738 150.458C255.976 151.662 261.733 153.272 266.242 156.269Z" fill="#C59C85"/>
<path d="M78.5262 284.657C78.4543 284.961 78.4543 284.961 78.3825 285.265C80.287 286.218 81.976 288.084 83.1517 289.546C84.7688 291.716 88.152 296.711 87.7261 299.801C87.4387 301.017 85.9038 301.074 85.8986 299.809C85.9652 298.24 83.1725 294.608 82.2894 293.194C81.6272 292.134 78.9781 287.894 76.7091 287.196C76.2728 287.755 75.6157 287.96 74.666 288.116C74.3734 288.067 74.3734 288.067 74.0808 288.017C72.9874 288.782 71.3036 288.182 71.9555 286.711C72.6792 284.936 73.9163 283.564 75.446 282.241C77.6328 280.713 79.5425 282.932 78.5262 284.657Z" fill="#C59C85"/>
<path d="M152.374 268.765C152.593 267.837 152.811 266.909 153.326 266.031L153.399 265.721C153.175 265.362 153.175 265.362 152.952 265.002C150.128 262.594 145.759 262.819 142.425 262.576C141.832 262.476 141.457 261.447 142.123 261.238C144.859 260.093 148.562 260.076 151.381 261.197C151.896 260.319 152.931 259.851 153.821 260.002C156.489 260.454 158.569 262.093 158.137 265.237C157.778 268.072 155.713 270.296 152.972 270.153C152.676 270.103 152.229 269.384 152.374 268.765Z" fill="#C59C85"/>
</svg>
