<svg width="194" height="172" viewBox="0 0 194 172" fill="none" xmlns="http://www.w3.org/2000/svg">
<path d="M47.9787 156.327C48.0757 156.255 48.0757 156.255 47.9787 156.327C51.8076 156.637 56.2069 154.88 59.7337 153.768C63.7198 152.466 67.5883 150.802 71.2677 148.68C74.5592 146.845 77.9477 144.937 80.8101 142.521C83.1623 140.632 85.3762 137.948 85.5223 134.698C85.5317 133.494 84.6226 132.67 83.367 133C79.6002 133.99 75.8127 134.547 72.1889 135.73C68.5652 136.914 64.8906 138.434 61.456 140.076C56.7865 142.482 51.7753 145.44 49.0163 150.023C50.4004 142.566 52.5298 135.306 55.4047 128.243C57.4519 128.375 59.8661 127.787 61.4587 127.507C64.9807 126.997 68.4312 126.39 71.9072 125.615C79.7523 123.853 87.3876 121.199 94.6192 117.797C95.9256 117.13 96.0368 115.252 94.6683 114.618C81.918 108.936 68.863 114.401 58.1064 121.757C62.1494 113.231 67.1525 105.192 72.9931 97.8809C73.2125 97.5691 73.5033 97.354 73.7226 97.0422C74.2281 97.1173 74.6874 96.9273 75.0291 96.3753C75.0291 96.3753 75.126 96.3037 75.0545 96.2069C75.9016 95.7301 76.8203 95.35 77.6674 94.8732C86.8827 96.5867 96.6431 96.4009 105.744 94.3091C110.741 93.1574 115.549 91.5471 120.096 89.3814C124.837 87.0724 130.257 84.2615 133.255 79.7995C134.036 78.624 133.203 77.2949 131.83 77.2631C116.77 77.1782 100.093 77.5416 86.186 84.0852C96.0589 75.7369 107.245 68.9613 119.162 64.1884C128.287 68.2131 139.563 68.2526 149.308 67.0313C160.982 65.5801 172.481 61.8644 183.5 57.9052C183.668 57.9302 184.005 57.9803 184.174 58.0053C186.17 58.4741 186.653 55.2742 184.657 54.8054C165.072 51.0347 144.628 52.3883 125.784 58.5429C131.648 54.5064 137.178 49.8179 142.418 45.3445C150.158 38.5735 157.372 31.2938 164.06 23.5055C164.79 22.6668 164.008 21.0009 162.849 21.2592C149.772 23.449 137.39 29.0139 127.155 37.4805C123.032 40.8285 119.436 44.6851 116.917 49.3906C114.862 53.304 113.497 58.3532 114.908 62.6955C111.596 64.0976 108.33 65.7648 105.064 67.4319C99.8128 70.2679 94.8223 73.6591 90.1433 77.2688C98.6874 66.3124 105.985 54.4821 105.088 39.8845C105.026 38.5838 103.392 37.9967 102.423 38.7136C93.5798 44.8041 87.7249 53.9216 83.6008 63.5544C79.2575 73.499 77.1711 84.4678 72.3477 94.1689C71.8629 94.5274 71.4036 94.7175 70.9189 95.0759C70.3372 95.5061 70.2355 96.1797 70.3992 96.8068C66.1399 102.201 62.3352 108.007 59.082 114.153C61.8707 99.6723 60.713 84.5194 55.4722 70.7402C54.9301 69.196 52.8783 69.666 52.4095 71.06C49.201 83.7562 47.9428 96.656 48.9002 109.713C49.091 113.013 49.5473 116.266 50.0036 119.52C50.3931 122.074 50.4569 126.216 52.8061 127.771L52.9745 127.796C50.8084 133.587 49.0509 139.525 47.7987 145.538C45.3651 139.408 41.9874 133.826 37.6656 128.793C35.469 126.228 33.0785 123.807 30.494 121.529C27.9811 119.347 25.3251 116.972 22.2766 115.486C20.1166 114.391 17.3908 114.76 16.9841 117.455C16.5312 119.885 17.8807 122.926 18.755 125.123C20.8818 130.432 24.3151 135.075 28.3809 138.951C33.2128 143.457 39.259 146.766 45.7278 148.416C46.2333 148.491 46.7641 148.397 47.0804 148.014C45.7218 155.303 45.0371 162.691 45.1232 170.108C45.1137 171.312 46.9463 171.154 46.9557 169.95C47.1113 165.496 47.3893 160.802 47.9787 156.327ZM117.751 87.2251C113.398 89.2473 108.784 90.7143 104.078 91.6509C97.3201 93.0576 90.5715 93.2604 83.8786 92.5243C87.2369 91.3874 90.7383 90.4439 94.2143 89.6689C101.697 88.0255 109.2 86.8156 116.54 84.9788C117.53 84.6954 117.111 82.9111 116.12 83.1945C108.301 84.7878 100.317 85.7542 92.4261 87.2508C88.6132 87.9758 84.7749 88.8692 80.9572 90.1961C81.0542 90.1244 81.1511 90.0527 81.1765 89.8843C81.2735 89.8126 81.202 89.7159 81.2989 89.6442C95.4854 81.248 112.408 80.4044 128.672 80.4961C125.636 83.489 121.451 85.5363 117.751 87.2251ZM176.929 56.929C167.967 59.8162 159.004 62.7034 149.668 64.0715C144.651 64.7897 139.612 65.0743 134.507 64.6602C130.581 64.4214 126.9 63.7023 123.173 62.7181C128.537 60.846 134.019 59.3358 139.618 58.1874C151.879 55.7041 164.605 55.2702 176.929 56.929ZM120.046 49.7694C122.612 45.3291 126.254 41.7376 130.183 38.5331C138.597 31.8622 148.441 27.1258 158.966 24.729C153.156 31.27 146.865 37.5676 140.314 43.3099C136.554 46.5395 132.722 49.6724 128.915 52.6368C126.589 54.3575 124.262 56.0781 121.863 57.702C127.356 48.703 134.069 40.7463 142.529 34.3405C143.499 33.6236 142.354 32.076 141.385 32.7929C131.669 39.5287 123.165 48.5108 117.612 59.0506C117.564 55.944 118.287 52.8658 120.046 49.7694ZM86.2266 66.6996C89.7896 57.9305 94.5066 49.505 101.879 43.4543C101.473 55.2753 95.2972 65.3782 87.9467 74.7039C90.6436 68.8195 93.3406 62.9351 96.206 57.0757C96.7924 56.0436 95.087 55.3597 94.5005 56.3919C89.9266 65.0108 85.5212 73.6548 81.4274 82.5172C81.1111 82.9007 80.6979 83.3559 80.3816 83.7394C80.6518 83.0908 80.7534 82.4171 81.0236 81.7685C82.5572 76.7444 84.1877 71.6486 86.2266 66.6996ZM63.9944 142.089C67.0411 140.734 70.1595 139.475 73.4924 138.507C76.029 137.678 78.9026 136.9 81.6538 136.362C80.6748 138.282 78.9043 139.741 77.1592 141.032C74.2761 143.014 71.1531 144.875 67.9839 146.47C64.9117 147.994 61.6964 149.324 58.435 150.39C57.3479 150.745 56.2608 151.1 55.1021 151.358C56.434 150.523 57.9344 149.713 59.3378 148.974C62.7978 147.163 66.2578 145.353 69.6924 143.711C70.708 143.259 70.0944 141.618 69.0788 142.07C65.4042 143.59 61.8011 145.207 58.3411 147.018C56.0191 148.137 53.794 149.184 51.5435 150.399C54.7777 146.661 59.5442 144.183 63.9944 142.089ZM89.2073 116.562C82.9452 119.248 76.5194 121.307 69.9045 122.907C66.8624 123.66 63.7742 124.148 60.7115 124.468C69.2383 118.761 79.2258 114.218 89.2073 116.562ZM52.8246 116.237C51.0964 103.151 51.4662 89.8612 54.2661 77.0183C58.1384 90.1637 58.7032 104.109 55.8986 117.554C55.8667 115.483 55.7379 113.484 55.706 111.413C55.55 106.74 55.3225 101.971 55.0696 97.3705C55.0791 96.1665 53.3181 96.4215 53.2371 97.5287C53.2246 102.176 53.212 106.823 53.1995 111.471C53.206 113.71 53.2124 115.95 53.2189 118.189C53.0552 117.562 52.8914 116.935 52.8246 116.237ZM20.8814 121.306C20.6716 120.414 19.4143 117.902 20.9766 118.393C22.779 119.005 24.5004 120.724 25.9865 121.72C28.7649 123.855 31.5178 126.158 33.8829 128.748C37.1572 132.161 39.9467 135.934 42.3484 139.993C41.9654 139.677 41.4138 139.337 41.0308 139.022C39.6416 137.955 38.2779 136.719 36.9857 135.58C34.4982 133.23 32.0361 130.712 29.7679 128.05C28.9557 127.155 27.5984 128.158 28.3137 129.126C30.3626 132.099 32.5338 134.832 35.0674 137.447C36.3341 138.755 37.5294 139.965 38.8932 141.201C39.6593 141.832 40.4 142.63 41.1661 143.261C31.8982 139.043 23.935 131.316 20.8814 121.306Z" fill="#FFFCF9"/>
</svg>
