<svg width="218" height="362" viewBox="0 0 218 362" fill="none" xmlns="http://www.w3.org/2000/svg">
<path d="M116.285 120.714C116.155 120.559 116.155 120.559 116.285 120.714C116.726 121.923 116.946 122.527 116.285 120.714Z" fill="#FFFCF9"/>
<path d="M160.606 203.665C160.482 203.514 160.32 203.65 160.282 203.937C158.262 202.817 155.121 203.663 153.551 205.752C153.875 205.479 153.626 205.177 153.339 205.161C152.927 204.995 152.516 204.828 152.229 204.813C151.693 204.495 151.119 204.464 150.384 204.57C149.523 204.525 148.663 204.479 147.965 204.297C148.899 203.768 149.672 203.374 150.482 202.694C154.234 201.59 157.824 200.622 161.151 198.338C161.238 198.777 161.326 199.216 161.538 199.806C161.663 199.957 161.95 199.972 161.987 199.685C161.937 198.958 162.173 198.247 162.409 197.536C162.571 197.4 162.571 197.4 162.733 197.264C162.895 197.127 162.932 196.84 162.808 196.688C163.692 195.433 165.274 194.358 166.907 194.011C168.416 193.512 170.959 193.936 171.148 195.828C171.374 197.432 170.327 198.825 169.194 199.778C167.412 201.276 165.529 201.32 163.36 201.35C163.073 201.335 162.874 201.759 162.999 201.91C166.915 204 173.731 199.295 172.032 194.572C170.67 190.591 163.615 192.678 161.573 196.189C160.763 196.87 159.667 197.535 158.981 198.367C158.819 198.504 158.819 198.504 158.944 198.655C157.075 199.714 154.956 200.47 152.999 201.09C156.974 198.261 160.861 194.993 164.412 190.983C164.698 190.998 164.985 191.014 165.184 190.59C165.346 190.454 165.346 190.454 165.508 190.318C165.832 190.045 166.031 189.621 166.068 189.334C166.642 189.364 167.415 188.971 168.187 188.578C170.094 187.231 171.7 184.856 172.122 182.707C172.582 180.27 170.885 178.877 168.517 179.331C168.23 179.315 168.317 179.754 168.442 179.906C170.001 180.133 171.074 180.769 170.689 182.631C170.341 184.204 169.257 185.884 167.962 186.973C167.638 187.246 167.152 187.654 166.666 188.063C166.74 187.488 166.042 187.306 165.556 187.714L165.394 187.851L165.269 187.699C163.883 185.02 166.661 181.403 169.603 180.981C169.889 180.996 169.802 180.557 169.802 180.557C168.28 180.042 166.337 181.676 165.328 182.78C163.995 184.157 163.772 185.883 164.122 187.638C164.335 188.229 164.422 188.668 164.672 188.97C164.672 188.97 164.51 189.106 164.635 189.258C164.473 189.394 164.311 189.53 164.273 189.818C164.111 189.954 164.111 189.954 163.949 190.09C163.788 190.226 163.75 190.514 163.875 190.665C163.551 190.937 163.19 191.497 162.866 191.77C161.172 193.706 159.353 195.492 157.41 197.126C155.304 198.896 153.36 200.53 151.005 201.997C150.556 202.118 150.394 202.255 149.946 202.376C151.802 200.303 153.246 198.063 154.279 195.657C154.441 195.521 154.441 195.521 154.603 195.385L154.765 195.248C154.927 195.112 154.927 195.112 154.964 194.825L155.126 194.689C155.126 194.689 155.288 194.552 155.163 194.401C159.04 193.449 160.418 186.139 157.811 183.974C157.686 183.823 157.362 184.095 157.487 184.246C158.461 186.759 158.278 191.526 155.187 193.099C154.414 193.493 153.753 193.023 153.379 192.569C152.755 191.812 153.39 190.254 153.626 189.542C154.261 187.984 155.057 186.289 156.228 185.048C156.39 184.912 156.14 184.609 155.978 184.745C154.322 186.395 152.466 188.467 152.006 190.904C151.82 192.342 152.333 193.961 153.567 194.461C153.405 194.597 153.405 194.597 153.368 194.885C153.368 194.885 153.206 195.021 153.331 195.172C153.132 195.596 152.97 195.732 152.771 196.156C152.41 196.716 152.659 197.019 153.071 197.185C152.038 199.591 150.057 201.513 148.363 203.45C148.201 203.586 148.039 203.722 148.164 203.873C148.002 204.01 147.803 204.433 147.641 204.569C147.641 204.569 147.479 204.706 147.604 204.857C147.604 204.857 147.604 204.857 147.479 204.706C147.067 204.539 146.743 204.811 146.993 205.114C146.382 205.371 145.896 205.78 145.286 206.037C140.65 208.397 135.764 210.454 130.791 212.072C131.239 211.951 131.563 211.678 132.012 211.557L132.299 211.573C132.461 211.436 132.623 211.3 132.623 211.3C133.395 210.907 134.293 210.665 135.066 210.272C135.227 210.136 135.265 209.848 134.978 209.833C134.529 209.954 134.367 210.09 133.918 210.211C135.825 208.864 137.731 207.518 139.388 205.869L139.675 205.884C140.323 205.339 140.846 204.643 141.207 204.083C141.943 203.978 142.678 203.872 143.127 203.751C144.76 203.403 146.143 202.753 147.189 201.361C148.884 199.424 148.557 196.367 147.059 194.55C146.311 193.642 145.326 193.445 144.178 193.384C142.707 193.595 141.698 194.7 141.101 195.971C140.939 196.107 141.189 196.41 141.351 196.274C141.513 196.138 141.675 196.002 141.837 195.865C140.304 197.666 137.601 200.707 138.9 202.948C139.149 203.25 139.399 203.553 139.811 203.72L139.649 203.856C139.487 203.992 139.611 204.143 139.574 204.431C137.107 206.761 134.266 208.637 131.8 210.967C129.232 211.844 126.627 213.009 124.184 214.037C121.941 214.642 119.984 215.262 117.74 215.867C117.453 215.852 117.129 216.124 116.842 216.109C113.452 216.653 109.936 217.045 106.545 217.589C106.097 217.71 105.648 217.831 105.361 217.816C106.62 217.014 107.716 216.348 108.975 215.547C112.302 213.262 114.668 209.479 117.209 206.574C119.527 205.394 121.795 203.488 124.2 202.747L124.325 202.898L124.45 203.05C124.575 203.201 125.148 203.231 125.185 202.944C125.347 202.808 125.509 202.671 125.385 202.52C125.509 202.671 125.347 202.808 125.472 202.959C125.785 205.002 127.718 205.684 129.638 205.351C131.558 205.019 133.626 203.536 134.585 201.705C135.544 199.874 134.943 197.816 132.687 197.407C132.4 197.391 132.076 197.664 132.325 197.966C133.361 198.89 134.11 199.798 133.35 201.206C132.753 202.477 131.207 203.263 129.986 203.778C128.927 204.156 127.294 204.503 126.707 203.459C125.196 200.628 129.097 198.374 131.516 198.647C131.802 198.663 131.839 198.375 131.59 198.072C129.333 197.663 126.441 198.812 125.446 200.931C125.196 200.628 124.747 200.749 124.423 201.021C124.261 201.158 124.062 201.581 123.9 201.718C121.657 202.322 120.037 203.684 118.168 204.743C119.015 203.775 119.824 203.094 120.671 202.125C120.796 202.277 120.921 202.428 121.245 202.156C121.768 201.46 122.291 200.764 122.814 200.068C123.985 198.827 125.119 197.874 126.29 196.633C127.785 195.12 129.529 193.91 131.274 192.699C131.112 192.835 132.981 191.777 134.402 190.839C134.24 190.975 134.078 191.111 133.754 191.383C133.43 191.656 133.929 192.261 134.253 191.989C135.188 191.459 135.35 191.323 135.674 191.051C135.799 191.202 135.637 191.338 135.761 191.49C136.972 193.291 139.877 193.156 141.996 192.4C144.277 191.507 146.693 188.451 145.27 186.059C145.145 185.908 145.145 185.908 144.983 186.044C144.933 185.317 143.948 185.12 143.374 185.09C141.815 184.862 140.182 185.21 138.674 185.709C137.166 186.208 135.671 187.721 135.323 189.295L135.161 189.431C131.858 190.414 128.494 192.986 125.217 195.997C125.977 194.59 126.736 193.182 127.371 191.624C130.026 191.185 132.081 188.689 132.703 186.116C133.287 183.831 133.159 180.35 130.528 179.486C127.485 178.456 124.421 182.058 123.799 184.63C123.016 187.339 123.555 190.987 126.858 190.004C126.534 190.276 126.335 190.7 126.298 190.988C126.136 191.124 125.974 191.26 126.099 191.411C125.863 192.123 125.626 192.834 125.677 193.56C124.755 195.104 123.959 196.799 122.751 198.327C121.904 199.295 121.094 199.976 120.409 200.808C118.914 202.322 117.581 203.698 116.211 205.363L116.049 205.499C115.887 205.635 115.887 205.635 115.849 205.923C115.002 206.891 114.317 207.723 113.47 208.692C113.98 206.982 114.902 205.438 115.698 203.743C116.096 202.896 116.495 202.048 116.768 201.05C117.005 200.338 116.792 199.748 116.904 198.885C119.809 198.75 121.688 195.375 121.163 192.742C120.637 190.108 117.544 188.352 115.026 189.955C112.958 191.438 112.05 193.996 112.039 196.311C112.191 198.491 113.887 199.883 115.682 199.4C115.645 199.687 115.483 199.823 115.446 200.111C115.409 200.398 115.82 200.565 116.144 200.293C116.12 201.594 115.398 202.714 114.801 203.985C114.004 205.68 112.759 207.496 112.785 209.524C112.623 209.66 112.299 209.932 112.262 210.22C110.369 212.581 108.139 214.199 105.783 215.667C107.191 213.715 107.9 211.581 107.91 209.265C107.985 208.69 108.022 208.403 107.934 207.964C111.386 205.831 110.295 197.521 105.534 199.73C103.54 200.637 102.47 203.331 102.209 205.344C101.986 207.069 102.475 209.99 104.806 209.824C105.093 209.84 105.13 209.552 105.005 209.401C104.132 208.341 103.221 207.569 103.282 205.98C103.343 204.391 103.978 202.832 104.987 201.727C106.195 200.199 107.754 200.427 108.553 202.061C109.14 203.106 108.643 205.83 107.634 206.934C107.347 206.919 107.185 207.055 107.023 207.192C106.861 207.328 106.861 207.328 106.699 207.464L106.538 207.6C106.251 207.585 106.214 207.872 106.338 208.024C106.301 208.311 106.301 208.311 106.588 208.327L106.713 208.478C106.676 208.766 106.8 208.917 106.763 209.204C106.591 211.656 105.72 213.926 104.275 216.166C104.275 216.166 104.275 216.166 104.113 216.302C103.341 216.695 102.855 217.104 102.082 217.497C94.3658 219.114 85.9645 221.564 79.2228 225.694C78.8988 225.966 78.9493 226.693 79.56 226.435C86.0787 224.031 92.3477 221.323 98.7921 219.494C98.0194 219.887 97.5335 220.296 96.7608 220.689C89.5438 222.912 82.4144 225.573 75.747 229.128C82.8473 221.109 89.9103 213.377 96.2245 204.737C96.3865 204.601 96.1369 204.298 95.975 204.434C88.7632 213.316 81.1771 221.744 73.5538 230.46C73.3918 230.596 73.1051 230.581 72.7811 230.853C79.2706 223.091 85.8849 215.48 92.3744 207.717C99.1639 200.984 105.329 193.494 110.797 185.822C113.388 183.644 116.067 181.904 118.909 180.028C121.888 179.318 124.917 179.334 127.859 178.911C129.779 178.578 132.272 178.276 134.267 177.369C134.229 177.656 134.229 177.656 134.192 177.944C134.28 178.383 134.729 178.262 135.052 177.989C135.09 177.702 135.414 177.429 135.451 177.142C135.613 177.006 135.775 176.87 135.937 176.733C136.261 176.461 136.423 176.325 136.46 176.037C137.918 174.812 139.712 174.328 141.521 174.858C142.793 175.071 145.65 177.538 143.868 179.036C142.572 180.125 140.153 179.852 138.595 179.625C136.874 179.534 135.228 178.867 133.581 178.201C133.17 178.034 132.971 178.458 133.22 178.761C134.843 180.729 137.96 181.184 140.416 181.169C142.299 181.124 145.079 180.837 145.663 178.552C145.936 177.553 145.225 176.358 144.601 175.601C143.764 174.254 142.243 173.739 140.684 173.511C139.126 173.284 137.169 173.904 135.873 174.993C135.586 174.978 135.424 175.114 135.262 175.25C131.463 178.957 125.44 178.637 120.292 179.378C123.906 177.108 127.644 174.991 131.383 172.873C135.284 170.619 139.946 170.287 144.248 170.515C144.011 171.227 144.834 171.56 145.482 171.015C145.644 170.879 145.806 170.743 145.843 170.455L146.005 170.319C144.598 172.271 144.426 174.723 146.571 175.995C148.467 176.964 151.247 176.677 153.116 175.618C154.985 174.559 156.916 171.911 155.256 170.231C155.132 170.079 154.845 170.064 154.808 170.352C154.585 172.077 154.561 173.379 152.853 174.301C151.433 175.239 149.675 175.436 147.992 175.057C146.433 174.829 145.721 173.634 146.481 172.226C147.352 169.956 151.451 167.279 153.485 169.413C153.61 169.564 153.772 169.428 153.809 169.141C152.747 166.189 148.958 167.581 146.691 169.487C146.765 168.912 146.266 168.306 145.618 168.851C145.456 168.987 145.294 169.123 145.132 169.259C144.97 169.396 144.97 169.396 144.808 169.532L144.646 169.668C141.579 169.94 138.55 169.924 135.695 170.785C138.948 169.076 142.362 167.231 145.49 165.37C145.49 165.37 145.49 165.37 145.652 165.234C148.132 163.918 150.302 163.888 152.869 163.011C153.605 162.905 154.378 162.512 155.025 161.967C154.752 162.966 154.927 163.844 155.588 164.313C156.998 165.691 159.478 164.375 161.024 163.588C162.731 162.666 166.257 159.957 165.819 157.763C165.856 157.475 165.445 157.309 165.283 157.445C164.635 157.989 164.398 158.701 163.875 159.397C163.19 160.229 162.505 161.061 161.571 161.591C160.437 162.544 158.568 163.603 157.134 163.527C155.251 163.572 157.094 160.485 157.617 159.789C159.024 157.837 161.741 155.809 164.122 156.37C164.534 156.537 164.608 155.961 164.483 155.81C161.889 154.659 159.048 156.535 157.192 158.608C156.706 159.016 156.183 159.712 155.785 160.56C153.716 162.043 151.223 162.345 149.141 162.813C152.057 160.362 154.672 156.882 156.603 154.234L156.765 154.098C156.927 153.961 156.927 153.961 156.964 153.674C157.089 153.825 157.375 153.841 157.375 153.841C160.007 154.704 162.612 153.539 163.27 150.679C163.854 148.394 163.403 145.185 161.868 143.656C160.246 141.688 158.464 143.186 157.506 145.017C155.65 147.09 154.181 150.631 155.642 152.735C155.28 153.295 155.243 153.583 155.294 154.309C152.479 158.213 149.04 161.36 145.315 164.492C145.153 164.628 144.991 164.764 144.829 164.901L144.667 165.037C143.409 165.838 141.863 166.625 140.605 167.427C142.933 163.931 146.173 161.208 147.965 157.395L148.002 157.107C148.002 157.107 148.164 156.971 148.326 156.835C148.326 156.835 148.363 156.547 148.401 156.26C150.594 154.928 152.774 152.583 153.196 150.434C153.655 147.997 151.983 145.303 149.327 145.741C146.959 146.195 145.278 149.145 144.569 151.279C143.897 153.125 143.377 157.151 146.045 157.727C145.846 158.151 146.383 158.469 146.669 158.484C145.113 161.586 141.948 163.734 140.392 166.837C137.302 168.41 134.174 170.27 131.208 171.995C131.694 171.586 132.055 171.027 132.541 170.618C133.55 169.513 134.559 168.409 135.406 167.441C135.767 166.881 136.29 166.185 136.813 165.489C137.1 165.504 137.262 165.368 137.424 165.231C137.461 164.944 137.623 164.808 137.66 164.52C137.984 164.248 138.146 164.112 138.47 163.839C138.632 163.703 138.794 163.567 138.831 163.279C140.538 162.357 141.821 160.253 142.294 158.831C143.04 156.409 141.367 153.715 138.712 154.153C134.137 154.924 132.323 163.368 136.176 163.718C136.139 164.005 136.139 164.005 136.101 164.293C136.064 164.58 136.189 164.732 136.439 165.034C135.716 166.154 134.707 167.259 133.86 168.227C132.328 170.028 130.385 171.662 129.139 173.478C126.46 175.217 123.656 176.806 120.977 178.545C118.784 179.877 116.466 181.057 114.272 182.388C120.786 173.324 126.925 163.806 133.563 154.893C133.725 154.757 133.475 154.454 133.313 154.591C131.134 156.936 129.203 159.584 127.31 161.944C131.083 156.209 134.569 150.459 138.093 144.421C139.19 143.756 140.161 142.939 141.258 142.273C142.517 141.471 144.174 139.822 145.844 139.187C145.969 139.338 146.131 139.202 146.417 139.217L146.579 139.081C146.741 138.945 146.903 138.809 147.19 138.824C147.514 138.552 147.676 138.416 147.713 138.128L147.875 137.992C148.9 141.231 152.503 141.277 155.057 139.386C157.288 137.767 159.417 134.696 159.34 131.941C159.314 129.913 157.63 129.534 155.997 129.882L156.159 129.746C156.321 129.61 156.359 129.322 156.072 129.307C155.174 129.549 153.953 130.063 152.856 130.729C152.408 130.849 151.922 131.258 151.473 131.379C151.311 131.515 151.311 131.515 151.436 131.666C149.691 132.877 148.159 134.677 147.649 136.387C147.363 136.372 147.076 136.357 146.914 136.493C146.59 136.766 146.266 137.038 145.942 137.31C145.78 137.446 145.618 137.583 145.618 137.583L145.456 137.719L145.294 137.855C145.294 137.855 145.132 137.991 145.257 138.142C144.373 139.398 142.665 140.321 141.407 141.123C140.597 141.804 139.824 142.197 139.014 142.878C139.176 142.742 139.176 142.742 139.214 142.454C139.973 141.047 140.695 139.927 141.455 138.52C141.293 138.656 141.704 138.823 141.866 138.686C144.357 135.055 146.473 130.969 148.141 127.004C148.95 126.323 149.885 125.794 150.533 125.249C151.63 124.583 152.601 123.766 153.536 123.237C153.823 123.252 154.11 123.267 154.272 123.131C154.596 122.859 154.758 122.723 155.081 122.45C155.206 122.602 155.044 122.738 155.169 122.889C156.393 125.705 160.071 125.176 162.176 123.406C163.958 121.908 165.639 118.957 165.076 116.611C164.638 114.417 162.431 114.734 160.474 115.354L160.35 115.202C158.393 115.822 156 117.577 155.166 119.56C154.88 119.545 154.718 119.681 154.556 119.817C153.908 120.362 153.584 120.634 153.061 121.33C152.899 121.466 152.862 121.754 152.987 121.905C152.987 121.905 152.987 121.905 152.825 122.041C151.404 122.979 149.983 123.917 148.563 124.855C149.397 122.873 150.23 120.89 150.902 119.044C150.939 118.756 150.653 118.741 150.615 119.029C150.254 119.589 150.018 120.3 149.657 120.86C150.055 120.012 150.291 119.301 150.565 118.302C151.5 117.773 152.222 116.653 152.745 115.957C154.439 114.02 155.883 111.781 157.578 109.844L157.74 109.708C157.901 109.572 158.026 109.723 158.188 109.587C158.313 109.738 158.151 109.874 158.276 110.026C159.051 112.962 165.195 110.103 166.653 108.878C168.884 107.259 170.028 103.99 168.605 101.599C167.219 98.9193 163.703 99.3118 161.436 101.218C161.112 101.491 161.361 101.793 161.81 101.672C163.804 100.765 166.372 99.8877 167.67 102.128C168.719 104.066 167.686 106.472 165.942 107.682C164.97 108.499 159.436 111.101 159.16 108.77C159.484 108.497 159.521 108.21 159.11 108.043C159.495 106.182 160.939 103.942 161.985 102.55C162.184 102.126 161.773 101.96 161.449 102.232C160.565 103.488 159.07 105.001 158.273 106.696C157.986 106.681 157.7 106.666 157.538 106.802C157.052 107.21 156.728 107.483 156.654 108.058C156.492 108.194 156.616 108.345 156.579 108.633C156.579 108.633 156.704 108.784 156.542 108.92C154.898 111.584 153.005 113.944 150.825 116.289C151.808 113.157 152.665 109.873 153.236 106.574C154.258 106.483 155.355 105.817 156.29 105.288C157.548 104.486 158.308 103.079 158.656 101.505C159.402 99.0836 158.502 95.9959 156.356 94.724C154.585 93.9062 152.841 95.1165 151.882 96.9475C151.882 96.9475 151.595 96.9323 151.433 97.0685C150.114 99.4594 148.921 105.331 151.765 106.785C152.052 106.8 152.302 107.103 152.588 107.118C151.494 111.114 150.276 114.957 148.932 118.65C148.932 118.65 148.932 118.65 148.77 118.786C148.77 118.786 148.608 118.922 148.733 119.074C148.335 119.921 148.061 120.92 147.663 121.767C148.034 118.892 147.097 116.092 146.16 113.291C146.035 113.14 146.035 113.14 146.072 112.853C145.948 112.701 145.86 112.262 145.735 112.111C147.74 108.888 145.029 101.94 140.953 103.316C140.791 103.452 140.754 103.74 140.916 103.604C141.203 103.619 141.327 103.77 141.614 103.786C140.332 105.889 140.247 108.78 140.972 110.99C141.396 112.17 142.968 113.412 144.315 113.049C144.564 113.352 144.689 113.503 145.1 113.67C146.163 116.621 146.614 119.83 146.654 122.872C146.617 123.159 146.903 123.175 146.903 123.175C145.435 126.716 143.842 130.105 142.249 133.495C142.185 131.755 141.548 129.984 140.748 128.349C141.035 128.364 141.234 127.941 140.985 127.638C140.61 127.184 140.199 127.017 139.949 126.714C139.824 126.563 139.824 126.563 139.862 126.275C141.694 125.504 142.727 123.098 142.663 121.357C142.512 119.178 141.088 116.786 139.031 115.953C136.561 114.954 134.057 117.571 133.885 120.023C133.847 120.311 134.134 120.326 134.296 120.19C134.62 119.917 134.657 119.63 134.981 119.357C134.522 121.794 135.51 125.321 137.567 126.154C137.83 127.47 138.329 128.076 139.477 128.137C140.488 130.362 141.014 132.995 140.966 135.599C138.887 139.397 136.808 143.195 134.604 146.842C134.641 146.554 134.803 146.418 134.678 146.267C134.753 145.692 134.702 144.965 134.652 144.239C134.726 143.664 133.866 143.618 133.667 144.042C135.186 141.227 135.095 137.459 133.672 135.067C131.662 131.631 127.376 135.746 126.182 138.288C125.112 140.982 126.46 143.949 128.893 145.236C129.965 145.872 131.312 145.509 132.121 144.828L131.959 144.965C131.76 145.388 132.135 145.842 132.621 145.434C132.583 145.721 132.708 145.873 132.671 146.16C132.721 146.887 132.934 147.477 132.984 148.204C132.947 148.491 133.197 148.794 133.483 148.809C131.118 152.592 128.752 156.375 126.261 160.007C126.373 159.144 126.484 158.282 126.309 157.404L126.184 157.252C126.346 157.116 126.221 156.965 126.221 156.965C126.258 156.677 126.42 156.541 126.296 156.39L126.333 156.102C128.351 153.893 126.253 150.018 124.557 148.625C122.236 146.475 119.02 147.897 117.913 150.878C117.005 153.436 117.868 156.811 119.652 158.643C121.062 160.021 123.107 159.839 124.402 158.75C124.402 158.75 124.402 158.75 124.365 159.038C124.166 159.461 124.702 159.779 125.026 159.507C125.077 160.234 124.965 161.096 124.729 161.807C122.4 165.303 119.947 168.647 117.618 172.143C117.828 169.403 117.464 166.633 117.225 164.015C116.835 159.217 116.445 154.419 116.503 149.501C116.54 149.213 116.254 149.198 116.216 149.485C115.983 153.526 116.198 157.446 116.413 161.366C116.601 163.258 116.503 165.135 116.53 167.163C116.405 167.011 116.442 166.724 116.604 166.588C115.988 160.186 115.946 153.814 115.741 147.578C116.19 147.457 116.514 147.185 116.588 146.61C115.999 142.236 119.012 137.908 121.79 134.292C121.965 135.17 122.464 135.775 123.449 135.972C125.993 136.397 128.447 133.052 129.156 130.919C130.026 128.649 129.737 125.304 126.67 125.575C123.89 125.862 122.422 129.403 121.301 131.371C121.139 131.507 121.389 131.809 121.551 131.673C121.713 131.537 121.713 131.537 121.875 131.401C121.639 132.112 121.527 132.975 121.577 133.701C120.207 135.366 118.837 137.03 117.879 138.861C117.518 139.421 117.281 140.132 116.92 140.692C117.143 138.967 117.204 137.378 117.39 135.94C117.552 135.804 117.552 135.804 117.589 135.516C117.626 135.229 117.502 135.078 117.377 134.926C117.414 134.639 117.326 134.2 117.488 134.063C117.836 132.49 118.059 130.764 118.282 129.039C118.282 129.039 118.444 128.903 118.319 128.751C118.357 128.464 118.269 128.025 118.306 127.737C118.306 127.737 118.343 127.45 118.219 127.298C118.293 126.723 118.205 126.284 118.155 125.558C118.155 125.558 118.03 125.407 118.192 125.27C118.479 125.286 118.766 125.301 118.965 124.877C121.081 120.791 123.622 117.886 126.774 114.724C131.275 114.528 138.428 110.565 135.781 105.358C134.981 103.723 133.186 104.207 131.928 105.009C130.183 106.219 128.739 108.459 129.052 110.502C129.052 110.502 129.052 110.502 129.177 110.653C128.205 111.47 127.483 112.59 126.636 113.558C126.474 113.695 126.437 113.982 126.562 114.134C124.655 115.48 123.633 115.571 124.453 112.574C125.037 110.289 125.784 107.868 126.368 105.582C126.655 105.598 126.978 105.325 127.265 105.34C129.995 104.327 131.763 101.815 131.848 98.9246C131.822 96.8965 130.81 94.6714 128.715 94.126C126.209 93.414 123.954 96.3344 123.37 98.6195C123.333 98.9071 123.62 98.9223 123.782 98.7861C124.953 97.5454 126.309 94.8669 128.28 95.261C129.676 95.6246 130.475 97.2594 130.576 98.7124C130.765 100.604 129.806 102.435 128.349 103.661C127.701 104.205 126.766 104.735 125.906 104.689C125.008 104.931 124.87 103.766 124.658 103.175C124.395 101.859 124.581 100.421 124.48 98.968C124.517 98.6804 124.068 98.8014 124.193 98.9527C123.896 101.253 122.889 105.687 125.47 105.824C124.289 109.381 123.394 112.952 122.337 116.66C122.263 117.235 122.836 117.265 123.285 117.144C123.609 116.872 124.22 116.615 124.544 116.343C122.563 118.264 120.707 120.337 119.387 122.728C119.026 123.288 118.389 121.517 118.301 121.078C117.964 120.336 117.502 119.443 117.165 118.702C118.298 117.748 119.058 116.341 118.957 114.888C118.843 112.421 117.743 109.757 115.598 108.485C113.453 107.213 111.097 108.681 110.351 111.102C110.314 111.39 110.601 111.405 110.763 111.269C111.934 110.028 113.267 108.651 115.001 109.756C116.772 110.574 117.696 112.36 118.046 114.116C118.346 115.145 118.16 116.583 117.475 117.415C117.35 117.264 117.064 117.249 116.902 117.385C116.74 117.521 116.703 117.809 116.665 118.096C116.341 118.368 116.055 118.353 115.481 118.323C112.9 118.186 111.575 113.917 111.836 111.905C111.873 111.617 111.586 111.602 111.549 111.889C110.603 114.734 111.841 118.564 114.759 119.443C115.457 119.624 116.031 119.655 116.479 119.534C116.655 120.412 116.83 121.29 117.292 122.183C117.892 124.241 118.492 126.3 118.357 128.464C118.171 129.902 117.985 131.339 117.674 132.626C117.462 132.035 116.726 132.141 116.527 132.565C116.402 132.413 116.153 132.111 115.866 132.096C115.741 131.944 115.454 131.929 115.168 131.914C115.043 131.762 114.631 131.596 114.507 131.444C114.544 131.157 114.294 130.854 114.331 130.566C113.729 125.178 105.92 119.697 103.968 126.977C103.073 130.548 106.716 133.637 109.759 134.667C111.692 135.348 113.686 134.441 114.321 132.882C114.695 133.336 115.319 134.093 115.319 134.093C115.319 134.093 115.319 134.093 115.444 134.245C115.693 134.547 115.818 134.699 116.068 135.001C116.317 135.304 116.604 135.319 117.053 135.198L117.178 135.35C116.755 137.499 116.495 139.512 116.073 141.661C115.999 142.236 115.688 143.522 115.576 144.385C114.828 143.477 113.917 142.704 113.168 141.796C112.295 140.736 111.546 139.828 110.186 139.177C110.186 139.177 110.062 139.026 109.9 139.162C109.438 138.269 107.629 137.738 106.968 137.269C105.734 136.769 104.05 136.39 102.542 136.89C99.5256 137.888 99.7406 141.808 101.4 143.488C103.06 145.168 105.978 146.047 108.383 145.306C110.34 144.686 110.688 143.112 110.301 141.644C110.675 142.098 110.887 142.688 111.424 143.006C111.548 143.158 111.872 142.885 111.748 142.734C111.286 141.841 110.948 141.099 110.486 140.206C112.595 141.766 113.444 144.127 114.905 146.231C114.905 146.231 114.743 146.367 114.868 146.519C114.844 147.82 114.881 147.533 115.056 148.411C114.769 148.395 114.82 149.122 115.12 150.151C115.183 151.892 115.085 153.768 115.274 155.66C115.361 156.099 115.287 156.674 115.25 156.962C115 156.659 115.037 156.371 114.95 155.932C114.862 155.494 114.451 155.327 114.127 155.599C112.005 153.026 109.995 149.59 106.429 149.256C104.01 148.983 101.955 151.479 102.842 153.553C103.567 155.763 106.572 157.08 108.829 157.49C110.675 157.732 112.257 156.658 112.605 155.084C113.229 155.841 113.566 156.583 114.19 157.34C114.315 157.491 114.44 157.643 114.565 157.794C114.69 157.945 114.69 157.945 114.814 158.097C115.101 158.112 115.388 158.127 115.425 157.84C115.414 160.155 115.566 162.335 115.842 164.665C115.855 165.679 116.03 166.557 116.044 167.571C115.757 167.556 115.47 167.541 115.146 167.813C114.984 167.949 115.109 168.101 114.947 168.237C113.426 167.722 111.83 167.782 110.234 167.842C110.109 167.691 109.822 167.676 109.698 167.524C109.286 167.358 108.925 167.918 109.013 168.356C108.975 168.644 108.938 168.932 109.225 168.947C109.35 169.098 109.761 169.265 109.886 169.416C110.298 169.583 110.622 169.31 110.784 169.174C111.07 169.189 111.357 169.205 111.644 169.22C111.644 169.22 111.644 169.22 111.482 169.356L111.607 169.507C111.769 169.371 111.769 169.371 111.769 169.371C112.916 169.432 113.901 169.629 115.011 169.978C115.136 170.129 115.584 170.008 115.746 169.872C115.81 171.612 115.587 173.338 114.915 175.184C114.243 177.03 113.383 176.984 113.396 177.998C113.035 178.558 112.512 179.254 112.151 179.814C110.906 181.63 109.697 183.158 108.452 184.974C106.994 186.2 105.375 187.561 104.167 189.09C104.005 189.226 104.254 189.529 104.416 189.392C105.064 188.848 105.55 188.439 106.198 187.895C97.6664 199.168 88.4738 209.971 79.1193 220.911C79.8389 216.462 80.1098 212.133 80.131 207.502C80.0832 210.105 80.3222 212.724 80.3991 215.478C80.362 215.766 80.8107 215.645 80.8479 215.357C82.2632 207.76 80.9728 199.874 81.2039 192.504C81.1906 191.49 81.3393 190.34 81.488 189.189C82.6192 184.907 85.2718 181.139 88.1369 177.961L88.2988 177.825C88.6732 178.279 89.3344 178.749 90.0327 178.93C92.7012 179.506 95.5795 177.343 97.024 175.103C98.8668 172.016 97.3055 168.459 95.1096 166.461C94.86 166.158 94.4989 166.718 94.6237 166.869C95.4734 169.23 96.9338 171.335 95.8637 174.028C95.1919 175.875 92.9986 177.206 91.2037 177.69C90.0194 177.916 89.3583 177.447 89.0211 176.705C89.183 176.569 89.2202 176.282 89.3822 176.145C89.7433 175.585 89.3689 175.131 88.9574 174.965C89.0689 174.102 89.5044 172.967 90.0274 172.271C91.1108 170.591 92.8181 169.669 94.4007 168.595C94.7246 168.322 94.5998 168.171 94.3131 168.156C91.9817 168.321 89.191 170.924 88.1953 173.042C87.797 173.89 87.4863 175.176 87.6616 176.054C87.4624 176.478 87.3005 176.614 87.027 177.613C87.027 177.613 87.027 177.613 86.9898 177.9C85.3833 180.276 83.3653 182.485 82.0457 184.876C82.8396 179.852 84.2071 174.857 85.163 169.697C85.2002 169.409 84.9135 169.394 84.8763 169.682C84.3293 171.679 83.7823 173.677 83.3601 175.826C83.3096 175.099 83.2592 174.373 83.0468 173.783C83.2964 174.085 83.6203 173.813 83.6575 173.525C84.0797 171.376 84.6267 169.379 85.4605 167.396C85.5852 167.548 85.7472 167.412 85.7472 167.412C86.3579 167.154 87.1306 166.761 87.7413 166.504C87.7413 166.504 88.0281 166.519 88.1901 166.383C89.1247 165.854 90.0965 165.037 91.0684 164.22C91.6791 163.963 92.1278 163.842 92.165 163.554C92.4518 163.569 92.7385 163.584 92.7757 163.297C93.4873 164.493 94.9716 165.295 96.6046 164.948C99.135 164.358 101.19 161.861 102.223 159.455C103.057 157.473 102.157 154.385 99.3024 155.247C99.1404 155.383 98.9784 155.519 99.1032 155.671C100.426 156.609 101.373 157.094 100.702 158.94C100.192 160.65 98.6969 162.163 96.9896 163.086C95.2823 164.009 94.0476 163.509 93.5351 161.89C93.6971 161.753 93.6971 161.753 93.7343 161.466C94.0954 160.906 93.8458 160.603 93.5962 160.3C94.0184 158.151 96.1851 154.792 97.9933 155.322C98.2801 155.338 98.3173 155.05 98.1925 154.899C95.8718 152.749 92.797 158.666 92.2872 160.376C92.25 160.663 92.25 160.663 92.2128 160.951C91.3658 161.919 90.232 162.872 89.3849 163.841C89.3849 163.841 89.223 163.977 88.899 164.249C88.7742 164.098 88.8486 163.523 89.1221 162.524C89.6319 160.814 90.1046 159.391 90.4524 157.817C90.6144 157.681 90.6144 157.681 90.6515 157.394C90.8879 156.683 90.6755 156.092 90.463 155.502C91.1985 155.396 92.096 155.154 92.7439 154.61C94.6876 152.976 95.6329 150.13 95.6435 147.815C95.5665 145.06 92.9723 143.909 90.5295 144.938C90.2056 145.21 90.2932 145.649 90.58 145.664C92.5873 145.771 93.984 146.134 94.2973 148.178C94.523 149.782 93.6892 151.764 92.643 153.157C92.2819 153.716 91.6712 153.974 91.0605 154.231L90.9357 154.079C90.9357 154.079 90.8109 153.928 90.6489 154.064C90.3622 154.049 90.0754 154.034 90.0382 154.321C89.4647 154.291 88.6415 153.958 88.3043 153.216C87.4175 151.142 89.9082 147.511 91.2411 146.134C91.565 145.861 91.1907 145.407 90.8667 145.68C88.7611 147.45 86.3076 150.794 86.9581 153.579C87.221 154.896 88.4557 155.395 89.6027 155.456C88.8699 158.892 87.8874 162.024 87.1545 165.46C86.3447 166.14 85.734 166.398 85.9703 165.686C86.1322 165.55 86.0074 165.399 85.8827 165.247C86.0818 164.824 85.2587 164.49 85.0595 164.914C84.8604 165.338 84.6984 165.474 84.4993 165.898C83.8514 166.442 84.0133 166.306 84.3373 166.034C84.1753 166.17 84.1381 166.458 84.1381 166.458C84.1381 166.458 83.9762 166.594 84.101 166.745C83.939 166.881 83.7398 167.305 83.6283 168.168C83.6283 168.168 82.6963 172.027 82.4839 171.437C81.6847 169.802 81.3342 168.046 80.9837 166.29C80.8589 166.139 80.8589 166.139 80.8589 166.139C82.6406 164.641 82.5503 160.873 81.9131 159.102C80.9386 156.589 78.0073 154.696 75.4529 156.587C71.0292 159.537 72.7949 169.33 78.7905 167.622C79.2392 167.501 79.3135 166.926 78.74 166.895C76.7698 166.501 75.4103 165.85 74.6483 163.928C74.1358 162.308 74.2713 160.144 75.4794 158.615C77.747 156.709 79.9668 157.406 81.2148 158.92C82.0883 159.979 82.314 161.584 82.2529 163.173C82.0299 164.898 81.0581 165.715 79.6375 166.653C79.4755 166.789 79.4383 167.077 79.7251 167.092C80.0119 167.107 80.2986 167.123 80.4606 166.986C80.2986 167.123 80.2615 167.41 80.3863 167.561C81.1483 169.484 83.7451 173.964 83.7716 175.992C83.684 175.554 83.1105 175.523 82.9113 175.947C80.9199 180.184 81.6341 184.709 80.9145 189.159C80.9517 188.871 80.8269 188.72 80.864 188.432C80.7764 187.993 80.0409 188.099 79.9666 188.674L79.9294 188.962C79.4302 188.356 78.6443 187.736 77.9831 187.266C78.307 186.994 78.2194 186.555 77.9698 186.252C77.3087 185.783 76.7723 185.465 76.074 185.283C76.074 185.283 76.074 185.283 75.7872 185.268C75.8616 184.693 75.9359 184.118 75.8483 183.679C75.8483 183.679 76.0103 183.543 75.8855 183.391C76.0475 183.255 75.9227 183.104 75.7979 182.952C75.4341 180.182 73.5117 177.185 72.1018 175.808C69.4944 173.643 65.8301 175.185 65.0972 178.621C63.9793 183.918 71.4644 189.671 74.8526 185.797L74.9774 185.949C74.9402 186.236 75.065 186.388 75.1898 186.539C75.7261 186.857 76.2253 187.462 76.7617 187.78C77.8344 188.416 78.9071 189.052 79.6559 189.961L79.5072 191.111C79.47 191.398 79.7196 191.701 80.0435 191.429L80.2055 191.293C80.3436 192.458 80.3569 193.472 80.3329 194.774C79.6027 201.539 79.446 208.334 79.2893 215.13C79.0423 218.157 78.3838 221.017 77.0269 223.695C69.6904 232.426 62.2291 241.005 55.3041 249.903C54.781 250.599 55.8537 251.235 56.2148 250.675C61.0475 244.562 66.0048 238.6 71.087 232.79C71.249 232.653 71.411 232.517 71.6978 232.532C63.9125 241.384 55.3174 250.917 50.4635 261.661C50.4263 261.949 50.8379 262.115 50.875 261.828C57.9487 251.78 64.6984 242.005 72.6828 232.73C73.044 232.17 73.6919 231.625 74.053 231.065C77.3057 229.356 80.3964 227.783 83.7367 226.512C84.1483 226.679 84.5598 226.845 85.1334 226.876L85.2582 227.027C88.2135 227.618 91.0439 228.058 93.8744 228.498C96.1075 230.209 98.6645 231.647 101.184 233.373C101.147 233.661 101.272 233.812 101.235 234.1C100.587 234.644 100.351 235.356 100.114 236.067C99.4053 238.201 100.38 240.713 102.114 241.819C103.311 242.606 105.157 242.849 106.577 241.911C108.16 240.836 107.56 238.778 106.686 237.718C106.187 237.113 105.688 236.507 105.151 236.189C105.151 236.189 105.313 236.053 105.188 235.902C104.888 234.872 104.426 233.979 103.603 233.646C103.266 232.904 103.054 232.314 102.716 231.572C102.379 230.831 101.033 231.194 101.208 232.072C99.4744 230.966 97.7405 229.861 96.0066 228.756C99.1239 229.21 102.116 229.514 105.271 229.681C106.705 229.757 108.014 229.682 109.198 229.455C109.984 230.076 110.807 230.409 111.593 231.03C112.129 231.348 112.666 231.666 113.04 232.12C113.003 232.408 112.841 232.544 112.966 232.695C112.53 233.83 113.08 235.162 114.115 236.086C114.652 236.404 115.175 235.708 114.8 235.254C114.426 234.799 113.927 234.194 113.876 233.467C113.876 233.467 113.876 233.467 114.038 233.331C114.325 233.346 114.487 233.21 114.649 233.074C114.811 232.938 114.848 232.65 114.599 232.348C115.047 232.227 115.658 231.97 115.945 231.985C118.151 231.668 120.334 232.652 121.582 234.166C122.705 235.528 122.981 237.859 120.738 238.464C118.781 239.084 116.885 238.115 115.114 237.297C114.827 237.282 114.665 237.418 114.915 237.721C116.412 239.537 119.492 240.28 121.81 239.1C124.29 237.784 123.515 234.847 122.142 233.182C120.682 231.078 117.19 230.169 114.498 230.895C114.498 230.895 114.336 231.031 114.211 230.879C113.961 230.577 113.55 230.41 113.388 230.546C113.138 230.244 112.727 230.077 112.477 229.774C111.941 229.456 111.404 229.138 110.581 228.805C113.399 228.231 116.128 227.217 118.983 226.356C119.107 226.507 119.394 226.522 119.556 226.386C119.718 226.25 119.88 226.114 120.042 225.977C120.204 225.841 120.204 225.841 120.366 225.705C120.69 225.433 120.852 225.297 121.176 225.024L121.301 225.176C123.196 226.145 125.565 225.691 127.309 224.481C129.054 223.271 130.124 220.577 128.589 219.048C128.464 218.897 128.303 219.033 128.141 219.169C128.079 220.758 128.218 221.924 126.76 223.149C125.626 224.102 124.03 224.162 122.596 224.086C122.31 224.071 122.023 224.056 121.898 223.905C122.421 223.208 121.51 222.436 120.9 222.693C120.812 222.255 120.724 221.816 120.924 221.392C121.383 218.955 125.658 217.155 127.28 219.123C127.405 219.275 127.729 219.002 127.604 218.851C125.894 216.444 122.142 217.548 120.286 219.621C119.277 220.725 119.054 222.451 119.604 223.783C119.118 224.191 118.47 224.736 118.109 225.296C117.947 225.432 117.785 225.568 117.91 225.72C117.498 225.553 116.888 225.81 116.402 226.219C114.445 226.839 112.775 227.474 110.693 227.942C110.082 228.199 109.509 228.169 108.773 228.275C108.773 228.275 108.773 228.275 108.648 228.123C108.523 227.972 108.362 228.108 108.2 228.244C105.706 228.546 103.125 228.409 100.544 228.273C98.2503 228.151 95.8314 227.878 93.5744 227.468L93.4496 227.317C93.3248 227.166 93.1629 227.302 93.1629 227.302C90.6191 226.877 88.0754 226.453 85.5317 226.028C85.1201 225.862 85.1201 225.862 84.5466 225.831C84.2598 225.816 84.2598 225.816 83.973 225.801C94.9286 221.46 106.397 218.739 117.814 215.292C117.939 215.443 117.939 215.443 118.226 215.458C121.08 214.596 123.897 214.022 126.84 213.599C130.068 213.191 134.033 212.678 136.988 213.269C137.237 213.572 137.649 213.738 137.811 213.602L137.774 213.89C137.338 215.025 137.476 216.19 139.16 216.569C139.447 216.584 139.484 216.297 139.359 216.145C138.573 215.524 138.361 214.934 138.722 214.374C138.884 214.238 139.046 214.102 139.208 213.966C139.208 213.966 139.208 213.966 139.37 213.83C140.341 213.013 142.012 212.377 143.034 212.287C144.63 212.227 146.812 213.211 146.714 215.088C146.653 216.677 144.908 217.887 143.65 218.689C141.656 219.597 139.648 219.49 137.641 219.384C137.354 219.368 137.155 219.792 137.442 219.807C139.999 221.246 143.103 220.687 145.495 218.932C147.24 217.721 148.846 215.346 147.673 213.257C146.411 210.729 142.683 210.531 140.365 211.711C140.203 211.847 139.755 211.968 139.593 212.104C139.468 211.953 139.343 211.802 139.181 211.938C138.77 211.771 138.608 211.907 138.159 212.028C138.159 212.028 138.034 211.877 137.872 212.013C134.606 212.708 131.202 212.238 127.973 212.646C126.951 212.736 125.929 212.827 125.031 213.069C132.41 210.71 139.54 208.048 146.082 204.342C147.03 204.827 148.177 204.887 149.449 205.1C150.11 205.569 151.257 205.63 152.08 205.963C152.205 206.114 152.367 205.978 152.529 205.842C152.33 206.266 152.131 206.69 152.056 207.265C151.597 209.701 153.169 210.943 155.463 211.064C157.471 211.171 160.038 210.294 161.57 208.493C163.801 206.874 162.664 204.498 160.606 203.665ZM140.357 201.722C139.946 201.556 139.659 201.54 139.572 201.101C139.396 200.224 139.994 198.952 140.392 198.105C140.828 196.97 141.388 195.986 142.235 195.018C142.397 194.882 142.272 194.73 142.147 194.579C143.406 193.777 144.914 193.278 146.074 194.353C147.197 195.716 147.349 197.895 146.303 199.287C145.58 200.407 144.359 200.921 143.175 201.148C142.888 201.133 142.439 201.254 141.99 201.374C142.19 200.951 141.815 200.497 141.329 200.905C141.167 201.041 141.005 201.177 140.681 201.45C140.644 201.737 140.644 201.737 140.357 201.722ZM139.136 186.602C140.196 186.224 141.38 185.997 142.564 185.771C142.851 185.786 144.933 185.317 145.182 185.62L145.307 185.771C144.909 186.619 144.922 187.633 144.362 188.617C143.963 189.464 143.154 190.145 142.381 190.538C140.997 191.189 138.953 191.37 137.917 190.446C137.668 190.143 137.543 189.992 137.293 189.689C137.455 189.553 137.617 189.417 137.779 189.281C138.103 189.008 137.891 188.418 137.442 188.539C137.84 187.692 138.525 186.859 139.136 186.602ZM128.454 189.944C128.977 189.248 128.029 188.763 127.543 189.172C127.381 189.308 127.381 189.308 127.219 189.444C127.219 189.444 127.219 189.444 127.095 189.293C123.542 189.973 124.386 185.675 125.257 183.405C126.091 181.422 128.845 179.108 130.828 180.516C132.275 181.606 131.903 184.481 131.269 186.04C130.759 187.75 129.463 188.839 128.205 189.641C128.579 190.095 128.579 190.095 128.454 189.944ZM117.14 198.174C117.339 197.75 116.641 197.569 116.317 197.841C116.118 198.265 115.794 198.537 115.794 198.537C114.36 198.461 113.25 198.113 112.9 196.357C112.674 194.752 113.47 193.058 114.517 191.665C116.049 189.865 118.269 190.562 119.355 192.212C120.778 194.603 119.296 197.13 117.14 198.174ZM158.889 144.367C159.736 143.398 160.671 142.869 161.507 144.216C162.468 145.715 162.782 147.758 162.434 149.332C162.049 151.193 161.04 152.298 159.194 152.055C158.621 152.025 158.209 151.858 157.96 151.555C157.835 151.404 157.835 151.404 157.71 151.253C156.013 149.86 157.357 146.167 158.889 144.367ZM148.948 154.262C148.698 153.959 148 153.777 147.801 154.201C147.277 154.897 146.754 155.593 146.356 156.441C145.557 154.806 145.169 153.338 145.716 151.34C146.226 149.63 147.222 147.511 149.091 146.452C150.026 145.923 150.886 145.969 151.51 146.726C152.67 147.8 152.484 149.238 151.887 150.509C151.09 152.204 149.957 153.157 148.948 154.262ZM140.106 166.821C139.944 166.957 140.068 167.109 139.906 167.245C137.264 168.697 134.46 170.286 131.818 171.738C134.622 170.149 137.302 168.41 140.106 166.821ZM137.944 161.206C137.782 161.342 137.458 161.614 137.296 161.75C137.296 161.75 137.134 161.887 136.972 162.023C135.613 161.372 134.989 160.615 135.212 158.889C135.56 157.315 136.68 155.348 138.35 154.713C140.756 153.972 141.731 156.485 141.059 158.331C140.785 159.33 139.901 160.586 138.767 161.539C138.518 161.236 138.268 160.933 137.944 161.206ZM153.268 130.895C155.063 130.411 157.394 130.245 157.421 132.274C157.447 134.302 155.878 136.39 154.42 137.615C152.763 139.264 150.52 139.869 148.86 138.189C146.863 135.767 150.427 132.771 153.268 130.895ZM157.795 117.093C159.303 116.594 163.167 114.628 163.892 116.838C164.242 118.594 162.96 120.697 161.789 121.938C160.257 123.738 158.175 124.207 156.316 122.95C155.78 122.632 155.405 122.178 155.355 121.452C155.679 121.179 155.716 120.892 155.591 120.74C155.628 120.453 155.666 120.165 155.541 120.014C155.814 119.015 156.661 118.047 157.795 117.093ZM152.201 105.65C151.003 104.863 151.176 102.411 151.324 101.261C151.399 100.686 151.348 99.9592 151.585 99.2479C151.585 99.2479 151.585 99.2479 151.747 99.1117C152.631 97.8558 153.988 95.1773 155.846 96.434C157.294 97.5241 157.732 99.7188 157.509 101.444C157.36 102.594 156.8 103.578 156.115 104.41C155.143 105.227 153.111 106.422 152.201 105.65ZM144.251 111.308C144.376 111.46 144.214 111.596 144.338 111.747L144.176 111.883C144.014 112.02 144.139 112.171 143.977 112.307L143.691 112.292C142.543 112.231 142.119 111.05 141.819 110.021C141.468 108.265 141.354 105.798 142.151 104.104C143.385 104.603 144.296 105.375 144.846 106.707C145.557 107.903 145.783 109.508 145.31 110.93C144.936 110.476 144.038 110.718 144.251 111.308ZM139.524 125.534C139.4 125.382 139.4 125.382 139.437 125.095C139.261 124.217 138.239 124.307 138.128 125.17C137.966 125.306 137.966 125.306 137.966 125.306C136.195 124.488 135.73 120.266 135.791 118.677C136.638 117.708 137.323 116.876 138.72 117.24C140.241 117.755 141.165 119.541 141.553 121.009C141.866 123.052 141.195 124.898 139.524 125.534ZM133.553 141.575C133.428 141.423 133.141 141.408 132.979 141.544C131.933 142.936 131.511 145.085 129.453 144.252C127.52 143.571 126.832 141.073 127.217 139.212C127.839 136.639 131.564 133.507 133.162 136.777C133.837 138.26 134.025 140.152 133.64 142.014C133.515 141.862 133.677 141.726 133.553 141.575ZM120.985 157.266C119.7 156.04 119.262 153.845 119.522 151.832C119.857 149.244 122.337 147.928 124.283 149.624C126.105 151.168 126.667 153.514 125.958 155.648C125.473 156.056 125.111 156.616 125.199 157.055C123.741 158.281 122.358 158.931 120.985 157.266ZM123.609 132.506C123.771 132.37 123.646 132.219 123.646 132.219C123.683 131.931 123.72 131.644 123.757 131.356C123.919 131.22 123.919 131.22 124.081 131.084L124.243 130.948C124.405 130.811 124.604 130.388 124.766 130.252C124.966 129.828 124.716 129.525 124.267 129.646C124.105 129.782 124.105 129.782 124.105 129.782C124.628 129.086 125.438 128.405 126.086 127.861C126.896 127.18 127.706 126.499 128.779 127.135C129.851 127.771 129.503 129.345 129.23 130.344C128.72 132.054 127.276 134.293 125.481 134.777C123.723 134.973 123.423 133.944 123.609 132.506C123.609 132.506 123.572 132.794 123.609 132.506ZM135.682 107.235C136.458 110.171 133.168 112.168 130.151 113.166C130.637 112.757 131.123 112.349 131.484 111.789C132.007 111.093 131.097 110.321 130.449 110.866C130.449 110.866 130.449 110.866 130.324 110.714C130.834 109.004 134.607 103.269 135.682 107.235ZM109.533 133.062C107.189 132.214 104.905 129.777 105.115 127.038C105.436 123.436 109.09 124.208 110.787 125.601C112.358 126.843 113.819 128.947 113.683 131.111C112.974 133.245 112.003 134.062 109.533 133.062ZM108.208 144.428C106.413 144.912 104.069 144.064 102.784 142.838C101.249 141.308 101.533 137.994 104.276 137.995C105.423 138.056 106.533 138.404 107.481 138.889C108.017 139.207 108.678 139.676 109.215 139.994C109.852 141.765 110.29 143.96 108.208 144.428ZM108.779 156.763C107.096 156.384 105.486 155.43 104.363 154.068C103.864 153.462 103.851 152.448 104.374 151.752C105.744 150.088 107.839 150.633 109.161 151.572C110.234 152.208 111.108 153.268 111.981 154.327C111.846 156.492 111.036 157.172 108.779 156.763ZM117.257 172.702C117.294 172.415 117.331 172.127 117.331 172.127C117.419 172.566 117.345 173.141 117.432 173.58C117.071 174.14 116.71 174.7 116.386 174.972C116.784 174.125 117.183 173.277 117.257 172.702ZM82.5289 181.138C82.6033 180.563 82.2502 175.477 83.0998 177.839C83.2246 177.99 83.2246 177.99 83.3494 178.141C82.9644 180.003 82.5794 181.864 82.3563 183.59C82.4679 182.727 82.5794 181.864 82.5289 181.138ZM69.8527 185.387C68.1189 184.282 66.6585 182.178 66.6691 179.862C66.5311 178.697 67.2533 177.577 68.188 177.048C69.9696 175.55 71.592 177.518 72.4284 178.865C73.6392 180.666 73.9525 182.71 74.5525 184.768C73.0948 185.994 71.7114 186.644 69.8527 185.387ZM102.52 235.326C102.769 235.629 103.218 235.508 103.417 235.084C103.455 234.796 103.455 234.796 103.492 234.509C103.617 234.66 103.778 234.524 103.94 234.388C104.352 234.554 104.602 234.857 104.689 235.296L104.564 235.145C104.44 234.993 104.116 235.266 104.241 235.417C104.989 236.325 105.738 237.234 106.325 238.278C106.537 238.868 106.912 239.323 106.675 240.034C106.638 240.321 106.314 240.594 105.865 240.715C105.417 240.836 104.843 240.805 104.432 240.639C103.035 240.275 102.161 239.215 101.612 237.883C101.437 237.006 101.46 235.704 102.146 234.872C102.27 235.023 102.395 235.174 102.52 235.326ZM100.189 219.858C100.961 219.464 101.734 219.071 102.669 218.541C104.626 217.921 106.545 217.589 108.465 217.257C109.363 217.015 110.385 216.924 111.12 216.818C107.53 217.786 103.779 218.89 100.189 219.858ZM157.208 209.854C155.899 209.929 154.34 209.702 154.077 208.385C153.589 205.464 158.113 203.967 160.333 204.664C160.333 204.664 160.495 204.528 160.62 204.679C161.493 205.739 162.367 206.798 161.321 208.19C160.187 209.144 158.392 209.627 157.208 209.854Z" fill="#FFFCF9"/>
<path d="M108.538 167.496C108.789 167.8 109.241 167.679 109.152 167.238C108.824 164.166 104.947 163.816 102.325 164.986C100.319 165.898 98.3017 169.137 99.4829 171.235C100.576 172.893 102.884 173.015 104.691 172.529C106.497 172.042 109.193 170.294 108.426 168.363C108.3 168.211 108.012 168.195 107.849 168.332C106.959 169.594 106.521 170.735 104.84 171.373C103.611 171.89 101.88 171.798 100.8 171.16C99.1809 170.201 100.471 168.088 101.487 166.978C103.68 164.621 107.394 165.109 108.538 167.496Z" fill="#FFFCF9"/>
</svg>
