<svg width="138" height="146" viewBox="0 0 138 146" fill="none" xmlns="http://www.w3.org/2000/svg">
<path d="M125.187 38.9849C112.194 36.0841 100.896 44.5843 91.8781 52.6293C85.637 58.2067 79.7833 64.1631 74.4178 70.4686C74.7099 65.5551 74.0694 60.6434 72.4257 55.8641C68.8625 45.5642 60.4223 36.7629 49.6511 34.1368C44.9909 33.0478 38.1362 32.8827 34.7463 36.7933C31.2201 40.7991 30.5663 47.6299 30.3998 52.7805C29.9529 64.5415 33.4731 76.1705 38.1898 86.842C44.3314 100.822 52.4002 113.902 57.0234 128.495C57.1436 128.899 57.5009 129.177 57.9945 129.36C57.5502 129.711 57.2068 130.032 56.7626 130.383C55.5661 131.34 59.9098 131.92 60.177 131.895C61.9711 132.023 64.6677 132.047 66.1067 130.798C88.927 111.976 112.707 92.321 126.787 65.7183C130.865 58.0386 138.71 42.0034 125.187 38.9849ZM45.5949 35.9957C45.655 36.1973 45.5541 36.2271 45.2869 36.2514C45.3931 36.0554 45.5294 35.9602 45.5949 35.9957ZM43.7416 37.6961C43.7416 37.6961 44.1204 37.3097 44.6001 36.8935C45.3255 37.1176 46.2172 37.3473 46.8063 37.6666C48.0199 38.2399 49.1326 38.843 50.1745 39.5768C49.1358 39.7746 48.2934 40.0788 48.0101 40.6015L40.0421 55.3019C40.0389 54.3703 40.0358 53.4388 40.098 52.5427C40.2484 47.8905 40.6897 41.4518 43.7416 37.6961ZM41.4441 67.5579C41.384 67.3563 41.3594 67.0893 41.2993 66.8877C42.5698 66.731 43.513 66.397 43.8317 65.809L55.5535 44.183C57.0976 45.8652 58.5354 47.7434 59.7361 49.7467C54.7567 59.5582 49.7774 69.3698 44.8334 79.1159C43.4547 75.4101 42.3131 71.5792 41.4441 67.5579ZM48.9417 89.035C49.2797 88.8801 49.5523 88.6897 49.694 88.4284C54.4254 79.0742 59.1569 69.72 63.8883 60.3658C65.7411 68.9778 64.4478 78.0823 61.3163 86.3595C60.9213 87.2443 60.5264 88.1291 60.197 89.0495C60.0145 89.5423 59.802 89.9343 59.5541 90.3916C59.4833 90.5223 59.5134 90.6231 59.4779 90.6885C58.2009 94.1382 57.1856 97.7299 56.4021 101.363C56.1628 102.585 65.5917 103.47 66.1004 101.125C66.9193 97.4268 67.9345 93.8351 69.247 90.32C75.9411 80.0009 83.6117 70.3801 92.2233 61.523C92.395 61.3625 92.5313 61.2673 92.6375 61.0713C87.8975 69.6601 83.1274 78.148 78.322 86.7013C75.3526 92.0233 72.3178 97.3099 69.3485 102.632C67.052 106.713 63.4742 111.282 63.9483 116.188C64.1457 118.324 71.8041 117.319 72.9598 116.593C73.2323 116.402 73.5049 116.212 73.742 116.087C70.864 118.584 67.9205 121.046 64.9771 123.508C60.666 111.62 54.196 100.59 48.9417 89.035ZM77.3069 112.947C77.6857 112.561 78.0344 112.074 78.3832 111.586C78.7674 111.034 76.8885 110.438 74.6308 110.229C75.8263 107.242 77.9489 104.42 79.3654 101.806C82.3348 96.4841 85.3696 91.1976 88.3389 85.8755C94.2368 75.463 100.034 65.0803 105.932 54.6678C106.357 53.8838 103.747 53.2301 101.121 53.0748C102.767 51.6002 104.414 50.1256 106.155 48.7873C109.028 46.4559 117.43 38.9224 120.982 42.369C122.144 43.5061 122.731 44.9231 123.015 46.4296C120.395 46.1082 117.063 46.162 116.516 47.6404C109.566 64.8369 101.206 81.3538 91.5726 97.0957C91.3602 97.4877 91.8838 97.7715 92.8055 98.1021C91.8054 99.166 90.7752 100.129 89.7751 101.193C85.78 105.283 81.5584 109.165 77.3069 112.947Z" fill="#E79482"/>
</svg>
