<svg width="75" height="91" viewBox="0 0 75 91" fill="none" xmlns="http://www.w3.org/2000/svg">
<path d="M70.5275 28.2725C54.3275 36.2725 38.1275 44.2725 21.8275 52.2725C38.8275 36.4725 55.9275 20.7725 72.3275 4.47253C74.0275 2.77253 72.3275 -0.827467 69.8275 0.172533C46.0275 9.87253 23.0275 21.1725 0.827495 34.2725C-1.07251 35.3725 0.627495 38.3725 2.62749 37.2725C20.5275 26.7725 39.3275 17.6725 58.6275 9.97253C40.3275 26.6725 22.4275 44.0725 4.32749 60.9725C1.92749 63.1725 4.92749 66.6725 7.72749 65.2725C21.3275 58.6725 34.9275 51.9725 48.6275 45.2725C38.6275 53.6725 28.9275 62.4725 19.8275 71.8725C17.5275 74.1725 20.4275 77.7725 23.2275 76.2725C32.1275 71.6725 41.2275 67.3725 50.4275 63.4725L28.1275 83.1725C26.0275 85.0725 28.2275 89.1725 31.0275 88.0725C37.8275 85.3725 44.7275 82.7725 51.5275 80.0725C50.5275 81.8725 49.5275 83.5725 48.5275 85.3725C46.5275 88.9725 52.1275 92.2725 54.1275 88.6725C56.4275 84.3725 58.7275 80.0725 61.0275 75.7725C62.1275 73.6725 60.2275 70.1725 57.5275 71.2725C53.2275 72.9725 48.8275 74.7725 44.5275 76.4725C51.9275 69.8725 59.2275 63.3725 66.6275 56.7725C68.7275 54.8725 66.5275 50.9725 63.8275 51.9725C54.5275 55.4725 45.3275 59.3725 36.3275 63.4725C48.0275 52.5725 60.3275 42.4725 73.2275 33.0725C76.2275 30.9725 73.7275 26.6725 70.5275 28.2725Z" fill="#E79482"/>
</svg>
