<svg width="173" height="194" viewBox="0 0 173 194" fill="none" xmlns="http://www.w3.org/2000/svg">
<path d="M157.516 144.603C157.443 144.507 157.443 144.507 157.516 144.603C157.78 140.77 155.97 136.392 154.816 132.879C153.466 128.909 151.756 125.061 149.59 121.407C147.715 118.138 145.767 114.773 143.317 111.939C141.4 109.61 138.689 107.429 135.437 107.321C134.233 107.326 133.421 108.245 133.766 109.497C134.801 113.252 135.403 117.032 136.63 120.641C137.857 124.251 139.421 127.907 141.105 131.321C143.566 135.962 146.584 140.937 151.2 143.641C143.727 142.346 136.442 140.304 129.345 137.514C129.452 135.466 128.835 133.059 128.536 131.47C127.984 127.954 127.336 124.511 126.519 121.045C124.663 113.221 121.918 105.618 118.428 98.4281C117.746 97.1298 115.867 97.0412 115.25 98.4172C109.721 111.235 115.342 124.223 122.826 134.891C114.253 130.95 106.155 126.044 98.7737 120.292C98.4593 120.076 98.2407 119.788 97.9263 119.572C97.9953 119.066 97.7998 118.609 97.2438 118.274C97.2438 118.274 97.171 118.178 97.0751 118.251C96.5881 117.409 96.197 116.495 95.7101 115.654C97.3128 106.419 97.0099 96.6612 94.809 87.5862C93.5973 82.6034 91.9294 77.8153 89.7093 73.2945C87.3435 68.5815 84.4678 63.196 79.9701 60.2508C78.7853 59.4846 77.4663 60.3334 77.451 61.7069C77.5468 76.7663 78.1105 93.4381 84.8206 107.265C76.3544 97.4934 69.4449 86.3898 64.5293 74.5309C68.4442 65.3584 68.3483 54.0821 67.0101 44.353C65.4188 32.6973 61.5653 21.2437 57.4741 10.273C57.4971 10.1042 57.5431 9.76669 57.5661 9.59793C58.0109 7.59615 54.8054 7.15157 54.3606 9.15334C50.8254 28.7818 52.4243 49.2082 58.8047 67.9765C54.6981 62.1623 49.9435 56.6881 45.4075 51.5022C38.5441 43.844 31.1784 36.718 23.3103 30.1242C22.4629 29.4049 20.8065 30.2069 21.0788 31.3623C23.4254 44.4125 29.1385 56.7258 37.7274 66.8587C41.1246 70.9409 45.0241 74.491 49.7595 76.9533C53.6974 78.9611 58.7625 80.2654 63.0876 78.8018C64.5293 82.097 66.2356 85.3428 67.9419 88.5887C70.8406 93.8055 74.2915 98.7549 77.9572 103.39C66.899 94.9783 54.9819 87.8229 40.3961 88.8952C39.0963 88.9728 38.5288 90.6137 39.2573 91.5745C45.4536 100.344 54.6406 106.089 64.3223 110.097C74.3184 114.321 85.3114 116.275 95.0698 120.982C95.434 121.462 95.6296 121.919 95.9938 122.399C96.4309 122.976 97.1058 123.07 97.7308 122.898C103.176 127.093 109.027 130.827 115.211 134.007C100.699 131.392 85.5606 132.731 71.8453 138.137C70.3077 138.698 70.8023 140.744 72.2019 141.196C84.9357 144.252 97.8497 145.355 110.894 144.241C114.192 144.01 117.439 143.515 120.687 143.02C123.237 142.6 127.378 142.486 128.904 140.118L128.927 139.95C134.743 142.046 140.702 143.732 146.73 144.912C140.629 147.419 135.089 150.864 130.108 155.246C127.569 157.473 125.177 159.892 122.93 162.504C120.779 165.043 118.436 167.727 116.987 170.793C115.917 172.966 116.32 175.687 119.019 176.062C121.454 176.485 124.479 175.099 126.665 174.199C131.948 172.008 136.549 168.52 140.376 164.408C144.824 159.522 148.06 153.437 149.632 146.948C149.701 146.442 149.601 145.912 149.214 145.601C156.519 146.872 163.915 147.468 171.331 147.292C172.535 147.287 172.354 145.457 171.15 145.462C166.695 145.36 161.998 145.138 157.516 144.603ZM87.5813 75.6646C89.6556 79.9933 91.1779 84.5893 92.171 89.2838C93.6587 96.0245 93.9424 102.77 93.2868 109.471C92.1096 106.127 91.1242 102.637 90.3075 99.1707C88.5744 91.7082 87.2745 84.2199 85.3497 76.9027C85.0544 75.916 83.2753 76.3571 83.5706 77.3438C85.2577 85.1438 86.3198 93.1151 87.911 100.988C88.6818 104.792 89.6212 108.619 90.9939 112.42C90.921 112.324 90.8482 112.228 90.6794 112.205C90.6066 112.109 90.5107 112.182 90.4379 112.085C81.872 98.0008 80.8252 81.09 80.7217 64.8258C83.7508 67.8253 85.8482 71.9852 87.5813 75.6646ZM56.5769 16.8548C59.5715 25.7819 62.5661 34.709 64.0462 44.0279C64.8245 49.0366 65.1696 54.0711 64.8169 59.1809C64.6252 63.1092 63.9503 66.7986 63.0109 70.5373C61.0746 65.1961 59.4987 59.7329 58.2832 54.1478C55.6528 41.918 55.0662 29.198 56.5769 16.8548ZM50.1008 73.8195C45.63 71.3079 41.995 67.7085 38.7435 63.8185C31.9721 55.4853 27.1178 45.6984 24.5948 35.2031C31.2052 40.9347 37.5779 47.1491 43.3984 53.6309C46.6729 57.3522 49.8515 61.1462 52.8615 64.9168C54.6099 67.2227 56.3584 69.5287 58.011 71.9073C48.9466 66.5232 40.9099 59.906 34.403 51.5235C33.6745 50.5627 32.1408 51.7256 32.8693 52.6865C39.7213 62.3205 48.8048 70.7165 59.4105 76.1424C56.3047 76.2275 53.2181 75.5415 50.1008 73.8195ZM67.4358 107.434C58.6245 103.976 50.143 99.3606 44.0042 92.0609C55.8293 92.3253 66.0056 98.3795 75.4188 105.618C69.5025 102.991 63.5861 100.365 57.6928 97.5705C56.6537 96.9965 55.9903 98.71 57.0294 99.284C65.7027 103.754 74.3989 108.055 83.3099 112.043C83.6971 112.354 84.1573 112.762 84.5445 113.074C83.8927 112.811 83.2179 112.718 82.566 112.455C77.5239 110.982 72.4089 109.413 67.4358 107.434ZM143.087 128.759C141.695 125.729 140.399 122.626 139.391 119.305C138.532 116.778 137.719 113.914 137.148 111.17C139.08 112.126 140.56 113.878 141.871 115.608C143.888 118.467 145.786 121.567 147.42 124.717C148.98 127.771 150.349 130.97 151.453 134.218C151.822 135.301 152.19 136.384 152.462 137.539C151.611 136.218 150.782 134.727 150.027 133.333C148.175 129.895 146.323 126.457 144.64 123.042C144.176 122.032 142.542 122.665 143.006 123.675C144.571 127.331 146.231 130.915 148.083 134.353C149.23 136.661 150.303 138.874 151.545 141.109C147.769 137.92 145.234 133.184 143.087 128.759ZM117.259 103.854C120.02 110.084 122.155 116.484 123.835 123.08C124.625 126.112 125.15 129.195 125.507 132.253C119.698 123.796 115.035 113.863 117.259 103.854ZM117.37 140.238C104.307 142.124 91.0131 141.913 78.1374 139.268C91.2354 135.238 105.173 134.506 118.651 137.149C116.58 137.206 114.583 137.358 112.512 137.415C107.842 137.627 103.076 137.912 98.4785 138.22C97.2745 138.225 97.5506 139.983 98.6587 140.051C103.306 140.007 107.953 139.964 112.6 139.921C114.84 139.887 117.079 139.854 119.318 139.821C118.693 139.992 118.068 140.163 117.37 140.238ZM122.823 172.118C121.933 172.339 119.437 173.626 119.909 172.058C120.499 170.249 122.198 168.507 123.175 167.009C125.277 164.205 127.546 161.425 130.108 159.029C133.482 155.714 137.22 152.879 141.25 150.429C140.94 150.815 140.606 151.371 140.296 151.758C139.245 153.16 138.026 154.538 136.902 155.844C134.582 158.36 132.094 160.852 129.46 163.152C128.574 163.974 129.594 165.32 130.553 164.593C133.501 162.508 136.208 160.305 138.793 157.74C140.085 156.457 141.281 155.248 142.5 153.869C143.121 153.096 143.911 152.345 144.533 151.572C140.426 160.89 132.796 168.945 122.823 172.118Z" fill="#C59C85"/>
</svg>
