<svg width="179" height="241" viewBox="0 0 179 241" fill="none" xmlns="http://www.w3.org/2000/svg">
<path d="M147.496 122.296C147.175 122.145 146.94 122.23 146.704 122.315C146.384 122.164 145.828 122.098 145.441 122.503C144.453 124.191 143.549 126.115 142.966 128.189C142.73 128.274 142.495 128.359 142.344 128.68C139.2 136.204 141.902 149.611 147.249 157.804C147.874 163.97 149.056 170.202 152.036 175.52C147.727 170.947 143.267 166.696 138.958 162.123C139.279 162.274 139.901 161.784 139.495 161.397C133.008 155.213 129.866 146.491 127.665 137.431C127.901 137.346 127.901 137.346 128.052 137.025C132.091 130.51 129.277 119.007 128.077 111.983C127.085 107.014 124.279 92.5792 117.371 91.8728C115.401 92.3161 114.393 93.212 113.64 94.8149L113.32 94.6641C112.764 94.5981 112.292 94.7679 112.227 95.3242C111.551 100.095 114.491 120.074 120.356 126.749C121.329 130.926 123.244 134.763 125.997 137.233C128.008 145.03 130.576 152.893 135.394 158.88C131.661 155.166 128.162 151.366 124.664 147.567C124.815 147.246 124.73 147.011 124.645 146.775C120.525 143.466 118.1 138.214 115.846 133.434C114.846 131.398 113.996 129.041 113.232 126.919C113.147 126.684 113.062 126.448 112.977 126.212C113.298 126.363 113.854 126.429 114.325 126.259C114.645 126.41 115.031 126.005 115.182 125.684C115.105 122.516 113.36 119.15 109.807 119.631C109.572 119.716 109.186 120.122 109.27 120.357C109.158 122.262 110.008 124.619 111.931 125.524C113.544 130.003 115.177 135.273 117.818 139.648C114.81 136.47 111.802 133.293 109.03 130.031C105.644 124.327 102.644 118.218 100.03 111.703C100.266 111.618 100.417 111.297 100.482 110.741C99.4904 105.772 98.4135 100.568 97.1859 95.684C96.8926 93.3929 96.4487 91.4224 96.1554 89.1312C94.407 79.1088 90.6892 69.5297 87.678 59.696C87.3383 58.7531 86.0755 58.9418 86.1797 59.9696C86.4345 60.6767 86.5387 61.7044 86.7935 62.4115C85.6429 60.6956 84.4923 58.9797 82.8049 57.9899C77.4878 54.3133 79.5216 69.5591 79.7764 70.2663C82.459 82.8815 88.9028 97.0709 96.6829 107.583C98.9761 113.947 101.891 119.821 104.957 125.374C104.381 124.516 103.57 123.743 102.995 122.885C95.574 114.108 88.3885 105.246 80.9673 96.4683C78.5427 91.2168 76.2687 85.6447 73.8441 80.3932C73.4852 78.6584 72.8906 77.0084 72.6166 75.5093C72.7015 75.745 72.8714 76.2164 73.1919 76.3672C74.1261 78.96 75.0604 81.5528 76.0796 84.3813C76.4194 85.3241 78.0683 84.7299 77.7286 83.7871C77.219 82.3729 76.7094 80.9586 76.1998 79.5444C74.3312 74.3588 72.312 69.4939 69.9724 64.4781C68.6327 61.4988 66.8026 57.8972 64.737 54.3806C62.7835 48.9593 60.5945 43.623 56.7565 38.8808C56.2661 38.2585 55.4088 38.8338 55.6636 39.5409C56.2582 41.1908 56.9376 43.0765 57.7677 44.6415C54.8448 41.7001 51.6206 39.3999 48.1144 38.5328C47.5583 38.4668 47.0872 38.6366 47.0215 39.1929C46.6193 45.463 50.6272 50.6766 54.2296 55.5037C59.7085 62.584 63.8783 71.2013 70.7513 76.9804C71.4965 78.3097 72.0061 79.724 72.7513 81.0533C72.9211 81.5247 73.4772 81.5907 73.7127 81.5058C75.4771 85.6636 77.2415 89.8215 78.9209 93.7436C73.9516 88.0775 68.7467 82.4963 63.3912 77.2357C63.7117 77.3865 64.0979 76.981 63.6924 76.5945C62.3912 75.1992 60.6189 73.9737 58.8465 72.7481C54.0663 68.3455 49.371 64.1785 44.2046 60.1813C44.6757 60.0115 44.5058 59.5401 44.1853 59.3893C43.6293 59.3233 43.3088 59.1725 42.7527 59.1066C42.4322 58.9558 42.3473 58.72 42.0268 58.5692C42.1774 58.2486 42.0925 58.0129 42.0076 57.7772C32.6634 48.095 19.6432 37.0743 4.73384 36.3215C4.41334 36.1707 4.11208 36.8119 4.28195 37.2833C4.62169 38.2261 5.19698 39.084 5.77228 39.942C4.18904 39.9799 2.92629 40.1686 1.51292 40.6779C1.27736 40.7627 1.12673 41.0833 1.21166 41.319C7.03361 55.9988 27.627 59.2307 41.849 61.0301C45.6485 64.1883 49.448 67.3465 53.0119 70.5896C49.8069 69.0813 46.3007 68.2143 43.0493 68.0543C42.7288 67.9035 42.6439 67.6678 42.3234 67.5169C40.9565 66.6779 38.5816 66.7348 38.5544 68.875C38.4887 69.4313 38.5736 69.6671 38.7435 70.1385C38.5079 70.2233 38.5929 70.4591 38.6778 70.6948C38.6778 70.6948 38.9133 70.6099 38.9983 70.8456C39.6585 71.9392 40.7049 72.6274 41.9677 72.4387C42.2032 72.3538 42.3539 72.0332 42.0334 71.8824C41.7129 71.7316 41.3924 71.5808 40.987 71.1942C41.7786 71.1753 42.5702 71.1564 42.9564 70.7509C43.6631 70.4962 43.9643 69.8551 43.7945 69.3837C48.0074 69.9961 52.2395 71.4005 56.1704 73.4461C62.6573 79.6306 68.673 85.9849 74.5381 92.6598C62.5099 86.6078 49.4785 71.8628 34.7037 76.6541C34.4682 76.7389 34.4682 76.7389 34.4682 76.7389C33.5259 77.0785 32.4987 77.1823 31.4059 77.8424C30.9347 78.0122 30.869 78.5685 31.1895 78.7193C35.5371 84.8757 42.7194 87.0813 49.7318 88.8154C57.6208 90.7663 71.6344 90.5103 77.4803 96.3932C77.8858 96.7797 78.272 96.3743 78.187 96.1385C83.1563 101.805 87.8052 107.32 92.5389 113.071C91.0871 111.996 89.7202 111.157 88.2683 110.082C85.4496 108.169 81.4337 105.887 77.6263 105.662C76.6263 103.625 72.4134 103.013 71.2741 105.021C70.8879 105.426 71.0577 105.898 70.9071 106.218C70.9071 106.218 70.9071 106.218 70.992 106.454C71.0498 108.83 73.548 110.593 75.6681 109.829C77.0815 109.32 78.0045 108.188 78.0509 106.84C83.7621 107.179 90.1256 111.544 94.9058 115.946C97.1878 118.586 99.4697 121.226 101.601 124.186C114.246 139.337 128.135 153.507 142.024 167.676C139.695 166.385 137.301 165.65 134.822 164.679C134.737 164.443 134.737 164.443 134.652 164.207C133.455 163.84 132.494 163.387 131.297 163.02C131.212 162.784 131.363 162.463 131.127 162.548C128.328 161.427 126.366 158.938 124.49 156.684C123.594 155.676 122.934 154.582 122.273 153.488L122.594 153.639C122.914 153.79 123.385 153.62 123.451 153.064C123.563 151.159 122.224 148.18 119.953 149.265C119.246 149.519 118.794 150.481 118.814 151.273C119.003 152.536 120.134 153.46 121.095 153.913C121.841 155.242 122.821 156.487 123.312 157.109C123.972 158.202 124.953 159.447 126.084 160.371C118.929 156.025 112.998 149.906 107.623 143.854L107.774 143.533C108.593 141.374 106.631 138.885 104.708 137.98C103.747 137.528 102.484 137.716 101.627 138.291C99.9122 139.442 101.148 141.394 101.657 142.808C102.082 143.986 103.298 145.146 104.712 144.637C104.712 144.637 104.712 144.637 104.947 144.552C105.588 144.853 106.229 145.155 106.851 144.665C112.716 151.34 119.222 158.316 127.32 162.322C123.172 161.154 119.11 160.221 115.048 159.288C115.198 158.967 115.113 158.731 114.878 158.816C114.322 158.75 113.766 158.684 112.974 158.703C112.098 158.486 111.221 158.27 110.58 157.968C107.545 156.931 104.51 155.894 101.625 154.537C98.5519 151.916 95.6289 148.975 93.1771 145.864C93.0922 145.628 93.0922 145.628 93.0072 145.392C87.8681 139.255 83.2657 132.391 77.5047 126.744L77.1842 126.593C74.9023 123.953 72.2341 121.719 69.4811 119.249C69.0756 118.862 68.6894 119.268 68.5388 119.589C67.5773 119.136 66.6158 118.684 65.6543 118.231C65.3339 118.08 64.9477 118.486 64.797 118.806C63.1162 131.13 82.0639 141.612 91.5939 145.901C93.7909 148.305 95.903 150.474 98.2506 152.557C89.1918 148.099 80.7355 142.357 71.526 138.219C71.526 138.219 71.526 138.219 71.4411 137.983C64.1706 128.886 51.0462 116.837 38.6158 117.055C38.0598 116.989 37.523 117.715 37.9284 118.102C38.5037 118.96 39.079 119.818 39.6543 120.676C38.7777 120.459 37.9012 120.242 37.1096 120.261C36.1865 121.393 35.6497 122.119 35.8196 122.59C40.5454 131.273 54.4886 141.163 65.7027 139.785C66.6642 140.237 67.7106 140.926 68.9076 141.293C69.5486 141.595 70.4059 141.02 70.1511 140.312C70.4716 140.463 70.7072 140.378 70.9428 140.293C81.1986 145.12 90.7671 150.993 100.787 155.904C100.787 155.904 100.787 155.904 100.872 156.14C100.872 156.14 100.872 156.14 101.108 156.055C101.749 156.357 102.71 156.809 103.351 157.111C103.672 157.262 104.313 157.563 104.633 157.714C104.313 157.563 103.757 157.497 103.436 157.347C95.8293 153.962 88.0717 150.899 80.9166 146.553C80.5961 146.402 80.2099 146.808 80.6154 147.194C85.6119 150.72 91.2302 153.755 96.9142 156.235C96.5937 156.084 96.3581 156.169 96.0376 156.018C95.4816 155.952 95.1611 155.801 94.605 155.735C82.2676 153.257 67.9607 151.222 59.7658 159.501C59.3796 159.906 59.5494 160.378 59.8699 160.528C60.5958 161.066 61.2368 161.367 61.8778 161.669C61.6423 161.754 61.6423 161.754 61.4067 161.839C60.9356 162.009 61.1904 162.716 61.5109 162.867C73.6705 167.806 87.5879 163.59 100.922 161.448C102.185 161.26 103.768 161.222 105.031 161.033C105.266 160.948 105.266 160.948 105.502 160.863C106.058 160.929 106.765 160.674 107.321 160.74C108.518 161.108 109.715 161.476 110.676 161.928C110.997 162.079 111.298 161.438 110.978 161.287C110.337 160.985 110.016 160.834 109.375 160.533C109.846 160.363 110.167 160.514 110.638 160.344C113.117 161.315 115.747 161.965 118.226 162.936C114.673 163.417 110.904 164.776 108.031 167.142C107.946 166.907 107.71 166.992 107.625 166.756C106.343 166.153 104.694 166.747 104.092 168.029C103.339 169.632 104.725 171.263 106.393 171.461C106.629 171.376 106.779 171.055 106.694 170.82C106.204 170.197 105.157 169.509 105.374 168.632C105.675 167.991 106.297 167.501 106.938 167.803C106.787 168.123 106.316 168.293 106.165 168.613C105.544 169.104 106.355 169.877 106.976 169.387C107.127 169.066 107.598 168.896 107.749 168.576C108.088 169.518 108.193 170.546 107.891 171.187C107.138 172.79 104.574 171.584 103.763 170.811C103.358 170.424 102.821 171.15 103.227 171.537C104.443 172.696 107.563 173.969 108.787 172.196C109.475 171.149 109.351 169.33 108.606 168C112.572 164.973 117.303 164.068 122.137 164.19C125.728 165.293 129.235 166.16 132.59 167.347C128.69 169.818 124.704 172.053 120.719 174.288C119.692 174.392 118.665 174.496 117.638 174.599C110.918 175.156 104.35 175.393 97.8855 176.657C94.8889 177.204 88.3973 180.608 88.0689 183.39C87.8333 183.475 87.6827 183.795 87.4471 183.88C87.0609 184.286 87.2308 184.757 87.5513 184.908C88.6826 185.832 90.4358 186.265 92.019 186.228C92.019 186.228 92.2546 186.143 92.3395 186.378C103.885 188.876 113.787 182.378 122.341 175.834C122.897 175.9 123.368 175.73 123.924 175.796C124.716 175.777 124.696 174.985 124.206 174.363C124.592 173.958 125.299 173.703 125.685 173.297C128.257 171.572 131.065 169.761 133.552 167.8C137.784 169.204 141.865 170.929 145.881 173.211C155.546 183.044 165.21 192.877 174.724 203.03C175.215 203.653 175.987 202.842 175.497 202.219C169.056 194.687 162.145 187.323 155.318 180.196C151.31 174.983 149.979 169.071 149.203 163.225C149.778 164.083 150.438 165.177 151.249 165.95C151.655 166.336 152.446 166.318 152.512 165.761C154.706 161.509 154.977 156.351 154.456 151.213C154.595 147.168 154.244 142.501 153.271 138.324C153.202 132.224 151.616 125.605 147.496 122.296ZM115.563 95.7199C116.957 94.4186 119.521 95.6252 121.332 98.4347C123.398 101.951 124.926 106.194 125.899 110.371C125.003 109.362 124.193 108.589 122.826 107.75C122.741 107.514 122.505 107.599 122.505 107.599C121.061 103.592 119.193 98.4066 115.563 95.7199ZM116.72 110.749C115.682 107.128 114.794 103.187 114.783 99.4631C114.763 98.6711 114.829 98.1148 114.895 97.5585C115.791 98.5673 116.922 99.4912 117.092 99.9626C118.242 101.678 119.007 103.8 119.922 105.601C120.347 106.779 120.771 107.958 121.196 109.136C119.925 112.257 119.465 116.151 119.561 120.111C118.457 117.047 117.739 113.577 116.72 110.749ZM122.202 124.486C121.928 122.987 121.199 115.793 121.914 112.606C122.528 115.048 123.056 117.254 123.35 119.545C123.624 121.044 123.597 123.185 123.484 125.089C123.249 125.174 123.098 125.495 123.183 125.73C123.353 126.202 123.287 126.758 123.542 127.465C123.542 127.465 123.542 127.465 123.627 127.701C123.307 127.55 122.986 127.399 122.751 127.484C122.712 125.9 122.372 124.957 122.202 124.486ZM125.569 129.398C126.612 123.429 124.856 116.339 123.223 111.069C123.779 111.135 124.269 111.757 125.25 113.002C125.91 114.095 126.42 115.509 126.845 116.688C127.119 118.187 127.242 120.007 127.516 121.506L127.601 121.742C127.848 125.381 127.303 129.039 127.38 132.207C127.465 132.443 127.465 132.443 127.55 132.679C127.419 133.791 127.117 134.433 126.882 134.517C126.608 133.018 126.164 131.048 125.569 129.398ZM112.703 124.713C113.023 124.864 113.174 124.543 113.089 124.308C112.919 123.836 112.599 123.685 112.429 123.214C112.344 122.978 111.788 122.912 111.637 123.233C111.402 123.318 111.487 123.554 111.251 123.638C110.996 122.931 110.506 122.309 110.487 121.517C112.39 121.63 113.07 123.516 113.429 125.25C112.873 125.185 112.317 125.119 111.911 124.732C112.062 124.411 112.062 124.411 112.703 124.713ZM93.6492 90.3006C94.6219 94.4774 95.5098 98.4185 96.4825 102.595C95.2934 99.2954 94.3399 95.9106 93.3864 92.5258C93.3479 90.9418 93.3095 89.3578 93.271 87.7738C93.1396 88.8864 93.3944 89.5935 93.6492 90.3006ZM80.9734 70.6339C80.6337 69.691 79.9397 57.4245 82.9475 60.6016C84.2488 61.9969 85.0132 64.1183 85.8433 65.6833C87.4378 69.3698 88.7118 72.9054 89.8351 76.7615C90.5531 80.2312 91.271 83.7009 91.6685 87.0197C91.6685 87.0197 91.6685 87.0197 91.7534 87.2554C90.2711 81.6644 88.7038 75.8377 87.3064 70.4823C87.1365 70.0109 86.3449 70.0299 86.2792 70.5862C86.4491 71.0576 86.4683 71.8496 86.6382 72.321C85.534 69.2568 84.6655 66.1077 83.7969 62.9587C83.5421 62.2515 82.5149 62.3554 82.5341 63.1474C84.7344 72.208 88.1125 80.8443 90.5484 89.8201C91.776 94.704 93.2391 99.503 94.9377 104.217C88.4396 94.3083 83.7026 81.9008 80.9734 70.6339ZM61.5001 64.6015C57.473 58.5959 52.5886 53.1655 49.2682 46.9053C45.0328 38.8442 55.1108 46.1315 56.0916 47.376C57.7982 49.1578 59.3542 51.2603 60.6747 53.4476C62.4198 56.8134 64.165 60.1792 65.8252 63.3094C67.2498 66.5244 68.3539 69.5886 69.543 72.8885C68.8828 71.7948 68.2225 70.7012 67.5623 69.6075C67.1376 68.429 66.4774 67.3353 66.1377 66.3925C62.8637 58.7839 58.8174 51.9863 52.5004 46.2732C52.095 45.8867 51.4732 46.3771 51.6431 46.8485C52.0021 48.5833 51.8322 48.1119 52.6623 49.6769C52.8322 50.1484 53.7744 49.8088 53.6046 49.3374C54.9522 49.3844 56.0836 50.3083 56.4426 52.0431C59.5354 55.456 61.3847 59.8495 63.3846 63.9225C63.5545 64.3939 63.6394 64.6296 63.8093 65.101C63.5737 65.1859 63.2725 65.8271 63.593 65.9779C63.0177 65.12 66.0832 70.6731 67.6585 73.5675C67.8284 74.0389 67.9982 74.5103 68.4037 74.8969C65.7163 71.8706 63.4808 67.8825 61.5001 64.6015ZM29.6589 51.5745C29.3384 51.4236 29.1877 51.7442 29.2727 51.9799C29.5932 52.1307 29.6781 52.3665 29.9986 52.5173C24.8707 50.1041 19.677 48.2472 14.7846 45.7491C13.8232 45.2966 11.155 43.0623 9.12787 41.1297C15.6499 42.2416 22.0791 46.0501 26.9907 49.3401C29.4041 50.8673 31.5818 52.4794 33.8445 54.3272C32.4776 53.4882 31.0258 52.4135 29.6589 51.5745ZM36.1265 56.967C33.6475 55.9961 31.2534 55.2609 28.7743 54.29C29.0948 54.4408 29.2454 54.1202 29.1605 53.8845C31.6395 54.8554 33.883 55.9112 36.1265 56.967ZM6.82668 37.6979C11.9818 37.9708 17.0441 40.9403 21.3804 43.3724C23.7088 44.6639 26.2071 46.4268 28.3848 48.0389C22.0214 43.6741 14.8855 40.1202 8.14714 39.8852C6.93085 38.7256 6.03506 37.7168 6.82668 37.6979ZM23.507 55.9217C19.0393 54.6021 14.9578 52.8771 10.942 50.5958C9.49013 49.5211 -2.03975 41.1591 5.87645 40.9697C6.11202 40.8848 6.43251 41.0356 6.43251 41.0356C9.28976 44.5334 13.1549 47.1353 17.6419 49.2468C17.6419 49.2468 17.6419 49.2468 17.4063 49.3317C17.2365 48.8603 17.0009 48.9452 16.6804 48.7943C15.0779 48.0402 13.711 47.2012 12.1935 46.6828C11.232 46.2303 10.95 47.6635 11.8265 47.8803C13.5139 48.8701 15.352 49.5393 17.5105 50.3594C18.2364 50.8968 19.113 51.1135 19.5184 51.5001C26.2488 54.6674 33.2805 57.1935 40.0766 59.8046C34.4311 58.9094 28.8513 57.458 23.507 55.9217ZM42.8522 69.7232C42.7016 70.0438 41.91 70.0627 41.6744 70.1476C41.2033 70.3174 40.4117 70.3363 39.8556 70.2704C39.7707 70.0346 39.6857 69.7989 39.6008 69.5632C39.4966 68.5355 39.9677 68.3658 40.7594 68.3468C40.6087 68.6674 40.543 69.2237 41.0991 69.2896C41.6552 69.3556 42.1263 69.1858 42.6823 69.2518C42.7673 69.4875 42.8522 69.7232 42.8522 69.7232ZM38.6844 84.008C36.6764 82.8673 34.9041 81.6418 33.2824 80.0956C32.5564 79.5583 33.1782 79.0679 34.4409 78.8792C35.2054 81.0006 36.5915 82.6316 38.6844 84.008ZM64.0387 90.8505C63.4827 90.7846 62.6061 90.5678 62.0501 90.5019L61.8145 90.5868C61.7296 90.3511 61.6446 90.1154 61.4091 90.2002C57.2619 89.0315 52.8791 87.9477 48.4114 86.6281C45.3763 85.5913 36.2325 80.8968 36.8158 78.8224C39.9823 78.7467 44.1103 79.1234 44.4308 79.2742C48.8985 80.5938 53.2348 83.0259 57.2506 85.3072C59.1736 86.2122 60.9459 87.4377 62.7183 88.6632C56.4782 86.1181 50.0875 83.8937 44.3186 81.1788C43.9981 81.028 43.4613 81.754 43.8667 82.1406C50.4273 84.8365 57.1577 88.0038 64.0387 90.8505ZM74.9037 107.708C75.1393 107.623 75.6104 107.453 75.9309 107.604C75.8652 108.16 75.479 108.566 75.0079 108.736C74.6874 108.585 74.2819 108.198 73.8765 107.812C73.4711 107.425 73.0849 107.831 73.4903 108.217L73.5752 108.453C73.0192 108.387 72.6987 108.236 72.2933 107.849C71.8878 107.463 71.5481 106.52 72.1699 106.03C72.7916 105.539 74.2242 105.822 74.9501 106.359C74.7146 106.444 74.7146 106.444 74.479 106.529C74.0079 106.699 74.197 107.962 74.9037 107.708ZM119.926 151.405L120.161 151.32C121.254 150.66 121.764 152.074 121.868 153.102C121.547 152.951 121.547 152.951 121.227 152.8C121.142 152.564 121.057 152.329 120.736 152.178C120.652 151.942 120.416 152.027 120.18 152.112C120.246 151.556 120.011 151.641 119.926 151.405ZM104.333 142.11C104.418 142.346 104.739 142.496 104.824 142.732C104.824 142.732 104.588 142.817 104.673 143.053C104.523 143.373 104.372 143.694 103.901 143.864C103.495 143.477 103.09 143.09 102.685 142.704L102.92 142.619C103.071 142.298 103.221 141.978 103.372 141.657C103.372 141.657 103.608 141.572 103.523 141.337C104.164 141.638 104.249 141.874 104.333 142.11ZM102.515 142.233C102.43 141.997 102.345 141.761 102.024 141.61C102.024 141.61 101.939 141.375 101.704 141.459C101.449 140.752 101.515 140.196 101.901 139.791C102.523 139.3 103.314 139.281 103.955 139.583C104.681 140.12 105.492 140.893 105.832 141.836C105.832 141.836 105.511 141.685 105.361 142.006C105.832 141.836 106.002 142.308 105.511 141.685C105.426 141.45 105.106 141.299 105.021 141.063C104.615 140.677 104.446 140.205 103.89 140.139C102.843 139.451 102.41 141.205 102.515 142.233ZM72.0098 125.528C72.4153 125.915 72.8207 126.301 72.8207 126.301C75.1683 128.385 77.1298 130.874 79.0912 133.363C79.987 134.371 80.6473 135.465 81.5431 136.474C78.2147 133.146 74.8014 129.582 72.0098 125.528ZM84.8442 141.942C82.8363 140.801 80.7435 139.425 78.8862 137.964C73.5691 134.287 67.5069 129.281 65.6848 122.747C65.2409 120.777 66.9284 121.767 69.0212 123.143C71.9746 130.601 79.3188 136.21 84.8442 141.942ZM90.1613 145.619C90.6516 146.241 89.0299 144.695 87.5781 143.62C87.8136 143.535 87.9642 143.215 87.7944 142.743C87.7094 142.508 87.7094 142.508 87.6245 142.272C88.3697 143.601 89.2655 144.61 90.1613 145.619ZM37.8932 123.175C38.0631 123.646 39.5806 124.164 41.0982 124.683C46.8783 131.122 54.9757 135.128 62.9031 138.663C53.2995 137.863 42.9859 130.66 37.8932 123.175ZM44.0483 125.484C45.2454 125.851 45.8864 126.153 46.2069 126.304C49.1763 127.897 51.995 129.811 54.8138 131.725C56.5861 132.95 58.679 134.326 60.5363 135.788C58.2928 134.732 55.7288 133.525 53.4004 132.234C50.0256 130.254 46.8863 128.19 44.0483 125.484ZM65.56 137.173C57.7447 131.734 50.1457 125.417 41.1254 122.542C41.0404 122.307 41.0404 122.307 40.7199 122.156C37.0518 117.885 40.4267 119.865 43.0563 120.515C52.2273 123.069 61.1275 130.781 67.7186 137.993C67.0776 137.692 66.201 137.475 65.56 137.173ZM66.8326 156.954C67.0682 156.869 67.0682 156.869 67.3037 156.785C67.1531 157.105 67.323 157.577 67.6435 157.727C68.2845 158.029 68.8405 158.095 69.4815 158.397C67.041 159.01 64.9209 159.774 62.7351 161.094C58.2674 159.774 66.1259 157.209 66.8326 156.954ZM86.9277 162.496C81.8767 163.251 76.8257 164.006 71.5199 164.054C71.2844 164.138 67.8631 163.507 65.5539 163.008C68.4191 163.573 71.7363 163.177 74.5822 162.95C78.7759 162.771 82.9696 162.591 87.1632 162.411C87.1632 162.411 86.9277 162.496 86.9277 162.496ZM97.6514 160.496C95.041 160.638 92.6661 160.695 90.2912 160.752C84.9855 160.799 79.6797 160.847 74.3082 161.451C70.9911 161.847 68.0602 161.838 64.9594 161.358C66.7589 160.443 68.9639 159.915 70.9334 159.471C71.6401 159.217 72.4317 159.198 73.2233 159.179C81.1123 161.13 89.7352 160.686 98.0376 160.091C98.5936 160.157 99.1497 160.223 99.7058 160.289C98.9141 160.308 98.2074 160.562 97.6514 160.496ZM96.9719 158.611C89.1022 157.452 80.7613 156.463 72.9493 157.68C72.0727 157.463 71.1961 157.246 69.9991 156.879C71.1961 157.246 76.8689 156.001 78.9233 155.793C79.2437 155.944 79.7149 155.774 80.0354 155.925C86.5382 156.245 92.8247 157.442 99.0263 158.403C98.2347 158.422 97.528 158.677 96.9719 158.611ZM90.9421 181.023C93.881 178.1 100.28 177.392 105.5 177.109C104.323 177.533 102.824 177.807 101.647 178.231C98.8198 179.25 93.4676 180.646 90.1889 182.626C90.0191 182.155 90.3203 181.513 90.9421 181.023ZM109.122 182.728C106.446 183.426 103.534 184.209 100.773 184.671C102.422 184.077 104.071 183.483 105.485 182.973C109.725 181.445 113.88 179.682 117.95 177.683C115.228 179.729 112.42 181.539 109.122 182.728ZM108.508 180.286C104.353 182.049 100.113 183.577 95.6181 184.398C95.3826 184.483 94.9114 184.653 94.6759 184.738C93.5638 184.606 92.7721 184.625 92.1312 184.323C92.9885 183.748 94.9387 182.512 96.8232 181.833C103.013 179.07 109.157 177.655 115.707 176.627C116.178 176.457 116.734 176.523 117.205 176.353C114.463 177.607 111.571 179.182 108.508 180.286ZM148.677 128.528C152.441 136.759 153.247 147.121 152.432 155.937C151.991 160.623 150.454 159.312 149.134 157.125C148.86 155.626 148.736 153.806 148.462 152.307C148.698 152.222 148.849 151.902 148.999 151.581C148.725 150.082 148.81 150.318 148.301 148.903C148.216 148.668 147.895 148.517 147.895 148.517C147.725 148.045 147.555 147.574 147.621 147.018C146.753 143.869 146.27 140.314 146.344 136.825C146.853 138.24 147.043 139.503 147.297 140.21C148.845 145.245 149.602 150.299 151.3 155.013C151.47 155.484 152.413 155.145 152.243 154.673C150.552 147.027 149.653 139.361 146.313 132.309C146.294 131.517 146.36 130.961 146.576 130.084C146.839 127.859 147.121 126.426 147.422 125.784C147.441 126.576 148.017 127.434 148.677 128.528Z" fill="#C59C85"/>
</svg>
