<svg width="220" height="322" viewBox="0 0 220 322" fill="none" xmlns="http://www.w3.org/2000/svg">
<path d="M188.551 171.824C188.137 171.575 187.806 171.658 187.474 171.741C187.06 171.492 186.314 171.325 185.734 171.822C184.159 173.977 182.667 176.463 181.588 179.198C181.257 179.28 180.925 179.363 180.677 179.777C175.369 189.556 177.184 208.128 183.311 219.988C183.307 228.444 184.049 237.066 187.361 244.696C182.143 237.894 176.677 231.506 171.46 224.705C171.874 224.954 172.786 224.374 172.289 223.793C164.339 214.502 161.278 202.23 159.543 189.628C159.875 189.545 159.875 189.545 160.124 189.131C166.507 180.845 164.277 164.843 163.618 155.143C162.958 148.261 161.144 128.28 151.864 126.367C149.13 126.697 147.638 127.773 146.394 129.845L145.98 129.596C145.234 129.43 144.571 129.595 144.405 130.341C142.828 136.724 144.06 164.248 151.098 174.119C151.842 179.923 153.911 185.396 157.306 189.129C158.959 199.99 161.357 211.018 167.071 219.81C162.516 214.252 158.292 208.612 154.069 202.971C154.318 202.557 154.235 202.225 154.152 201.894C149.017 196.833 146.452 189.37 144.052 182.57C142.976 179.668 142.149 176.351 141.404 173.366C141.321 173.034 141.239 172.703 141.156 172.371C141.57 172.62 142.316 172.786 142.979 172.621C143.393 172.87 143.973 172.373 144.222 171.959C144.555 167.648 142.652 162.838 137.763 163C137.431 163.083 136.851 163.58 136.934 163.912C136.518 166.481 137.346 169.798 139.831 171.292C141.402 177.594 142.891 184.973 145.871 191.276C142.227 186.548 138.583 181.82 135.271 177.009C131.463 168.799 128.235 160.092 125.588 150.888C125.919 150.805 126.168 150.391 126.334 149.645C125.674 142.763 124.931 135.55 123.94 128.751C123.858 125.601 123.528 122.865 123.447 119.714C122.458 105.869 118.735 92.3529 116.007 78.589C115.676 77.2623 113.936 77.3439 113.935 78.7533C114.183 79.7483 114.183 81.1577 114.431 82.1527C113.106 79.6647 111.781 77.1766 109.628 75.5999C102.919 69.8748 103.573 90.8498 103.821 91.8449C105.719 109.339 112.505 129.489 121.613 144.833C123.846 153.788 126.992 162.164 130.385 170.125C129.723 168.881 128.729 167.719 128.067 166.475C119.206 153.536 110.677 140.514 101.817 127.575C99.2516 120.112 96.9349 112.234 94.3695 104.771C94.1219 102.367 93.5429 100.045 93.378 97.9723C93.4608 98.304 93.6262 98.9673 94.0404 99.2163C94.9503 102.865 95.8602 106.513 96.8528 110.493C97.1837 111.82 99.504 111.241 99.1731 109.915C98.6768 107.925 98.1805 105.934 97.6842 103.944C95.8644 96.6476 93.7958 89.7651 91.3131 82.6337C89.9063 78.4046 87.9198 73.2631 85.6019 68.2044C83.6994 60.5759 81.4654 53.0301 76.9111 46.0629C76.3315 45.1506 75.0883 45.8129 75.3365 46.8079C75.9155 49.1297 76.5773 51.783 77.4878 54.0221C73.9267 49.6257 69.8681 46.0579 65.2287 44.3965C64.4831 44.2302 63.8201 44.3955 63.6541 45.1415C62.2419 53.5967 66.9616 61.2272 71.1845 68.277C77.6431 78.6446 82.1122 90.9175 90.643 99.7113C91.4707 101.619 91.967 103.609 92.7948 105.516C92.9603 106.179 93.7059 106.346 94.0374 106.263C95.8578 112.151 97.6782 118.038 99.4159 123.594C93.4536 115.216 87.1598 106.921 80.6173 99.041C81.0315 99.29 81.6117 98.793 81.1148 98.2123C79.5414 96.1386 77.305 94.2302 75.0686 92.3218C69.1885 85.6853 63.391 79.3806 56.9306 73.2411C57.5936 73.0757 57.4281 72.4124 57.014 72.1634C56.2683 71.9971 55.8541 71.7481 55.1085 71.5817C54.6943 71.3327 54.6115 71.001 54.1974 70.752C54.4461 70.3377 54.3634 70.006 54.2807 69.6743C42.9351 55.241 26.7848 38.483 6.6514 35.4012C6.23722 35.1522 5.73971 35.9809 5.90515 36.6443C6.23602 37.971 6.89836 39.215 7.56071 40.459C5.40645 40.2917 3.66638 40.3733 1.67756 40.8693C1.34609 40.952 1.09734 41.3663 1.18006 41.698C7.05425 62.4281 34.5603 69.6603 53.6159 74.0678C58.3369 78.8795 63.0578 83.6913 67.4472 88.5857C63.3053 86.0957 58.6659 84.4343 54.2747 83.7679C53.8605 83.5189 53.7778 83.1873 53.3636 82.9383C51.6241 81.6106 48.3928 81.3596 48.0601 84.2609C47.8941 85.007 47.9768 85.3386 48.1422 86.002C47.8107 86.0846 47.8935 86.4163 47.9762 86.748C47.9762 86.748 48.3076 86.6653 48.3904 86.997C49.1354 88.5727 50.4607 89.6514 52.2008 89.5697C52.5323 89.4871 52.781 89.0727 52.3668 88.8237C51.9526 88.5747 51.5384 88.3257 51.0415 87.745C52.1187 87.8287 53.1958 87.9124 53.776 87.4154C54.7704 87.1673 55.2679 86.3387 55.1025 85.6753C60.7363 87.0887 66.2868 89.5798 71.3397 92.8995C79.2902 102.19 86.5778 111.647 93.6166 121.517C78.1262 111.641 62.4752 89.8258 41.7586 94.2878C41.4271 94.3705 41.4271 94.3705 41.4271 94.3705C40.1012 94.7011 38.6926 94.7001 37.118 95.4451C36.4551 95.6105 36.289 96.3565 36.7032 96.6055C41.7538 105.563 51.198 109.549 60.4768 112.872C70.9154 116.61 89.9723 118.198 97.0944 126.991C97.5913 127.572 98.1715 127.075 98.0888 126.743C104.051 135.121 109.599 143.249 115.23 151.709C113.408 150.05 111.668 148.722 109.846 147.063C106.284 144.076 101.149 140.424 96.0119 139.592C94.9359 136.689 89.3022 135.276 87.4782 137.845C86.8979 138.342 87.0634 139.005 86.8146 139.419C86.8146 139.419 86.8146 139.419 86.8973 139.751C86.6474 142.984 89.7949 145.722 92.7781 144.978C94.7669 144.482 96.1761 143.074 96.4255 141.25C104.131 142.499 112.165 149.303 118.045 155.939C120.778 159.838 123.511 163.736 125.995 168.049C141.066 190.361 157.96 211.513 174.854 232.666C171.872 230.591 168.724 229.262 165.493 227.602C165.41 227.27 165.41 227.27 165.328 226.939C163.754 226.274 162.511 225.527 160.937 224.863C160.854 224.531 161.103 224.117 160.772 224.2C157.127 222.29 154.808 218.641 152.572 215.323C151.496 213.83 150.751 212.254 150.006 210.679L150.42 210.928C150.834 211.177 151.497 211.011 151.663 210.265C152.078 207.696 150.672 203.466 147.44 204.625C146.445 204.873 145.699 206.116 145.616 207.194C145.698 208.935 147.106 210.345 148.348 211.092C149.176 212.999 150.335 214.824 150.915 215.736C151.66 217.312 152.819 219.137 154.227 220.547C145.116 213.66 137.911 204.535 131.452 195.577L131.7 195.163C133.11 192.345 130.792 188.695 128.307 187.201C127.064 186.454 125.324 186.536 124.081 187.198C121.595 188.523 123.002 191.343 123.498 193.333C123.912 194.991 125.403 196.733 127.391 196.237C127.391 196.237 127.391 196.237 127.723 196.155C128.551 196.653 129.38 197.151 130.291 196.571C137.33 206.442 145.197 216.81 155.635 223.367C150.167 221.207 144.782 219.38 139.397 217.552C139.646 217.138 139.563 216.806 139.231 216.889C138.486 216.722 137.74 216.556 136.663 216.472C135.503 216.057 134.343 215.642 133.515 215.144C129.538 213.317 125.562 211.49 121.834 209.249C118.024 205.267 114.463 200.871 111.565 196.309C111.483 195.977 111.483 195.977 111.4 195.646C105.272 186.605 99.9734 176.653 92.934 168.191L92.5198 167.942C89.7871 164.044 86.4742 160.643 83.0786 156.909C82.5817 156.329 82.0014 156.826 81.7527 157.24C80.5101 156.493 79.2676 155.746 78.025 154.999C77.6108 154.75 77.0306 155.247 76.7818 155.661C72.7976 172.156 97.0681 189.003 109.411 196.142C112.061 199.708 114.628 202.943 117.527 206.096C105.847 198.792 95.162 189.831 83.2333 182.941C83.2333 182.941 83.2333 182.941 83.1505 182.61C74.5389 169.256 58.3891 151.089 41.4865 149.667C40.7409 149.501 39.9119 150.412 40.4088 150.993C41.0712 152.237 41.7335 153.481 42.3958 154.725C41.236 154.31 40.0762 153.894 38.999 153.811C37.5898 155.219 36.7609 156.13 36.9263 156.794C42.1411 169.233 59.7007 184.583 75.1125 184.262C76.3551 185.009 77.6804 186.088 79.2544 186.752C80.0828 187.25 81.326 186.588 81.0778 185.593C81.492 185.842 81.8235 185.759 82.1549 185.676C95.409 193.645 107.585 202.938 120.508 210.989C120.508 210.989 120.508 210.989 120.591 211.321C120.591 211.321 120.591 211.321 120.922 211.238C121.75 211.736 122.993 212.483 123.821 212.981C124.236 213.23 125.064 213.728 125.478 213.977C125.064 213.728 124.318 213.562 123.904 213.313C114.046 207.668 103.94 202.438 94.8282 195.551C94.414 195.302 93.8337 195.799 94.3307 196.38C100.626 201.856 107.832 206.752 115.205 210.903C114.791 210.654 114.459 210.736 114.045 210.487C113.299 210.321 112.885 210.072 112.14 209.906C95.7357 204.837 76.5973 200.098 64.3299 210.203C63.7497 210.7 63.9151 211.363 64.3293 211.612C65.2404 212.442 66.0688 212.94 66.8972 213.438C66.5657 213.521 66.5657 213.521 66.2342 213.604C65.5713 213.769 65.8194 214.764 66.2336 215.013C82.0561 223.397 101.53 219.598 119.925 218.533C121.665 218.451 123.819 218.619 125.559 218.537C125.89 218.454 125.89 218.454 126.222 218.372C126.968 218.538 127.962 218.29 128.708 218.456C130.282 219.121 131.856 219.785 133.098 220.532C133.513 220.781 134.01 219.952 133.596 219.703C132.767 219.205 132.353 218.956 131.525 218.458C132.188 218.293 132.602 218.542 133.265 218.377C136.496 220.037 139.975 221.283 143.206 222.944C138.317 223.106 133.014 224.429 128.787 227.244C128.704 226.913 128.373 226.995 128.29 226.664C126.633 225.668 124.313 226.246 123.318 227.904C122.074 229.975 123.73 232.381 125.967 232.88C126.299 232.797 126.547 232.383 126.465 232.051C125.885 231.139 124.56 230.06 124.975 228.9C125.472 228.071 126.384 227.491 127.212 227.989C126.963 228.404 126.301 228.569 126.052 228.983C125.14 229.563 126.134 230.724 127.046 230.145C127.294 229.73 127.957 229.565 128.206 229.151C128.537 230.477 128.536 231.887 128.039 232.715C126.795 234.787 123.482 232.795 122.488 231.634C121.991 231.053 121.162 231.964 121.659 232.545C123.149 234.287 127.209 236.445 129.115 234.208C130.193 232.883 130.277 230.396 129.449 228.488C135.251 224.928 141.797 224.352 148.342 225.186C153.064 227.179 157.704 228.84 162.094 230.916C156.459 233.73 150.741 236.213 145.022 238.696C143.614 238.695 142.205 238.694 140.796 238.693C131.599 238.521 122.651 237.934 113.702 238.757C109.559 239.086 100.277 242.81 99.4466 246.54C99.1152 246.623 98.8664 247.037 98.535 247.12C97.9547 247.617 98.1202 248.28 98.5344 248.529C99.9424 249.939 102.262 250.77 104.416 250.937C104.416 250.937 104.748 250.855 104.83 251.186C120.157 256.171 134.495 248.72 147.01 241.019C147.756 241.186 148.419 241.02 149.164 241.187C150.241 241.27 150.325 240.193 149.745 239.28C150.325 238.783 151.32 238.535 151.9 238.038C155.629 236.051 159.69 233.981 163.337 231.663C168.888 234.154 174.189 237.059 179.325 240.711C191.085 255.393 202.844 270.075 214.355 285.172C214.935 286.084 216.095 285.09 215.516 284.178C207.815 273.063 199.451 262.114 191.169 251.496C186.449 243.866 185.459 235.658 185.213 227.616C185.876 228.86 186.621 230.436 187.615 231.597C188.112 232.178 189.189 232.261 189.355 231.515C192.92 226.046 194 219.083 194.003 212.036C194.751 206.565 194.92 200.182 194.176 194.378C194.926 186.088 193.687 176.885 188.551 171.824ZM148.879 131.339C150.951 129.765 154.265 131.757 156.335 135.821C158.653 140.88 160.141 146.85 160.885 152.654C159.808 151.161 158.814 149.999 157.075 148.672C156.992 148.34 156.661 148.423 156.661 148.423C155.255 142.784 153.435 135.487 148.879 131.339ZM148.373 151.899C147.464 146.841 146.804 141.369 147.303 136.312C147.386 135.234 147.552 134.488 147.718 133.742C148.795 135.235 150.203 136.646 150.368 137.309C151.693 139.797 152.437 142.782 153.431 145.353C153.844 147.011 154.258 148.67 154.671 150.328C152.515 154.389 151.353 159.611 150.936 164.999C149.861 160.688 149.366 155.879 148.373 151.899ZM153.917 171.302C153.752 169.229 153.756 159.364 155.166 155.137C155.662 158.536 156.075 161.604 156.157 164.754C156.322 166.827 155.989 169.729 155.573 172.298C155.242 172.381 154.993 172.795 155.076 173.127C155.241 173.79 155.075 174.536 155.324 175.531C155.324 175.531 155.324 175.531 155.406 175.863C154.992 175.614 154.578 175.365 154.246 175.448C154.413 173.292 154.082 171.966 153.917 171.302ZM157.808 178.435C160.049 170.478 158.644 160.611 157.156 153.232C157.902 153.398 158.481 154.31 159.64 156.135C160.385 157.711 160.882 159.701 161.295 161.359C161.46 163.432 161.376 165.919 161.541 167.991L161.624 168.323C161.456 173.297 160.211 178.188 159.878 182.498C159.961 182.83 159.961 182.83 160.043 183.162C159.711 184.654 159.214 185.483 158.882 185.565C158.717 183.492 158.387 180.756 157.808 178.435ZM140.991 170.298C141.405 170.547 141.654 170.133 141.571 169.801C141.406 169.138 140.992 168.889 140.826 168.225C140.744 167.894 139.998 167.727 139.749 168.142C139.418 168.224 139.5 168.556 139.169 168.639C138.921 167.644 138.341 166.731 138.425 165.654C140.993 166.07 141.655 168.723 141.902 171.128C141.157 170.962 140.411 170.795 139.914 170.214C140.163 169.8 140.163 169.8 140.991 170.298ZM119.883 120.955C120.626 126.759 121.287 132.231 122.03 138.035C120.872 133.392 120.046 128.666 119.219 123.94C119.386 121.784 119.552 119.629 119.719 117.473C119.387 118.965 119.635 119.96 119.883 120.955ZM105.395 92.5092C105.064 91.1825 105.817 74.4365 109.461 79.1646C111.034 81.2384 111.778 84.2234 112.689 86.4625C114.344 91.6866 115.585 96.6617 116.577 102.051C117.072 106.86 117.567 111.669 117.648 116.228C117.648 116.228 117.648 116.228 117.731 116.56C116.491 108.766 115.169 100.641 114.012 93.1786C113.846 92.5152 112.769 92.4316 112.603 93.1776C112.769 93.8409 112.685 94.9186 112.851 95.582C111.776 91.2702 111.032 86.8758 110.288 82.4814C110.04 81.4864 108.631 81.4853 108.548 82.563C110.282 95.1656 113.674 107.355 115.741 119.875C116.732 126.674 118.055 133.39 119.709 140.023C112.258 125.676 107.543 108.18 105.395 92.5092ZM79.7961 81.6306C75.1597 72.9224 69.2801 64.8766 65.6382 55.9204C61.0029 44.3935 73.6756 55.6774 74.8348 57.5021C76.9051 60.1565 78.7267 63.2253 80.2169 66.3767C82.1206 71.1864 84.0243 75.9962 85.8453 80.4743C87.3348 85.035 88.4102 89.3468 89.5682 93.9902C88.8231 92.4145 88.0781 90.8388 87.333 89.2631C86.9194 87.6048 86.1744 86.0291 85.8435 84.7024C82.4509 73.9225 77.8978 64.1366 70.1127 55.5091C69.6158 54.9284 68.7041 55.5081 68.8695 56.1714C69.1171 58.5758 68.9517 57.9125 69.8622 60.1515C70.0276 60.8149 71.3535 60.4842 71.188 59.8209C73.0108 60.0709 74.4188 61.4812 74.6664 63.8856C78.3929 68.9454 80.296 75.1645 82.4479 80.9693C82.6133 81.6326 82.696 81.9643 82.8615 82.6276C82.53 82.7103 82.0325 83.539 82.4467 83.788C81.7843 82.544 85.1782 90.5051 86.9165 94.6516C87.0819 95.3149 87.2473 95.9783 87.7442 96.5589C84.5146 92.0798 82.0313 86.3577 79.7961 81.6306ZM38.3761 59.5488C37.9619 59.2998 37.7131 59.7141 37.7959 60.0458C38.2101 60.2948 38.2928 60.6265 38.707 60.8755C32.0799 56.8914 25.2869 53.6533 18.9914 49.5865C17.7488 48.8395 14.4359 45.4381 11.9513 42.5347C20.6505 44.9451 28.8509 51.0029 35.0632 56.1474C38.1279 58.5538 40.8612 61.0428 43.6772 63.8635C41.9377 62.5358 40.1156 60.8765 38.3761 59.5488ZM46.4099 67.762C43.1791 66.1016 40.031 64.7729 36.8003 63.1125C37.2144 63.3615 37.4632 62.9472 37.3805 62.6155C40.6113 64.2759 43.5106 66.0189 46.4099 67.762ZM9.30197 37.5586C16.2616 38.6413 22.7226 43.3714 28.2725 47.2718C31.2546 49.3466 34.402 52.0846 37.1353 54.5737C29.1009 47.7699 19.906 41.9601 10.7921 40.71C9.30137 38.968 8.22484 37.4749 9.30197 37.5586ZM29.4252 64.5995C23.5432 62.1911 18.2415 59.2857 13.1058 55.6343C11.2836 53.9749 -3.21117 41.0317 7.56011 41.8684C7.89158 41.7857 8.30577 42.0347 8.30577 42.0347C11.7008 47.1771 16.5877 51.2429 22.3864 54.729C22.3864 54.729 22.3864 54.729 22.0549 54.8116C21.8895 54.1483 21.558 54.231 21.1438 53.982C19.0729 52.7369 17.3334 51.4092 15.3452 50.4959C14.1026 49.7489 13.5218 51.6552 14.6816 52.0706C16.8353 53.6473 19.2377 54.8096 22.0543 56.221C22.9654 57.0507 24.1253 57.466 24.6222 58.0467C33.3201 63.2758 42.5156 67.6763 51.3796 72.1594C43.8403 70.1643 36.467 67.4233 29.4252 64.5995ZM53.7766 86.006C53.5279 86.4203 52.4507 86.3367 52.1193 86.4193C51.4563 86.5847 50.3792 86.501 49.6335 86.3347C49.5508 86.003 49.4681 85.6713 49.3854 85.3396C49.386 83.9303 50.0489 83.7649 51.126 83.8486C50.8773 84.2629 50.7113 85.009 51.4569 85.1753C52.2026 85.3416 52.8655 85.1763 53.6112 85.3426C53.6939 85.6743 53.7766 86.006 53.7766 86.006ZM46.1456 104.82C43.5778 102.994 41.3414 101.086 39.3538 98.7629C38.4427 97.9332 39.3544 97.3535 41.0944 97.2718C41.8389 100.257 43.4951 102.662 46.1456 104.82ZM79.6152 117.611C78.8695 117.444 77.7096 117.029 76.964 116.863L76.6325 116.945C76.5498 116.614 76.4671 116.282 76.1356 116.365C70.6678 114.205 64.8686 112.129 58.9867 109.72C55.0102 107.893 43.2475 100.258 44.3258 97.5229C48.6343 97.8575 54.1854 98.9392 54.5996 99.1882C60.4816 101.597 66.0314 105.497 71.1671 109.148C73.6523 110.643 75.8887 112.551 78.125 114.459C70.0067 110.142 61.6396 106.24 54.1842 101.758C53.77 101.509 52.9411 102.42 53.438 103.001C61.9705 107.567 70.6684 112.796 79.6152 117.611ZM92.0336 141.993C92.3651 141.911 93.0281 141.745 93.4422 141.994C93.2762 142.74 92.696 143.237 92.033 143.403C91.6189 143.154 91.1219 142.573 90.625 141.992C90.1281 141.411 89.5479 141.908 90.0448 142.489L90.1275 142.821C89.3819 142.655 88.9677 142.406 88.4708 141.825C87.9739 141.244 87.643 139.917 88.5547 139.338C89.4664 138.758 91.3719 139.34 92.283 140.169C91.9515 140.252 91.9515 140.252 91.62 140.335C90.9571 140.5 91.0392 142.241 92.0336 141.993ZM147.107 207.526L147.438 207.444C149.013 206.699 149.509 208.689 149.509 210.098C149.095 209.849 149.095 209.849 148.68 209.6C148.598 209.268 148.515 208.937 148.101 208.688C148.018 208.356 147.687 208.439 147.355 208.521C147.521 207.775 147.19 207.858 147.107 207.526ZM127.227 192.755C127.31 193.087 127.724 193.336 127.807 193.668C127.807 193.668 127.475 193.75 127.558 194.082C127.309 194.496 127.06 194.911 126.398 195.076C125.901 194.495 125.404 193.915 124.907 193.334L125.238 193.251C125.487 192.837 125.736 192.423 125.985 192.008C125.985 192.008 126.316 191.926 126.233 191.594C127.062 192.092 127.144 192.424 127.227 192.755ZM124.741 192.671C124.659 192.339 124.576 192.007 124.162 191.758C124.162 191.758 124.079 191.427 123.748 191.509C123.499 190.514 123.665 189.768 124.246 189.271C125.157 188.691 126.234 188.775 127.063 189.273C127.974 190.103 128.968 191.264 129.299 192.591C129.299 192.591 128.884 192.342 128.636 192.756C129.299 192.591 129.464 193.254 128.884 192.342C128.802 192.01 128.388 191.761 128.305 191.43C127.808 190.849 127.642 190.186 126.897 190.019C125.572 188.94 124.742 191.261 124.741 192.671ZM85.6434 165.782C86.1403 166.363 86.6372 166.943 86.6372 166.943C89.536 170.096 91.8545 173.745 94.173 177.395C95.2495 178.888 95.9946 180.463 97.0711 181.956C93.0131 176.979 88.8724 171.67 85.6434 165.782ZM100.796 189.835C98.2286 188.009 95.578 185.852 93.2589 183.612C86.5498 177.887 79.0128 170.254 77.4424 161.134C77.1121 158.397 79.2658 159.974 81.9163 162.132C84.8948 172.662 94.0885 181.291 100.796 189.835ZM107.506 195.56C108.085 196.472 106.098 194.15 104.275 192.49C104.607 192.408 104.856 191.993 104.69 191.33C104.607 190.998 104.607 190.998 104.525 190.666C105.352 192.574 106.429 194.067 107.506 195.56ZM39.6602 157.873C39.8256 158.537 41.8138 159.45 43.8021 160.363C50.7582 169.902 61.1956 176.459 71.4676 182.353C58.5426 179.939 45.5385 168.738 39.6602 157.873ZM47.6958 161.858C49.2698 162.523 50.0982 163.021 50.5124 163.27C54.3228 165.843 57.8845 168.83 61.4461 171.817C63.6825 173.725 66.3331 175.882 68.6522 178.122C65.7529 176.379 62.4393 174.387 59.4573 172.313C55.15 169.159 51.1741 165.923 47.6958 161.858ZM75.2798 180.697C65.4232 172.234 55.9813 162.61 44.1347 157.462C44.052 157.13 44.052 157.13 43.6378 156.881C39.249 150.578 43.5563 153.731 47.0358 154.977C59.1312 159.711 70.1465 171.408 78.0964 182.109C77.268 181.611 76.1082 181.195 75.2798 180.697ZM74.274 207.723C74.6055 207.64 74.6055 207.64 74.937 207.558C74.6882 207.972 74.8536 208.635 75.2678 208.884C76.0962 209.382 76.8419 209.549 77.6702 210.047C74.2728 210.542 71.2896 211.286 68.1403 212.776C62.2584 210.367 73.2796 207.971 74.274 207.723ZM100.784 218.022C93.8242 218.349 86.8639 218.675 79.6555 218.007C79.324 218.09 74.7673 216.76 71.702 215.763C75.513 216.926 80.0703 216.847 83.9646 216.932C89.6817 217.268 95.3988 217.604 101.116 217.939C101.116 217.939 100.784 218.022 100.784 218.022ZM115.617 216.789C112.054 216.621 108.822 216.37 105.591 216.119C98.3826 215.45 91.1742 214.782 83.7998 214.86C79.2425 214.939 75.2654 214.522 71.123 213.441C73.692 212.448 76.758 212.036 79.4924 211.706C80.4868 211.458 81.564 211.542 82.6411 211.626C93.0797 215.364 104.845 215.952 116.197 216.292C116.943 216.458 117.688 216.625 118.434 216.791C117.357 216.707 116.362 216.955 115.617 216.789ZM114.955 214.136C104.433 211.475 93.2482 208.98 82.4763 209.553C81.3164 209.137 80.1566 208.722 78.5825 208.058C80.1566 208.722 88.0285 207.816 90.8457 207.818C91.2599 208.067 91.9229 207.901 92.3371 208.15C101.12 209.483 109.487 211.976 117.772 214.138C116.695 214.054 115.701 214.302 114.955 214.136ZM103.674 243.724C108.067 240.162 116.85 240.086 123.975 240.422C122.318 240.836 120.247 241 118.589 241.413C114.612 242.406 107.154 243.561 102.43 245.796C102.264 245.133 102.762 244.304 103.674 243.724ZM128.115 248.55C124.386 249.128 120.326 249.788 116.514 250.034C118.834 249.455 121.155 248.877 123.143 248.381C129.11 246.893 134.994 245.073 140.795 242.922C136.816 245.323 132.756 247.393 128.115 248.55ZM127.619 245.151C121.735 246.97 115.769 248.458 109.554 248.951C109.223 249.034 108.56 249.199 108.229 249.282C106.737 248.949 105.66 248.866 104.832 248.368C106.075 247.705 108.893 246.298 111.544 245.637C120.329 242.741 128.864 241.669 137.895 241.179C138.558 241.013 139.304 241.18 139.967 241.014C136.072 242.338 131.928 244.076 127.619 245.151ZM189.294 180.447C193.266 192.139 192.928 206.315 190.603 218.169C189.358 224.469 187.453 222.478 185.963 219.326C185.798 217.253 185.882 214.766 185.717 212.694C186.048 212.611 186.297 212.197 186.546 211.782C186.381 209.71 186.464 210.041 185.967 208.051C185.885 207.72 185.471 207.471 185.471 207.471C185.305 206.807 185.14 206.144 185.306 205.398C184.562 201.004 184.398 196.112 184.98 191.387C185.477 193.377 185.559 195.118 185.807 196.113C187.212 203.161 187.541 210.125 189.195 216.758C189.361 217.422 190.687 217.091 190.521 216.428C189.283 205.815 189.122 195.286 185.563 185.253C185.646 184.175 185.812 183.429 186.227 182.268C186.891 179.284 187.472 177.378 187.969 176.549C187.886 177.627 188.548 178.871 189.294 180.447Z" fill="#F7C9C9"/>
</svg>
